G04 #@! TF.GenerationSoftware,KiCad,Pcbnew,5.1.5+dfsg1-2build2*
G04 #@! TF.CreationDate,2022-05-11T22:38:19-07:00*
G04 #@! TF.ProjectId,ProgramCounter,50726f67-7261-46d4-936f-756e7465722e,rev?*
G04 #@! TF.SameCoordinates,Original*
G04 #@! TF.FileFunction,Soldermask,Top*
G04 #@! TF.FilePolarity,Negative*
%FSLAX46Y46*%
G04 Gerber Fmt 4.6, Leading zero omitted, Abs format (unit mm)*
G04 Created by KiCad (PCBNEW 5.1.5+dfsg1-2build2) date 2022-05-11 22:38:19*
%MOMM*%
%LPD*%
G04 APERTURE LIST*
%ADD10C,0.100000*%
G04 APERTURE END LIST*
D10*
G36*
X100913512Y-87303927D02*
G01*
X101062812Y-87333624D01*
X101226784Y-87401544D01*
X101374354Y-87500147D01*
X101499853Y-87625646D01*
X101598456Y-87773216D01*
X101666376Y-87937188D01*
X101701000Y-88111259D01*
X101701000Y-88288741D01*
X101666376Y-88462812D01*
X101598456Y-88626784D01*
X101499853Y-88774354D01*
X101374354Y-88899853D01*
X101226784Y-88998456D01*
X101062812Y-89066376D01*
X100913512Y-89096073D01*
X100888742Y-89101000D01*
X100711258Y-89101000D01*
X100686488Y-89096073D01*
X100537188Y-89066376D01*
X100373216Y-88998456D01*
X100225646Y-88899853D01*
X100100147Y-88774354D01*
X100001544Y-88626784D01*
X99933624Y-88462812D01*
X99899000Y-88288741D01*
X99899000Y-88111259D01*
X99933624Y-87937188D01*
X100001544Y-87773216D01*
X100100147Y-87625646D01*
X100225646Y-87500147D01*
X100373216Y-87401544D01*
X100537188Y-87333624D01*
X100686488Y-87303927D01*
X100711258Y-87299000D01*
X100888742Y-87299000D01*
X100913512Y-87303927D01*
G37*
G36*
X55193512Y-87303927D02*
G01*
X55342812Y-87333624D01*
X55506784Y-87401544D01*
X55654354Y-87500147D01*
X55779853Y-87625646D01*
X55878456Y-87773216D01*
X55946376Y-87937188D01*
X55981000Y-88111259D01*
X55981000Y-88288741D01*
X55946376Y-88462812D01*
X55878456Y-88626784D01*
X55779853Y-88774354D01*
X55654354Y-88899853D01*
X55506784Y-88998456D01*
X55342812Y-89066376D01*
X55193512Y-89096073D01*
X55168742Y-89101000D01*
X54991258Y-89101000D01*
X54966488Y-89096073D01*
X54817188Y-89066376D01*
X54653216Y-88998456D01*
X54505646Y-88899853D01*
X54380147Y-88774354D01*
X54281544Y-88626784D01*
X54213624Y-88462812D01*
X54179000Y-88288741D01*
X54179000Y-88111259D01*
X54213624Y-87937188D01*
X54281544Y-87773216D01*
X54380147Y-87625646D01*
X54505646Y-87500147D01*
X54653216Y-87401544D01*
X54817188Y-87333624D01*
X54966488Y-87303927D01*
X54991258Y-87299000D01*
X55168742Y-87299000D01*
X55193512Y-87303927D01*
G37*
G36*
X57733512Y-87303927D02*
G01*
X57882812Y-87333624D01*
X58046784Y-87401544D01*
X58194354Y-87500147D01*
X58319853Y-87625646D01*
X58418456Y-87773216D01*
X58486376Y-87937188D01*
X58521000Y-88111259D01*
X58521000Y-88288741D01*
X58486376Y-88462812D01*
X58418456Y-88626784D01*
X58319853Y-88774354D01*
X58194354Y-88899853D01*
X58046784Y-88998456D01*
X57882812Y-89066376D01*
X57733512Y-89096073D01*
X57708742Y-89101000D01*
X57531258Y-89101000D01*
X57506488Y-89096073D01*
X57357188Y-89066376D01*
X57193216Y-88998456D01*
X57045646Y-88899853D01*
X56920147Y-88774354D01*
X56821544Y-88626784D01*
X56753624Y-88462812D01*
X56719000Y-88288741D01*
X56719000Y-88111259D01*
X56753624Y-87937188D01*
X56821544Y-87773216D01*
X56920147Y-87625646D01*
X57045646Y-87500147D01*
X57193216Y-87401544D01*
X57357188Y-87333624D01*
X57506488Y-87303927D01*
X57531258Y-87299000D01*
X57708742Y-87299000D01*
X57733512Y-87303927D01*
G37*
G36*
X60273512Y-87303927D02*
G01*
X60422812Y-87333624D01*
X60586784Y-87401544D01*
X60734354Y-87500147D01*
X60859853Y-87625646D01*
X60958456Y-87773216D01*
X61026376Y-87937188D01*
X61061000Y-88111259D01*
X61061000Y-88288741D01*
X61026376Y-88462812D01*
X60958456Y-88626784D01*
X60859853Y-88774354D01*
X60734354Y-88899853D01*
X60586784Y-88998456D01*
X60422812Y-89066376D01*
X60273512Y-89096073D01*
X60248742Y-89101000D01*
X60071258Y-89101000D01*
X60046488Y-89096073D01*
X59897188Y-89066376D01*
X59733216Y-88998456D01*
X59585646Y-88899853D01*
X59460147Y-88774354D01*
X59361544Y-88626784D01*
X59293624Y-88462812D01*
X59259000Y-88288741D01*
X59259000Y-88111259D01*
X59293624Y-87937188D01*
X59361544Y-87773216D01*
X59460147Y-87625646D01*
X59585646Y-87500147D01*
X59733216Y-87401544D01*
X59897188Y-87333624D01*
X60046488Y-87303927D01*
X60071258Y-87299000D01*
X60248742Y-87299000D01*
X60273512Y-87303927D01*
G37*
G36*
X62813512Y-87303927D02*
G01*
X62962812Y-87333624D01*
X63126784Y-87401544D01*
X63274354Y-87500147D01*
X63399853Y-87625646D01*
X63498456Y-87773216D01*
X63566376Y-87937188D01*
X63601000Y-88111259D01*
X63601000Y-88288741D01*
X63566376Y-88462812D01*
X63498456Y-88626784D01*
X63399853Y-88774354D01*
X63274354Y-88899853D01*
X63126784Y-88998456D01*
X62962812Y-89066376D01*
X62813512Y-89096073D01*
X62788742Y-89101000D01*
X62611258Y-89101000D01*
X62586488Y-89096073D01*
X62437188Y-89066376D01*
X62273216Y-88998456D01*
X62125646Y-88899853D01*
X62000147Y-88774354D01*
X61901544Y-88626784D01*
X61833624Y-88462812D01*
X61799000Y-88288741D01*
X61799000Y-88111259D01*
X61833624Y-87937188D01*
X61901544Y-87773216D01*
X62000147Y-87625646D01*
X62125646Y-87500147D01*
X62273216Y-87401544D01*
X62437188Y-87333624D01*
X62586488Y-87303927D01*
X62611258Y-87299000D01*
X62788742Y-87299000D01*
X62813512Y-87303927D01*
G37*
G36*
X65353512Y-87303927D02*
G01*
X65502812Y-87333624D01*
X65666784Y-87401544D01*
X65814354Y-87500147D01*
X65939853Y-87625646D01*
X66038456Y-87773216D01*
X66106376Y-87937188D01*
X66141000Y-88111259D01*
X66141000Y-88288741D01*
X66106376Y-88462812D01*
X66038456Y-88626784D01*
X65939853Y-88774354D01*
X65814354Y-88899853D01*
X65666784Y-88998456D01*
X65502812Y-89066376D01*
X65353512Y-89096073D01*
X65328742Y-89101000D01*
X65151258Y-89101000D01*
X65126488Y-89096073D01*
X64977188Y-89066376D01*
X64813216Y-88998456D01*
X64665646Y-88899853D01*
X64540147Y-88774354D01*
X64441544Y-88626784D01*
X64373624Y-88462812D01*
X64339000Y-88288741D01*
X64339000Y-88111259D01*
X64373624Y-87937188D01*
X64441544Y-87773216D01*
X64540147Y-87625646D01*
X64665646Y-87500147D01*
X64813216Y-87401544D01*
X64977188Y-87333624D01*
X65126488Y-87303927D01*
X65151258Y-87299000D01*
X65328742Y-87299000D01*
X65353512Y-87303927D01*
G37*
G36*
X67893512Y-87303927D02*
G01*
X68042812Y-87333624D01*
X68206784Y-87401544D01*
X68354354Y-87500147D01*
X68479853Y-87625646D01*
X68578456Y-87773216D01*
X68646376Y-87937188D01*
X68681000Y-88111259D01*
X68681000Y-88288741D01*
X68646376Y-88462812D01*
X68578456Y-88626784D01*
X68479853Y-88774354D01*
X68354354Y-88899853D01*
X68206784Y-88998456D01*
X68042812Y-89066376D01*
X67893512Y-89096073D01*
X67868742Y-89101000D01*
X67691258Y-89101000D01*
X67666488Y-89096073D01*
X67517188Y-89066376D01*
X67353216Y-88998456D01*
X67205646Y-88899853D01*
X67080147Y-88774354D01*
X66981544Y-88626784D01*
X66913624Y-88462812D01*
X66879000Y-88288741D01*
X66879000Y-88111259D01*
X66913624Y-87937188D01*
X66981544Y-87773216D01*
X67080147Y-87625646D01*
X67205646Y-87500147D01*
X67353216Y-87401544D01*
X67517188Y-87333624D01*
X67666488Y-87303927D01*
X67691258Y-87299000D01*
X67868742Y-87299000D01*
X67893512Y-87303927D01*
G37*
G36*
X70433512Y-87303927D02*
G01*
X70582812Y-87333624D01*
X70746784Y-87401544D01*
X70894354Y-87500147D01*
X71019853Y-87625646D01*
X71118456Y-87773216D01*
X71186376Y-87937188D01*
X71221000Y-88111259D01*
X71221000Y-88288741D01*
X71186376Y-88462812D01*
X71118456Y-88626784D01*
X71019853Y-88774354D01*
X70894354Y-88899853D01*
X70746784Y-88998456D01*
X70582812Y-89066376D01*
X70433512Y-89096073D01*
X70408742Y-89101000D01*
X70231258Y-89101000D01*
X70206488Y-89096073D01*
X70057188Y-89066376D01*
X69893216Y-88998456D01*
X69745646Y-88899853D01*
X69620147Y-88774354D01*
X69521544Y-88626784D01*
X69453624Y-88462812D01*
X69419000Y-88288741D01*
X69419000Y-88111259D01*
X69453624Y-87937188D01*
X69521544Y-87773216D01*
X69620147Y-87625646D01*
X69745646Y-87500147D01*
X69893216Y-87401544D01*
X70057188Y-87333624D01*
X70206488Y-87303927D01*
X70231258Y-87299000D01*
X70408742Y-87299000D01*
X70433512Y-87303927D01*
G37*
G36*
X98373512Y-87303927D02*
G01*
X98522812Y-87333624D01*
X98686784Y-87401544D01*
X98834354Y-87500147D01*
X98959853Y-87625646D01*
X99058456Y-87773216D01*
X99126376Y-87937188D01*
X99161000Y-88111259D01*
X99161000Y-88288741D01*
X99126376Y-88462812D01*
X99058456Y-88626784D01*
X98959853Y-88774354D01*
X98834354Y-88899853D01*
X98686784Y-88998456D01*
X98522812Y-89066376D01*
X98373512Y-89096073D01*
X98348742Y-89101000D01*
X98171258Y-89101000D01*
X98146488Y-89096073D01*
X97997188Y-89066376D01*
X97833216Y-88998456D01*
X97685646Y-88899853D01*
X97560147Y-88774354D01*
X97461544Y-88626784D01*
X97393624Y-88462812D01*
X97359000Y-88288741D01*
X97359000Y-88111259D01*
X97393624Y-87937188D01*
X97461544Y-87773216D01*
X97560147Y-87625646D01*
X97685646Y-87500147D01*
X97833216Y-87401544D01*
X97997188Y-87333624D01*
X98146488Y-87303927D01*
X98171258Y-87299000D01*
X98348742Y-87299000D01*
X98373512Y-87303927D01*
G37*
G36*
X93293512Y-87303927D02*
G01*
X93442812Y-87333624D01*
X93606784Y-87401544D01*
X93754354Y-87500147D01*
X93879853Y-87625646D01*
X93978456Y-87773216D01*
X94046376Y-87937188D01*
X94081000Y-88111259D01*
X94081000Y-88288741D01*
X94046376Y-88462812D01*
X93978456Y-88626784D01*
X93879853Y-88774354D01*
X93754354Y-88899853D01*
X93606784Y-88998456D01*
X93442812Y-89066376D01*
X93293512Y-89096073D01*
X93268742Y-89101000D01*
X93091258Y-89101000D01*
X93066488Y-89096073D01*
X92917188Y-89066376D01*
X92753216Y-88998456D01*
X92605646Y-88899853D01*
X92480147Y-88774354D01*
X92381544Y-88626784D01*
X92313624Y-88462812D01*
X92279000Y-88288741D01*
X92279000Y-88111259D01*
X92313624Y-87937188D01*
X92381544Y-87773216D01*
X92480147Y-87625646D01*
X92605646Y-87500147D01*
X92753216Y-87401544D01*
X92917188Y-87333624D01*
X93066488Y-87303927D01*
X93091258Y-87299000D01*
X93268742Y-87299000D01*
X93293512Y-87303927D01*
G37*
G36*
X103453512Y-87303927D02*
G01*
X103602812Y-87333624D01*
X103766784Y-87401544D01*
X103914354Y-87500147D01*
X104039853Y-87625646D01*
X104138456Y-87773216D01*
X104206376Y-87937188D01*
X104241000Y-88111259D01*
X104241000Y-88288741D01*
X104206376Y-88462812D01*
X104138456Y-88626784D01*
X104039853Y-88774354D01*
X103914354Y-88899853D01*
X103766784Y-88998456D01*
X103602812Y-89066376D01*
X103453512Y-89096073D01*
X103428742Y-89101000D01*
X103251258Y-89101000D01*
X103226488Y-89096073D01*
X103077188Y-89066376D01*
X102913216Y-88998456D01*
X102765646Y-88899853D01*
X102640147Y-88774354D01*
X102541544Y-88626784D01*
X102473624Y-88462812D01*
X102439000Y-88288741D01*
X102439000Y-88111259D01*
X102473624Y-87937188D01*
X102541544Y-87773216D01*
X102640147Y-87625646D01*
X102765646Y-87500147D01*
X102913216Y-87401544D01*
X103077188Y-87333624D01*
X103226488Y-87303927D01*
X103251258Y-87299000D01*
X103428742Y-87299000D01*
X103453512Y-87303927D01*
G37*
G36*
X105993512Y-87303927D02*
G01*
X106142812Y-87333624D01*
X106306784Y-87401544D01*
X106454354Y-87500147D01*
X106579853Y-87625646D01*
X106678456Y-87773216D01*
X106746376Y-87937188D01*
X106781000Y-88111259D01*
X106781000Y-88288741D01*
X106746376Y-88462812D01*
X106678456Y-88626784D01*
X106579853Y-88774354D01*
X106454354Y-88899853D01*
X106306784Y-88998456D01*
X106142812Y-89066376D01*
X105993512Y-89096073D01*
X105968742Y-89101000D01*
X105791258Y-89101000D01*
X105766488Y-89096073D01*
X105617188Y-89066376D01*
X105453216Y-88998456D01*
X105305646Y-88899853D01*
X105180147Y-88774354D01*
X105081544Y-88626784D01*
X105013624Y-88462812D01*
X104979000Y-88288741D01*
X104979000Y-88111259D01*
X105013624Y-87937188D01*
X105081544Y-87773216D01*
X105180147Y-87625646D01*
X105305646Y-87500147D01*
X105453216Y-87401544D01*
X105617188Y-87333624D01*
X105766488Y-87303927D01*
X105791258Y-87299000D01*
X105968742Y-87299000D01*
X105993512Y-87303927D01*
G37*
G36*
X108533512Y-87303927D02*
G01*
X108682812Y-87333624D01*
X108846784Y-87401544D01*
X108994354Y-87500147D01*
X109119853Y-87625646D01*
X109218456Y-87773216D01*
X109286376Y-87937188D01*
X109321000Y-88111259D01*
X109321000Y-88288741D01*
X109286376Y-88462812D01*
X109218456Y-88626784D01*
X109119853Y-88774354D01*
X108994354Y-88899853D01*
X108846784Y-88998456D01*
X108682812Y-89066376D01*
X108533512Y-89096073D01*
X108508742Y-89101000D01*
X108331258Y-89101000D01*
X108306488Y-89096073D01*
X108157188Y-89066376D01*
X107993216Y-88998456D01*
X107845646Y-88899853D01*
X107720147Y-88774354D01*
X107621544Y-88626784D01*
X107553624Y-88462812D01*
X107519000Y-88288741D01*
X107519000Y-88111259D01*
X107553624Y-87937188D01*
X107621544Y-87773216D01*
X107720147Y-87625646D01*
X107845646Y-87500147D01*
X107993216Y-87401544D01*
X108157188Y-87333624D01*
X108306488Y-87303927D01*
X108331258Y-87299000D01*
X108508742Y-87299000D01*
X108533512Y-87303927D01*
G37*
G36*
X111073512Y-87303927D02*
G01*
X111222812Y-87333624D01*
X111386784Y-87401544D01*
X111534354Y-87500147D01*
X111659853Y-87625646D01*
X111758456Y-87773216D01*
X111826376Y-87937188D01*
X111861000Y-88111259D01*
X111861000Y-88288741D01*
X111826376Y-88462812D01*
X111758456Y-88626784D01*
X111659853Y-88774354D01*
X111534354Y-88899853D01*
X111386784Y-88998456D01*
X111222812Y-89066376D01*
X111073512Y-89096073D01*
X111048742Y-89101000D01*
X110871258Y-89101000D01*
X110846488Y-89096073D01*
X110697188Y-89066376D01*
X110533216Y-88998456D01*
X110385646Y-88899853D01*
X110260147Y-88774354D01*
X110161544Y-88626784D01*
X110093624Y-88462812D01*
X110059000Y-88288741D01*
X110059000Y-88111259D01*
X110093624Y-87937188D01*
X110161544Y-87773216D01*
X110260147Y-87625646D01*
X110385646Y-87500147D01*
X110533216Y-87401544D01*
X110697188Y-87333624D01*
X110846488Y-87303927D01*
X110871258Y-87299000D01*
X111048742Y-87299000D01*
X111073512Y-87303927D01*
G37*
G36*
X113613512Y-87303927D02*
G01*
X113762812Y-87333624D01*
X113926784Y-87401544D01*
X114074354Y-87500147D01*
X114199853Y-87625646D01*
X114298456Y-87773216D01*
X114366376Y-87937188D01*
X114401000Y-88111259D01*
X114401000Y-88288741D01*
X114366376Y-88462812D01*
X114298456Y-88626784D01*
X114199853Y-88774354D01*
X114074354Y-88899853D01*
X113926784Y-88998456D01*
X113762812Y-89066376D01*
X113613512Y-89096073D01*
X113588742Y-89101000D01*
X113411258Y-89101000D01*
X113386488Y-89096073D01*
X113237188Y-89066376D01*
X113073216Y-88998456D01*
X112925646Y-88899853D01*
X112800147Y-88774354D01*
X112701544Y-88626784D01*
X112633624Y-88462812D01*
X112599000Y-88288741D01*
X112599000Y-88111259D01*
X112633624Y-87937188D01*
X112701544Y-87773216D01*
X112800147Y-87625646D01*
X112925646Y-87500147D01*
X113073216Y-87401544D01*
X113237188Y-87333624D01*
X113386488Y-87303927D01*
X113411258Y-87299000D01*
X113588742Y-87299000D01*
X113613512Y-87303927D01*
G37*
G36*
X116153512Y-87303927D02*
G01*
X116302812Y-87333624D01*
X116466784Y-87401544D01*
X116614354Y-87500147D01*
X116739853Y-87625646D01*
X116838456Y-87773216D01*
X116906376Y-87937188D01*
X116941000Y-88111259D01*
X116941000Y-88288741D01*
X116906376Y-88462812D01*
X116838456Y-88626784D01*
X116739853Y-88774354D01*
X116614354Y-88899853D01*
X116466784Y-88998456D01*
X116302812Y-89066376D01*
X116153512Y-89096073D01*
X116128742Y-89101000D01*
X115951258Y-89101000D01*
X115926488Y-89096073D01*
X115777188Y-89066376D01*
X115613216Y-88998456D01*
X115465646Y-88899853D01*
X115340147Y-88774354D01*
X115241544Y-88626784D01*
X115173624Y-88462812D01*
X115139000Y-88288741D01*
X115139000Y-88111259D01*
X115173624Y-87937188D01*
X115241544Y-87773216D01*
X115340147Y-87625646D01*
X115465646Y-87500147D01*
X115613216Y-87401544D01*
X115777188Y-87333624D01*
X115926488Y-87303927D01*
X115951258Y-87299000D01*
X116128742Y-87299000D01*
X116153512Y-87303927D01*
G37*
G36*
X139013512Y-87303927D02*
G01*
X139162812Y-87333624D01*
X139326784Y-87401544D01*
X139474354Y-87500147D01*
X139599853Y-87625646D01*
X139698456Y-87773216D01*
X139766376Y-87937188D01*
X139801000Y-88111259D01*
X139801000Y-88288741D01*
X139766376Y-88462812D01*
X139698456Y-88626784D01*
X139599853Y-88774354D01*
X139474354Y-88899853D01*
X139326784Y-88998456D01*
X139162812Y-89066376D01*
X139013512Y-89096073D01*
X138988742Y-89101000D01*
X138811258Y-89101000D01*
X138786488Y-89096073D01*
X138637188Y-89066376D01*
X138473216Y-88998456D01*
X138325646Y-88899853D01*
X138200147Y-88774354D01*
X138101544Y-88626784D01*
X138033624Y-88462812D01*
X137999000Y-88288741D01*
X137999000Y-88111259D01*
X138033624Y-87937188D01*
X138101544Y-87773216D01*
X138200147Y-87625646D01*
X138325646Y-87500147D01*
X138473216Y-87401544D01*
X138637188Y-87333624D01*
X138786488Y-87303927D01*
X138811258Y-87299000D01*
X138988742Y-87299000D01*
X139013512Y-87303927D01*
G37*
G36*
X123773512Y-87303927D02*
G01*
X123922812Y-87333624D01*
X124086784Y-87401544D01*
X124234354Y-87500147D01*
X124359853Y-87625646D01*
X124458456Y-87773216D01*
X124526376Y-87937188D01*
X124561000Y-88111259D01*
X124561000Y-88288741D01*
X124526376Y-88462812D01*
X124458456Y-88626784D01*
X124359853Y-88774354D01*
X124234354Y-88899853D01*
X124086784Y-88998456D01*
X123922812Y-89066376D01*
X123773512Y-89096073D01*
X123748742Y-89101000D01*
X123571258Y-89101000D01*
X123546488Y-89096073D01*
X123397188Y-89066376D01*
X123233216Y-88998456D01*
X123085646Y-88899853D01*
X122960147Y-88774354D01*
X122861544Y-88626784D01*
X122793624Y-88462812D01*
X122759000Y-88288741D01*
X122759000Y-88111259D01*
X122793624Y-87937188D01*
X122861544Y-87773216D01*
X122960147Y-87625646D01*
X123085646Y-87500147D01*
X123233216Y-87401544D01*
X123397188Y-87333624D01*
X123546488Y-87303927D01*
X123571258Y-87299000D01*
X123748742Y-87299000D01*
X123773512Y-87303927D01*
G37*
G36*
X121233512Y-87303927D02*
G01*
X121382812Y-87333624D01*
X121546784Y-87401544D01*
X121694354Y-87500147D01*
X121819853Y-87625646D01*
X121918456Y-87773216D01*
X121986376Y-87937188D01*
X122021000Y-88111259D01*
X122021000Y-88288741D01*
X121986376Y-88462812D01*
X121918456Y-88626784D01*
X121819853Y-88774354D01*
X121694354Y-88899853D01*
X121546784Y-88998456D01*
X121382812Y-89066376D01*
X121233512Y-89096073D01*
X121208742Y-89101000D01*
X121031258Y-89101000D01*
X121006488Y-89096073D01*
X120857188Y-89066376D01*
X120693216Y-88998456D01*
X120545646Y-88899853D01*
X120420147Y-88774354D01*
X120321544Y-88626784D01*
X120253624Y-88462812D01*
X120219000Y-88288741D01*
X120219000Y-88111259D01*
X120253624Y-87937188D01*
X120321544Y-87773216D01*
X120420147Y-87625646D01*
X120545646Y-87500147D01*
X120693216Y-87401544D01*
X120857188Y-87333624D01*
X121006488Y-87303927D01*
X121031258Y-87299000D01*
X121208742Y-87299000D01*
X121233512Y-87303927D01*
G37*
G36*
X90753512Y-87303927D02*
G01*
X90902812Y-87333624D01*
X91066784Y-87401544D01*
X91214354Y-87500147D01*
X91339853Y-87625646D01*
X91438456Y-87773216D01*
X91506376Y-87937188D01*
X91541000Y-88111259D01*
X91541000Y-88288741D01*
X91506376Y-88462812D01*
X91438456Y-88626784D01*
X91339853Y-88774354D01*
X91214354Y-88899853D01*
X91066784Y-88998456D01*
X90902812Y-89066376D01*
X90753512Y-89096073D01*
X90728742Y-89101000D01*
X90551258Y-89101000D01*
X90526488Y-89096073D01*
X90377188Y-89066376D01*
X90213216Y-88998456D01*
X90065646Y-88899853D01*
X89940147Y-88774354D01*
X89841544Y-88626784D01*
X89773624Y-88462812D01*
X89739000Y-88288741D01*
X89739000Y-88111259D01*
X89773624Y-87937188D01*
X89841544Y-87773216D01*
X89940147Y-87625646D01*
X90065646Y-87500147D01*
X90213216Y-87401544D01*
X90377188Y-87333624D01*
X90526488Y-87303927D01*
X90551258Y-87299000D01*
X90728742Y-87299000D01*
X90753512Y-87303927D01*
G37*
G36*
X88213512Y-87303927D02*
G01*
X88362812Y-87333624D01*
X88526784Y-87401544D01*
X88674354Y-87500147D01*
X88799853Y-87625646D01*
X88898456Y-87773216D01*
X88966376Y-87937188D01*
X89001000Y-88111259D01*
X89001000Y-88288741D01*
X88966376Y-88462812D01*
X88898456Y-88626784D01*
X88799853Y-88774354D01*
X88674354Y-88899853D01*
X88526784Y-88998456D01*
X88362812Y-89066376D01*
X88213512Y-89096073D01*
X88188742Y-89101000D01*
X88011258Y-89101000D01*
X87986488Y-89096073D01*
X87837188Y-89066376D01*
X87673216Y-88998456D01*
X87525646Y-88899853D01*
X87400147Y-88774354D01*
X87301544Y-88626784D01*
X87233624Y-88462812D01*
X87199000Y-88288741D01*
X87199000Y-88111259D01*
X87233624Y-87937188D01*
X87301544Y-87773216D01*
X87400147Y-87625646D01*
X87525646Y-87500147D01*
X87673216Y-87401544D01*
X87837188Y-87333624D01*
X87986488Y-87303927D01*
X88011258Y-87299000D01*
X88188742Y-87299000D01*
X88213512Y-87303927D01*
G37*
G36*
X85673512Y-87303927D02*
G01*
X85822812Y-87333624D01*
X85986784Y-87401544D01*
X86134354Y-87500147D01*
X86259853Y-87625646D01*
X86358456Y-87773216D01*
X86426376Y-87937188D01*
X86461000Y-88111259D01*
X86461000Y-88288741D01*
X86426376Y-88462812D01*
X86358456Y-88626784D01*
X86259853Y-88774354D01*
X86134354Y-88899853D01*
X85986784Y-88998456D01*
X85822812Y-89066376D01*
X85673512Y-89096073D01*
X85648742Y-89101000D01*
X85471258Y-89101000D01*
X85446488Y-89096073D01*
X85297188Y-89066376D01*
X85133216Y-88998456D01*
X84985646Y-88899853D01*
X84860147Y-88774354D01*
X84761544Y-88626784D01*
X84693624Y-88462812D01*
X84659000Y-88288741D01*
X84659000Y-88111259D01*
X84693624Y-87937188D01*
X84761544Y-87773216D01*
X84860147Y-87625646D01*
X84985646Y-87500147D01*
X85133216Y-87401544D01*
X85297188Y-87333624D01*
X85446488Y-87303927D01*
X85471258Y-87299000D01*
X85648742Y-87299000D01*
X85673512Y-87303927D01*
G37*
G36*
X83133512Y-87303927D02*
G01*
X83282812Y-87333624D01*
X83446784Y-87401544D01*
X83594354Y-87500147D01*
X83719853Y-87625646D01*
X83818456Y-87773216D01*
X83886376Y-87937188D01*
X83921000Y-88111259D01*
X83921000Y-88288741D01*
X83886376Y-88462812D01*
X83818456Y-88626784D01*
X83719853Y-88774354D01*
X83594354Y-88899853D01*
X83446784Y-88998456D01*
X83282812Y-89066376D01*
X83133512Y-89096073D01*
X83108742Y-89101000D01*
X82931258Y-89101000D01*
X82906488Y-89096073D01*
X82757188Y-89066376D01*
X82593216Y-88998456D01*
X82445646Y-88899853D01*
X82320147Y-88774354D01*
X82221544Y-88626784D01*
X82153624Y-88462812D01*
X82119000Y-88288741D01*
X82119000Y-88111259D01*
X82153624Y-87937188D01*
X82221544Y-87773216D01*
X82320147Y-87625646D01*
X82445646Y-87500147D01*
X82593216Y-87401544D01*
X82757188Y-87333624D01*
X82906488Y-87303927D01*
X82931258Y-87299000D01*
X83108742Y-87299000D01*
X83133512Y-87303927D01*
G37*
G36*
X80593512Y-87303927D02*
G01*
X80742812Y-87333624D01*
X80906784Y-87401544D01*
X81054354Y-87500147D01*
X81179853Y-87625646D01*
X81278456Y-87773216D01*
X81346376Y-87937188D01*
X81381000Y-88111259D01*
X81381000Y-88288741D01*
X81346376Y-88462812D01*
X81278456Y-88626784D01*
X81179853Y-88774354D01*
X81054354Y-88899853D01*
X80906784Y-88998456D01*
X80742812Y-89066376D01*
X80593512Y-89096073D01*
X80568742Y-89101000D01*
X80391258Y-89101000D01*
X80366488Y-89096073D01*
X80217188Y-89066376D01*
X80053216Y-88998456D01*
X79905646Y-88899853D01*
X79780147Y-88774354D01*
X79681544Y-88626784D01*
X79613624Y-88462812D01*
X79579000Y-88288741D01*
X79579000Y-88111259D01*
X79613624Y-87937188D01*
X79681544Y-87773216D01*
X79780147Y-87625646D01*
X79905646Y-87500147D01*
X80053216Y-87401544D01*
X80217188Y-87333624D01*
X80366488Y-87303927D01*
X80391258Y-87299000D01*
X80568742Y-87299000D01*
X80593512Y-87303927D01*
G37*
G36*
X78053512Y-87303927D02*
G01*
X78202812Y-87333624D01*
X78366784Y-87401544D01*
X78514354Y-87500147D01*
X78639853Y-87625646D01*
X78738456Y-87773216D01*
X78806376Y-87937188D01*
X78841000Y-88111259D01*
X78841000Y-88288741D01*
X78806376Y-88462812D01*
X78738456Y-88626784D01*
X78639853Y-88774354D01*
X78514354Y-88899853D01*
X78366784Y-88998456D01*
X78202812Y-89066376D01*
X78053512Y-89096073D01*
X78028742Y-89101000D01*
X77851258Y-89101000D01*
X77826488Y-89096073D01*
X77677188Y-89066376D01*
X77513216Y-88998456D01*
X77365646Y-88899853D01*
X77240147Y-88774354D01*
X77141544Y-88626784D01*
X77073624Y-88462812D01*
X77039000Y-88288741D01*
X77039000Y-88111259D01*
X77073624Y-87937188D01*
X77141544Y-87773216D01*
X77240147Y-87625646D01*
X77365646Y-87500147D01*
X77513216Y-87401544D01*
X77677188Y-87333624D01*
X77826488Y-87303927D01*
X77851258Y-87299000D01*
X78028742Y-87299000D01*
X78053512Y-87303927D01*
G37*
G36*
X75513512Y-87303927D02*
G01*
X75662812Y-87333624D01*
X75826784Y-87401544D01*
X75974354Y-87500147D01*
X76099853Y-87625646D01*
X76198456Y-87773216D01*
X76266376Y-87937188D01*
X76301000Y-88111259D01*
X76301000Y-88288741D01*
X76266376Y-88462812D01*
X76198456Y-88626784D01*
X76099853Y-88774354D01*
X75974354Y-88899853D01*
X75826784Y-88998456D01*
X75662812Y-89066376D01*
X75513512Y-89096073D01*
X75488742Y-89101000D01*
X75311258Y-89101000D01*
X75286488Y-89096073D01*
X75137188Y-89066376D01*
X74973216Y-88998456D01*
X74825646Y-88899853D01*
X74700147Y-88774354D01*
X74601544Y-88626784D01*
X74533624Y-88462812D01*
X74499000Y-88288741D01*
X74499000Y-88111259D01*
X74533624Y-87937188D01*
X74601544Y-87773216D01*
X74700147Y-87625646D01*
X74825646Y-87500147D01*
X74973216Y-87401544D01*
X75137188Y-87333624D01*
X75286488Y-87303927D01*
X75311258Y-87299000D01*
X75488742Y-87299000D01*
X75513512Y-87303927D01*
G37*
G36*
X52653512Y-87303927D02*
G01*
X52802812Y-87333624D01*
X52966784Y-87401544D01*
X53114354Y-87500147D01*
X53239853Y-87625646D01*
X53338456Y-87773216D01*
X53406376Y-87937188D01*
X53441000Y-88111259D01*
X53441000Y-88288741D01*
X53406376Y-88462812D01*
X53338456Y-88626784D01*
X53239853Y-88774354D01*
X53114354Y-88899853D01*
X52966784Y-88998456D01*
X52802812Y-89066376D01*
X52653512Y-89096073D01*
X52628742Y-89101000D01*
X52451258Y-89101000D01*
X52426488Y-89096073D01*
X52277188Y-89066376D01*
X52113216Y-88998456D01*
X51965646Y-88899853D01*
X51840147Y-88774354D01*
X51741544Y-88626784D01*
X51673624Y-88462812D01*
X51639000Y-88288741D01*
X51639000Y-88111259D01*
X51673624Y-87937188D01*
X51741544Y-87773216D01*
X51840147Y-87625646D01*
X51965646Y-87500147D01*
X52113216Y-87401544D01*
X52277188Y-87333624D01*
X52426488Y-87303927D01*
X52451258Y-87299000D01*
X52628742Y-87299000D01*
X52653512Y-87303927D01*
G37*
G36*
X136473512Y-87303927D02*
G01*
X136622812Y-87333624D01*
X136786784Y-87401544D01*
X136934354Y-87500147D01*
X137059853Y-87625646D01*
X137158456Y-87773216D01*
X137226376Y-87937188D01*
X137261000Y-88111259D01*
X137261000Y-88288741D01*
X137226376Y-88462812D01*
X137158456Y-88626784D01*
X137059853Y-88774354D01*
X136934354Y-88899853D01*
X136786784Y-88998456D01*
X136622812Y-89066376D01*
X136473512Y-89096073D01*
X136448742Y-89101000D01*
X136271258Y-89101000D01*
X136246488Y-89096073D01*
X136097188Y-89066376D01*
X135933216Y-88998456D01*
X135785646Y-88899853D01*
X135660147Y-88774354D01*
X135561544Y-88626784D01*
X135493624Y-88462812D01*
X135459000Y-88288741D01*
X135459000Y-88111259D01*
X135493624Y-87937188D01*
X135561544Y-87773216D01*
X135660147Y-87625646D01*
X135785646Y-87500147D01*
X135933216Y-87401544D01*
X136097188Y-87333624D01*
X136246488Y-87303927D01*
X136271258Y-87299000D01*
X136448742Y-87299000D01*
X136473512Y-87303927D01*
G37*
G36*
X133933512Y-87303927D02*
G01*
X134082812Y-87333624D01*
X134246784Y-87401544D01*
X134394354Y-87500147D01*
X134519853Y-87625646D01*
X134618456Y-87773216D01*
X134686376Y-87937188D01*
X134721000Y-88111259D01*
X134721000Y-88288741D01*
X134686376Y-88462812D01*
X134618456Y-88626784D01*
X134519853Y-88774354D01*
X134394354Y-88899853D01*
X134246784Y-88998456D01*
X134082812Y-89066376D01*
X133933512Y-89096073D01*
X133908742Y-89101000D01*
X133731258Y-89101000D01*
X133706488Y-89096073D01*
X133557188Y-89066376D01*
X133393216Y-88998456D01*
X133245646Y-88899853D01*
X133120147Y-88774354D01*
X133021544Y-88626784D01*
X132953624Y-88462812D01*
X132919000Y-88288741D01*
X132919000Y-88111259D01*
X132953624Y-87937188D01*
X133021544Y-87773216D01*
X133120147Y-87625646D01*
X133245646Y-87500147D01*
X133393216Y-87401544D01*
X133557188Y-87333624D01*
X133706488Y-87303927D01*
X133731258Y-87299000D01*
X133908742Y-87299000D01*
X133933512Y-87303927D01*
G37*
G36*
X131393512Y-87303927D02*
G01*
X131542812Y-87333624D01*
X131706784Y-87401544D01*
X131854354Y-87500147D01*
X131979853Y-87625646D01*
X132078456Y-87773216D01*
X132146376Y-87937188D01*
X132181000Y-88111259D01*
X132181000Y-88288741D01*
X132146376Y-88462812D01*
X132078456Y-88626784D01*
X131979853Y-88774354D01*
X131854354Y-88899853D01*
X131706784Y-88998456D01*
X131542812Y-89066376D01*
X131393512Y-89096073D01*
X131368742Y-89101000D01*
X131191258Y-89101000D01*
X131166488Y-89096073D01*
X131017188Y-89066376D01*
X130853216Y-88998456D01*
X130705646Y-88899853D01*
X130580147Y-88774354D01*
X130481544Y-88626784D01*
X130413624Y-88462812D01*
X130379000Y-88288741D01*
X130379000Y-88111259D01*
X130413624Y-87937188D01*
X130481544Y-87773216D01*
X130580147Y-87625646D01*
X130705646Y-87500147D01*
X130853216Y-87401544D01*
X131017188Y-87333624D01*
X131166488Y-87303927D01*
X131191258Y-87299000D01*
X131368742Y-87299000D01*
X131393512Y-87303927D01*
G37*
G36*
X128853512Y-87303927D02*
G01*
X129002812Y-87333624D01*
X129166784Y-87401544D01*
X129314354Y-87500147D01*
X129439853Y-87625646D01*
X129538456Y-87773216D01*
X129606376Y-87937188D01*
X129641000Y-88111259D01*
X129641000Y-88288741D01*
X129606376Y-88462812D01*
X129538456Y-88626784D01*
X129439853Y-88774354D01*
X129314354Y-88899853D01*
X129166784Y-88998456D01*
X129002812Y-89066376D01*
X128853512Y-89096073D01*
X128828742Y-89101000D01*
X128651258Y-89101000D01*
X128626488Y-89096073D01*
X128477188Y-89066376D01*
X128313216Y-88998456D01*
X128165646Y-88899853D01*
X128040147Y-88774354D01*
X127941544Y-88626784D01*
X127873624Y-88462812D01*
X127839000Y-88288741D01*
X127839000Y-88111259D01*
X127873624Y-87937188D01*
X127941544Y-87773216D01*
X128040147Y-87625646D01*
X128165646Y-87500147D01*
X128313216Y-87401544D01*
X128477188Y-87333624D01*
X128626488Y-87303927D01*
X128651258Y-87299000D01*
X128828742Y-87299000D01*
X128853512Y-87303927D01*
G37*
G36*
X126313512Y-87303927D02*
G01*
X126462812Y-87333624D01*
X126626784Y-87401544D01*
X126774354Y-87500147D01*
X126899853Y-87625646D01*
X126998456Y-87773216D01*
X127066376Y-87937188D01*
X127101000Y-88111259D01*
X127101000Y-88288741D01*
X127066376Y-88462812D01*
X126998456Y-88626784D01*
X126899853Y-88774354D01*
X126774354Y-88899853D01*
X126626784Y-88998456D01*
X126462812Y-89066376D01*
X126313512Y-89096073D01*
X126288742Y-89101000D01*
X126111258Y-89101000D01*
X126086488Y-89096073D01*
X125937188Y-89066376D01*
X125773216Y-88998456D01*
X125625646Y-88899853D01*
X125500147Y-88774354D01*
X125401544Y-88626784D01*
X125333624Y-88462812D01*
X125299000Y-88288741D01*
X125299000Y-88111259D01*
X125333624Y-87937188D01*
X125401544Y-87773216D01*
X125500147Y-87625646D01*
X125625646Y-87500147D01*
X125773216Y-87401544D01*
X125937188Y-87333624D01*
X126086488Y-87303927D01*
X126111258Y-87299000D01*
X126288742Y-87299000D01*
X126313512Y-87303927D01*
G37*
G36*
X100913512Y-84763927D02*
G01*
X101062812Y-84793624D01*
X101226784Y-84861544D01*
X101374354Y-84960147D01*
X101499853Y-85085646D01*
X101598456Y-85233216D01*
X101666376Y-85397188D01*
X101701000Y-85571259D01*
X101701000Y-85748741D01*
X101666376Y-85922812D01*
X101598456Y-86086784D01*
X101499853Y-86234354D01*
X101374354Y-86359853D01*
X101226784Y-86458456D01*
X101062812Y-86526376D01*
X100913512Y-86556073D01*
X100888742Y-86561000D01*
X100711258Y-86561000D01*
X100686488Y-86556073D01*
X100537188Y-86526376D01*
X100373216Y-86458456D01*
X100225646Y-86359853D01*
X100100147Y-86234354D01*
X100001544Y-86086784D01*
X99933624Y-85922812D01*
X99899000Y-85748741D01*
X99899000Y-85571259D01*
X99933624Y-85397188D01*
X100001544Y-85233216D01*
X100100147Y-85085646D01*
X100225646Y-84960147D01*
X100373216Y-84861544D01*
X100537188Y-84793624D01*
X100686488Y-84763927D01*
X100711258Y-84759000D01*
X100888742Y-84759000D01*
X100913512Y-84763927D01*
G37*
G36*
X98373512Y-84763927D02*
G01*
X98522812Y-84793624D01*
X98686784Y-84861544D01*
X98834354Y-84960147D01*
X98959853Y-85085646D01*
X99058456Y-85233216D01*
X99126376Y-85397188D01*
X99161000Y-85571259D01*
X99161000Y-85748741D01*
X99126376Y-85922812D01*
X99058456Y-86086784D01*
X98959853Y-86234354D01*
X98834354Y-86359853D01*
X98686784Y-86458456D01*
X98522812Y-86526376D01*
X98373512Y-86556073D01*
X98348742Y-86561000D01*
X98171258Y-86561000D01*
X98146488Y-86556073D01*
X97997188Y-86526376D01*
X97833216Y-86458456D01*
X97685646Y-86359853D01*
X97560147Y-86234354D01*
X97461544Y-86086784D01*
X97393624Y-85922812D01*
X97359000Y-85748741D01*
X97359000Y-85571259D01*
X97393624Y-85397188D01*
X97461544Y-85233216D01*
X97560147Y-85085646D01*
X97685646Y-84960147D01*
X97833216Y-84861544D01*
X97997188Y-84793624D01*
X98146488Y-84763927D01*
X98171258Y-84759000D01*
X98348742Y-84759000D01*
X98373512Y-84763927D01*
G37*
G36*
X71221000Y-86561000D02*
G01*
X69419000Y-86561000D01*
X69419000Y-84759000D01*
X71221000Y-84759000D01*
X71221000Y-86561000D01*
G37*
G36*
X67893512Y-84763927D02*
G01*
X68042812Y-84793624D01*
X68206784Y-84861544D01*
X68354354Y-84960147D01*
X68479853Y-85085646D01*
X68578456Y-85233216D01*
X68646376Y-85397188D01*
X68681000Y-85571259D01*
X68681000Y-85748741D01*
X68646376Y-85922812D01*
X68578456Y-86086784D01*
X68479853Y-86234354D01*
X68354354Y-86359853D01*
X68206784Y-86458456D01*
X68042812Y-86526376D01*
X67893512Y-86556073D01*
X67868742Y-86561000D01*
X67691258Y-86561000D01*
X67666488Y-86556073D01*
X67517188Y-86526376D01*
X67353216Y-86458456D01*
X67205646Y-86359853D01*
X67080147Y-86234354D01*
X66981544Y-86086784D01*
X66913624Y-85922812D01*
X66879000Y-85748741D01*
X66879000Y-85571259D01*
X66913624Y-85397188D01*
X66981544Y-85233216D01*
X67080147Y-85085646D01*
X67205646Y-84960147D01*
X67353216Y-84861544D01*
X67517188Y-84793624D01*
X67666488Y-84763927D01*
X67691258Y-84759000D01*
X67868742Y-84759000D01*
X67893512Y-84763927D01*
G37*
G36*
X80593512Y-84763927D02*
G01*
X80742812Y-84793624D01*
X80906784Y-84861544D01*
X81054354Y-84960147D01*
X81179853Y-85085646D01*
X81278456Y-85233216D01*
X81346376Y-85397188D01*
X81381000Y-85571259D01*
X81381000Y-85748741D01*
X81346376Y-85922812D01*
X81278456Y-86086784D01*
X81179853Y-86234354D01*
X81054354Y-86359853D01*
X80906784Y-86458456D01*
X80742812Y-86526376D01*
X80593512Y-86556073D01*
X80568742Y-86561000D01*
X80391258Y-86561000D01*
X80366488Y-86556073D01*
X80217188Y-86526376D01*
X80053216Y-86458456D01*
X79905646Y-86359853D01*
X79780147Y-86234354D01*
X79681544Y-86086784D01*
X79613624Y-85922812D01*
X79579000Y-85748741D01*
X79579000Y-85571259D01*
X79613624Y-85397188D01*
X79681544Y-85233216D01*
X79780147Y-85085646D01*
X79905646Y-84960147D01*
X80053216Y-84861544D01*
X80217188Y-84793624D01*
X80366488Y-84763927D01*
X80391258Y-84759000D01*
X80568742Y-84759000D01*
X80593512Y-84763927D01*
G37*
G36*
X62813512Y-84763927D02*
G01*
X62962812Y-84793624D01*
X63126784Y-84861544D01*
X63274354Y-84960147D01*
X63399853Y-85085646D01*
X63498456Y-85233216D01*
X63566376Y-85397188D01*
X63601000Y-85571259D01*
X63601000Y-85748741D01*
X63566376Y-85922812D01*
X63498456Y-86086784D01*
X63399853Y-86234354D01*
X63274354Y-86359853D01*
X63126784Y-86458456D01*
X62962812Y-86526376D01*
X62813512Y-86556073D01*
X62788742Y-86561000D01*
X62611258Y-86561000D01*
X62586488Y-86556073D01*
X62437188Y-86526376D01*
X62273216Y-86458456D01*
X62125646Y-86359853D01*
X62000147Y-86234354D01*
X61901544Y-86086784D01*
X61833624Y-85922812D01*
X61799000Y-85748741D01*
X61799000Y-85571259D01*
X61833624Y-85397188D01*
X61901544Y-85233216D01*
X62000147Y-85085646D01*
X62125646Y-84960147D01*
X62273216Y-84861544D01*
X62437188Y-84793624D01*
X62586488Y-84763927D01*
X62611258Y-84759000D01*
X62788742Y-84759000D01*
X62813512Y-84763927D01*
G37*
G36*
X60273512Y-84763927D02*
G01*
X60422812Y-84793624D01*
X60586784Y-84861544D01*
X60734354Y-84960147D01*
X60859853Y-85085646D01*
X60958456Y-85233216D01*
X61026376Y-85397188D01*
X61061000Y-85571259D01*
X61061000Y-85748741D01*
X61026376Y-85922812D01*
X60958456Y-86086784D01*
X60859853Y-86234354D01*
X60734354Y-86359853D01*
X60586784Y-86458456D01*
X60422812Y-86526376D01*
X60273512Y-86556073D01*
X60248742Y-86561000D01*
X60071258Y-86561000D01*
X60046488Y-86556073D01*
X59897188Y-86526376D01*
X59733216Y-86458456D01*
X59585646Y-86359853D01*
X59460147Y-86234354D01*
X59361544Y-86086784D01*
X59293624Y-85922812D01*
X59259000Y-85748741D01*
X59259000Y-85571259D01*
X59293624Y-85397188D01*
X59361544Y-85233216D01*
X59460147Y-85085646D01*
X59585646Y-84960147D01*
X59733216Y-84861544D01*
X59897188Y-84793624D01*
X60046488Y-84763927D01*
X60071258Y-84759000D01*
X60248742Y-84759000D01*
X60273512Y-84763927D01*
G37*
G36*
X57733512Y-84763927D02*
G01*
X57882812Y-84793624D01*
X58046784Y-84861544D01*
X58194354Y-84960147D01*
X58319853Y-85085646D01*
X58418456Y-85233216D01*
X58486376Y-85397188D01*
X58521000Y-85571259D01*
X58521000Y-85748741D01*
X58486376Y-85922812D01*
X58418456Y-86086784D01*
X58319853Y-86234354D01*
X58194354Y-86359853D01*
X58046784Y-86458456D01*
X57882812Y-86526376D01*
X57733512Y-86556073D01*
X57708742Y-86561000D01*
X57531258Y-86561000D01*
X57506488Y-86556073D01*
X57357188Y-86526376D01*
X57193216Y-86458456D01*
X57045646Y-86359853D01*
X56920147Y-86234354D01*
X56821544Y-86086784D01*
X56753624Y-85922812D01*
X56719000Y-85748741D01*
X56719000Y-85571259D01*
X56753624Y-85397188D01*
X56821544Y-85233216D01*
X56920147Y-85085646D01*
X57045646Y-84960147D01*
X57193216Y-84861544D01*
X57357188Y-84793624D01*
X57506488Y-84763927D01*
X57531258Y-84759000D01*
X57708742Y-84759000D01*
X57733512Y-84763927D01*
G37*
G36*
X55193512Y-84763927D02*
G01*
X55342812Y-84793624D01*
X55506784Y-84861544D01*
X55654354Y-84960147D01*
X55779853Y-85085646D01*
X55878456Y-85233216D01*
X55946376Y-85397188D01*
X55981000Y-85571259D01*
X55981000Y-85748741D01*
X55946376Y-85922812D01*
X55878456Y-86086784D01*
X55779853Y-86234354D01*
X55654354Y-86359853D01*
X55506784Y-86458456D01*
X55342812Y-86526376D01*
X55193512Y-86556073D01*
X55168742Y-86561000D01*
X54991258Y-86561000D01*
X54966488Y-86556073D01*
X54817188Y-86526376D01*
X54653216Y-86458456D01*
X54505646Y-86359853D01*
X54380147Y-86234354D01*
X54281544Y-86086784D01*
X54213624Y-85922812D01*
X54179000Y-85748741D01*
X54179000Y-85571259D01*
X54213624Y-85397188D01*
X54281544Y-85233216D01*
X54380147Y-85085646D01*
X54505646Y-84960147D01*
X54653216Y-84861544D01*
X54817188Y-84793624D01*
X54966488Y-84763927D01*
X54991258Y-84759000D01*
X55168742Y-84759000D01*
X55193512Y-84763927D01*
G37*
G36*
X52653512Y-84763927D02*
G01*
X52802812Y-84793624D01*
X52966784Y-84861544D01*
X53114354Y-84960147D01*
X53239853Y-85085646D01*
X53338456Y-85233216D01*
X53406376Y-85397188D01*
X53441000Y-85571259D01*
X53441000Y-85748741D01*
X53406376Y-85922812D01*
X53338456Y-86086784D01*
X53239853Y-86234354D01*
X53114354Y-86359853D01*
X52966784Y-86458456D01*
X52802812Y-86526376D01*
X52653512Y-86556073D01*
X52628742Y-86561000D01*
X52451258Y-86561000D01*
X52426488Y-86556073D01*
X52277188Y-86526376D01*
X52113216Y-86458456D01*
X51965646Y-86359853D01*
X51840147Y-86234354D01*
X51741544Y-86086784D01*
X51673624Y-85922812D01*
X51639000Y-85748741D01*
X51639000Y-85571259D01*
X51673624Y-85397188D01*
X51741544Y-85233216D01*
X51840147Y-85085646D01*
X51965646Y-84960147D01*
X52113216Y-84861544D01*
X52277188Y-84793624D01*
X52426488Y-84763927D01*
X52451258Y-84759000D01*
X52628742Y-84759000D01*
X52653512Y-84763927D01*
G37*
G36*
X94081000Y-86561000D02*
G01*
X92279000Y-86561000D01*
X92279000Y-84759000D01*
X94081000Y-84759000D01*
X94081000Y-86561000D01*
G37*
G36*
X90753512Y-84763927D02*
G01*
X90902812Y-84793624D01*
X91066784Y-84861544D01*
X91214354Y-84960147D01*
X91339853Y-85085646D01*
X91438456Y-85233216D01*
X91506376Y-85397188D01*
X91541000Y-85571259D01*
X91541000Y-85748741D01*
X91506376Y-85922812D01*
X91438456Y-86086784D01*
X91339853Y-86234354D01*
X91214354Y-86359853D01*
X91066784Y-86458456D01*
X90902812Y-86526376D01*
X90753512Y-86556073D01*
X90728742Y-86561000D01*
X90551258Y-86561000D01*
X90526488Y-86556073D01*
X90377188Y-86526376D01*
X90213216Y-86458456D01*
X90065646Y-86359853D01*
X89940147Y-86234354D01*
X89841544Y-86086784D01*
X89773624Y-85922812D01*
X89739000Y-85748741D01*
X89739000Y-85571259D01*
X89773624Y-85397188D01*
X89841544Y-85233216D01*
X89940147Y-85085646D01*
X90065646Y-84960147D01*
X90213216Y-84861544D01*
X90377188Y-84793624D01*
X90526488Y-84763927D01*
X90551258Y-84759000D01*
X90728742Y-84759000D01*
X90753512Y-84763927D01*
G37*
G36*
X88213512Y-84763927D02*
G01*
X88362812Y-84793624D01*
X88526784Y-84861544D01*
X88674354Y-84960147D01*
X88799853Y-85085646D01*
X88898456Y-85233216D01*
X88966376Y-85397188D01*
X89001000Y-85571259D01*
X89001000Y-85748741D01*
X88966376Y-85922812D01*
X88898456Y-86086784D01*
X88799853Y-86234354D01*
X88674354Y-86359853D01*
X88526784Y-86458456D01*
X88362812Y-86526376D01*
X88213512Y-86556073D01*
X88188742Y-86561000D01*
X88011258Y-86561000D01*
X87986488Y-86556073D01*
X87837188Y-86526376D01*
X87673216Y-86458456D01*
X87525646Y-86359853D01*
X87400147Y-86234354D01*
X87301544Y-86086784D01*
X87233624Y-85922812D01*
X87199000Y-85748741D01*
X87199000Y-85571259D01*
X87233624Y-85397188D01*
X87301544Y-85233216D01*
X87400147Y-85085646D01*
X87525646Y-84960147D01*
X87673216Y-84861544D01*
X87837188Y-84793624D01*
X87986488Y-84763927D01*
X88011258Y-84759000D01*
X88188742Y-84759000D01*
X88213512Y-84763927D01*
G37*
G36*
X85673512Y-84763927D02*
G01*
X85822812Y-84793624D01*
X85986784Y-84861544D01*
X86134354Y-84960147D01*
X86259853Y-85085646D01*
X86358456Y-85233216D01*
X86426376Y-85397188D01*
X86461000Y-85571259D01*
X86461000Y-85748741D01*
X86426376Y-85922812D01*
X86358456Y-86086784D01*
X86259853Y-86234354D01*
X86134354Y-86359853D01*
X85986784Y-86458456D01*
X85822812Y-86526376D01*
X85673512Y-86556073D01*
X85648742Y-86561000D01*
X85471258Y-86561000D01*
X85446488Y-86556073D01*
X85297188Y-86526376D01*
X85133216Y-86458456D01*
X84985646Y-86359853D01*
X84860147Y-86234354D01*
X84761544Y-86086784D01*
X84693624Y-85922812D01*
X84659000Y-85748741D01*
X84659000Y-85571259D01*
X84693624Y-85397188D01*
X84761544Y-85233216D01*
X84860147Y-85085646D01*
X84985646Y-84960147D01*
X85133216Y-84861544D01*
X85297188Y-84793624D01*
X85446488Y-84763927D01*
X85471258Y-84759000D01*
X85648742Y-84759000D01*
X85673512Y-84763927D01*
G37*
G36*
X83133512Y-84763927D02*
G01*
X83282812Y-84793624D01*
X83446784Y-84861544D01*
X83594354Y-84960147D01*
X83719853Y-85085646D01*
X83818456Y-85233216D01*
X83886376Y-85397188D01*
X83921000Y-85571259D01*
X83921000Y-85748741D01*
X83886376Y-85922812D01*
X83818456Y-86086784D01*
X83719853Y-86234354D01*
X83594354Y-86359853D01*
X83446784Y-86458456D01*
X83282812Y-86526376D01*
X83133512Y-86556073D01*
X83108742Y-86561000D01*
X82931258Y-86561000D01*
X82906488Y-86556073D01*
X82757188Y-86526376D01*
X82593216Y-86458456D01*
X82445646Y-86359853D01*
X82320147Y-86234354D01*
X82221544Y-86086784D01*
X82153624Y-85922812D01*
X82119000Y-85748741D01*
X82119000Y-85571259D01*
X82153624Y-85397188D01*
X82221544Y-85233216D01*
X82320147Y-85085646D01*
X82445646Y-84960147D01*
X82593216Y-84861544D01*
X82757188Y-84793624D01*
X82906488Y-84763927D01*
X82931258Y-84759000D01*
X83108742Y-84759000D01*
X83133512Y-84763927D01*
G37*
G36*
X133933512Y-84763927D02*
G01*
X134082812Y-84793624D01*
X134246784Y-84861544D01*
X134394354Y-84960147D01*
X134519853Y-85085646D01*
X134618456Y-85233216D01*
X134686376Y-85397188D01*
X134721000Y-85571259D01*
X134721000Y-85748741D01*
X134686376Y-85922812D01*
X134618456Y-86086784D01*
X134519853Y-86234354D01*
X134394354Y-86359853D01*
X134246784Y-86458456D01*
X134082812Y-86526376D01*
X133933512Y-86556073D01*
X133908742Y-86561000D01*
X133731258Y-86561000D01*
X133706488Y-86556073D01*
X133557188Y-86526376D01*
X133393216Y-86458456D01*
X133245646Y-86359853D01*
X133120147Y-86234354D01*
X133021544Y-86086784D01*
X132953624Y-85922812D01*
X132919000Y-85748741D01*
X132919000Y-85571259D01*
X132953624Y-85397188D01*
X133021544Y-85233216D01*
X133120147Y-85085646D01*
X133245646Y-84960147D01*
X133393216Y-84861544D01*
X133557188Y-84793624D01*
X133706488Y-84763927D01*
X133731258Y-84759000D01*
X133908742Y-84759000D01*
X133933512Y-84763927D01*
G37*
G36*
X105993512Y-84763927D02*
G01*
X106142812Y-84793624D01*
X106306784Y-84861544D01*
X106454354Y-84960147D01*
X106579853Y-85085646D01*
X106678456Y-85233216D01*
X106746376Y-85397188D01*
X106781000Y-85571259D01*
X106781000Y-85748741D01*
X106746376Y-85922812D01*
X106678456Y-86086784D01*
X106579853Y-86234354D01*
X106454354Y-86359853D01*
X106306784Y-86458456D01*
X106142812Y-86526376D01*
X105993512Y-86556073D01*
X105968742Y-86561000D01*
X105791258Y-86561000D01*
X105766488Y-86556073D01*
X105617188Y-86526376D01*
X105453216Y-86458456D01*
X105305646Y-86359853D01*
X105180147Y-86234354D01*
X105081544Y-86086784D01*
X105013624Y-85922812D01*
X104979000Y-85748741D01*
X104979000Y-85571259D01*
X105013624Y-85397188D01*
X105081544Y-85233216D01*
X105180147Y-85085646D01*
X105305646Y-84960147D01*
X105453216Y-84861544D01*
X105617188Y-84793624D01*
X105766488Y-84763927D01*
X105791258Y-84759000D01*
X105968742Y-84759000D01*
X105993512Y-84763927D01*
G37*
G36*
X78053512Y-84763927D02*
G01*
X78202812Y-84793624D01*
X78366784Y-84861544D01*
X78514354Y-84960147D01*
X78639853Y-85085646D01*
X78738456Y-85233216D01*
X78806376Y-85397188D01*
X78841000Y-85571259D01*
X78841000Y-85748741D01*
X78806376Y-85922812D01*
X78738456Y-86086784D01*
X78639853Y-86234354D01*
X78514354Y-86359853D01*
X78366784Y-86458456D01*
X78202812Y-86526376D01*
X78053512Y-86556073D01*
X78028742Y-86561000D01*
X77851258Y-86561000D01*
X77826488Y-86556073D01*
X77677188Y-86526376D01*
X77513216Y-86458456D01*
X77365646Y-86359853D01*
X77240147Y-86234354D01*
X77141544Y-86086784D01*
X77073624Y-85922812D01*
X77039000Y-85748741D01*
X77039000Y-85571259D01*
X77073624Y-85397188D01*
X77141544Y-85233216D01*
X77240147Y-85085646D01*
X77365646Y-84960147D01*
X77513216Y-84861544D01*
X77677188Y-84793624D01*
X77826488Y-84763927D01*
X77851258Y-84759000D01*
X78028742Y-84759000D01*
X78053512Y-84763927D01*
G37*
G36*
X121233512Y-84763927D02*
G01*
X121382812Y-84793624D01*
X121546784Y-84861544D01*
X121694354Y-84960147D01*
X121819853Y-85085646D01*
X121918456Y-85233216D01*
X121986376Y-85397188D01*
X122021000Y-85571259D01*
X122021000Y-85748741D01*
X121986376Y-85922812D01*
X121918456Y-86086784D01*
X121819853Y-86234354D01*
X121694354Y-86359853D01*
X121546784Y-86458456D01*
X121382812Y-86526376D01*
X121233512Y-86556073D01*
X121208742Y-86561000D01*
X121031258Y-86561000D01*
X121006488Y-86556073D01*
X120857188Y-86526376D01*
X120693216Y-86458456D01*
X120545646Y-86359853D01*
X120420147Y-86234354D01*
X120321544Y-86086784D01*
X120253624Y-85922812D01*
X120219000Y-85748741D01*
X120219000Y-85571259D01*
X120253624Y-85397188D01*
X120321544Y-85233216D01*
X120420147Y-85085646D01*
X120545646Y-84960147D01*
X120693216Y-84861544D01*
X120857188Y-84793624D01*
X121006488Y-84763927D01*
X121031258Y-84759000D01*
X121208742Y-84759000D01*
X121233512Y-84763927D01*
G37*
G36*
X75513512Y-84763927D02*
G01*
X75662812Y-84793624D01*
X75826784Y-84861544D01*
X75974354Y-84960147D01*
X76099853Y-85085646D01*
X76198456Y-85233216D01*
X76266376Y-85397188D01*
X76301000Y-85571259D01*
X76301000Y-85748741D01*
X76266376Y-85922812D01*
X76198456Y-86086784D01*
X76099853Y-86234354D01*
X75974354Y-86359853D01*
X75826784Y-86458456D01*
X75662812Y-86526376D01*
X75513512Y-86556073D01*
X75488742Y-86561000D01*
X75311258Y-86561000D01*
X75286488Y-86556073D01*
X75137188Y-86526376D01*
X74973216Y-86458456D01*
X74825646Y-86359853D01*
X74700147Y-86234354D01*
X74601544Y-86086784D01*
X74533624Y-85922812D01*
X74499000Y-85748741D01*
X74499000Y-85571259D01*
X74533624Y-85397188D01*
X74601544Y-85233216D01*
X74700147Y-85085646D01*
X74825646Y-84960147D01*
X74973216Y-84861544D01*
X75137188Y-84793624D01*
X75286488Y-84763927D01*
X75311258Y-84759000D01*
X75488742Y-84759000D01*
X75513512Y-84763927D01*
G37*
G36*
X123773512Y-84763927D02*
G01*
X123922812Y-84793624D01*
X124086784Y-84861544D01*
X124234354Y-84960147D01*
X124359853Y-85085646D01*
X124458456Y-85233216D01*
X124526376Y-85397188D01*
X124561000Y-85571259D01*
X124561000Y-85748741D01*
X124526376Y-85922812D01*
X124458456Y-86086784D01*
X124359853Y-86234354D01*
X124234354Y-86359853D01*
X124086784Y-86458456D01*
X123922812Y-86526376D01*
X123773512Y-86556073D01*
X123748742Y-86561000D01*
X123571258Y-86561000D01*
X123546488Y-86556073D01*
X123397188Y-86526376D01*
X123233216Y-86458456D01*
X123085646Y-86359853D01*
X122960147Y-86234354D01*
X122861544Y-86086784D01*
X122793624Y-85922812D01*
X122759000Y-85748741D01*
X122759000Y-85571259D01*
X122793624Y-85397188D01*
X122861544Y-85233216D01*
X122960147Y-85085646D01*
X123085646Y-84960147D01*
X123233216Y-84861544D01*
X123397188Y-84793624D01*
X123546488Y-84763927D01*
X123571258Y-84759000D01*
X123748742Y-84759000D01*
X123773512Y-84763927D01*
G37*
G36*
X139801000Y-86561000D02*
G01*
X137999000Y-86561000D01*
X137999000Y-84759000D01*
X139801000Y-84759000D01*
X139801000Y-86561000D01*
G37*
G36*
X126313512Y-84763927D02*
G01*
X126462812Y-84793624D01*
X126626784Y-84861544D01*
X126774354Y-84960147D01*
X126899853Y-85085646D01*
X126998456Y-85233216D01*
X127066376Y-85397188D01*
X127101000Y-85571259D01*
X127101000Y-85748741D01*
X127066376Y-85922812D01*
X126998456Y-86086784D01*
X126899853Y-86234354D01*
X126774354Y-86359853D01*
X126626784Y-86458456D01*
X126462812Y-86526376D01*
X126313512Y-86556073D01*
X126288742Y-86561000D01*
X126111258Y-86561000D01*
X126086488Y-86556073D01*
X125937188Y-86526376D01*
X125773216Y-86458456D01*
X125625646Y-86359853D01*
X125500147Y-86234354D01*
X125401544Y-86086784D01*
X125333624Y-85922812D01*
X125299000Y-85748741D01*
X125299000Y-85571259D01*
X125333624Y-85397188D01*
X125401544Y-85233216D01*
X125500147Y-85085646D01*
X125625646Y-84960147D01*
X125773216Y-84861544D01*
X125937188Y-84793624D01*
X126086488Y-84763927D01*
X126111258Y-84759000D01*
X126288742Y-84759000D01*
X126313512Y-84763927D01*
G37*
G36*
X136473512Y-84763927D02*
G01*
X136622812Y-84793624D01*
X136786784Y-84861544D01*
X136934354Y-84960147D01*
X137059853Y-85085646D01*
X137158456Y-85233216D01*
X137226376Y-85397188D01*
X137261000Y-85571259D01*
X137261000Y-85748741D01*
X137226376Y-85922812D01*
X137158456Y-86086784D01*
X137059853Y-86234354D01*
X136934354Y-86359853D01*
X136786784Y-86458456D01*
X136622812Y-86526376D01*
X136473512Y-86556073D01*
X136448742Y-86561000D01*
X136271258Y-86561000D01*
X136246488Y-86556073D01*
X136097188Y-86526376D01*
X135933216Y-86458456D01*
X135785646Y-86359853D01*
X135660147Y-86234354D01*
X135561544Y-86086784D01*
X135493624Y-85922812D01*
X135459000Y-85748741D01*
X135459000Y-85571259D01*
X135493624Y-85397188D01*
X135561544Y-85233216D01*
X135660147Y-85085646D01*
X135785646Y-84960147D01*
X135933216Y-84861544D01*
X136097188Y-84793624D01*
X136246488Y-84763927D01*
X136271258Y-84759000D01*
X136448742Y-84759000D01*
X136473512Y-84763927D01*
G37*
G36*
X128853512Y-84763927D02*
G01*
X129002812Y-84793624D01*
X129166784Y-84861544D01*
X129314354Y-84960147D01*
X129439853Y-85085646D01*
X129538456Y-85233216D01*
X129606376Y-85397188D01*
X129641000Y-85571259D01*
X129641000Y-85748741D01*
X129606376Y-85922812D01*
X129538456Y-86086784D01*
X129439853Y-86234354D01*
X129314354Y-86359853D01*
X129166784Y-86458456D01*
X129002812Y-86526376D01*
X128853512Y-86556073D01*
X128828742Y-86561000D01*
X128651258Y-86561000D01*
X128626488Y-86556073D01*
X128477188Y-86526376D01*
X128313216Y-86458456D01*
X128165646Y-86359853D01*
X128040147Y-86234354D01*
X127941544Y-86086784D01*
X127873624Y-85922812D01*
X127839000Y-85748741D01*
X127839000Y-85571259D01*
X127873624Y-85397188D01*
X127941544Y-85233216D01*
X128040147Y-85085646D01*
X128165646Y-84960147D01*
X128313216Y-84861544D01*
X128477188Y-84793624D01*
X128626488Y-84763927D01*
X128651258Y-84759000D01*
X128828742Y-84759000D01*
X128853512Y-84763927D01*
G37*
G36*
X131393512Y-84763927D02*
G01*
X131542812Y-84793624D01*
X131706784Y-84861544D01*
X131854354Y-84960147D01*
X131979853Y-85085646D01*
X132078456Y-85233216D01*
X132146376Y-85397188D01*
X132181000Y-85571259D01*
X132181000Y-85748741D01*
X132146376Y-85922812D01*
X132078456Y-86086784D01*
X131979853Y-86234354D01*
X131854354Y-86359853D01*
X131706784Y-86458456D01*
X131542812Y-86526376D01*
X131393512Y-86556073D01*
X131368742Y-86561000D01*
X131191258Y-86561000D01*
X131166488Y-86556073D01*
X131017188Y-86526376D01*
X130853216Y-86458456D01*
X130705646Y-86359853D01*
X130580147Y-86234354D01*
X130481544Y-86086784D01*
X130413624Y-85922812D01*
X130379000Y-85748741D01*
X130379000Y-85571259D01*
X130413624Y-85397188D01*
X130481544Y-85233216D01*
X130580147Y-85085646D01*
X130705646Y-84960147D01*
X130853216Y-84861544D01*
X131017188Y-84793624D01*
X131166488Y-84763927D01*
X131191258Y-84759000D01*
X131368742Y-84759000D01*
X131393512Y-84763927D01*
G37*
G36*
X65353512Y-84763927D02*
G01*
X65502812Y-84793624D01*
X65666784Y-84861544D01*
X65814354Y-84960147D01*
X65939853Y-85085646D01*
X66038456Y-85233216D01*
X66106376Y-85397188D01*
X66141000Y-85571259D01*
X66141000Y-85748741D01*
X66106376Y-85922812D01*
X66038456Y-86086784D01*
X65939853Y-86234354D01*
X65814354Y-86359853D01*
X65666784Y-86458456D01*
X65502812Y-86526376D01*
X65353512Y-86556073D01*
X65328742Y-86561000D01*
X65151258Y-86561000D01*
X65126488Y-86556073D01*
X64977188Y-86526376D01*
X64813216Y-86458456D01*
X64665646Y-86359853D01*
X64540147Y-86234354D01*
X64441544Y-86086784D01*
X64373624Y-85922812D01*
X64339000Y-85748741D01*
X64339000Y-85571259D01*
X64373624Y-85397188D01*
X64441544Y-85233216D01*
X64540147Y-85085646D01*
X64665646Y-84960147D01*
X64813216Y-84861544D01*
X64977188Y-84793624D01*
X65126488Y-84763927D01*
X65151258Y-84759000D01*
X65328742Y-84759000D01*
X65353512Y-84763927D01*
G37*
G36*
X116941000Y-86561000D02*
G01*
X115139000Y-86561000D01*
X115139000Y-84759000D01*
X116941000Y-84759000D01*
X116941000Y-86561000D01*
G37*
G36*
X113613512Y-84763927D02*
G01*
X113762812Y-84793624D01*
X113926784Y-84861544D01*
X114074354Y-84960147D01*
X114199853Y-85085646D01*
X114298456Y-85233216D01*
X114366376Y-85397188D01*
X114401000Y-85571259D01*
X114401000Y-85748741D01*
X114366376Y-85922812D01*
X114298456Y-86086784D01*
X114199853Y-86234354D01*
X114074354Y-86359853D01*
X113926784Y-86458456D01*
X113762812Y-86526376D01*
X113613512Y-86556073D01*
X113588742Y-86561000D01*
X113411258Y-86561000D01*
X113386488Y-86556073D01*
X113237188Y-86526376D01*
X113073216Y-86458456D01*
X112925646Y-86359853D01*
X112800147Y-86234354D01*
X112701544Y-86086784D01*
X112633624Y-85922812D01*
X112599000Y-85748741D01*
X112599000Y-85571259D01*
X112633624Y-85397188D01*
X112701544Y-85233216D01*
X112800147Y-85085646D01*
X112925646Y-84960147D01*
X113073216Y-84861544D01*
X113237188Y-84793624D01*
X113386488Y-84763927D01*
X113411258Y-84759000D01*
X113588742Y-84759000D01*
X113613512Y-84763927D01*
G37*
G36*
X111073512Y-84763927D02*
G01*
X111222812Y-84793624D01*
X111386784Y-84861544D01*
X111534354Y-84960147D01*
X111659853Y-85085646D01*
X111758456Y-85233216D01*
X111826376Y-85397188D01*
X111861000Y-85571259D01*
X111861000Y-85748741D01*
X111826376Y-85922812D01*
X111758456Y-86086784D01*
X111659853Y-86234354D01*
X111534354Y-86359853D01*
X111386784Y-86458456D01*
X111222812Y-86526376D01*
X111073512Y-86556073D01*
X111048742Y-86561000D01*
X110871258Y-86561000D01*
X110846488Y-86556073D01*
X110697188Y-86526376D01*
X110533216Y-86458456D01*
X110385646Y-86359853D01*
X110260147Y-86234354D01*
X110161544Y-86086784D01*
X110093624Y-85922812D01*
X110059000Y-85748741D01*
X110059000Y-85571259D01*
X110093624Y-85397188D01*
X110161544Y-85233216D01*
X110260147Y-85085646D01*
X110385646Y-84960147D01*
X110533216Y-84861544D01*
X110697188Y-84793624D01*
X110846488Y-84763927D01*
X110871258Y-84759000D01*
X111048742Y-84759000D01*
X111073512Y-84763927D01*
G37*
G36*
X108533512Y-84763927D02*
G01*
X108682812Y-84793624D01*
X108846784Y-84861544D01*
X108994354Y-84960147D01*
X109119853Y-85085646D01*
X109218456Y-85233216D01*
X109286376Y-85397188D01*
X109321000Y-85571259D01*
X109321000Y-85748741D01*
X109286376Y-85922812D01*
X109218456Y-86086784D01*
X109119853Y-86234354D01*
X108994354Y-86359853D01*
X108846784Y-86458456D01*
X108682812Y-86526376D01*
X108533512Y-86556073D01*
X108508742Y-86561000D01*
X108331258Y-86561000D01*
X108306488Y-86556073D01*
X108157188Y-86526376D01*
X107993216Y-86458456D01*
X107845646Y-86359853D01*
X107720147Y-86234354D01*
X107621544Y-86086784D01*
X107553624Y-85922812D01*
X107519000Y-85748741D01*
X107519000Y-85571259D01*
X107553624Y-85397188D01*
X107621544Y-85233216D01*
X107720147Y-85085646D01*
X107845646Y-84960147D01*
X107993216Y-84861544D01*
X108157188Y-84793624D01*
X108306488Y-84763927D01*
X108331258Y-84759000D01*
X108508742Y-84759000D01*
X108533512Y-84763927D01*
G37*
G36*
X103453512Y-84763927D02*
G01*
X103602812Y-84793624D01*
X103766784Y-84861544D01*
X103914354Y-84960147D01*
X104039853Y-85085646D01*
X104138456Y-85233216D01*
X104206376Y-85397188D01*
X104241000Y-85571259D01*
X104241000Y-85748741D01*
X104206376Y-85922812D01*
X104138456Y-86086784D01*
X104039853Y-86234354D01*
X103914354Y-86359853D01*
X103766784Y-86458456D01*
X103602812Y-86526376D01*
X103453512Y-86556073D01*
X103428742Y-86561000D01*
X103251258Y-86561000D01*
X103226488Y-86556073D01*
X103077188Y-86526376D01*
X102913216Y-86458456D01*
X102765646Y-86359853D01*
X102640147Y-86234354D01*
X102541544Y-86086784D01*
X102473624Y-85922812D01*
X102439000Y-85748741D01*
X102439000Y-85571259D01*
X102473624Y-85397188D01*
X102541544Y-85233216D01*
X102640147Y-85085646D01*
X102765646Y-84960147D01*
X102913216Y-84861544D01*
X103077188Y-84793624D01*
X103226488Y-84763927D01*
X103251258Y-84759000D01*
X103428742Y-84759000D01*
X103453512Y-84763927D01*
G37*
G36*
X56866000Y-82401000D02*
G01*
X56164000Y-82401000D01*
X56164000Y-79299000D01*
X56866000Y-79299000D01*
X56866000Y-82401000D01*
G37*
G36*
X53056000Y-82401000D02*
G01*
X52354000Y-82401000D01*
X52354000Y-79299000D01*
X53056000Y-79299000D01*
X53056000Y-82401000D01*
G37*
G36*
X54326000Y-82401000D02*
G01*
X53624000Y-82401000D01*
X53624000Y-79299000D01*
X54326000Y-79299000D01*
X54326000Y-82401000D01*
G37*
G36*
X63216000Y-82401000D02*
G01*
X62514000Y-82401000D01*
X62514000Y-79299000D01*
X63216000Y-79299000D01*
X63216000Y-82401000D01*
G37*
G36*
X64486000Y-82401000D02*
G01*
X63784000Y-82401000D01*
X63784000Y-79299000D01*
X64486000Y-79299000D01*
X64486000Y-82401000D01*
G37*
G36*
X60676000Y-82401000D02*
G01*
X59974000Y-82401000D01*
X59974000Y-79299000D01*
X60676000Y-79299000D01*
X60676000Y-82401000D01*
G37*
G36*
X61946000Y-82401000D02*
G01*
X61244000Y-82401000D01*
X61244000Y-79299000D01*
X61946000Y-79299000D01*
X61946000Y-82401000D01*
G37*
G36*
X59406000Y-82401000D02*
G01*
X58704000Y-82401000D01*
X58704000Y-79299000D01*
X59406000Y-79299000D01*
X59406000Y-82401000D01*
G37*
G36*
X55596000Y-82401000D02*
G01*
X54894000Y-82401000D01*
X54894000Y-79299000D01*
X55596000Y-79299000D01*
X55596000Y-82401000D01*
G37*
G36*
X58136000Y-82401000D02*
G01*
X57434000Y-82401000D01*
X57434000Y-79299000D01*
X58136000Y-79299000D01*
X58136000Y-82401000D01*
G37*
G36*
X123922000Y-80473000D02*
G01*
X123220000Y-80473000D01*
X123220000Y-77871000D01*
X123922000Y-77871000D01*
X123922000Y-80473000D01*
G37*
G36*
X125954000Y-80473000D02*
G01*
X125252000Y-80473000D01*
X125252000Y-77871000D01*
X125954000Y-77871000D01*
X125954000Y-80473000D01*
G37*
G36*
X127224000Y-80473000D02*
G01*
X126522000Y-80473000D01*
X126522000Y-77871000D01*
X127224000Y-77871000D01*
X127224000Y-80473000D01*
G37*
G36*
X128494000Y-80473000D02*
G01*
X127792000Y-80473000D01*
X127792000Y-77871000D01*
X128494000Y-77871000D01*
X128494000Y-80473000D01*
G37*
G36*
X129764000Y-80473000D02*
G01*
X129062000Y-80473000D01*
X129062000Y-77871000D01*
X129764000Y-77871000D01*
X129764000Y-80473000D01*
G37*
G36*
X131034000Y-80473000D02*
G01*
X130332000Y-80473000D01*
X130332000Y-77871000D01*
X131034000Y-77871000D01*
X131034000Y-80473000D01*
G37*
G36*
X132304000Y-80473000D02*
G01*
X131602000Y-80473000D01*
X131602000Y-77871000D01*
X132304000Y-77871000D01*
X132304000Y-80473000D01*
G37*
G36*
X133574000Y-80473000D02*
G01*
X132872000Y-80473000D01*
X132872000Y-77871000D01*
X133574000Y-77871000D01*
X133574000Y-80473000D01*
G37*
G36*
X134844000Y-80473000D02*
G01*
X134142000Y-80473000D01*
X134142000Y-77871000D01*
X134844000Y-77871000D01*
X134844000Y-80473000D01*
G37*
G36*
X92934000Y-80473000D02*
G01*
X92232000Y-80473000D01*
X92232000Y-77871000D01*
X92934000Y-77871000D01*
X92934000Y-80473000D01*
G37*
G36*
X91664000Y-80473000D02*
G01*
X90962000Y-80473000D01*
X90962000Y-77871000D01*
X91664000Y-77871000D01*
X91664000Y-80473000D01*
G37*
G36*
X90394000Y-80473000D02*
G01*
X89692000Y-80473000D01*
X89692000Y-77871000D01*
X90394000Y-77871000D01*
X90394000Y-80473000D01*
G37*
G36*
X89124000Y-80473000D02*
G01*
X88422000Y-80473000D01*
X88422000Y-77871000D01*
X89124000Y-77871000D01*
X89124000Y-80473000D01*
G37*
G36*
X87854000Y-80473000D02*
G01*
X87152000Y-80473000D01*
X87152000Y-77871000D01*
X87854000Y-77871000D01*
X87854000Y-80473000D01*
G37*
G36*
X86584000Y-80473000D02*
G01*
X85882000Y-80473000D01*
X85882000Y-77871000D01*
X86584000Y-77871000D01*
X86584000Y-80473000D01*
G37*
G36*
X85314000Y-80473000D02*
G01*
X84612000Y-80473000D01*
X84612000Y-77871000D01*
X85314000Y-77871000D01*
X85314000Y-80473000D01*
G37*
G36*
X103856000Y-80473000D02*
G01*
X103154000Y-80473000D01*
X103154000Y-77871000D01*
X103856000Y-77871000D01*
X103856000Y-80473000D01*
G37*
G36*
X122652000Y-80473000D02*
G01*
X121950000Y-80473000D01*
X121950000Y-77871000D01*
X122652000Y-77871000D01*
X122652000Y-80473000D01*
G37*
G36*
X118842000Y-80473000D02*
G01*
X118140000Y-80473000D01*
X118140000Y-77871000D01*
X118842000Y-77871000D01*
X118842000Y-80473000D01*
G37*
G36*
X117572000Y-80473000D02*
G01*
X116870000Y-80473000D01*
X116870000Y-77871000D01*
X117572000Y-77871000D01*
X117572000Y-80473000D01*
G37*
G36*
X116302000Y-80473000D02*
G01*
X115600000Y-80473000D01*
X115600000Y-77871000D01*
X116302000Y-77871000D01*
X116302000Y-80473000D01*
G37*
G36*
X115032000Y-80473000D02*
G01*
X114330000Y-80473000D01*
X114330000Y-77871000D01*
X115032000Y-77871000D01*
X115032000Y-80473000D01*
G37*
G36*
X105126000Y-80473000D02*
G01*
X104424000Y-80473000D01*
X104424000Y-77871000D01*
X105126000Y-77871000D01*
X105126000Y-80473000D01*
G37*
G36*
X102586000Y-80473000D02*
G01*
X101884000Y-80473000D01*
X101884000Y-77871000D01*
X102586000Y-77871000D01*
X102586000Y-80473000D01*
G37*
G36*
X101316000Y-80473000D02*
G01*
X100614000Y-80473000D01*
X100614000Y-77871000D01*
X101316000Y-77871000D01*
X101316000Y-80473000D01*
G37*
G36*
X100046000Y-80473000D02*
G01*
X99344000Y-80473000D01*
X99344000Y-77871000D01*
X100046000Y-77871000D01*
X100046000Y-80473000D01*
G37*
G36*
X98776000Y-80473000D02*
G01*
X98074000Y-80473000D01*
X98074000Y-77871000D01*
X98776000Y-77871000D01*
X98776000Y-80473000D01*
G37*
G36*
X97506000Y-80473000D02*
G01*
X96804000Y-80473000D01*
X96804000Y-77871000D01*
X97506000Y-77871000D01*
X97506000Y-80473000D01*
G37*
G36*
X96236000Y-80473000D02*
G01*
X95534000Y-80473000D01*
X95534000Y-77871000D01*
X96236000Y-77871000D01*
X96236000Y-80473000D01*
G37*
G36*
X94204000Y-80473000D02*
G01*
X93502000Y-80473000D01*
X93502000Y-77871000D01*
X94204000Y-77871000D01*
X94204000Y-80473000D01*
G37*
G36*
X120112000Y-80473000D02*
G01*
X119410000Y-80473000D01*
X119410000Y-77871000D01*
X120112000Y-77871000D01*
X120112000Y-80473000D01*
G37*
G36*
X121382000Y-80473000D02*
G01*
X120680000Y-80473000D01*
X120680000Y-77871000D01*
X121382000Y-77871000D01*
X121382000Y-80473000D01*
G37*
G36*
X74900000Y-80455000D02*
G01*
X74198000Y-80455000D01*
X74198000Y-77853000D01*
X74900000Y-77853000D01*
X74900000Y-80455000D01*
G37*
G36*
X81250000Y-80455000D02*
G01*
X80548000Y-80455000D01*
X80548000Y-77853000D01*
X81250000Y-77853000D01*
X81250000Y-80455000D01*
G37*
G36*
X72360000Y-80455000D02*
G01*
X71658000Y-80455000D01*
X71658000Y-77853000D01*
X72360000Y-77853000D01*
X72360000Y-80455000D01*
G37*
G36*
X73630000Y-80455000D02*
G01*
X72928000Y-80455000D01*
X72928000Y-77853000D01*
X73630000Y-77853000D01*
X73630000Y-80455000D01*
G37*
G36*
X77440000Y-80455000D02*
G01*
X76738000Y-80455000D01*
X76738000Y-77853000D01*
X77440000Y-77853000D01*
X77440000Y-80455000D01*
G37*
G36*
X78710000Y-80455000D02*
G01*
X78008000Y-80455000D01*
X78008000Y-77853000D01*
X78710000Y-77853000D01*
X78710000Y-80455000D01*
G37*
G36*
X79980000Y-80455000D02*
G01*
X79278000Y-80455000D01*
X79278000Y-77853000D01*
X79980000Y-77853000D01*
X79980000Y-80455000D01*
G37*
G36*
X76170000Y-80455000D02*
G01*
X75468000Y-80455000D01*
X75468000Y-77853000D01*
X76170000Y-77853000D01*
X76170000Y-80455000D01*
G37*
G36*
X112929000Y-80198000D02*
G01*
X106527000Y-80198000D01*
X106527000Y-78646000D01*
X112929000Y-78646000D01*
X112929000Y-80198000D01*
G37*
G36*
X98776000Y-75073000D02*
G01*
X98074000Y-75073000D01*
X98074000Y-72471000D01*
X98776000Y-72471000D01*
X98776000Y-75073000D01*
G37*
G36*
X129764000Y-75073000D02*
G01*
X129062000Y-75073000D01*
X129062000Y-72471000D01*
X129764000Y-72471000D01*
X129764000Y-75073000D01*
G37*
G36*
X100046000Y-75073000D02*
G01*
X99344000Y-75073000D01*
X99344000Y-72471000D01*
X100046000Y-72471000D01*
X100046000Y-75073000D01*
G37*
G36*
X128494000Y-75073000D02*
G01*
X127792000Y-75073000D01*
X127792000Y-72471000D01*
X128494000Y-72471000D01*
X128494000Y-75073000D01*
G37*
G36*
X97506000Y-75073000D02*
G01*
X96804000Y-75073000D01*
X96804000Y-72471000D01*
X97506000Y-72471000D01*
X97506000Y-75073000D01*
G37*
G36*
X101316000Y-75073000D02*
G01*
X100614000Y-75073000D01*
X100614000Y-72471000D01*
X101316000Y-72471000D01*
X101316000Y-75073000D01*
G37*
G36*
X132304000Y-75073000D02*
G01*
X131602000Y-75073000D01*
X131602000Y-72471000D01*
X132304000Y-72471000D01*
X132304000Y-75073000D01*
G37*
G36*
X115032000Y-75073000D02*
G01*
X114330000Y-75073000D01*
X114330000Y-72471000D01*
X115032000Y-72471000D01*
X115032000Y-75073000D01*
G37*
G36*
X96236000Y-75073000D02*
G01*
X95534000Y-75073000D01*
X95534000Y-72471000D01*
X96236000Y-72471000D01*
X96236000Y-75073000D01*
G37*
G36*
X102586000Y-75073000D02*
G01*
X101884000Y-75073000D01*
X101884000Y-72471000D01*
X102586000Y-72471000D01*
X102586000Y-75073000D01*
G37*
G36*
X133574000Y-75073000D02*
G01*
X132872000Y-75073000D01*
X132872000Y-72471000D01*
X133574000Y-72471000D01*
X133574000Y-75073000D01*
G37*
G36*
X116302000Y-75073000D02*
G01*
X115600000Y-75073000D01*
X115600000Y-72471000D01*
X116302000Y-72471000D01*
X116302000Y-75073000D01*
G37*
G36*
X94204000Y-75073000D02*
G01*
X93502000Y-75073000D01*
X93502000Y-72471000D01*
X94204000Y-72471000D01*
X94204000Y-75073000D01*
G37*
G36*
X131034000Y-75073000D02*
G01*
X130332000Y-75073000D01*
X130332000Y-72471000D01*
X131034000Y-72471000D01*
X131034000Y-75073000D01*
G37*
G36*
X134844000Y-75073000D02*
G01*
X134142000Y-75073000D01*
X134142000Y-72471000D01*
X134844000Y-72471000D01*
X134844000Y-75073000D01*
G37*
G36*
X117572000Y-75073000D02*
G01*
X116870000Y-75073000D01*
X116870000Y-72471000D01*
X117572000Y-72471000D01*
X117572000Y-75073000D01*
G37*
G36*
X85314000Y-75073000D02*
G01*
X84612000Y-75073000D01*
X84612000Y-72471000D01*
X85314000Y-72471000D01*
X85314000Y-75073000D01*
G37*
G36*
X127224000Y-75073000D02*
G01*
X126522000Y-75073000D01*
X126522000Y-72471000D01*
X127224000Y-72471000D01*
X127224000Y-75073000D01*
G37*
G36*
X125954000Y-75073000D02*
G01*
X125252000Y-75073000D01*
X125252000Y-72471000D01*
X125954000Y-72471000D01*
X125954000Y-75073000D01*
G37*
G36*
X105126000Y-75073000D02*
G01*
X104424000Y-75073000D01*
X104424000Y-72471000D01*
X105126000Y-72471000D01*
X105126000Y-75073000D01*
G37*
G36*
X120112000Y-75073000D02*
G01*
X119410000Y-75073000D01*
X119410000Y-72471000D01*
X120112000Y-72471000D01*
X120112000Y-75073000D01*
G37*
G36*
X103856000Y-75073000D02*
G01*
X103154000Y-75073000D01*
X103154000Y-72471000D01*
X103856000Y-72471000D01*
X103856000Y-75073000D01*
G37*
G36*
X121382000Y-75073000D02*
G01*
X120680000Y-75073000D01*
X120680000Y-72471000D01*
X121382000Y-72471000D01*
X121382000Y-75073000D01*
G37*
G36*
X118842000Y-75073000D02*
G01*
X118140000Y-75073000D01*
X118140000Y-72471000D01*
X118842000Y-72471000D01*
X118842000Y-75073000D01*
G37*
G36*
X122652000Y-75073000D02*
G01*
X121950000Y-75073000D01*
X121950000Y-72471000D01*
X122652000Y-72471000D01*
X122652000Y-75073000D01*
G37*
G36*
X92934000Y-75073000D02*
G01*
X92232000Y-75073000D01*
X92232000Y-72471000D01*
X92934000Y-72471000D01*
X92934000Y-75073000D01*
G37*
G36*
X91664000Y-75073000D02*
G01*
X90962000Y-75073000D01*
X90962000Y-72471000D01*
X91664000Y-72471000D01*
X91664000Y-75073000D01*
G37*
G36*
X90394000Y-75073000D02*
G01*
X89692000Y-75073000D01*
X89692000Y-72471000D01*
X90394000Y-72471000D01*
X90394000Y-75073000D01*
G37*
G36*
X89124000Y-75073000D02*
G01*
X88422000Y-75073000D01*
X88422000Y-72471000D01*
X89124000Y-72471000D01*
X89124000Y-75073000D01*
G37*
G36*
X87854000Y-75073000D02*
G01*
X87152000Y-75073000D01*
X87152000Y-72471000D01*
X87854000Y-72471000D01*
X87854000Y-75073000D01*
G37*
G36*
X86584000Y-75073000D02*
G01*
X85882000Y-75073000D01*
X85882000Y-72471000D01*
X86584000Y-72471000D01*
X86584000Y-75073000D01*
G37*
G36*
X123922000Y-75073000D02*
G01*
X123220000Y-75073000D01*
X123220000Y-72471000D01*
X123922000Y-72471000D01*
X123922000Y-75073000D01*
G37*
G36*
X77440000Y-75055000D02*
G01*
X76738000Y-75055000D01*
X76738000Y-72453000D01*
X77440000Y-72453000D01*
X77440000Y-75055000D01*
G37*
G36*
X73630000Y-75055000D02*
G01*
X72928000Y-75055000D01*
X72928000Y-72453000D01*
X73630000Y-72453000D01*
X73630000Y-75055000D01*
G37*
G36*
X74900000Y-75055000D02*
G01*
X74198000Y-75055000D01*
X74198000Y-72453000D01*
X74900000Y-72453000D01*
X74900000Y-75055000D01*
G37*
G36*
X76170000Y-75055000D02*
G01*
X75468000Y-75055000D01*
X75468000Y-72453000D01*
X76170000Y-72453000D01*
X76170000Y-75055000D01*
G37*
G36*
X81250000Y-75055000D02*
G01*
X80548000Y-75055000D01*
X80548000Y-72453000D01*
X81250000Y-72453000D01*
X81250000Y-75055000D01*
G37*
G36*
X72360000Y-75055000D02*
G01*
X71658000Y-75055000D01*
X71658000Y-72453000D01*
X72360000Y-72453000D01*
X72360000Y-75055000D01*
G37*
G36*
X78710000Y-75055000D02*
G01*
X78008000Y-75055000D01*
X78008000Y-72453000D01*
X78710000Y-72453000D01*
X78710000Y-75055000D01*
G37*
G36*
X79980000Y-75055000D02*
G01*
X79278000Y-75055000D01*
X79278000Y-72453000D01*
X79980000Y-72453000D01*
X79980000Y-75055000D01*
G37*
G36*
X112929000Y-74298000D02*
G01*
X106527000Y-74298000D01*
X106527000Y-72746000D01*
X112929000Y-72746000D01*
X112929000Y-74298000D01*
G37*
G36*
X53056000Y-73101000D02*
G01*
X52354000Y-73101000D01*
X52354000Y-69999000D01*
X53056000Y-69999000D01*
X53056000Y-73101000D01*
G37*
G36*
X54326000Y-73101000D02*
G01*
X53624000Y-73101000D01*
X53624000Y-69999000D01*
X54326000Y-69999000D01*
X54326000Y-73101000D01*
G37*
G36*
X55596000Y-73101000D02*
G01*
X54894000Y-73101000D01*
X54894000Y-69999000D01*
X55596000Y-69999000D01*
X55596000Y-73101000D01*
G37*
G36*
X56866000Y-73101000D02*
G01*
X56164000Y-73101000D01*
X56164000Y-69999000D01*
X56866000Y-69999000D01*
X56866000Y-73101000D01*
G37*
G36*
X64486000Y-73101000D02*
G01*
X63784000Y-73101000D01*
X63784000Y-69999000D01*
X64486000Y-69999000D01*
X64486000Y-73101000D01*
G37*
G36*
X63216000Y-73101000D02*
G01*
X62514000Y-73101000D01*
X62514000Y-69999000D01*
X63216000Y-69999000D01*
X63216000Y-73101000D01*
G37*
G36*
X59406000Y-73101000D02*
G01*
X58704000Y-73101000D01*
X58704000Y-69999000D01*
X59406000Y-69999000D01*
X59406000Y-73101000D01*
G37*
G36*
X60676000Y-73101000D02*
G01*
X59974000Y-73101000D01*
X59974000Y-69999000D01*
X60676000Y-69999000D01*
X60676000Y-73101000D01*
G37*
G36*
X61946000Y-73101000D02*
G01*
X61244000Y-73101000D01*
X61244000Y-69999000D01*
X61946000Y-69999000D01*
X61946000Y-73101000D01*
G37*
G36*
X58136000Y-73101000D02*
G01*
X57434000Y-73101000D01*
X57434000Y-69999000D01*
X58136000Y-69999000D01*
X58136000Y-73101000D01*
G37*
G36*
X87854000Y-64217000D02*
G01*
X87152000Y-64217000D01*
X87152000Y-61615000D01*
X87854000Y-61615000D01*
X87854000Y-64217000D01*
G37*
G36*
X86584000Y-64217000D02*
G01*
X85882000Y-64217000D01*
X85882000Y-61615000D01*
X86584000Y-61615000D01*
X86584000Y-64217000D01*
G37*
G36*
X85314000Y-64217000D02*
G01*
X84612000Y-64217000D01*
X84612000Y-61615000D01*
X85314000Y-61615000D01*
X85314000Y-64217000D01*
G37*
G36*
X125954000Y-64217000D02*
G01*
X125252000Y-64217000D01*
X125252000Y-61615000D01*
X125954000Y-61615000D01*
X125954000Y-64217000D01*
G37*
G36*
X127224000Y-64217000D02*
G01*
X126522000Y-64217000D01*
X126522000Y-61615000D01*
X127224000Y-61615000D01*
X127224000Y-64217000D01*
G37*
G36*
X100046000Y-64217000D02*
G01*
X99344000Y-64217000D01*
X99344000Y-61615000D01*
X100046000Y-61615000D01*
X100046000Y-64217000D01*
G37*
G36*
X129764000Y-64217000D02*
G01*
X129062000Y-64217000D01*
X129062000Y-61615000D01*
X129764000Y-61615000D01*
X129764000Y-64217000D01*
G37*
G36*
X131034000Y-64217000D02*
G01*
X130332000Y-64217000D01*
X130332000Y-61615000D01*
X131034000Y-61615000D01*
X131034000Y-64217000D01*
G37*
G36*
X132304000Y-64217000D02*
G01*
X131602000Y-64217000D01*
X131602000Y-61615000D01*
X132304000Y-61615000D01*
X132304000Y-64217000D01*
G37*
G36*
X133574000Y-64217000D02*
G01*
X132872000Y-64217000D01*
X132872000Y-61615000D01*
X133574000Y-61615000D01*
X133574000Y-64217000D01*
G37*
G36*
X105126000Y-64217000D02*
G01*
X104424000Y-64217000D01*
X104424000Y-61615000D01*
X105126000Y-61615000D01*
X105126000Y-64217000D01*
G37*
G36*
X103856000Y-64217000D02*
G01*
X103154000Y-64217000D01*
X103154000Y-61615000D01*
X103856000Y-61615000D01*
X103856000Y-64217000D01*
G37*
G36*
X102586000Y-64217000D02*
G01*
X101884000Y-64217000D01*
X101884000Y-61615000D01*
X102586000Y-61615000D01*
X102586000Y-64217000D01*
G37*
G36*
X101316000Y-64217000D02*
G01*
X100614000Y-64217000D01*
X100614000Y-61615000D01*
X101316000Y-61615000D01*
X101316000Y-64217000D01*
G37*
G36*
X123922000Y-64217000D02*
G01*
X123220000Y-64217000D01*
X123220000Y-61615000D01*
X123922000Y-61615000D01*
X123922000Y-64217000D01*
G37*
G36*
X96236000Y-64217000D02*
G01*
X95534000Y-64217000D01*
X95534000Y-61615000D01*
X96236000Y-61615000D01*
X96236000Y-64217000D01*
G37*
G36*
X90394000Y-64217000D02*
G01*
X89692000Y-64217000D01*
X89692000Y-61615000D01*
X90394000Y-61615000D01*
X90394000Y-64217000D01*
G37*
G36*
X98776000Y-64217000D02*
G01*
X98074000Y-64217000D01*
X98074000Y-61615000D01*
X98776000Y-61615000D01*
X98776000Y-64217000D01*
G37*
G36*
X97506000Y-64217000D02*
G01*
X96804000Y-64217000D01*
X96804000Y-61615000D01*
X97506000Y-61615000D01*
X97506000Y-64217000D01*
G37*
G36*
X115032000Y-64217000D02*
G01*
X114330000Y-64217000D01*
X114330000Y-61615000D01*
X115032000Y-61615000D01*
X115032000Y-64217000D01*
G37*
G36*
X116302000Y-64217000D02*
G01*
X115600000Y-64217000D01*
X115600000Y-61615000D01*
X116302000Y-61615000D01*
X116302000Y-64217000D01*
G37*
G36*
X117572000Y-64217000D02*
G01*
X116870000Y-64217000D01*
X116870000Y-61615000D01*
X117572000Y-61615000D01*
X117572000Y-64217000D01*
G37*
G36*
X118842000Y-64217000D02*
G01*
X118140000Y-64217000D01*
X118140000Y-61615000D01*
X118842000Y-61615000D01*
X118842000Y-64217000D01*
G37*
G36*
X120112000Y-64217000D02*
G01*
X119410000Y-64217000D01*
X119410000Y-61615000D01*
X120112000Y-61615000D01*
X120112000Y-64217000D01*
G37*
G36*
X121382000Y-64217000D02*
G01*
X120680000Y-64217000D01*
X120680000Y-61615000D01*
X121382000Y-61615000D01*
X121382000Y-64217000D01*
G37*
G36*
X122652000Y-64217000D02*
G01*
X121950000Y-64217000D01*
X121950000Y-61615000D01*
X122652000Y-61615000D01*
X122652000Y-64217000D01*
G37*
G36*
X134844000Y-64217000D02*
G01*
X134142000Y-64217000D01*
X134142000Y-61615000D01*
X134844000Y-61615000D01*
X134844000Y-64217000D01*
G37*
G36*
X128494000Y-64217000D02*
G01*
X127792000Y-64217000D01*
X127792000Y-61615000D01*
X128494000Y-61615000D01*
X128494000Y-64217000D01*
G37*
G36*
X94204000Y-64217000D02*
G01*
X93502000Y-64217000D01*
X93502000Y-61615000D01*
X94204000Y-61615000D01*
X94204000Y-64217000D01*
G37*
G36*
X92934000Y-64217000D02*
G01*
X92232000Y-64217000D01*
X92232000Y-61615000D01*
X92934000Y-61615000D01*
X92934000Y-64217000D01*
G37*
G36*
X91664000Y-64217000D02*
G01*
X90962000Y-64217000D01*
X90962000Y-61615000D01*
X91664000Y-61615000D01*
X91664000Y-64217000D01*
G37*
G36*
X89124000Y-64217000D02*
G01*
X88422000Y-64217000D01*
X88422000Y-61615000D01*
X89124000Y-61615000D01*
X89124000Y-64217000D01*
G37*
G36*
X68169000Y-64199000D02*
G01*
X67467000Y-64199000D01*
X67467000Y-61597000D01*
X68169000Y-61597000D01*
X68169000Y-64199000D01*
G37*
G36*
X71979000Y-64199000D02*
G01*
X71277000Y-64199000D01*
X71277000Y-61597000D01*
X71979000Y-61597000D01*
X71979000Y-64199000D01*
G37*
G36*
X75535000Y-64199000D02*
G01*
X74833000Y-64199000D01*
X74833000Y-61597000D01*
X75535000Y-61597000D01*
X75535000Y-64199000D01*
G37*
G36*
X69439000Y-64199000D02*
G01*
X68737000Y-64199000D01*
X68737000Y-61597000D01*
X69439000Y-61597000D01*
X69439000Y-64199000D01*
G37*
G36*
X76805000Y-64199000D02*
G01*
X76103000Y-64199000D01*
X76103000Y-61597000D01*
X76805000Y-61597000D01*
X76805000Y-64199000D01*
G37*
G36*
X78075000Y-64199000D02*
G01*
X77373000Y-64199000D01*
X77373000Y-61597000D01*
X78075000Y-61597000D01*
X78075000Y-64199000D01*
G37*
G36*
X66899000Y-64199000D02*
G01*
X66197000Y-64199000D01*
X66197000Y-61597000D01*
X66899000Y-61597000D01*
X66899000Y-64199000D01*
G37*
G36*
X64359000Y-64199000D02*
G01*
X63657000Y-64199000D01*
X63657000Y-61597000D01*
X64359000Y-61597000D01*
X64359000Y-64199000D01*
G37*
G36*
X65629000Y-64199000D02*
G01*
X64927000Y-64199000D01*
X64927000Y-61597000D01*
X65629000Y-61597000D01*
X65629000Y-64199000D01*
G37*
G36*
X70709000Y-64199000D02*
G01*
X70007000Y-64199000D01*
X70007000Y-61597000D01*
X70709000Y-61597000D01*
X70709000Y-64199000D01*
G37*
G36*
X79345000Y-64199000D02*
G01*
X78643000Y-64199000D01*
X78643000Y-61597000D01*
X79345000Y-61597000D01*
X79345000Y-64199000D01*
G37*
G36*
X81885000Y-64199000D02*
G01*
X81183000Y-64199000D01*
X81183000Y-61597000D01*
X81885000Y-61597000D01*
X81885000Y-64199000D01*
G37*
G36*
X83155000Y-64199000D02*
G01*
X82453000Y-64199000D01*
X82453000Y-61597000D01*
X83155000Y-61597000D01*
X83155000Y-64199000D01*
G37*
G36*
X80615000Y-64199000D02*
G01*
X79913000Y-64199000D01*
X79913000Y-61597000D01*
X80615000Y-61597000D01*
X80615000Y-64199000D01*
G37*
G36*
X61057000Y-64137000D02*
G01*
X60355000Y-64137000D01*
X60355000Y-61535000D01*
X61057000Y-61535000D01*
X61057000Y-64137000D01*
G37*
G36*
X59787000Y-64137000D02*
G01*
X59085000Y-64137000D01*
X59085000Y-61535000D01*
X59787000Y-61535000D01*
X59787000Y-64137000D01*
G37*
G36*
X53437000Y-64137000D02*
G01*
X52735000Y-64137000D01*
X52735000Y-61535000D01*
X53437000Y-61535000D01*
X53437000Y-64137000D01*
G37*
G36*
X54707000Y-64137000D02*
G01*
X54005000Y-64137000D01*
X54005000Y-61535000D01*
X54707000Y-61535000D01*
X54707000Y-64137000D01*
G37*
G36*
X57247000Y-64137000D02*
G01*
X56545000Y-64137000D01*
X56545000Y-61535000D01*
X57247000Y-61535000D01*
X57247000Y-64137000D01*
G37*
G36*
X58517000Y-64137000D02*
G01*
X57815000Y-64137000D01*
X57815000Y-61535000D01*
X58517000Y-61535000D01*
X58517000Y-64137000D01*
G37*
G36*
X55977000Y-64137000D02*
G01*
X55275000Y-64137000D01*
X55275000Y-61535000D01*
X55977000Y-61535000D01*
X55977000Y-64137000D01*
G37*
G36*
X112929000Y-63942000D02*
G01*
X106527000Y-63942000D01*
X106527000Y-62390000D01*
X112929000Y-62390000D01*
X112929000Y-63942000D01*
G37*
G36*
X118842000Y-58817000D02*
G01*
X118140000Y-58817000D01*
X118140000Y-56215000D01*
X118842000Y-56215000D01*
X118842000Y-58817000D01*
G37*
G36*
X103856000Y-58817000D02*
G01*
X103154000Y-58817000D01*
X103154000Y-56215000D01*
X103856000Y-56215000D01*
X103856000Y-58817000D01*
G37*
G36*
X85314000Y-58817000D02*
G01*
X84612000Y-58817000D01*
X84612000Y-56215000D01*
X85314000Y-56215000D01*
X85314000Y-58817000D01*
G37*
G36*
X116302000Y-58817000D02*
G01*
X115600000Y-58817000D01*
X115600000Y-56215000D01*
X116302000Y-56215000D01*
X116302000Y-58817000D01*
G37*
G36*
X121382000Y-58817000D02*
G01*
X120680000Y-58817000D01*
X120680000Y-56215000D01*
X121382000Y-56215000D01*
X121382000Y-58817000D01*
G37*
G36*
X127224000Y-58817000D02*
G01*
X126522000Y-58817000D01*
X126522000Y-56215000D01*
X127224000Y-56215000D01*
X127224000Y-58817000D01*
G37*
G36*
X120112000Y-58817000D02*
G01*
X119410000Y-58817000D01*
X119410000Y-56215000D01*
X120112000Y-56215000D01*
X120112000Y-58817000D01*
G37*
G36*
X102586000Y-58817000D02*
G01*
X101884000Y-58817000D01*
X101884000Y-56215000D01*
X102586000Y-56215000D01*
X102586000Y-58817000D01*
G37*
G36*
X128494000Y-58817000D02*
G01*
X127792000Y-58817000D01*
X127792000Y-56215000D01*
X128494000Y-56215000D01*
X128494000Y-58817000D01*
G37*
G36*
X129764000Y-58817000D02*
G01*
X129062000Y-58817000D01*
X129062000Y-56215000D01*
X129764000Y-56215000D01*
X129764000Y-58817000D01*
G37*
G36*
X117572000Y-58817000D02*
G01*
X116870000Y-58817000D01*
X116870000Y-56215000D01*
X117572000Y-56215000D01*
X117572000Y-58817000D01*
G37*
G36*
X131034000Y-58817000D02*
G01*
X130332000Y-58817000D01*
X130332000Y-56215000D01*
X131034000Y-56215000D01*
X131034000Y-58817000D01*
G37*
G36*
X132304000Y-58817000D02*
G01*
X131602000Y-58817000D01*
X131602000Y-56215000D01*
X132304000Y-56215000D01*
X132304000Y-58817000D01*
G37*
G36*
X115032000Y-58817000D02*
G01*
X114330000Y-58817000D01*
X114330000Y-56215000D01*
X115032000Y-56215000D01*
X115032000Y-58817000D01*
G37*
G36*
X133574000Y-58817000D02*
G01*
X132872000Y-58817000D01*
X132872000Y-56215000D01*
X133574000Y-56215000D01*
X133574000Y-58817000D01*
G37*
G36*
X134844000Y-58817000D02*
G01*
X134142000Y-58817000D01*
X134142000Y-56215000D01*
X134844000Y-56215000D01*
X134844000Y-58817000D01*
G37*
G36*
X89124000Y-58817000D02*
G01*
X88422000Y-58817000D01*
X88422000Y-56215000D01*
X89124000Y-56215000D01*
X89124000Y-58817000D01*
G37*
G36*
X86584000Y-58817000D02*
G01*
X85882000Y-58817000D01*
X85882000Y-56215000D01*
X86584000Y-56215000D01*
X86584000Y-58817000D01*
G37*
G36*
X98776000Y-58817000D02*
G01*
X98074000Y-58817000D01*
X98074000Y-56215000D01*
X98776000Y-56215000D01*
X98776000Y-58817000D01*
G37*
G36*
X97506000Y-58817000D02*
G01*
X96804000Y-58817000D01*
X96804000Y-56215000D01*
X97506000Y-56215000D01*
X97506000Y-58817000D01*
G37*
G36*
X122652000Y-58817000D02*
G01*
X121950000Y-58817000D01*
X121950000Y-56215000D01*
X122652000Y-56215000D01*
X122652000Y-58817000D01*
G37*
G36*
X125954000Y-58817000D02*
G01*
X125252000Y-58817000D01*
X125252000Y-56215000D01*
X125954000Y-56215000D01*
X125954000Y-58817000D01*
G37*
G36*
X96236000Y-58817000D02*
G01*
X95534000Y-58817000D01*
X95534000Y-56215000D01*
X96236000Y-56215000D01*
X96236000Y-58817000D01*
G37*
G36*
X105126000Y-58817000D02*
G01*
X104424000Y-58817000D01*
X104424000Y-56215000D01*
X105126000Y-56215000D01*
X105126000Y-58817000D01*
G37*
G36*
X94204000Y-58817000D02*
G01*
X93502000Y-58817000D01*
X93502000Y-56215000D01*
X94204000Y-56215000D01*
X94204000Y-58817000D01*
G37*
G36*
X87854000Y-58817000D02*
G01*
X87152000Y-58817000D01*
X87152000Y-56215000D01*
X87854000Y-56215000D01*
X87854000Y-58817000D01*
G37*
G36*
X92934000Y-58817000D02*
G01*
X92232000Y-58817000D01*
X92232000Y-56215000D01*
X92934000Y-56215000D01*
X92934000Y-58817000D01*
G37*
G36*
X100046000Y-58817000D02*
G01*
X99344000Y-58817000D01*
X99344000Y-56215000D01*
X100046000Y-56215000D01*
X100046000Y-58817000D01*
G37*
G36*
X91664000Y-58817000D02*
G01*
X90962000Y-58817000D01*
X90962000Y-56215000D01*
X91664000Y-56215000D01*
X91664000Y-58817000D01*
G37*
G36*
X123922000Y-58817000D02*
G01*
X123220000Y-58817000D01*
X123220000Y-56215000D01*
X123922000Y-56215000D01*
X123922000Y-58817000D01*
G37*
G36*
X90394000Y-58817000D02*
G01*
X89692000Y-58817000D01*
X89692000Y-56215000D01*
X90394000Y-56215000D01*
X90394000Y-58817000D01*
G37*
G36*
X101316000Y-58817000D02*
G01*
X100614000Y-58817000D01*
X100614000Y-56215000D01*
X101316000Y-56215000D01*
X101316000Y-58817000D01*
G37*
G36*
X78075000Y-58799000D02*
G01*
X77373000Y-58799000D01*
X77373000Y-56197000D01*
X78075000Y-56197000D01*
X78075000Y-58799000D01*
G37*
G36*
X79345000Y-58799000D02*
G01*
X78643000Y-58799000D01*
X78643000Y-56197000D01*
X79345000Y-56197000D01*
X79345000Y-58799000D01*
G37*
G36*
X80615000Y-58799000D02*
G01*
X79913000Y-58799000D01*
X79913000Y-56197000D01*
X80615000Y-56197000D01*
X80615000Y-58799000D01*
G37*
G36*
X81885000Y-58799000D02*
G01*
X81183000Y-58799000D01*
X81183000Y-56197000D01*
X81885000Y-56197000D01*
X81885000Y-58799000D01*
G37*
G36*
X75535000Y-58799000D02*
G01*
X74833000Y-58799000D01*
X74833000Y-56197000D01*
X75535000Y-56197000D01*
X75535000Y-58799000D01*
G37*
G36*
X76805000Y-58799000D02*
G01*
X76103000Y-58799000D01*
X76103000Y-56197000D01*
X76805000Y-56197000D01*
X76805000Y-58799000D01*
G37*
G36*
X71979000Y-58799000D02*
G01*
X71277000Y-58799000D01*
X71277000Y-56197000D01*
X71979000Y-56197000D01*
X71979000Y-58799000D01*
G37*
G36*
X69439000Y-58799000D02*
G01*
X68737000Y-58799000D01*
X68737000Y-56197000D01*
X69439000Y-56197000D01*
X69439000Y-58799000D01*
G37*
G36*
X68169000Y-58799000D02*
G01*
X67467000Y-58799000D01*
X67467000Y-56197000D01*
X68169000Y-56197000D01*
X68169000Y-58799000D01*
G37*
G36*
X66899000Y-58799000D02*
G01*
X66197000Y-58799000D01*
X66197000Y-56197000D01*
X66899000Y-56197000D01*
X66899000Y-58799000D01*
G37*
G36*
X65629000Y-58799000D02*
G01*
X64927000Y-58799000D01*
X64927000Y-56197000D01*
X65629000Y-56197000D01*
X65629000Y-58799000D01*
G37*
G36*
X64359000Y-58799000D02*
G01*
X63657000Y-58799000D01*
X63657000Y-56197000D01*
X64359000Y-56197000D01*
X64359000Y-58799000D01*
G37*
G36*
X83155000Y-58799000D02*
G01*
X82453000Y-58799000D01*
X82453000Y-56197000D01*
X83155000Y-56197000D01*
X83155000Y-58799000D01*
G37*
G36*
X70709000Y-58799000D02*
G01*
X70007000Y-58799000D01*
X70007000Y-56197000D01*
X70709000Y-56197000D01*
X70709000Y-58799000D01*
G37*
G36*
X54707000Y-58737000D02*
G01*
X54005000Y-58737000D01*
X54005000Y-56135000D01*
X54707000Y-56135000D01*
X54707000Y-58737000D01*
G37*
G36*
X53437000Y-58737000D02*
G01*
X52735000Y-58737000D01*
X52735000Y-56135000D01*
X53437000Y-56135000D01*
X53437000Y-58737000D01*
G37*
G36*
X57247000Y-58737000D02*
G01*
X56545000Y-58737000D01*
X56545000Y-56135000D01*
X57247000Y-56135000D01*
X57247000Y-58737000D01*
G37*
G36*
X58517000Y-58737000D02*
G01*
X57815000Y-58737000D01*
X57815000Y-56135000D01*
X58517000Y-56135000D01*
X58517000Y-58737000D01*
G37*
G36*
X59787000Y-58737000D02*
G01*
X59085000Y-58737000D01*
X59085000Y-56135000D01*
X59787000Y-56135000D01*
X59787000Y-58737000D01*
G37*
G36*
X61057000Y-58737000D02*
G01*
X60355000Y-58737000D01*
X60355000Y-56135000D01*
X61057000Y-56135000D01*
X61057000Y-58737000D01*
G37*
G36*
X55977000Y-58737000D02*
G01*
X55275000Y-58737000D01*
X55275000Y-56135000D01*
X55977000Y-56135000D01*
X55977000Y-58737000D01*
G37*
G36*
X112929000Y-58042000D02*
G01*
X106527000Y-58042000D01*
X106527000Y-56490000D01*
X112929000Y-56490000D01*
X112929000Y-58042000D01*
G37*
G36*
X65137512Y-51427927D02*
G01*
X65286812Y-51457624D01*
X65450784Y-51525544D01*
X65598354Y-51624147D01*
X65723853Y-51749646D01*
X65822456Y-51897216D01*
X65890376Y-52061188D01*
X65925000Y-52235259D01*
X65925000Y-52412741D01*
X65890376Y-52586812D01*
X65822456Y-52750784D01*
X65723853Y-52898354D01*
X65598354Y-53023853D01*
X65450784Y-53122456D01*
X65286812Y-53190376D01*
X65137512Y-53220073D01*
X65112742Y-53225000D01*
X64935258Y-53225000D01*
X64910488Y-53220073D01*
X64761188Y-53190376D01*
X64597216Y-53122456D01*
X64449646Y-53023853D01*
X64324147Y-52898354D01*
X64225544Y-52750784D01*
X64157624Y-52586812D01*
X64123000Y-52412741D01*
X64123000Y-52235259D01*
X64157624Y-52061188D01*
X64225544Y-51897216D01*
X64324147Y-51749646D01*
X64449646Y-51624147D01*
X64597216Y-51525544D01*
X64761188Y-51457624D01*
X64910488Y-51427927D01*
X64935258Y-51423000D01*
X65112742Y-51423000D01*
X65137512Y-51427927D01*
G37*
G36*
X53225000Y-53225000D02*
G01*
X51423000Y-53225000D01*
X51423000Y-51423000D01*
X53225000Y-51423000D01*
X53225000Y-53225000D01*
G37*
G36*
X54977512Y-51427927D02*
G01*
X55126812Y-51457624D01*
X55290784Y-51525544D01*
X55438354Y-51624147D01*
X55563853Y-51749646D01*
X55662456Y-51897216D01*
X55730376Y-52061188D01*
X55765000Y-52235259D01*
X55765000Y-52412741D01*
X55730376Y-52586812D01*
X55662456Y-52750784D01*
X55563853Y-52898354D01*
X55438354Y-53023853D01*
X55290784Y-53122456D01*
X55126812Y-53190376D01*
X54977512Y-53220073D01*
X54952742Y-53225000D01*
X54775258Y-53225000D01*
X54750488Y-53220073D01*
X54601188Y-53190376D01*
X54437216Y-53122456D01*
X54289646Y-53023853D01*
X54164147Y-52898354D01*
X54065544Y-52750784D01*
X53997624Y-52586812D01*
X53963000Y-52412741D01*
X53963000Y-52235259D01*
X53997624Y-52061188D01*
X54065544Y-51897216D01*
X54164147Y-51749646D01*
X54289646Y-51624147D01*
X54437216Y-51525544D01*
X54601188Y-51457624D01*
X54750488Y-51427927D01*
X54775258Y-51423000D01*
X54952742Y-51423000D01*
X54977512Y-51427927D01*
G37*
G36*
X57517512Y-51427927D02*
G01*
X57666812Y-51457624D01*
X57830784Y-51525544D01*
X57978354Y-51624147D01*
X58103853Y-51749646D01*
X58202456Y-51897216D01*
X58270376Y-52061188D01*
X58305000Y-52235259D01*
X58305000Y-52412741D01*
X58270376Y-52586812D01*
X58202456Y-52750784D01*
X58103853Y-52898354D01*
X57978354Y-53023853D01*
X57830784Y-53122456D01*
X57666812Y-53190376D01*
X57517512Y-53220073D01*
X57492742Y-53225000D01*
X57315258Y-53225000D01*
X57290488Y-53220073D01*
X57141188Y-53190376D01*
X56977216Y-53122456D01*
X56829646Y-53023853D01*
X56704147Y-52898354D01*
X56605544Y-52750784D01*
X56537624Y-52586812D01*
X56503000Y-52412741D01*
X56503000Y-52235259D01*
X56537624Y-52061188D01*
X56605544Y-51897216D01*
X56704147Y-51749646D01*
X56829646Y-51624147D01*
X56977216Y-51525544D01*
X57141188Y-51457624D01*
X57290488Y-51427927D01*
X57315258Y-51423000D01*
X57492742Y-51423000D01*
X57517512Y-51427927D01*
G37*
G36*
X60057512Y-51427927D02*
G01*
X60206812Y-51457624D01*
X60370784Y-51525544D01*
X60518354Y-51624147D01*
X60643853Y-51749646D01*
X60742456Y-51897216D01*
X60810376Y-52061188D01*
X60845000Y-52235259D01*
X60845000Y-52412741D01*
X60810376Y-52586812D01*
X60742456Y-52750784D01*
X60643853Y-52898354D01*
X60518354Y-53023853D01*
X60370784Y-53122456D01*
X60206812Y-53190376D01*
X60057512Y-53220073D01*
X60032742Y-53225000D01*
X59855258Y-53225000D01*
X59830488Y-53220073D01*
X59681188Y-53190376D01*
X59517216Y-53122456D01*
X59369646Y-53023853D01*
X59244147Y-52898354D01*
X59145544Y-52750784D01*
X59077624Y-52586812D01*
X59043000Y-52412741D01*
X59043000Y-52235259D01*
X59077624Y-52061188D01*
X59145544Y-51897216D01*
X59244147Y-51749646D01*
X59369646Y-51624147D01*
X59517216Y-51525544D01*
X59681188Y-51457624D01*
X59830488Y-51427927D01*
X59855258Y-51423000D01*
X60032742Y-51423000D01*
X60057512Y-51427927D01*
G37*
G36*
X62597512Y-51427927D02*
G01*
X62746812Y-51457624D01*
X62910784Y-51525544D01*
X63058354Y-51624147D01*
X63183853Y-51749646D01*
X63282456Y-51897216D01*
X63350376Y-52061188D01*
X63385000Y-52235259D01*
X63385000Y-52412741D01*
X63350376Y-52586812D01*
X63282456Y-52750784D01*
X63183853Y-52898354D01*
X63058354Y-53023853D01*
X62910784Y-53122456D01*
X62746812Y-53190376D01*
X62597512Y-53220073D01*
X62572742Y-53225000D01*
X62395258Y-53225000D01*
X62370488Y-53220073D01*
X62221188Y-53190376D01*
X62057216Y-53122456D01*
X61909646Y-53023853D01*
X61784147Y-52898354D01*
X61685544Y-52750784D01*
X61617624Y-52586812D01*
X61583000Y-52412741D01*
X61583000Y-52235259D01*
X61617624Y-52061188D01*
X61685544Y-51897216D01*
X61784147Y-51749646D01*
X61909646Y-51624147D01*
X62057216Y-51525544D01*
X62221188Y-51457624D01*
X62370488Y-51427927D01*
X62395258Y-51423000D01*
X62572742Y-51423000D01*
X62597512Y-51427927D01*
G37*
G36*
X67677512Y-51427927D02*
G01*
X67826812Y-51457624D01*
X67990784Y-51525544D01*
X68138354Y-51624147D01*
X68263853Y-51749646D01*
X68362456Y-51897216D01*
X68430376Y-52061188D01*
X68465000Y-52235259D01*
X68465000Y-52412741D01*
X68430376Y-52586812D01*
X68362456Y-52750784D01*
X68263853Y-52898354D01*
X68138354Y-53023853D01*
X67990784Y-53122456D01*
X67826812Y-53190376D01*
X67677512Y-53220073D01*
X67652742Y-53225000D01*
X67475258Y-53225000D01*
X67450488Y-53220073D01*
X67301188Y-53190376D01*
X67137216Y-53122456D01*
X66989646Y-53023853D01*
X66864147Y-52898354D01*
X66765544Y-52750784D01*
X66697624Y-52586812D01*
X66663000Y-52412741D01*
X66663000Y-52235259D01*
X66697624Y-52061188D01*
X66765544Y-51897216D01*
X66864147Y-51749646D01*
X66989646Y-51624147D01*
X67137216Y-51525544D01*
X67301188Y-51457624D01*
X67450488Y-51427927D01*
X67475258Y-51423000D01*
X67652742Y-51423000D01*
X67677512Y-51427927D01*
G37*
G36*
X70217512Y-51427927D02*
G01*
X70366812Y-51457624D01*
X70530784Y-51525544D01*
X70678354Y-51624147D01*
X70803853Y-51749646D01*
X70902456Y-51897216D01*
X70970376Y-52061188D01*
X71005000Y-52235259D01*
X71005000Y-52412741D01*
X70970376Y-52586812D01*
X70902456Y-52750784D01*
X70803853Y-52898354D01*
X70678354Y-53023853D01*
X70530784Y-53122456D01*
X70366812Y-53190376D01*
X70217512Y-53220073D01*
X70192742Y-53225000D01*
X70015258Y-53225000D01*
X69990488Y-53220073D01*
X69841188Y-53190376D01*
X69677216Y-53122456D01*
X69529646Y-53023853D01*
X69404147Y-52898354D01*
X69305544Y-52750784D01*
X69237624Y-52586812D01*
X69203000Y-52412741D01*
X69203000Y-52235259D01*
X69237624Y-52061188D01*
X69305544Y-51897216D01*
X69404147Y-51749646D01*
X69529646Y-51624147D01*
X69677216Y-51525544D01*
X69841188Y-51457624D01*
X69990488Y-51427927D01*
X70015258Y-51423000D01*
X70192742Y-51423000D01*
X70217512Y-51427927D01*
G37*
G36*
X72757512Y-51427927D02*
G01*
X72906812Y-51457624D01*
X73070784Y-51525544D01*
X73218354Y-51624147D01*
X73343853Y-51749646D01*
X73442456Y-51897216D01*
X73510376Y-52061188D01*
X73545000Y-52235259D01*
X73545000Y-52412741D01*
X73510376Y-52586812D01*
X73442456Y-52750784D01*
X73343853Y-52898354D01*
X73218354Y-53023853D01*
X73070784Y-53122456D01*
X72906812Y-53190376D01*
X72757512Y-53220073D01*
X72732742Y-53225000D01*
X72555258Y-53225000D01*
X72530488Y-53220073D01*
X72381188Y-53190376D01*
X72217216Y-53122456D01*
X72069646Y-53023853D01*
X71944147Y-52898354D01*
X71845544Y-52750784D01*
X71777624Y-52586812D01*
X71743000Y-52412741D01*
X71743000Y-52235259D01*
X71777624Y-52061188D01*
X71845544Y-51897216D01*
X71944147Y-51749646D01*
X72069646Y-51624147D01*
X72217216Y-51525544D01*
X72381188Y-51457624D01*
X72530488Y-51427927D01*
X72555258Y-51423000D01*
X72732742Y-51423000D01*
X72757512Y-51427927D01*
G37*
G36*
X75297512Y-51427927D02*
G01*
X75446812Y-51457624D01*
X75610784Y-51525544D01*
X75758354Y-51624147D01*
X75883853Y-51749646D01*
X75982456Y-51897216D01*
X76050376Y-52061188D01*
X76085000Y-52235259D01*
X76085000Y-52412741D01*
X76050376Y-52586812D01*
X75982456Y-52750784D01*
X75883853Y-52898354D01*
X75758354Y-53023853D01*
X75610784Y-53122456D01*
X75446812Y-53190376D01*
X75297512Y-53220073D01*
X75272742Y-53225000D01*
X75095258Y-53225000D01*
X75070488Y-53220073D01*
X74921188Y-53190376D01*
X74757216Y-53122456D01*
X74609646Y-53023853D01*
X74484147Y-52898354D01*
X74385544Y-52750784D01*
X74317624Y-52586812D01*
X74283000Y-52412741D01*
X74283000Y-52235259D01*
X74317624Y-52061188D01*
X74385544Y-51897216D01*
X74484147Y-51749646D01*
X74609646Y-51624147D01*
X74757216Y-51525544D01*
X74921188Y-51457624D01*
X75070488Y-51427927D01*
X75095258Y-51423000D01*
X75272742Y-51423000D01*
X75297512Y-51427927D01*
G37*
M02*
