G04 #@! TF.GenerationSoftware,KiCad,Pcbnew,5.1.5+dfsg1-2build2*
G04 #@! TF.CreationDate,2022-05-11T22:38:19-07:00*
G04 #@! TF.ProjectId,ProgramCounter,50726f67-7261-46d4-936f-756e7465722e,rev?*
G04 #@! TF.SameCoordinates,Original*
G04 #@! TF.FileFunction,Paste,Bot*
G04 #@! TF.FilePolarity,Positive*
%FSLAX46Y46*%
G04 Gerber Fmt 4.6, Leading zero omitted, Abs format (unit mm)*
G04 Created by KiCad (PCBNEW 5.1.5+dfsg1-2build2) date 2022-05-11 22:38:19*
%MOMM*%
%LPD*%
G04 APERTURE LIST*
%ADD10C,0.100000*%
G04 APERTURE END LIST*
D10*
G36*
X92000004Y-82184204D02*
G01*
X92024273Y-82187804D01*
X92048071Y-82193765D01*
X92071171Y-82202030D01*
X92093349Y-82212520D01*
X92114393Y-82225133D01*
X92134098Y-82239747D01*
X92152277Y-82256223D01*
X92168753Y-82274402D01*
X92183367Y-82294107D01*
X92195980Y-82315151D01*
X92206470Y-82337329D01*
X92214735Y-82360429D01*
X92220696Y-82384227D01*
X92224296Y-82408496D01*
X92225500Y-82433000D01*
X92225500Y-83683000D01*
X92224296Y-83707504D01*
X92220696Y-83731773D01*
X92214735Y-83755571D01*
X92206470Y-83778671D01*
X92195980Y-83800849D01*
X92183367Y-83821893D01*
X92168753Y-83841598D01*
X92152277Y-83859777D01*
X92134098Y-83876253D01*
X92114393Y-83890867D01*
X92093349Y-83903480D01*
X92071171Y-83913970D01*
X92048071Y-83922235D01*
X92024273Y-83928196D01*
X92000004Y-83931796D01*
X91975500Y-83933000D01*
X91050500Y-83933000D01*
X91025996Y-83931796D01*
X91001727Y-83928196D01*
X90977929Y-83922235D01*
X90954829Y-83913970D01*
X90932651Y-83903480D01*
X90911607Y-83890867D01*
X90891902Y-83876253D01*
X90873723Y-83859777D01*
X90857247Y-83841598D01*
X90842633Y-83821893D01*
X90830020Y-83800849D01*
X90819530Y-83778671D01*
X90811265Y-83755571D01*
X90805304Y-83731773D01*
X90801704Y-83707504D01*
X90800500Y-83683000D01*
X90800500Y-82433000D01*
X90801704Y-82408496D01*
X90805304Y-82384227D01*
X90811265Y-82360429D01*
X90819530Y-82337329D01*
X90830020Y-82315151D01*
X90842633Y-82294107D01*
X90857247Y-82274402D01*
X90873723Y-82256223D01*
X90891902Y-82239747D01*
X90911607Y-82225133D01*
X90932651Y-82212520D01*
X90954829Y-82202030D01*
X90977929Y-82193765D01*
X91001727Y-82187804D01*
X91025996Y-82184204D01*
X91050500Y-82183000D01*
X91975500Y-82183000D01*
X92000004Y-82184204D01*
G37*
G36*
X94975004Y-82184204D02*
G01*
X94999273Y-82187804D01*
X95023071Y-82193765D01*
X95046171Y-82202030D01*
X95068349Y-82212520D01*
X95089393Y-82225133D01*
X95109098Y-82239747D01*
X95127277Y-82256223D01*
X95143753Y-82274402D01*
X95158367Y-82294107D01*
X95170980Y-82315151D01*
X95181470Y-82337329D01*
X95189735Y-82360429D01*
X95195696Y-82384227D01*
X95199296Y-82408496D01*
X95200500Y-82433000D01*
X95200500Y-83683000D01*
X95199296Y-83707504D01*
X95195696Y-83731773D01*
X95189735Y-83755571D01*
X95181470Y-83778671D01*
X95170980Y-83800849D01*
X95158367Y-83821893D01*
X95143753Y-83841598D01*
X95127277Y-83859777D01*
X95109098Y-83876253D01*
X95089393Y-83890867D01*
X95068349Y-83903480D01*
X95046171Y-83913970D01*
X95023071Y-83922235D01*
X94999273Y-83928196D01*
X94975004Y-83931796D01*
X94950500Y-83933000D01*
X94025500Y-83933000D01*
X94000996Y-83931796D01*
X93976727Y-83928196D01*
X93952929Y-83922235D01*
X93929829Y-83913970D01*
X93907651Y-83903480D01*
X93886607Y-83890867D01*
X93866902Y-83876253D01*
X93848723Y-83859777D01*
X93832247Y-83841598D01*
X93817633Y-83821893D01*
X93805020Y-83800849D01*
X93794530Y-83778671D01*
X93786265Y-83755571D01*
X93780304Y-83731773D01*
X93776704Y-83707504D01*
X93775500Y-83683000D01*
X93775500Y-82433000D01*
X93776704Y-82408496D01*
X93780304Y-82384227D01*
X93786265Y-82360429D01*
X93794530Y-82337329D01*
X93805020Y-82315151D01*
X93817633Y-82294107D01*
X93832247Y-82274402D01*
X93848723Y-82256223D01*
X93866902Y-82239747D01*
X93886607Y-82225133D01*
X93907651Y-82212520D01*
X93929829Y-82202030D01*
X93952929Y-82193765D01*
X93976727Y-82187804D01*
X94000996Y-82184204D01*
X94025500Y-82183000D01*
X94950500Y-82183000D01*
X94975004Y-82184204D01*
G37*
G36*
X56548004Y-69992204D02*
G01*
X56572273Y-69995804D01*
X56596071Y-70001765D01*
X56619171Y-70010030D01*
X56641349Y-70020520D01*
X56662393Y-70033133D01*
X56682098Y-70047747D01*
X56700277Y-70064223D01*
X56716753Y-70082402D01*
X56731367Y-70102107D01*
X56743980Y-70123151D01*
X56754470Y-70145329D01*
X56762735Y-70168429D01*
X56768696Y-70192227D01*
X56772296Y-70216496D01*
X56773500Y-70241000D01*
X56773500Y-71491000D01*
X56772296Y-71515504D01*
X56768696Y-71539773D01*
X56762735Y-71563571D01*
X56754470Y-71586671D01*
X56743980Y-71608849D01*
X56731367Y-71629893D01*
X56716753Y-71649598D01*
X56700277Y-71667777D01*
X56682098Y-71684253D01*
X56662393Y-71698867D01*
X56641349Y-71711480D01*
X56619171Y-71721970D01*
X56596071Y-71730235D01*
X56572273Y-71736196D01*
X56548004Y-71739796D01*
X56523500Y-71741000D01*
X55598500Y-71741000D01*
X55573996Y-71739796D01*
X55549727Y-71736196D01*
X55525929Y-71730235D01*
X55502829Y-71721970D01*
X55480651Y-71711480D01*
X55459607Y-71698867D01*
X55439902Y-71684253D01*
X55421723Y-71667777D01*
X55405247Y-71649598D01*
X55390633Y-71629893D01*
X55378020Y-71608849D01*
X55367530Y-71586671D01*
X55359265Y-71563571D01*
X55353304Y-71539773D01*
X55349704Y-71515504D01*
X55348500Y-71491000D01*
X55348500Y-70241000D01*
X55349704Y-70216496D01*
X55353304Y-70192227D01*
X55359265Y-70168429D01*
X55367530Y-70145329D01*
X55378020Y-70123151D01*
X55390633Y-70102107D01*
X55405247Y-70082402D01*
X55421723Y-70064223D01*
X55439902Y-70047747D01*
X55459607Y-70033133D01*
X55480651Y-70020520D01*
X55502829Y-70010030D01*
X55525929Y-70001765D01*
X55549727Y-69995804D01*
X55573996Y-69992204D01*
X55598500Y-69991000D01*
X56523500Y-69991000D01*
X56548004Y-69992204D01*
G37*
G36*
X53573004Y-69992204D02*
G01*
X53597273Y-69995804D01*
X53621071Y-70001765D01*
X53644171Y-70010030D01*
X53666349Y-70020520D01*
X53687393Y-70033133D01*
X53707098Y-70047747D01*
X53725277Y-70064223D01*
X53741753Y-70082402D01*
X53756367Y-70102107D01*
X53768980Y-70123151D01*
X53779470Y-70145329D01*
X53787735Y-70168429D01*
X53793696Y-70192227D01*
X53797296Y-70216496D01*
X53798500Y-70241000D01*
X53798500Y-71491000D01*
X53797296Y-71515504D01*
X53793696Y-71539773D01*
X53787735Y-71563571D01*
X53779470Y-71586671D01*
X53768980Y-71608849D01*
X53756367Y-71629893D01*
X53741753Y-71649598D01*
X53725277Y-71667777D01*
X53707098Y-71684253D01*
X53687393Y-71698867D01*
X53666349Y-71711480D01*
X53644171Y-71721970D01*
X53621071Y-71730235D01*
X53597273Y-71736196D01*
X53573004Y-71739796D01*
X53548500Y-71741000D01*
X52623500Y-71741000D01*
X52598996Y-71739796D01*
X52574727Y-71736196D01*
X52550929Y-71730235D01*
X52527829Y-71721970D01*
X52505651Y-71711480D01*
X52484607Y-71698867D01*
X52464902Y-71684253D01*
X52446723Y-71667777D01*
X52430247Y-71649598D01*
X52415633Y-71629893D01*
X52403020Y-71608849D01*
X52392530Y-71586671D01*
X52384265Y-71563571D01*
X52378304Y-71539773D01*
X52374704Y-71515504D01*
X52373500Y-71491000D01*
X52373500Y-70241000D01*
X52374704Y-70216496D01*
X52378304Y-70192227D01*
X52384265Y-70168429D01*
X52392530Y-70145329D01*
X52403020Y-70123151D01*
X52415633Y-70102107D01*
X52430247Y-70082402D01*
X52446723Y-70064223D01*
X52464902Y-70047747D01*
X52484607Y-70033133D01*
X52505651Y-70020520D01*
X52527829Y-70010030D01*
X52550929Y-70001765D01*
X52574727Y-69995804D01*
X52598996Y-69992204D01*
X52623500Y-69991000D01*
X53548500Y-69991000D01*
X53573004Y-69992204D01*
G37*
G36*
X117544504Y-55706204D02*
G01*
X117568773Y-55709804D01*
X117592571Y-55715765D01*
X117615671Y-55724030D01*
X117637849Y-55734520D01*
X117658893Y-55747133D01*
X117678598Y-55761747D01*
X117696777Y-55778223D01*
X117713253Y-55796402D01*
X117727867Y-55816107D01*
X117740480Y-55837151D01*
X117750970Y-55859329D01*
X117759235Y-55882429D01*
X117765196Y-55906227D01*
X117768796Y-55930496D01*
X117770000Y-55955000D01*
X117770000Y-57205000D01*
X117768796Y-57229504D01*
X117765196Y-57253773D01*
X117759235Y-57277571D01*
X117750970Y-57300671D01*
X117740480Y-57322849D01*
X117727867Y-57343893D01*
X117713253Y-57363598D01*
X117696777Y-57381777D01*
X117678598Y-57398253D01*
X117658893Y-57412867D01*
X117637849Y-57425480D01*
X117615671Y-57435970D01*
X117592571Y-57444235D01*
X117568773Y-57450196D01*
X117544504Y-57453796D01*
X117520000Y-57455000D01*
X116595000Y-57455000D01*
X116570496Y-57453796D01*
X116546227Y-57450196D01*
X116522429Y-57444235D01*
X116499329Y-57435970D01*
X116477151Y-57425480D01*
X116456107Y-57412867D01*
X116436402Y-57398253D01*
X116418223Y-57381777D01*
X116401747Y-57363598D01*
X116387133Y-57343893D01*
X116374520Y-57322849D01*
X116364030Y-57300671D01*
X116355765Y-57277571D01*
X116349804Y-57253773D01*
X116346204Y-57229504D01*
X116345000Y-57205000D01*
X116345000Y-55955000D01*
X116346204Y-55930496D01*
X116349804Y-55906227D01*
X116355765Y-55882429D01*
X116364030Y-55859329D01*
X116374520Y-55837151D01*
X116387133Y-55816107D01*
X116401747Y-55796402D01*
X116418223Y-55778223D01*
X116436402Y-55761747D01*
X116456107Y-55747133D01*
X116477151Y-55734520D01*
X116499329Y-55724030D01*
X116522429Y-55715765D01*
X116546227Y-55709804D01*
X116570496Y-55706204D01*
X116595000Y-55705000D01*
X117520000Y-55705000D01*
X117544504Y-55706204D01*
G37*
G36*
X114569504Y-55706204D02*
G01*
X114593773Y-55709804D01*
X114617571Y-55715765D01*
X114640671Y-55724030D01*
X114662849Y-55734520D01*
X114683893Y-55747133D01*
X114703598Y-55761747D01*
X114721777Y-55778223D01*
X114738253Y-55796402D01*
X114752867Y-55816107D01*
X114765480Y-55837151D01*
X114775970Y-55859329D01*
X114784235Y-55882429D01*
X114790196Y-55906227D01*
X114793796Y-55930496D01*
X114795000Y-55955000D01*
X114795000Y-57205000D01*
X114793796Y-57229504D01*
X114790196Y-57253773D01*
X114784235Y-57277571D01*
X114775970Y-57300671D01*
X114765480Y-57322849D01*
X114752867Y-57343893D01*
X114738253Y-57363598D01*
X114721777Y-57381777D01*
X114703598Y-57398253D01*
X114683893Y-57412867D01*
X114662849Y-57425480D01*
X114640671Y-57435970D01*
X114617571Y-57444235D01*
X114593773Y-57450196D01*
X114569504Y-57453796D01*
X114545000Y-57455000D01*
X113620000Y-57455000D01*
X113595496Y-57453796D01*
X113571227Y-57450196D01*
X113547429Y-57444235D01*
X113524329Y-57435970D01*
X113502151Y-57425480D01*
X113481107Y-57412867D01*
X113461402Y-57398253D01*
X113443223Y-57381777D01*
X113426747Y-57363598D01*
X113412133Y-57343893D01*
X113399520Y-57322849D01*
X113389030Y-57300671D01*
X113380765Y-57277571D01*
X113374804Y-57253773D01*
X113371204Y-57229504D01*
X113370000Y-57205000D01*
X113370000Y-55955000D01*
X113371204Y-55930496D01*
X113374804Y-55906227D01*
X113380765Y-55882429D01*
X113389030Y-55859329D01*
X113399520Y-55837151D01*
X113412133Y-55816107D01*
X113426747Y-55796402D01*
X113443223Y-55778223D01*
X113461402Y-55761747D01*
X113481107Y-55747133D01*
X113502151Y-55734520D01*
X113524329Y-55724030D01*
X113547429Y-55715765D01*
X113571227Y-55709804D01*
X113595496Y-55706204D01*
X113620000Y-55705000D01*
X114545000Y-55705000D01*
X114569504Y-55706204D01*
G37*
G36*
X101869504Y-61548204D02*
G01*
X101893773Y-61551804D01*
X101917571Y-61557765D01*
X101940671Y-61566030D01*
X101962849Y-61576520D01*
X101983893Y-61589133D01*
X102003598Y-61603747D01*
X102021777Y-61620223D01*
X102038253Y-61638402D01*
X102052867Y-61658107D01*
X102065480Y-61679151D01*
X102075970Y-61701329D01*
X102084235Y-61724429D01*
X102090196Y-61748227D01*
X102093796Y-61772496D01*
X102095000Y-61797000D01*
X102095000Y-63047000D01*
X102093796Y-63071504D01*
X102090196Y-63095773D01*
X102084235Y-63119571D01*
X102075970Y-63142671D01*
X102065480Y-63164849D01*
X102052867Y-63185893D01*
X102038253Y-63205598D01*
X102021777Y-63223777D01*
X102003598Y-63240253D01*
X101983893Y-63254867D01*
X101962849Y-63267480D01*
X101940671Y-63277970D01*
X101917571Y-63286235D01*
X101893773Y-63292196D01*
X101869504Y-63295796D01*
X101845000Y-63297000D01*
X100920000Y-63297000D01*
X100895496Y-63295796D01*
X100871227Y-63292196D01*
X100847429Y-63286235D01*
X100824329Y-63277970D01*
X100802151Y-63267480D01*
X100781107Y-63254867D01*
X100761402Y-63240253D01*
X100743223Y-63223777D01*
X100726747Y-63205598D01*
X100712133Y-63185893D01*
X100699520Y-63164849D01*
X100689030Y-63142671D01*
X100680765Y-63119571D01*
X100674804Y-63095773D01*
X100671204Y-63071504D01*
X100670000Y-63047000D01*
X100670000Y-61797000D01*
X100671204Y-61772496D01*
X100674804Y-61748227D01*
X100680765Y-61724429D01*
X100689030Y-61701329D01*
X100699520Y-61679151D01*
X100712133Y-61658107D01*
X100726747Y-61638402D01*
X100743223Y-61620223D01*
X100761402Y-61603747D01*
X100781107Y-61589133D01*
X100802151Y-61576520D01*
X100824329Y-61566030D01*
X100847429Y-61557765D01*
X100871227Y-61551804D01*
X100895496Y-61548204D01*
X100920000Y-61547000D01*
X101845000Y-61547000D01*
X101869504Y-61548204D01*
G37*
G36*
X104844504Y-61548204D02*
G01*
X104868773Y-61551804D01*
X104892571Y-61557765D01*
X104915671Y-61566030D01*
X104937849Y-61576520D01*
X104958893Y-61589133D01*
X104978598Y-61603747D01*
X104996777Y-61620223D01*
X105013253Y-61638402D01*
X105027867Y-61658107D01*
X105040480Y-61679151D01*
X105050970Y-61701329D01*
X105059235Y-61724429D01*
X105065196Y-61748227D01*
X105068796Y-61772496D01*
X105070000Y-61797000D01*
X105070000Y-63047000D01*
X105068796Y-63071504D01*
X105065196Y-63095773D01*
X105059235Y-63119571D01*
X105050970Y-63142671D01*
X105040480Y-63164849D01*
X105027867Y-63185893D01*
X105013253Y-63205598D01*
X104996777Y-63223777D01*
X104978598Y-63240253D01*
X104958893Y-63254867D01*
X104937849Y-63267480D01*
X104915671Y-63277970D01*
X104892571Y-63286235D01*
X104868773Y-63292196D01*
X104844504Y-63295796D01*
X104820000Y-63297000D01*
X103895000Y-63297000D01*
X103870496Y-63295796D01*
X103846227Y-63292196D01*
X103822429Y-63286235D01*
X103799329Y-63277970D01*
X103777151Y-63267480D01*
X103756107Y-63254867D01*
X103736402Y-63240253D01*
X103718223Y-63223777D01*
X103701747Y-63205598D01*
X103687133Y-63185893D01*
X103674520Y-63164849D01*
X103664030Y-63142671D01*
X103655765Y-63119571D01*
X103649804Y-63095773D01*
X103646204Y-63071504D01*
X103645000Y-63047000D01*
X103645000Y-61797000D01*
X103646204Y-61772496D01*
X103649804Y-61748227D01*
X103655765Y-61724429D01*
X103664030Y-61701329D01*
X103674520Y-61679151D01*
X103687133Y-61658107D01*
X103701747Y-61638402D01*
X103718223Y-61620223D01*
X103736402Y-61603747D01*
X103756107Y-61589133D01*
X103777151Y-61576520D01*
X103799329Y-61566030D01*
X103822429Y-61557765D01*
X103846227Y-61551804D01*
X103870496Y-61548204D01*
X103895000Y-61547000D01*
X104820000Y-61547000D01*
X104844504Y-61548204D01*
G37*
G36*
X76142504Y-72216204D02*
G01*
X76166773Y-72219804D01*
X76190571Y-72225765D01*
X76213671Y-72234030D01*
X76235849Y-72244520D01*
X76256893Y-72257133D01*
X76276598Y-72271747D01*
X76294777Y-72288223D01*
X76311253Y-72306402D01*
X76325867Y-72326107D01*
X76338480Y-72347151D01*
X76348970Y-72369329D01*
X76357235Y-72392429D01*
X76363196Y-72416227D01*
X76366796Y-72440496D01*
X76368000Y-72465000D01*
X76368000Y-73715000D01*
X76366796Y-73739504D01*
X76363196Y-73763773D01*
X76357235Y-73787571D01*
X76348970Y-73810671D01*
X76338480Y-73832849D01*
X76325867Y-73853893D01*
X76311253Y-73873598D01*
X76294777Y-73891777D01*
X76276598Y-73908253D01*
X76256893Y-73922867D01*
X76235849Y-73935480D01*
X76213671Y-73945970D01*
X76190571Y-73954235D01*
X76166773Y-73960196D01*
X76142504Y-73963796D01*
X76118000Y-73965000D01*
X75193000Y-73965000D01*
X75168496Y-73963796D01*
X75144227Y-73960196D01*
X75120429Y-73954235D01*
X75097329Y-73945970D01*
X75075151Y-73935480D01*
X75054107Y-73922867D01*
X75034402Y-73908253D01*
X75016223Y-73891777D01*
X74999747Y-73873598D01*
X74985133Y-73853893D01*
X74972520Y-73832849D01*
X74962030Y-73810671D01*
X74953765Y-73787571D01*
X74947804Y-73763773D01*
X74944204Y-73739504D01*
X74943000Y-73715000D01*
X74943000Y-72465000D01*
X74944204Y-72440496D01*
X74947804Y-72416227D01*
X74953765Y-72392429D01*
X74962030Y-72369329D01*
X74972520Y-72347151D01*
X74985133Y-72326107D01*
X74999747Y-72306402D01*
X75016223Y-72288223D01*
X75034402Y-72271747D01*
X75054107Y-72257133D01*
X75075151Y-72244520D01*
X75097329Y-72234030D01*
X75120429Y-72225765D01*
X75144227Y-72219804D01*
X75168496Y-72216204D01*
X75193000Y-72215000D01*
X76118000Y-72215000D01*
X76142504Y-72216204D01*
G37*
G36*
X73167504Y-72216204D02*
G01*
X73191773Y-72219804D01*
X73215571Y-72225765D01*
X73238671Y-72234030D01*
X73260849Y-72244520D01*
X73281893Y-72257133D01*
X73301598Y-72271747D01*
X73319777Y-72288223D01*
X73336253Y-72306402D01*
X73350867Y-72326107D01*
X73363480Y-72347151D01*
X73373970Y-72369329D01*
X73382235Y-72392429D01*
X73388196Y-72416227D01*
X73391796Y-72440496D01*
X73393000Y-72465000D01*
X73393000Y-73715000D01*
X73391796Y-73739504D01*
X73388196Y-73763773D01*
X73382235Y-73787571D01*
X73373970Y-73810671D01*
X73363480Y-73832849D01*
X73350867Y-73853893D01*
X73336253Y-73873598D01*
X73319777Y-73891777D01*
X73301598Y-73908253D01*
X73281893Y-73922867D01*
X73260849Y-73935480D01*
X73238671Y-73945970D01*
X73215571Y-73954235D01*
X73191773Y-73960196D01*
X73167504Y-73963796D01*
X73143000Y-73965000D01*
X72218000Y-73965000D01*
X72193496Y-73963796D01*
X72169227Y-73960196D01*
X72145429Y-73954235D01*
X72122329Y-73945970D01*
X72100151Y-73935480D01*
X72079107Y-73922867D01*
X72059402Y-73908253D01*
X72041223Y-73891777D01*
X72024747Y-73873598D01*
X72010133Y-73853893D01*
X71997520Y-73832849D01*
X71987030Y-73810671D01*
X71978765Y-73787571D01*
X71972804Y-73763773D01*
X71969204Y-73739504D01*
X71968000Y-73715000D01*
X71968000Y-72465000D01*
X71969204Y-72440496D01*
X71972804Y-72416227D01*
X71978765Y-72392429D01*
X71987030Y-72369329D01*
X71997520Y-72347151D01*
X72010133Y-72326107D01*
X72024747Y-72306402D01*
X72041223Y-72288223D01*
X72059402Y-72271747D01*
X72079107Y-72257133D01*
X72100151Y-72244520D01*
X72122329Y-72234030D01*
X72145429Y-72225765D01*
X72169227Y-72219804D01*
X72193496Y-72216204D01*
X72218000Y-72215000D01*
X73143000Y-72215000D01*
X73167504Y-72216204D01*
G37*
G36*
X67724004Y-55960204D02*
G01*
X67748273Y-55963804D01*
X67772071Y-55969765D01*
X67795171Y-55978030D01*
X67817349Y-55988520D01*
X67838393Y-56001133D01*
X67858098Y-56015747D01*
X67876277Y-56032223D01*
X67892753Y-56050402D01*
X67907367Y-56070107D01*
X67919980Y-56091151D01*
X67930470Y-56113329D01*
X67938735Y-56136429D01*
X67944696Y-56160227D01*
X67948296Y-56184496D01*
X67949500Y-56209000D01*
X67949500Y-57459000D01*
X67948296Y-57483504D01*
X67944696Y-57507773D01*
X67938735Y-57531571D01*
X67930470Y-57554671D01*
X67919980Y-57576849D01*
X67907367Y-57597893D01*
X67892753Y-57617598D01*
X67876277Y-57635777D01*
X67858098Y-57652253D01*
X67838393Y-57666867D01*
X67817349Y-57679480D01*
X67795171Y-57689970D01*
X67772071Y-57698235D01*
X67748273Y-57704196D01*
X67724004Y-57707796D01*
X67699500Y-57709000D01*
X66774500Y-57709000D01*
X66749996Y-57707796D01*
X66725727Y-57704196D01*
X66701929Y-57698235D01*
X66678829Y-57689970D01*
X66656651Y-57679480D01*
X66635607Y-57666867D01*
X66615902Y-57652253D01*
X66597723Y-57635777D01*
X66581247Y-57617598D01*
X66566633Y-57597893D01*
X66554020Y-57576849D01*
X66543530Y-57554671D01*
X66535265Y-57531571D01*
X66529304Y-57507773D01*
X66525704Y-57483504D01*
X66524500Y-57459000D01*
X66524500Y-56209000D01*
X66525704Y-56184496D01*
X66529304Y-56160227D01*
X66535265Y-56136429D01*
X66543530Y-56113329D01*
X66554020Y-56091151D01*
X66566633Y-56070107D01*
X66581247Y-56050402D01*
X66597723Y-56032223D01*
X66615902Y-56015747D01*
X66635607Y-56001133D01*
X66656651Y-55988520D01*
X66678829Y-55978030D01*
X66701929Y-55969765D01*
X66725727Y-55963804D01*
X66749996Y-55960204D01*
X66774500Y-55959000D01*
X67699500Y-55959000D01*
X67724004Y-55960204D01*
G37*
G36*
X64749004Y-55960204D02*
G01*
X64773273Y-55963804D01*
X64797071Y-55969765D01*
X64820171Y-55978030D01*
X64842349Y-55988520D01*
X64863393Y-56001133D01*
X64883098Y-56015747D01*
X64901277Y-56032223D01*
X64917753Y-56050402D01*
X64932367Y-56070107D01*
X64944980Y-56091151D01*
X64955470Y-56113329D01*
X64963735Y-56136429D01*
X64969696Y-56160227D01*
X64973296Y-56184496D01*
X64974500Y-56209000D01*
X64974500Y-57459000D01*
X64973296Y-57483504D01*
X64969696Y-57507773D01*
X64963735Y-57531571D01*
X64955470Y-57554671D01*
X64944980Y-57576849D01*
X64932367Y-57597893D01*
X64917753Y-57617598D01*
X64901277Y-57635777D01*
X64883098Y-57652253D01*
X64863393Y-57666867D01*
X64842349Y-57679480D01*
X64820171Y-57689970D01*
X64797071Y-57698235D01*
X64773273Y-57704196D01*
X64749004Y-57707796D01*
X64724500Y-57709000D01*
X63799500Y-57709000D01*
X63774996Y-57707796D01*
X63750727Y-57704196D01*
X63726929Y-57698235D01*
X63703829Y-57689970D01*
X63681651Y-57679480D01*
X63660607Y-57666867D01*
X63640902Y-57652253D01*
X63622723Y-57635777D01*
X63606247Y-57617598D01*
X63591633Y-57597893D01*
X63579020Y-57576849D01*
X63568530Y-57554671D01*
X63560265Y-57531571D01*
X63554304Y-57507773D01*
X63550704Y-57483504D01*
X63549500Y-57459000D01*
X63549500Y-56209000D01*
X63550704Y-56184496D01*
X63554304Y-56160227D01*
X63560265Y-56136429D01*
X63568530Y-56113329D01*
X63579020Y-56091151D01*
X63591633Y-56070107D01*
X63606247Y-56050402D01*
X63622723Y-56032223D01*
X63640902Y-56015747D01*
X63660607Y-56001133D01*
X63681651Y-55988520D01*
X63703829Y-55978030D01*
X63726929Y-55969765D01*
X63750727Y-55963804D01*
X63774996Y-55960204D01*
X63799500Y-55959000D01*
X64724500Y-55959000D01*
X64749004Y-55960204D01*
G37*
G36*
X91455504Y-61802204D02*
G01*
X91479773Y-61805804D01*
X91503571Y-61811765D01*
X91526671Y-61820030D01*
X91548849Y-61830520D01*
X91569893Y-61843133D01*
X91589598Y-61857747D01*
X91607777Y-61874223D01*
X91624253Y-61892402D01*
X91638867Y-61912107D01*
X91651480Y-61933151D01*
X91661970Y-61955329D01*
X91670235Y-61978429D01*
X91676196Y-62002227D01*
X91679796Y-62026496D01*
X91681000Y-62051000D01*
X91681000Y-63301000D01*
X91679796Y-63325504D01*
X91676196Y-63349773D01*
X91670235Y-63373571D01*
X91661970Y-63396671D01*
X91651480Y-63418849D01*
X91638867Y-63439893D01*
X91624253Y-63459598D01*
X91607777Y-63477777D01*
X91589598Y-63494253D01*
X91569893Y-63508867D01*
X91548849Y-63521480D01*
X91526671Y-63531970D01*
X91503571Y-63540235D01*
X91479773Y-63546196D01*
X91455504Y-63549796D01*
X91431000Y-63551000D01*
X90506000Y-63551000D01*
X90481496Y-63549796D01*
X90457227Y-63546196D01*
X90433429Y-63540235D01*
X90410329Y-63531970D01*
X90388151Y-63521480D01*
X90367107Y-63508867D01*
X90347402Y-63494253D01*
X90329223Y-63477777D01*
X90312747Y-63459598D01*
X90298133Y-63439893D01*
X90285520Y-63418849D01*
X90275030Y-63396671D01*
X90266765Y-63373571D01*
X90260804Y-63349773D01*
X90257204Y-63325504D01*
X90256000Y-63301000D01*
X90256000Y-62051000D01*
X90257204Y-62026496D01*
X90260804Y-62002227D01*
X90266765Y-61978429D01*
X90275030Y-61955329D01*
X90285520Y-61933151D01*
X90298133Y-61912107D01*
X90312747Y-61892402D01*
X90329223Y-61874223D01*
X90347402Y-61857747D01*
X90367107Y-61843133D01*
X90388151Y-61830520D01*
X90410329Y-61820030D01*
X90433429Y-61811765D01*
X90457227Y-61805804D01*
X90481496Y-61802204D01*
X90506000Y-61801000D01*
X91431000Y-61801000D01*
X91455504Y-61802204D01*
G37*
G36*
X94430504Y-61802204D02*
G01*
X94454773Y-61805804D01*
X94478571Y-61811765D01*
X94501671Y-61820030D01*
X94523849Y-61830520D01*
X94544893Y-61843133D01*
X94564598Y-61857747D01*
X94582777Y-61874223D01*
X94599253Y-61892402D01*
X94613867Y-61912107D01*
X94626480Y-61933151D01*
X94636970Y-61955329D01*
X94645235Y-61978429D01*
X94651196Y-62002227D01*
X94654796Y-62026496D01*
X94656000Y-62051000D01*
X94656000Y-63301000D01*
X94654796Y-63325504D01*
X94651196Y-63349773D01*
X94645235Y-63373571D01*
X94636970Y-63396671D01*
X94626480Y-63418849D01*
X94613867Y-63439893D01*
X94599253Y-63459598D01*
X94582777Y-63477777D01*
X94564598Y-63494253D01*
X94544893Y-63508867D01*
X94523849Y-63521480D01*
X94501671Y-63531970D01*
X94478571Y-63540235D01*
X94454773Y-63546196D01*
X94430504Y-63549796D01*
X94406000Y-63551000D01*
X93481000Y-63551000D01*
X93456496Y-63549796D01*
X93432227Y-63546196D01*
X93408429Y-63540235D01*
X93385329Y-63531970D01*
X93363151Y-63521480D01*
X93342107Y-63508867D01*
X93322402Y-63494253D01*
X93304223Y-63477777D01*
X93287747Y-63459598D01*
X93273133Y-63439893D01*
X93260520Y-63418849D01*
X93250030Y-63396671D01*
X93241765Y-63373571D01*
X93235804Y-63349773D01*
X93232204Y-63325504D01*
X93231000Y-63301000D01*
X93231000Y-62051000D01*
X93232204Y-62026496D01*
X93235804Y-62002227D01*
X93241765Y-61978429D01*
X93250030Y-61955329D01*
X93260520Y-61933151D01*
X93273133Y-61912107D01*
X93287747Y-61892402D01*
X93304223Y-61874223D01*
X93322402Y-61857747D01*
X93342107Y-61843133D01*
X93363151Y-61830520D01*
X93385329Y-61820030D01*
X93408429Y-61811765D01*
X93432227Y-61805804D01*
X93456496Y-61802204D01*
X93481000Y-61801000D01*
X94406000Y-61801000D01*
X94430504Y-61802204D01*
G37*
G36*
X129192004Y-56214204D02*
G01*
X129216273Y-56217804D01*
X129240071Y-56223765D01*
X129263171Y-56232030D01*
X129285349Y-56242520D01*
X129306393Y-56255133D01*
X129326098Y-56269747D01*
X129344277Y-56286223D01*
X129360753Y-56304402D01*
X129375367Y-56324107D01*
X129387980Y-56345151D01*
X129398470Y-56367329D01*
X129406735Y-56390429D01*
X129412696Y-56414227D01*
X129416296Y-56438496D01*
X129417500Y-56463000D01*
X129417500Y-57713000D01*
X129416296Y-57737504D01*
X129412696Y-57761773D01*
X129406735Y-57785571D01*
X129398470Y-57808671D01*
X129387980Y-57830849D01*
X129375367Y-57851893D01*
X129360753Y-57871598D01*
X129344277Y-57889777D01*
X129326098Y-57906253D01*
X129306393Y-57920867D01*
X129285349Y-57933480D01*
X129263171Y-57943970D01*
X129240071Y-57952235D01*
X129216273Y-57958196D01*
X129192004Y-57961796D01*
X129167500Y-57963000D01*
X128242500Y-57963000D01*
X128217996Y-57961796D01*
X128193727Y-57958196D01*
X128169929Y-57952235D01*
X128146829Y-57943970D01*
X128124651Y-57933480D01*
X128103607Y-57920867D01*
X128083902Y-57906253D01*
X128065723Y-57889777D01*
X128049247Y-57871598D01*
X128034633Y-57851893D01*
X128022020Y-57830849D01*
X128011530Y-57808671D01*
X128003265Y-57785571D01*
X127997304Y-57761773D01*
X127993704Y-57737504D01*
X127992500Y-57713000D01*
X127992500Y-56463000D01*
X127993704Y-56438496D01*
X127997304Y-56414227D01*
X128003265Y-56390429D01*
X128011530Y-56367329D01*
X128022020Y-56345151D01*
X128034633Y-56324107D01*
X128049247Y-56304402D01*
X128065723Y-56286223D01*
X128083902Y-56269747D01*
X128103607Y-56255133D01*
X128124651Y-56242520D01*
X128146829Y-56232030D01*
X128169929Y-56223765D01*
X128193727Y-56217804D01*
X128217996Y-56214204D01*
X128242500Y-56213000D01*
X129167500Y-56213000D01*
X129192004Y-56214204D01*
G37*
G36*
X126217004Y-56214204D02*
G01*
X126241273Y-56217804D01*
X126265071Y-56223765D01*
X126288171Y-56232030D01*
X126310349Y-56242520D01*
X126331393Y-56255133D01*
X126351098Y-56269747D01*
X126369277Y-56286223D01*
X126385753Y-56304402D01*
X126400367Y-56324107D01*
X126412980Y-56345151D01*
X126423470Y-56367329D01*
X126431735Y-56390429D01*
X126437696Y-56414227D01*
X126441296Y-56438496D01*
X126442500Y-56463000D01*
X126442500Y-57713000D01*
X126441296Y-57737504D01*
X126437696Y-57761773D01*
X126431735Y-57785571D01*
X126423470Y-57808671D01*
X126412980Y-57830849D01*
X126400367Y-57851893D01*
X126385753Y-57871598D01*
X126369277Y-57889777D01*
X126351098Y-57906253D01*
X126331393Y-57920867D01*
X126310349Y-57933480D01*
X126288171Y-57943970D01*
X126265071Y-57952235D01*
X126241273Y-57958196D01*
X126217004Y-57961796D01*
X126192500Y-57963000D01*
X125267500Y-57963000D01*
X125242996Y-57961796D01*
X125218727Y-57958196D01*
X125194929Y-57952235D01*
X125171829Y-57943970D01*
X125149651Y-57933480D01*
X125128607Y-57920867D01*
X125108902Y-57906253D01*
X125090723Y-57889777D01*
X125074247Y-57871598D01*
X125059633Y-57851893D01*
X125047020Y-57830849D01*
X125036530Y-57808671D01*
X125028265Y-57785571D01*
X125022304Y-57761773D01*
X125018704Y-57737504D01*
X125017500Y-57713000D01*
X125017500Y-56463000D01*
X125018704Y-56438496D01*
X125022304Y-56414227D01*
X125028265Y-56390429D01*
X125036530Y-56367329D01*
X125047020Y-56345151D01*
X125059633Y-56324107D01*
X125074247Y-56304402D01*
X125090723Y-56286223D01*
X125108902Y-56269747D01*
X125128607Y-56255133D01*
X125149651Y-56242520D01*
X125171829Y-56232030D01*
X125194929Y-56223765D01*
X125218727Y-56217804D01*
X125242996Y-56214204D01*
X125267500Y-56213000D01*
X126192500Y-56213000D01*
X126217004Y-56214204D01*
G37*
G36*
X75707504Y-81360204D02*
G01*
X75731773Y-81363804D01*
X75755571Y-81369765D01*
X75778671Y-81378030D01*
X75800849Y-81388520D01*
X75821893Y-81401133D01*
X75841598Y-81415747D01*
X75859777Y-81432223D01*
X75876253Y-81450402D01*
X75890867Y-81470107D01*
X75903480Y-81491151D01*
X75913970Y-81513329D01*
X75922235Y-81536429D01*
X75928196Y-81560227D01*
X75931796Y-81584496D01*
X75933000Y-81609000D01*
X75933000Y-82859000D01*
X75931796Y-82883504D01*
X75928196Y-82907773D01*
X75922235Y-82931571D01*
X75913970Y-82954671D01*
X75903480Y-82976849D01*
X75890867Y-82997893D01*
X75876253Y-83017598D01*
X75859777Y-83035777D01*
X75841598Y-83052253D01*
X75821893Y-83066867D01*
X75800849Y-83079480D01*
X75778671Y-83089970D01*
X75755571Y-83098235D01*
X75731773Y-83104196D01*
X75707504Y-83107796D01*
X75683000Y-83109000D01*
X74758000Y-83109000D01*
X74733496Y-83107796D01*
X74709227Y-83104196D01*
X74685429Y-83098235D01*
X74662329Y-83089970D01*
X74640151Y-83079480D01*
X74619107Y-83066867D01*
X74599402Y-83052253D01*
X74581223Y-83035777D01*
X74564747Y-83017598D01*
X74550133Y-82997893D01*
X74537520Y-82976849D01*
X74527030Y-82954671D01*
X74518765Y-82931571D01*
X74512804Y-82907773D01*
X74509204Y-82883504D01*
X74508000Y-82859000D01*
X74508000Y-81609000D01*
X74509204Y-81584496D01*
X74512804Y-81560227D01*
X74518765Y-81536429D01*
X74527030Y-81513329D01*
X74537520Y-81491151D01*
X74550133Y-81470107D01*
X74564747Y-81450402D01*
X74581223Y-81432223D01*
X74599402Y-81415747D01*
X74619107Y-81401133D01*
X74640151Y-81388520D01*
X74662329Y-81378030D01*
X74685429Y-81369765D01*
X74709227Y-81363804D01*
X74733496Y-81360204D01*
X74758000Y-81359000D01*
X75683000Y-81359000D01*
X75707504Y-81360204D01*
G37*
G36*
X78682504Y-81360204D02*
G01*
X78706773Y-81363804D01*
X78730571Y-81369765D01*
X78753671Y-81378030D01*
X78775849Y-81388520D01*
X78796893Y-81401133D01*
X78816598Y-81415747D01*
X78834777Y-81432223D01*
X78851253Y-81450402D01*
X78865867Y-81470107D01*
X78878480Y-81491151D01*
X78888970Y-81513329D01*
X78897235Y-81536429D01*
X78903196Y-81560227D01*
X78906796Y-81584496D01*
X78908000Y-81609000D01*
X78908000Y-82859000D01*
X78906796Y-82883504D01*
X78903196Y-82907773D01*
X78897235Y-82931571D01*
X78888970Y-82954671D01*
X78878480Y-82976849D01*
X78865867Y-82997893D01*
X78851253Y-83017598D01*
X78834777Y-83035777D01*
X78816598Y-83052253D01*
X78796893Y-83066867D01*
X78775849Y-83079480D01*
X78753671Y-83089970D01*
X78730571Y-83098235D01*
X78706773Y-83104196D01*
X78682504Y-83107796D01*
X78658000Y-83109000D01*
X77733000Y-83109000D01*
X77708496Y-83107796D01*
X77684227Y-83104196D01*
X77660429Y-83098235D01*
X77637329Y-83089970D01*
X77615151Y-83079480D01*
X77594107Y-83066867D01*
X77574402Y-83052253D01*
X77556223Y-83035777D01*
X77539747Y-83017598D01*
X77525133Y-82997893D01*
X77512520Y-82976849D01*
X77502030Y-82954671D01*
X77493765Y-82931571D01*
X77487804Y-82907773D01*
X77484204Y-82883504D01*
X77483000Y-82859000D01*
X77483000Y-81609000D01*
X77484204Y-81584496D01*
X77487804Y-81560227D01*
X77493765Y-81536429D01*
X77502030Y-81513329D01*
X77512520Y-81491151D01*
X77525133Y-81470107D01*
X77539747Y-81450402D01*
X77556223Y-81432223D01*
X77574402Y-81415747D01*
X77594107Y-81401133D01*
X77615151Y-81388520D01*
X77637329Y-81378030D01*
X77660429Y-81369765D01*
X77684227Y-81363804D01*
X77708496Y-81360204D01*
X77733000Y-81359000D01*
X78658000Y-81359000D01*
X78682504Y-81360204D01*
G37*
G36*
X129736504Y-73058204D02*
G01*
X129760773Y-73061804D01*
X129784571Y-73067765D01*
X129807671Y-73076030D01*
X129829849Y-73086520D01*
X129850893Y-73099133D01*
X129870598Y-73113747D01*
X129888777Y-73130223D01*
X129905253Y-73148402D01*
X129919867Y-73168107D01*
X129932480Y-73189151D01*
X129942970Y-73211329D01*
X129951235Y-73234429D01*
X129957196Y-73258227D01*
X129960796Y-73282496D01*
X129962000Y-73307000D01*
X129962000Y-74557000D01*
X129960796Y-74581504D01*
X129957196Y-74605773D01*
X129951235Y-74629571D01*
X129942970Y-74652671D01*
X129932480Y-74674849D01*
X129919867Y-74695893D01*
X129905253Y-74715598D01*
X129888777Y-74733777D01*
X129870598Y-74750253D01*
X129850893Y-74764867D01*
X129829849Y-74777480D01*
X129807671Y-74787970D01*
X129784571Y-74796235D01*
X129760773Y-74802196D01*
X129736504Y-74805796D01*
X129712000Y-74807000D01*
X128787000Y-74807000D01*
X128762496Y-74805796D01*
X128738227Y-74802196D01*
X128714429Y-74796235D01*
X128691329Y-74787970D01*
X128669151Y-74777480D01*
X128648107Y-74764867D01*
X128628402Y-74750253D01*
X128610223Y-74733777D01*
X128593747Y-74715598D01*
X128579133Y-74695893D01*
X128566520Y-74674849D01*
X128556030Y-74652671D01*
X128547765Y-74629571D01*
X128541804Y-74605773D01*
X128538204Y-74581504D01*
X128537000Y-74557000D01*
X128537000Y-73307000D01*
X128538204Y-73282496D01*
X128541804Y-73258227D01*
X128547765Y-73234429D01*
X128556030Y-73211329D01*
X128566520Y-73189151D01*
X128579133Y-73168107D01*
X128593747Y-73148402D01*
X128610223Y-73130223D01*
X128628402Y-73113747D01*
X128648107Y-73099133D01*
X128669151Y-73086520D01*
X128691329Y-73076030D01*
X128714429Y-73067765D01*
X128738227Y-73061804D01*
X128762496Y-73058204D01*
X128787000Y-73057000D01*
X129712000Y-73057000D01*
X129736504Y-73058204D01*
G37*
G36*
X126761504Y-73058204D02*
G01*
X126785773Y-73061804D01*
X126809571Y-73067765D01*
X126832671Y-73076030D01*
X126854849Y-73086520D01*
X126875893Y-73099133D01*
X126895598Y-73113747D01*
X126913777Y-73130223D01*
X126930253Y-73148402D01*
X126944867Y-73168107D01*
X126957480Y-73189151D01*
X126967970Y-73211329D01*
X126976235Y-73234429D01*
X126982196Y-73258227D01*
X126985796Y-73282496D01*
X126987000Y-73307000D01*
X126987000Y-74557000D01*
X126985796Y-74581504D01*
X126982196Y-74605773D01*
X126976235Y-74629571D01*
X126967970Y-74652671D01*
X126957480Y-74674849D01*
X126944867Y-74695893D01*
X126930253Y-74715598D01*
X126913777Y-74733777D01*
X126895598Y-74750253D01*
X126875893Y-74764867D01*
X126854849Y-74777480D01*
X126832671Y-74787970D01*
X126809571Y-74796235D01*
X126785773Y-74802196D01*
X126761504Y-74805796D01*
X126737000Y-74807000D01*
X125812000Y-74807000D01*
X125787496Y-74805796D01*
X125763227Y-74802196D01*
X125739429Y-74796235D01*
X125716329Y-74787970D01*
X125694151Y-74777480D01*
X125673107Y-74764867D01*
X125653402Y-74750253D01*
X125635223Y-74733777D01*
X125618747Y-74715598D01*
X125604133Y-74695893D01*
X125591520Y-74674849D01*
X125581030Y-74652671D01*
X125572765Y-74629571D01*
X125566804Y-74605773D01*
X125563204Y-74581504D01*
X125562000Y-74557000D01*
X125562000Y-73307000D01*
X125563204Y-73282496D01*
X125566804Y-73258227D01*
X125572765Y-73234429D01*
X125581030Y-73211329D01*
X125591520Y-73189151D01*
X125604133Y-73168107D01*
X125618747Y-73148402D01*
X125635223Y-73130223D01*
X125653402Y-73113747D01*
X125673107Y-73099133D01*
X125694151Y-73086520D01*
X125716329Y-73076030D01*
X125739429Y-73067765D01*
X125763227Y-73061804D01*
X125787496Y-73058204D01*
X125812000Y-73057000D01*
X126737000Y-73057000D01*
X126761504Y-73058204D01*
G37*
G36*
X107675004Y-56214204D02*
G01*
X107699273Y-56217804D01*
X107723071Y-56223765D01*
X107746171Y-56232030D01*
X107768349Y-56242520D01*
X107789393Y-56255133D01*
X107809098Y-56269747D01*
X107827277Y-56286223D01*
X107843753Y-56304402D01*
X107858367Y-56324107D01*
X107870980Y-56345151D01*
X107881470Y-56367329D01*
X107889735Y-56390429D01*
X107895696Y-56414227D01*
X107899296Y-56438496D01*
X107900500Y-56463000D01*
X107900500Y-57713000D01*
X107899296Y-57737504D01*
X107895696Y-57761773D01*
X107889735Y-57785571D01*
X107881470Y-57808671D01*
X107870980Y-57830849D01*
X107858367Y-57851893D01*
X107843753Y-57871598D01*
X107827277Y-57889777D01*
X107809098Y-57906253D01*
X107789393Y-57920867D01*
X107768349Y-57933480D01*
X107746171Y-57943970D01*
X107723071Y-57952235D01*
X107699273Y-57958196D01*
X107675004Y-57961796D01*
X107650500Y-57963000D01*
X106725500Y-57963000D01*
X106700996Y-57961796D01*
X106676727Y-57958196D01*
X106652929Y-57952235D01*
X106629829Y-57943970D01*
X106607651Y-57933480D01*
X106586607Y-57920867D01*
X106566902Y-57906253D01*
X106548723Y-57889777D01*
X106532247Y-57871598D01*
X106517633Y-57851893D01*
X106505020Y-57830849D01*
X106494530Y-57808671D01*
X106486265Y-57785571D01*
X106480304Y-57761773D01*
X106476704Y-57737504D01*
X106475500Y-57713000D01*
X106475500Y-56463000D01*
X106476704Y-56438496D01*
X106480304Y-56414227D01*
X106486265Y-56390429D01*
X106494530Y-56367329D01*
X106505020Y-56345151D01*
X106517633Y-56324107D01*
X106532247Y-56304402D01*
X106548723Y-56286223D01*
X106566902Y-56269747D01*
X106586607Y-56255133D01*
X106607651Y-56242520D01*
X106629829Y-56232030D01*
X106652929Y-56223765D01*
X106676727Y-56217804D01*
X106700996Y-56214204D01*
X106725500Y-56213000D01*
X107650500Y-56213000D01*
X107675004Y-56214204D01*
G37*
G36*
X110650004Y-56214204D02*
G01*
X110674273Y-56217804D01*
X110698071Y-56223765D01*
X110721171Y-56232030D01*
X110743349Y-56242520D01*
X110764393Y-56255133D01*
X110784098Y-56269747D01*
X110802277Y-56286223D01*
X110818753Y-56304402D01*
X110833367Y-56324107D01*
X110845980Y-56345151D01*
X110856470Y-56367329D01*
X110864735Y-56390429D01*
X110870696Y-56414227D01*
X110874296Y-56438496D01*
X110875500Y-56463000D01*
X110875500Y-57713000D01*
X110874296Y-57737504D01*
X110870696Y-57761773D01*
X110864735Y-57785571D01*
X110856470Y-57808671D01*
X110845980Y-57830849D01*
X110833367Y-57851893D01*
X110818753Y-57871598D01*
X110802277Y-57889777D01*
X110784098Y-57906253D01*
X110764393Y-57920867D01*
X110743349Y-57933480D01*
X110721171Y-57943970D01*
X110698071Y-57952235D01*
X110674273Y-57958196D01*
X110650004Y-57961796D01*
X110625500Y-57963000D01*
X109700500Y-57963000D01*
X109675996Y-57961796D01*
X109651727Y-57958196D01*
X109627929Y-57952235D01*
X109604829Y-57943970D01*
X109582651Y-57933480D01*
X109561607Y-57920867D01*
X109541902Y-57906253D01*
X109523723Y-57889777D01*
X109507247Y-57871598D01*
X109492633Y-57851893D01*
X109480020Y-57830849D01*
X109469530Y-57808671D01*
X109461265Y-57785571D01*
X109455304Y-57761773D01*
X109451704Y-57737504D01*
X109450500Y-57713000D01*
X109450500Y-56463000D01*
X109451704Y-56438496D01*
X109455304Y-56414227D01*
X109461265Y-56390429D01*
X109469530Y-56367329D01*
X109480020Y-56345151D01*
X109492633Y-56324107D01*
X109507247Y-56304402D01*
X109523723Y-56286223D01*
X109541902Y-56269747D01*
X109561607Y-56255133D01*
X109582651Y-56242520D01*
X109604829Y-56232030D01*
X109627929Y-56223765D01*
X109651727Y-56217804D01*
X109675996Y-56214204D01*
X109700500Y-56213000D01*
X110625500Y-56213000D01*
X110650004Y-56214204D01*
G37*
G36*
X118560504Y-73058204D02*
G01*
X118584773Y-73061804D01*
X118608571Y-73067765D01*
X118631671Y-73076030D01*
X118653849Y-73086520D01*
X118674893Y-73099133D01*
X118694598Y-73113747D01*
X118712777Y-73130223D01*
X118729253Y-73148402D01*
X118743867Y-73168107D01*
X118756480Y-73189151D01*
X118766970Y-73211329D01*
X118775235Y-73234429D01*
X118781196Y-73258227D01*
X118784796Y-73282496D01*
X118786000Y-73307000D01*
X118786000Y-74557000D01*
X118784796Y-74581504D01*
X118781196Y-74605773D01*
X118775235Y-74629571D01*
X118766970Y-74652671D01*
X118756480Y-74674849D01*
X118743867Y-74695893D01*
X118729253Y-74715598D01*
X118712777Y-74733777D01*
X118694598Y-74750253D01*
X118674893Y-74764867D01*
X118653849Y-74777480D01*
X118631671Y-74787970D01*
X118608571Y-74796235D01*
X118584773Y-74802196D01*
X118560504Y-74805796D01*
X118536000Y-74807000D01*
X117611000Y-74807000D01*
X117586496Y-74805796D01*
X117562227Y-74802196D01*
X117538429Y-74796235D01*
X117515329Y-74787970D01*
X117493151Y-74777480D01*
X117472107Y-74764867D01*
X117452402Y-74750253D01*
X117434223Y-74733777D01*
X117417747Y-74715598D01*
X117403133Y-74695893D01*
X117390520Y-74674849D01*
X117380030Y-74652671D01*
X117371765Y-74629571D01*
X117365804Y-74605773D01*
X117362204Y-74581504D01*
X117361000Y-74557000D01*
X117361000Y-73307000D01*
X117362204Y-73282496D01*
X117365804Y-73258227D01*
X117371765Y-73234429D01*
X117380030Y-73211329D01*
X117390520Y-73189151D01*
X117403133Y-73168107D01*
X117417747Y-73148402D01*
X117434223Y-73130223D01*
X117452402Y-73113747D01*
X117472107Y-73099133D01*
X117493151Y-73086520D01*
X117515329Y-73076030D01*
X117538429Y-73067765D01*
X117562227Y-73061804D01*
X117586496Y-73058204D01*
X117611000Y-73057000D01*
X118536000Y-73057000D01*
X118560504Y-73058204D01*
G37*
G36*
X115585504Y-73058204D02*
G01*
X115609773Y-73061804D01*
X115633571Y-73067765D01*
X115656671Y-73076030D01*
X115678849Y-73086520D01*
X115699893Y-73099133D01*
X115719598Y-73113747D01*
X115737777Y-73130223D01*
X115754253Y-73148402D01*
X115768867Y-73168107D01*
X115781480Y-73189151D01*
X115791970Y-73211329D01*
X115800235Y-73234429D01*
X115806196Y-73258227D01*
X115809796Y-73282496D01*
X115811000Y-73307000D01*
X115811000Y-74557000D01*
X115809796Y-74581504D01*
X115806196Y-74605773D01*
X115800235Y-74629571D01*
X115791970Y-74652671D01*
X115781480Y-74674849D01*
X115768867Y-74695893D01*
X115754253Y-74715598D01*
X115737777Y-74733777D01*
X115719598Y-74750253D01*
X115699893Y-74764867D01*
X115678849Y-74777480D01*
X115656671Y-74787970D01*
X115633571Y-74796235D01*
X115609773Y-74802196D01*
X115585504Y-74805796D01*
X115561000Y-74807000D01*
X114636000Y-74807000D01*
X114611496Y-74805796D01*
X114587227Y-74802196D01*
X114563429Y-74796235D01*
X114540329Y-74787970D01*
X114518151Y-74777480D01*
X114497107Y-74764867D01*
X114477402Y-74750253D01*
X114459223Y-74733777D01*
X114442747Y-74715598D01*
X114428133Y-74695893D01*
X114415520Y-74674849D01*
X114405030Y-74652671D01*
X114396765Y-74629571D01*
X114390804Y-74605773D01*
X114387204Y-74581504D01*
X114386000Y-74557000D01*
X114386000Y-73307000D01*
X114387204Y-73282496D01*
X114390804Y-73258227D01*
X114396765Y-73234429D01*
X114405030Y-73211329D01*
X114415520Y-73189151D01*
X114428133Y-73168107D01*
X114442747Y-73148402D01*
X114459223Y-73130223D01*
X114477402Y-73113747D01*
X114497107Y-73099133D01*
X114518151Y-73086520D01*
X114540329Y-73076030D01*
X114563429Y-73067765D01*
X114587227Y-73061804D01*
X114611496Y-73058204D01*
X114636000Y-73057000D01*
X115561000Y-73057000D01*
X115585504Y-73058204D01*
G37*
G36*
X53573004Y-55960204D02*
G01*
X53597273Y-55963804D01*
X53621071Y-55969765D01*
X53644171Y-55978030D01*
X53666349Y-55988520D01*
X53687393Y-56001133D01*
X53707098Y-56015747D01*
X53725277Y-56032223D01*
X53741753Y-56050402D01*
X53756367Y-56070107D01*
X53768980Y-56091151D01*
X53779470Y-56113329D01*
X53787735Y-56136429D01*
X53793696Y-56160227D01*
X53797296Y-56184496D01*
X53798500Y-56209000D01*
X53798500Y-57459000D01*
X53797296Y-57483504D01*
X53793696Y-57507773D01*
X53787735Y-57531571D01*
X53779470Y-57554671D01*
X53768980Y-57576849D01*
X53756367Y-57597893D01*
X53741753Y-57617598D01*
X53725277Y-57635777D01*
X53707098Y-57652253D01*
X53687393Y-57666867D01*
X53666349Y-57679480D01*
X53644171Y-57689970D01*
X53621071Y-57698235D01*
X53597273Y-57704196D01*
X53573004Y-57707796D01*
X53548500Y-57709000D01*
X52623500Y-57709000D01*
X52598996Y-57707796D01*
X52574727Y-57704196D01*
X52550929Y-57698235D01*
X52527829Y-57689970D01*
X52505651Y-57679480D01*
X52484607Y-57666867D01*
X52464902Y-57652253D01*
X52446723Y-57635777D01*
X52430247Y-57617598D01*
X52415633Y-57597893D01*
X52403020Y-57576849D01*
X52392530Y-57554671D01*
X52384265Y-57531571D01*
X52378304Y-57507773D01*
X52374704Y-57483504D01*
X52373500Y-57459000D01*
X52373500Y-56209000D01*
X52374704Y-56184496D01*
X52378304Y-56160227D01*
X52384265Y-56136429D01*
X52392530Y-56113329D01*
X52403020Y-56091151D01*
X52415633Y-56070107D01*
X52430247Y-56050402D01*
X52446723Y-56032223D01*
X52464902Y-56015747D01*
X52484607Y-56001133D01*
X52505651Y-55988520D01*
X52527829Y-55978030D01*
X52550929Y-55969765D01*
X52574727Y-55963804D01*
X52598996Y-55960204D01*
X52623500Y-55959000D01*
X53548500Y-55959000D01*
X53573004Y-55960204D01*
G37*
G36*
X56548004Y-55960204D02*
G01*
X56572273Y-55963804D01*
X56596071Y-55969765D01*
X56619171Y-55978030D01*
X56641349Y-55988520D01*
X56662393Y-56001133D01*
X56682098Y-56015747D01*
X56700277Y-56032223D01*
X56716753Y-56050402D01*
X56731367Y-56070107D01*
X56743980Y-56091151D01*
X56754470Y-56113329D01*
X56762735Y-56136429D01*
X56768696Y-56160227D01*
X56772296Y-56184496D01*
X56773500Y-56209000D01*
X56773500Y-57459000D01*
X56772296Y-57483504D01*
X56768696Y-57507773D01*
X56762735Y-57531571D01*
X56754470Y-57554671D01*
X56743980Y-57576849D01*
X56731367Y-57597893D01*
X56716753Y-57617598D01*
X56700277Y-57635777D01*
X56682098Y-57652253D01*
X56662393Y-57666867D01*
X56641349Y-57679480D01*
X56619171Y-57689970D01*
X56596071Y-57698235D01*
X56572273Y-57704196D01*
X56548004Y-57707796D01*
X56523500Y-57709000D01*
X55598500Y-57709000D01*
X55573996Y-57707796D01*
X55549727Y-57704196D01*
X55525929Y-57698235D01*
X55502829Y-57689970D01*
X55480651Y-57679480D01*
X55459607Y-57666867D01*
X55439902Y-57652253D01*
X55421723Y-57635777D01*
X55405247Y-57617598D01*
X55390633Y-57597893D01*
X55378020Y-57576849D01*
X55367530Y-57554671D01*
X55359265Y-57531571D01*
X55353304Y-57507773D01*
X55349704Y-57483504D01*
X55348500Y-57459000D01*
X55348500Y-56209000D01*
X55349704Y-56184496D01*
X55353304Y-56160227D01*
X55359265Y-56136429D01*
X55367530Y-56113329D01*
X55378020Y-56091151D01*
X55390633Y-56070107D01*
X55405247Y-56050402D01*
X55421723Y-56032223D01*
X55439902Y-56015747D01*
X55459607Y-56001133D01*
X55480651Y-55988520D01*
X55502829Y-55978030D01*
X55525929Y-55969765D01*
X55549727Y-55963804D01*
X55573996Y-55960204D01*
X55598500Y-55959000D01*
X56523500Y-55959000D01*
X56548004Y-55960204D01*
G37*
G36*
X75925004Y-56022204D02*
G01*
X75949273Y-56025804D01*
X75973071Y-56031765D01*
X75996171Y-56040030D01*
X76018349Y-56050520D01*
X76039393Y-56063133D01*
X76059098Y-56077747D01*
X76077277Y-56094223D01*
X76093753Y-56112402D01*
X76108367Y-56132107D01*
X76120980Y-56153151D01*
X76131470Y-56175329D01*
X76139735Y-56198429D01*
X76145696Y-56222227D01*
X76149296Y-56246496D01*
X76150500Y-56271000D01*
X76150500Y-57521000D01*
X76149296Y-57545504D01*
X76145696Y-57569773D01*
X76139735Y-57593571D01*
X76131470Y-57616671D01*
X76120980Y-57638849D01*
X76108367Y-57659893D01*
X76093753Y-57679598D01*
X76077277Y-57697777D01*
X76059098Y-57714253D01*
X76039393Y-57728867D01*
X76018349Y-57741480D01*
X75996171Y-57751970D01*
X75973071Y-57760235D01*
X75949273Y-57766196D01*
X75925004Y-57769796D01*
X75900500Y-57771000D01*
X74975500Y-57771000D01*
X74950996Y-57769796D01*
X74926727Y-57766196D01*
X74902929Y-57760235D01*
X74879829Y-57751970D01*
X74857651Y-57741480D01*
X74836607Y-57728867D01*
X74816902Y-57714253D01*
X74798723Y-57697777D01*
X74782247Y-57679598D01*
X74767633Y-57659893D01*
X74755020Y-57638849D01*
X74744530Y-57616671D01*
X74736265Y-57593571D01*
X74730304Y-57569773D01*
X74726704Y-57545504D01*
X74725500Y-57521000D01*
X74725500Y-56271000D01*
X74726704Y-56246496D01*
X74730304Y-56222227D01*
X74736265Y-56198429D01*
X74744530Y-56175329D01*
X74755020Y-56153151D01*
X74767633Y-56132107D01*
X74782247Y-56112402D01*
X74798723Y-56094223D01*
X74816902Y-56077747D01*
X74836607Y-56063133D01*
X74857651Y-56050520D01*
X74879829Y-56040030D01*
X74902929Y-56031765D01*
X74926727Y-56025804D01*
X74950996Y-56022204D01*
X74975500Y-56021000D01*
X75900500Y-56021000D01*
X75925004Y-56022204D01*
G37*
G36*
X78900004Y-56022204D02*
G01*
X78924273Y-56025804D01*
X78948071Y-56031765D01*
X78971171Y-56040030D01*
X78993349Y-56050520D01*
X79014393Y-56063133D01*
X79034098Y-56077747D01*
X79052277Y-56094223D01*
X79068753Y-56112402D01*
X79083367Y-56132107D01*
X79095980Y-56153151D01*
X79106470Y-56175329D01*
X79114735Y-56198429D01*
X79120696Y-56222227D01*
X79124296Y-56246496D01*
X79125500Y-56271000D01*
X79125500Y-57521000D01*
X79124296Y-57545504D01*
X79120696Y-57569773D01*
X79114735Y-57593571D01*
X79106470Y-57616671D01*
X79095980Y-57638849D01*
X79083367Y-57659893D01*
X79068753Y-57679598D01*
X79052277Y-57697777D01*
X79034098Y-57714253D01*
X79014393Y-57728867D01*
X78993349Y-57741480D01*
X78971171Y-57751970D01*
X78948071Y-57760235D01*
X78924273Y-57766196D01*
X78900004Y-57769796D01*
X78875500Y-57771000D01*
X77950500Y-57771000D01*
X77925996Y-57769796D01*
X77901727Y-57766196D01*
X77877929Y-57760235D01*
X77854829Y-57751970D01*
X77832651Y-57741480D01*
X77811607Y-57728867D01*
X77791902Y-57714253D01*
X77773723Y-57697777D01*
X77757247Y-57679598D01*
X77742633Y-57659893D01*
X77730020Y-57638849D01*
X77719530Y-57616671D01*
X77711265Y-57593571D01*
X77705304Y-57569773D01*
X77701704Y-57545504D01*
X77700500Y-57521000D01*
X77700500Y-56271000D01*
X77701704Y-56246496D01*
X77705304Y-56222227D01*
X77711265Y-56198429D01*
X77719530Y-56175329D01*
X77730020Y-56153151D01*
X77742633Y-56132107D01*
X77757247Y-56112402D01*
X77773723Y-56094223D01*
X77791902Y-56077747D01*
X77811607Y-56063133D01*
X77832651Y-56050520D01*
X77854829Y-56040030D01*
X77877929Y-56031765D01*
X77901727Y-56025804D01*
X77925996Y-56022204D01*
X77950500Y-56021000D01*
X78875500Y-56021000D01*
X78900004Y-56022204D01*
G37*
G36*
X110904004Y-72042204D02*
G01*
X110928273Y-72045804D01*
X110952071Y-72051765D01*
X110975171Y-72060030D01*
X110997349Y-72070520D01*
X111018393Y-72083133D01*
X111038098Y-72097747D01*
X111056277Y-72114223D01*
X111072753Y-72132402D01*
X111087367Y-72152107D01*
X111099980Y-72173151D01*
X111110470Y-72195329D01*
X111118735Y-72218429D01*
X111124696Y-72242227D01*
X111128296Y-72266496D01*
X111129500Y-72291000D01*
X111129500Y-73541000D01*
X111128296Y-73565504D01*
X111124696Y-73589773D01*
X111118735Y-73613571D01*
X111110470Y-73636671D01*
X111099980Y-73658849D01*
X111087367Y-73679893D01*
X111072753Y-73699598D01*
X111056277Y-73717777D01*
X111038098Y-73734253D01*
X111018393Y-73748867D01*
X110997349Y-73761480D01*
X110975171Y-73771970D01*
X110952071Y-73780235D01*
X110928273Y-73786196D01*
X110904004Y-73789796D01*
X110879500Y-73791000D01*
X109954500Y-73791000D01*
X109929996Y-73789796D01*
X109905727Y-73786196D01*
X109881929Y-73780235D01*
X109858829Y-73771970D01*
X109836651Y-73761480D01*
X109815607Y-73748867D01*
X109795902Y-73734253D01*
X109777723Y-73717777D01*
X109761247Y-73699598D01*
X109746633Y-73679893D01*
X109734020Y-73658849D01*
X109723530Y-73636671D01*
X109715265Y-73613571D01*
X109709304Y-73589773D01*
X109705704Y-73565504D01*
X109704500Y-73541000D01*
X109704500Y-72291000D01*
X109705704Y-72266496D01*
X109709304Y-72242227D01*
X109715265Y-72218429D01*
X109723530Y-72195329D01*
X109734020Y-72173151D01*
X109746633Y-72152107D01*
X109761247Y-72132402D01*
X109777723Y-72114223D01*
X109795902Y-72097747D01*
X109815607Y-72083133D01*
X109836651Y-72070520D01*
X109858829Y-72060030D01*
X109881929Y-72051765D01*
X109905727Y-72045804D01*
X109929996Y-72042204D01*
X109954500Y-72041000D01*
X110879500Y-72041000D01*
X110904004Y-72042204D01*
G37*
G36*
X107929004Y-72042204D02*
G01*
X107953273Y-72045804D01*
X107977071Y-72051765D01*
X108000171Y-72060030D01*
X108022349Y-72070520D01*
X108043393Y-72083133D01*
X108063098Y-72097747D01*
X108081277Y-72114223D01*
X108097753Y-72132402D01*
X108112367Y-72152107D01*
X108124980Y-72173151D01*
X108135470Y-72195329D01*
X108143735Y-72218429D01*
X108149696Y-72242227D01*
X108153296Y-72266496D01*
X108154500Y-72291000D01*
X108154500Y-73541000D01*
X108153296Y-73565504D01*
X108149696Y-73589773D01*
X108143735Y-73613571D01*
X108135470Y-73636671D01*
X108124980Y-73658849D01*
X108112367Y-73679893D01*
X108097753Y-73699598D01*
X108081277Y-73717777D01*
X108063098Y-73734253D01*
X108043393Y-73748867D01*
X108022349Y-73761480D01*
X108000171Y-73771970D01*
X107977071Y-73780235D01*
X107953273Y-73786196D01*
X107929004Y-73789796D01*
X107904500Y-73791000D01*
X106979500Y-73791000D01*
X106954996Y-73789796D01*
X106930727Y-73786196D01*
X106906929Y-73780235D01*
X106883829Y-73771970D01*
X106861651Y-73761480D01*
X106840607Y-73748867D01*
X106820902Y-73734253D01*
X106802723Y-73717777D01*
X106786247Y-73699598D01*
X106771633Y-73679893D01*
X106759020Y-73658849D01*
X106748530Y-73636671D01*
X106740265Y-73613571D01*
X106734304Y-73589773D01*
X106730704Y-73565504D01*
X106729500Y-73541000D01*
X106729500Y-72291000D01*
X106730704Y-72266496D01*
X106734304Y-72242227D01*
X106740265Y-72218429D01*
X106748530Y-72195329D01*
X106759020Y-72173151D01*
X106771633Y-72152107D01*
X106786247Y-72132402D01*
X106802723Y-72114223D01*
X106820902Y-72097747D01*
X106840607Y-72083133D01*
X106861651Y-72070520D01*
X106883829Y-72060030D01*
X106906929Y-72051765D01*
X106930727Y-72045804D01*
X106954996Y-72042204D01*
X106979500Y-72041000D01*
X107904500Y-72041000D01*
X107929004Y-72042204D01*
G37*
G36*
X90693504Y-78392204D02*
G01*
X90717773Y-78395804D01*
X90741571Y-78401765D01*
X90764671Y-78410030D01*
X90786849Y-78420520D01*
X90807893Y-78433133D01*
X90827598Y-78447747D01*
X90845777Y-78464223D01*
X90862253Y-78482402D01*
X90876867Y-78502107D01*
X90889480Y-78523151D01*
X90899970Y-78545329D01*
X90908235Y-78568429D01*
X90914196Y-78592227D01*
X90917796Y-78616496D01*
X90919000Y-78641000D01*
X90919000Y-79891000D01*
X90917796Y-79915504D01*
X90914196Y-79939773D01*
X90908235Y-79963571D01*
X90899970Y-79986671D01*
X90889480Y-80008849D01*
X90876867Y-80029893D01*
X90862253Y-80049598D01*
X90845777Y-80067777D01*
X90827598Y-80084253D01*
X90807893Y-80098867D01*
X90786849Y-80111480D01*
X90764671Y-80121970D01*
X90741571Y-80130235D01*
X90717773Y-80136196D01*
X90693504Y-80139796D01*
X90669000Y-80141000D01*
X89744000Y-80141000D01*
X89719496Y-80139796D01*
X89695227Y-80136196D01*
X89671429Y-80130235D01*
X89648329Y-80121970D01*
X89626151Y-80111480D01*
X89605107Y-80098867D01*
X89585402Y-80084253D01*
X89567223Y-80067777D01*
X89550747Y-80049598D01*
X89536133Y-80029893D01*
X89523520Y-80008849D01*
X89513030Y-79986671D01*
X89504765Y-79963571D01*
X89498804Y-79939773D01*
X89495204Y-79915504D01*
X89494000Y-79891000D01*
X89494000Y-78641000D01*
X89495204Y-78616496D01*
X89498804Y-78592227D01*
X89504765Y-78568429D01*
X89513030Y-78545329D01*
X89523520Y-78523151D01*
X89536133Y-78502107D01*
X89550747Y-78482402D01*
X89567223Y-78464223D01*
X89585402Y-78447747D01*
X89605107Y-78433133D01*
X89626151Y-78420520D01*
X89648329Y-78410030D01*
X89671429Y-78401765D01*
X89695227Y-78395804D01*
X89719496Y-78392204D01*
X89744000Y-78391000D01*
X90669000Y-78391000D01*
X90693504Y-78392204D01*
G37*
G36*
X93668504Y-78392204D02*
G01*
X93692773Y-78395804D01*
X93716571Y-78401765D01*
X93739671Y-78410030D01*
X93761849Y-78420520D01*
X93782893Y-78433133D01*
X93802598Y-78447747D01*
X93820777Y-78464223D01*
X93837253Y-78482402D01*
X93851867Y-78502107D01*
X93864480Y-78523151D01*
X93874970Y-78545329D01*
X93883235Y-78568429D01*
X93889196Y-78592227D01*
X93892796Y-78616496D01*
X93894000Y-78641000D01*
X93894000Y-79891000D01*
X93892796Y-79915504D01*
X93889196Y-79939773D01*
X93883235Y-79963571D01*
X93874970Y-79986671D01*
X93864480Y-80008849D01*
X93851867Y-80029893D01*
X93837253Y-80049598D01*
X93820777Y-80067777D01*
X93802598Y-80084253D01*
X93782893Y-80098867D01*
X93761849Y-80111480D01*
X93739671Y-80121970D01*
X93716571Y-80130235D01*
X93692773Y-80136196D01*
X93668504Y-80139796D01*
X93644000Y-80141000D01*
X92719000Y-80141000D01*
X92694496Y-80139796D01*
X92670227Y-80136196D01*
X92646429Y-80130235D01*
X92623329Y-80121970D01*
X92601151Y-80111480D01*
X92580107Y-80098867D01*
X92560402Y-80084253D01*
X92542223Y-80067777D01*
X92525747Y-80049598D01*
X92511133Y-80029893D01*
X92498520Y-80008849D01*
X92488030Y-79986671D01*
X92479765Y-79963571D01*
X92473804Y-79939773D01*
X92470204Y-79915504D01*
X92469000Y-79891000D01*
X92469000Y-78641000D01*
X92470204Y-78616496D01*
X92473804Y-78592227D01*
X92479765Y-78568429D01*
X92488030Y-78545329D01*
X92498520Y-78523151D01*
X92511133Y-78502107D01*
X92525747Y-78482402D01*
X92542223Y-78464223D01*
X92560402Y-78447747D01*
X92580107Y-78433133D01*
X92601151Y-78420520D01*
X92623329Y-78410030D01*
X92646429Y-78401765D01*
X92670227Y-78395804D01*
X92694496Y-78392204D01*
X92719000Y-78391000D01*
X93644000Y-78391000D01*
X93668504Y-78392204D01*
G37*
M02*
