G04 #@! TF.GenerationSoftware,KiCad,Pcbnew,5.1.5+dfsg1-2build2*
G04 #@! TF.CreationDate,2022-05-11T22:38:19-07:00*
G04 #@! TF.ProjectId,ProgramCounter,50726f67-7261-46d4-936f-756e7465722e,rev?*
G04 #@! TF.SameCoordinates,Original*
G04 #@! TF.FileFunction,Paste,Top*
G04 #@! TF.FilePolarity,Positive*
%FSLAX46Y46*%
G04 Gerber Fmt 4.6, Leading zero omitted, Abs format (unit mm)*
G04 Created by KiCad (PCBNEW 5.1.5+dfsg1-2build2) date 2022-05-11 22:38:19*
%MOMM*%
%LPD*%
G04 APERTURE LIST*
%ADD10R,0.600000X2.500000*%
%ADD11R,0.450000X1.450000*%
%ADD12R,0.600000X3.000000*%
G04 APERTURE END LIST*
D10*
X134493000Y-79172000D03*
X134493000Y-73772000D03*
X133223000Y-79172000D03*
X133223000Y-73772000D03*
X131953000Y-79172000D03*
X131953000Y-73772000D03*
X130683000Y-79172000D03*
X130683000Y-73772000D03*
X129413000Y-79172000D03*
X129413000Y-73772000D03*
X128143000Y-79172000D03*
X128143000Y-73772000D03*
X126873000Y-79172000D03*
X126873000Y-73772000D03*
X125603000Y-79172000D03*
X125603000Y-73772000D03*
X64008000Y-57498000D03*
X64008000Y-62898000D03*
X65278000Y-57498000D03*
X65278000Y-62898000D03*
X66548000Y-57498000D03*
X66548000Y-62898000D03*
X67818000Y-57498000D03*
X67818000Y-62898000D03*
X69088000Y-57498000D03*
X69088000Y-62898000D03*
X70358000Y-57498000D03*
X70358000Y-62898000D03*
X71628000Y-57498000D03*
X71628000Y-62898000D03*
X53086000Y-57436000D03*
X53086000Y-62836000D03*
X54356000Y-57436000D03*
X54356000Y-62836000D03*
X55626000Y-57436000D03*
X55626000Y-62836000D03*
X56896000Y-57436000D03*
X56896000Y-62836000D03*
X58166000Y-57436000D03*
X58166000Y-62836000D03*
X59436000Y-57436000D03*
X59436000Y-62836000D03*
X60706000Y-57436000D03*
X60706000Y-62836000D03*
X75184000Y-57498000D03*
X75184000Y-62898000D03*
X76454000Y-57498000D03*
X76454000Y-62898000D03*
X77724000Y-57498000D03*
X77724000Y-62898000D03*
X78994000Y-57498000D03*
X78994000Y-62898000D03*
X80264000Y-57498000D03*
X80264000Y-62898000D03*
X81534000Y-57498000D03*
X81534000Y-62898000D03*
X82804000Y-57498000D03*
X82804000Y-62898000D03*
D11*
X106803000Y-57266000D03*
X107453000Y-57266000D03*
X108103000Y-57266000D03*
X108753000Y-57266000D03*
X109403000Y-57266000D03*
X110053000Y-57266000D03*
X110703000Y-57266000D03*
X111353000Y-57266000D03*
X112003000Y-57266000D03*
X112653000Y-57266000D03*
X112653000Y-63166000D03*
X112003000Y-63166000D03*
X111353000Y-63166000D03*
X110703000Y-63166000D03*
X110053000Y-63166000D03*
X109403000Y-63166000D03*
X108753000Y-63166000D03*
X108103000Y-63166000D03*
X107453000Y-63166000D03*
X106803000Y-63166000D03*
X106803000Y-73522000D03*
X107453000Y-73522000D03*
X108103000Y-73522000D03*
X108753000Y-73522000D03*
X109403000Y-73522000D03*
X110053000Y-73522000D03*
X110703000Y-73522000D03*
X111353000Y-73522000D03*
X112003000Y-73522000D03*
X112653000Y-73522000D03*
X112653000Y-79422000D03*
X112003000Y-79422000D03*
X111353000Y-79422000D03*
X110703000Y-79422000D03*
X110053000Y-79422000D03*
X109403000Y-79422000D03*
X108753000Y-79422000D03*
X108103000Y-79422000D03*
X107453000Y-79422000D03*
X106803000Y-79422000D03*
D10*
X72009000Y-73754000D03*
X72009000Y-79154000D03*
X73279000Y-73754000D03*
X73279000Y-79154000D03*
X74549000Y-73754000D03*
X74549000Y-79154000D03*
X75819000Y-73754000D03*
X75819000Y-79154000D03*
X77089000Y-73754000D03*
X77089000Y-79154000D03*
X78359000Y-73754000D03*
X78359000Y-79154000D03*
X79629000Y-73754000D03*
X79629000Y-79154000D03*
X80899000Y-73754000D03*
X80899000Y-79154000D03*
D12*
X64135000Y-80850000D03*
X64135000Y-71550000D03*
X62865000Y-80850000D03*
X62865000Y-71550000D03*
X61595000Y-80850000D03*
X61595000Y-71550000D03*
X60325000Y-80850000D03*
X60325000Y-71550000D03*
X59055000Y-80850000D03*
X59055000Y-71550000D03*
X57785000Y-80850000D03*
X57785000Y-71550000D03*
X56515000Y-80850000D03*
X56515000Y-71550000D03*
X55245000Y-80850000D03*
X55245000Y-71550000D03*
X53975000Y-80850000D03*
X53975000Y-71550000D03*
X52705000Y-80850000D03*
X52705000Y-71550000D03*
D10*
X123571000Y-62916000D03*
X123571000Y-57516000D03*
X122301000Y-62916000D03*
X122301000Y-57516000D03*
X121031000Y-62916000D03*
X121031000Y-57516000D03*
X119761000Y-62916000D03*
X119761000Y-57516000D03*
X118491000Y-62916000D03*
X118491000Y-57516000D03*
X117221000Y-62916000D03*
X117221000Y-57516000D03*
X115951000Y-62916000D03*
X115951000Y-57516000D03*
X114681000Y-62916000D03*
X114681000Y-57516000D03*
X95885000Y-57516000D03*
X95885000Y-62916000D03*
X97155000Y-57516000D03*
X97155000Y-62916000D03*
X98425000Y-57516000D03*
X98425000Y-62916000D03*
X99695000Y-57516000D03*
X99695000Y-62916000D03*
X100965000Y-57516000D03*
X100965000Y-62916000D03*
X102235000Y-57516000D03*
X102235000Y-62916000D03*
X103505000Y-57516000D03*
X103505000Y-62916000D03*
X104775000Y-57516000D03*
X104775000Y-62916000D03*
X123571000Y-79172000D03*
X123571000Y-73772000D03*
X122301000Y-79172000D03*
X122301000Y-73772000D03*
X121031000Y-79172000D03*
X121031000Y-73772000D03*
X119761000Y-79172000D03*
X119761000Y-73772000D03*
X118491000Y-79172000D03*
X118491000Y-73772000D03*
X117221000Y-79172000D03*
X117221000Y-73772000D03*
X115951000Y-79172000D03*
X115951000Y-73772000D03*
X114681000Y-79172000D03*
X114681000Y-73772000D03*
X95885000Y-73772000D03*
X95885000Y-79172000D03*
X97155000Y-73772000D03*
X97155000Y-79172000D03*
X98425000Y-73772000D03*
X98425000Y-79172000D03*
X99695000Y-73772000D03*
X99695000Y-79172000D03*
X100965000Y-73772000D03*
X100965000Y-79172000D03*
X102235000Y-73772000D03*
X102235000Y-79172000D03*
X103505000Y-73772000D03*
X103505000Y-79172000D03*
X104775000Y-73772000D03*
X104775000Y-79172000D03*
X134493000Y-62916000D03*
X134493000Y-57516000D03*
X133223000Y-62916000D03*
X133223000Y-57516000D03*
X131953000Y-62916000D03*
X131953000Y-57516000D03*
X130683000Y-62916000D03*
X130683000Y-57516000D03*
X129413000Y-62916000D03*
X129413000Y-57516000D03*
X128143000Y-62916000D03*
X128143000Y-57516000D03*
X126873000Y-62916000D03*
X126873000Y-57516000D03*
X125603000Y-62916000D03*
X125603000Y-57516000D03*
X84963000Y-57516000D03*
X84963000Y-62916000D03*
X86233000Y-57516000D03*
X86233000Y-62916000D03*
X87503000Y-57516000D03*
X87503000Y-62916000D03*
X88773000Y-57516000D03*
X88773000Y-62916000D03*
X90043000Y-57516000D03*
X90043000Y-62916000D03*
X91313000Y-57516000D03*
X91313000Y-62916000D03*
X92583000Y-57516000D03*
X92583000Y-62916000D03*
X93853000Y-57516000D03*
X93853000Y-62916000D03*
X84963000Y-73772000D03*
X84963000Y-79172000D03*
X86233000Y-73772000D03*
X86233000Y-79172000D03*
X87503000Y-73772000D03*
X87503000Y-79172000D03*
X88773000Y-73772000D03*
X88773000Y-79172000D03*
X90043000Y-73772000D03*
X90043000Y-79172000D03*
X91313000Y-73772000D03*
X91313000Y-79172000D03*
X92583000Y-73772000D03*
X92583000Y-79172000D03*
X93853000Y-73772000D03*
X93853000Y-79172000D03*
M02*
