G04 #@! TF.GenerationSoftware,KiCad,Pcbnew,5.1.5+dfsg1-2build2*
G04 #@! TF.CreationDate,2022-05-11T22:38:19-07:00*
G04 #@! TF.ProjectId,ProgramCounter,50726f67-7261-46d4-936f-756e7465722e,rev?*
G04 #@! TF.SameCoordinates,Original*
G04 #@! TF.FileFunction,Legend,Bot*
G04 #@! TF.FilePolarity,Positive*
%FSLAX46Y46*%
G04 Gerber Fmt 4.6, Leading zero omitted, Abs format (unit mm)*
G04 Created by KiCad (PCBNEW 5.1.5+dfsg1-2build2) date 2022-05-11 22:38:19*
%MOMM*%
%LPD*%
G04 APERTURE LIST*
%ADD10C,0.300000*%
%ADD11C,0.120000*%
%ADD12C,0.150000*%
G04 APERTURE END LIST*
D10*
X133333714Y-91737571D02*
X133333714Y-90237571D01*
X132762285Y-90237571D01*
X132619428Y-90309000D01*
X132548000Y-90380428D01*
X132476571Y-90523285D01*
X132476571Y-90737571D01*
X132548000Y-90880428D01*
X132619428Y-90951857D01*
X132762285Y-91023285D01*
X133333714Y-91023285D01*
X130976571Y-91594714D02*
X131048000Y-91666142D01*
X131262285Y-91737571D01*
X131405142Y-91737571D01*
X131619428Y-91666142D01*
X131762285Y-91523285D01*
X131833714Y-91380428D01*
X131905142Y-91094714D01*
X131905142Y-90880428D01*
X131833714Y-90594714D01*
X131762285Y-90451857D01*
X131619428Y-90309000D01*
X131405142Y-90237571D01*
X131262285Y-90237571D01*
X131048000Y-90309000D01*
X130976571Y-90380428D01*
X130048000Y-90237571D02*
X129762285Y-90237571D01*
X129619428Y-90309000D01*
X129476571Y-90451857D01*
X129405142Y-90737571D01*
X129405142Y-91237571D01*
X129476571Y-91523285D01*
X129619428Y-91666142D01*
X129762285Y-91737571D01*
X130048000Y-91737571D01*
X130190857Y-91666142D01*
X130333714Y-91523285D01*
X130405142Y-91237571D01*
X130405142Y-90737571D01*
X130333714Y-90451857D01*
X130190857Y-90309000D01*
X130048000Y-90237571D01*
X128762285Y-90237571D02*
X128762285Y-91451857D01*
X128690857Y-91594714D01*
X128619428Y-91666142D01*
X128476571Y-91737571D01*
X128190857Y-91737571D01*
X128048000Y-91666142D01*
X127976571Y-91594714D01*
X127905142Y-91451857D01*
X127905142Y-90237571D01*
X127405142Y-90237571D02*
X126548000Y-90237571D01*
X126976571Y-91737571D02*
X126976571Y-90237571D01*
X110545142Y-91737571D02*
X111045142Y-91023285D01*
X111402285Y-91737571D02*
X111402285Y-90237571D01*
X110830857Y-90237571D01*
X110688000Y-90309000D01*
X110616571Y-90380428D01*
X110545142Y-90523285D01*
X110545142Y-90737571D01*
X110616571Y-90880428D01*
X110688000Y-90951857D01*
X110830857Y-91023285D01*
X111402285Y-91023285D01*
X109902285Y-90951857D02*
X109402285Y-90951857D01*
X109188000Y-91737571D02*
X109902285Y-91737571D01*
X109902285Y-90237571D01*
X109188000Y-90237571D01*
X107759428Y-90309000D02*
X107902285Y-90237571D01*
X108116571Y-90237571D01*
X108330857Y-90309000D01*
X108473714Y-90451857D01*
X108545142Y-90594714D01*
X108616571Y-90880428D01*
X108616571Y-91094714D01*
X108545142Y-91380428D01*
X108473714Y-91523285D01*
X108330857Y-91666142D01*
X108116571Y-91737571D01*
X107973714Y-91737571D01*
X107759428Y-91666142D01*
X107688000Y-91594714D01*
X107688000Y-91094714D01*
X107973714Y-91094714D01*
X107045142Y-91737571D02*
X107045142Y-90237571D01*
X106545142Y-91309000D01*
X106045142Y-90237571D01*
X106045142Y-91737571D01*
X105330857Y-90951857D02*
X104830857Y-90951857D01*
X104616571Y-91737571D02*
X105330857Y-91737571D01*
X105330857Y-90237571D01*
X104616571Y-90237571D01*
X103973714Y-91737571D02*
X103973714Y-90237571D01*
X103473714Y-91309000D01*
X102973714Y-90237571D01*
X102973714Y-91737571D01*
X90613714Y-90110571D02*
X91328000Y-90110571D01*
X91399428Y-90824857D01*
X91328000Y-90753428D01*
X91185142Y-90682000D01*
X90828000Y-90682000D01*
X90685142Y-90753428D01*
X90613714Y-90824857D01*
X90542285Y-90967714D01*
X90542285Y-91324857D01*
X90613714Y-91467714D01*
X90685142Y-91539142D01*
X90828000Y-91610571D01*
X91185142Y-91610571D01*
X91328000Y-91539142D01*
X91399428Y-91467714D01*
X90113714Y-90110571D02*
X89613714Y-91610571D01*
X89113714Y-90110571D01*
X87542285Y-90039142D02*
X88828000Y-91967714D01*
X87042285Y-91610571D02*
X87042285Y-90110571D01*
X86328000Y-91610571D02*
X86328000Y-90110571D01*
X85470857Y-91610571D01*
X85470857Y-90110571D01*
X84828000Y-91539142D02*
X84613714Y-91610571D01*
X84256571Y-91610571D01*
X84113714Y-91539142D01*
X84042285Y-91467714D01*
X83970857Y-91324857D01*
X83970857Y-91182000D01*
X84042285Y-91039142D01*
X84113714Y-90967714D01*
X84256571Y-90896285D01*
X84542285Y-90824857D01*
X84685142Y-90753428D01*
X84756571Y-90682000D01*
X84828000Y-90539142D01*
X84828000Y-90396285D01*
X84756571Y-90253428D01*
X84685142Y-90182000D01*
X84542285Y-90110571D01*
X84185142Y-90110571D01*
X83970857Y-90182000D01*
X83542285Y-90110571D02*
X82685142Y-90110571D01*
X83113714Y-91610571D02*
X83113714Y-90110571D01*
X81113714Y-90039142D02*
X82399428Y-91967714D01*
X80613714Y-90824857D02*
X80113714Y-90824857D01*
X79899428Y-91610571D02*
X80613714Y-91610571D01*
X80613714Y-90110571D01*
X79899428Y-90110571D01*
X79470857Y-90110571D02*
X78613714Y-90110571D01*
X79042285Y-91610571D02*
X79042285Y-90110571D01*
X77256571Y-91467714D02*
X77328000Y-91539142D01*
X77542285Y-91610571D01*
X77685142Y-91610571D01*
X77899428Y-91539142D01*
X78042285Y-91396285D01*
X78113714Y-91253428D01*
X78185142Y-90967714D01*
X78185142Y-90753428D01*
X78113714Y-90467714D01*
X78042285Y-90324857D01*
X77899428Y-90182000D01*
X77685142Y-90110571D01*
X77542285Y-90110571D01*
X77328000Y-90182000D01*
X77256571Y-90253428D01*
X65503714Y-91610571D02*
X66003714Y-90896285D01*
X66360857Y-91610571D02*
X66360857Y-90110571D01*
X65789428Y-90110571D01*
X65646571Y-90182000D01*
X65575142Y-90253428D01*
X65503714Y-90396285D01*
X65503714Y-90610571D01*
X65575142Y-90753428D01*
X65646571Y-90824857D01*
X65789428Y-90896285D01*
X66360857Y-90896285D01*
X64003714Y-91467714D02*
X64075142Y-91539142D01*
X64289428Y-91610571D01*
X64432285Y-91610571D01*
X64646571Y-91539142D01*
X64789428Y-91396285D01*
X64860857Y-91253428D01*
X64932285Y-90967714D01*
X64932285Y-90753428D01*
X64860857Y-90467714D01*
X64789428Y-90324857D01*
X64646571Y-90182000D01*
X64432285Y-90110571D01*
X64289428Y-90110571D01*
X64075142Y-90182000D01*
X64003714Y-90253428D01*
X63432285Y-91539142D02*
X63218000Y-91610571D01*
X62860857Y-91610571D01*
X62718000Y-91539142D01*
X62646571Y-91467714D01*
X62575142Y-91324857D01*
X62575142Y-91182000D01*
X62646571Y-91039142D01*
X62718000Y-90967714D01*
X62860857Y-90896285D01*
X63146571Y-90824857D01*
X63289428Y-90753428D01*
X63360857Y-90682000D01*
X63432285Y-90539142D01*
X63432285Y-90396285D01*
X63360857Y-90253428D01*
X63289428Y-90182000D01*
X63146571Y-90110571D01*
X62789428Y-90110571D01*
X62575142Y-90182000D01*
X60860857Y-90039142D02*
X62146571Y-91967714D01*
X59503714Y-91610571D02*
X60003714Y-90896285D01*
X60360857Y-91610571D02*
X60360857Y-90110571D01*
X59789428Y-90110571D01*
X59646571Y-90182000D01*
X59575142Y-90253428D01*
X59503714Y-90396285D01*
X59503714Y-90610571D01*
X59575142Y-90753428D01*
X59646571Y-90824857D01*
X59789428Y-90896285D01*
X60360857Y-90896285D01*
X58003714Y-91467714D02*
X58075142Y-91539142D01*
X58289428Y-91610571D01*
X58432285Y-91610571D01*
X58646571Y-91539142D01*
X58789428Y-91396285D01*
X58860857Y-91253428D01*
X58932285Y-90967714D01*
X58932285Y-90753428D01*
X58860857Y-90467714D01*
X58789428Y-90324857D01*
X58646571Y-90182000D01*
X58432285Y-90110571D01*
X58289428Y-90110571D01*
X58075142Y-90182000D01*
X58003714Y-90253428D01*
X57360857Y-91610571D02*
X57360857Y-90110571D01*
X57003714Y-90110571D01*
X56789428Y-90182000D01*
X56646571Y-90324857D01*
X56575142Y-90467714D01*
X56503714Y-90753428D01*
X56503714Y-90967714D01*
X56575142Y-91253428D01*
X56646571Y-91396285D01*
X56789428Y-91539142D01*
X57003714Y-91610571D01*
X57360857Y-91610571D01*
D11*
X93602564Y-83968000D02*
X92398436Y-83968000D01*
X93602564Y-82148000D02*
X92398436Y-82148000D01*
X53971436Y-69956000D02*
X55175564Y-69956000D01*
X53971436Y-71776000D02*
X55175564Y-71776000D01*
X114967936Y-55670000D02*
X116172064Y-55670000D01*
X114967936Y-57490000D02*
X116172064Y-57490000D01*
X103472064Y-63332000D02*
X102267936Y-63332000D01*
X103472064Y-61512000D02*
X102267936Y-61512000D01*
X73565936Y-72180000D02*
X74770064Y-72180000D01*
X73565936Y-74000000D02*
X74770064Y-74000000D01*
X65147436Y-55924000D02*
X66351564Y-55924000D01*
X65147436Y-57744000D02*
X66351564Y-57744000D01*
X93058064Y-63586000D02*
X91853936Y-63586000D01*
X93058064Y-61766000D02*
X91853936Y-61766000D01*
X126615436Y-56178000D02*
X127819564Y-56178000D01*
X126615436Y-57998000D02*
X127819564Y-57998000D01*
X77310064Y-83144000D02*
X76105936Y-83144000D01*
X77310064Y-81324000D02*
X76105936Y-81324000D01*
X127159936Y-73022000D02*
X128364064Y-73022000D01*
X127159936Y-74842000D02*
X128364064Y-74842000D01*
X108073436Y-57998000D02*
X109277564Y-57998000D01*
X108073436Y-56178000D02*
X109277564Y-56178000D01*
X115983936Y-73022000D02*
X117188064Y-73022000D01*
X115983936Y-74842000D02*
X117188064Y-74842000D01*
X53971436Y-57744000D02*
X55175564Y-57744000D01*
X53971436Y-55924000D02*
X55175564Y-55924000D01*
X76323436Y-57806000D02*
X77527564Y-57806000D01*
X76323436Y-55986000D02*
X77527564Y-55986000D01*
X108327436Y-72006000D02*
X109531564Y-72006000D01*
X108327436Y-73826000D02*
X109531564Y-73826000D01*
X92296064Y-80176000D02*
X91091936Y-80176000D01*
X92296064Y-78356000D02*
X91091936Y-78356000D01*
D12*
X93643357Y-81595142D02*
X93690976Y-81642761D01*
X93833833Y-81690380D01*
X93929071Y-81690380D01*
X94071928Y-81642761D01*
X94167166Y-81547523D01*
X94214785Y-81452285D01*
X94262404Y-81261809D01*
X94262404Y-81118952D01*
X94214785Y-80928476D01*
X94167166Y-80833238D01*
X94071928Y-80738000D01*
X93929071Y-80690380D01*
X93833833Y-80690380D01*
X93690976Y-80738000D01*
X93643357Y-80785619D01*
X92690976Y-81690380D02*
X93262404Y-81690380D01*
X92976690Y-81690380D02*
X92976690Y-80690380D01*
X93071928Y-80833238D01*
X93167166Y-80928476D01*
X93262404Y-80976095D01*
X91833833Y-80690380D02*
X92024309Y-80690380D01*
X92119547Y-80738000D01*
X92167166Y-80785619D01*
X92262404Y-80928476D01*
X92310023Y-81118952D01*
X92310023Y-81499904D01*
X92262404Y-81595142D01*
X92214785Y-81642761D01*
X92119547Y-81690380D01*
X91929071Y-81690380D01*
X91833833Y-81642761D01*
X91786214Y-81595142D01*
X91738595Y-81499904D01*
X91738595Y-81261809D01*
X91786214Y-81166571D01*
X91833833Y-81118952D01*
X91929071Y-81071333D01*
X92119547Y-81071333D01*
X92214785Y-81118952D01*
X92262404Y-81166571D01*
X92310023Y-81261809D01*
X54740166Y-73043142D02*
X54787785Y-73090761D01*
X54930642Y-73138380D01*
X55025880Y-73138380D01*
X55168738Y-73090761D01*
X55263976Y-72995523D01*
X55311595Y-72900285D01*
X55359214Y-72709809D01*
X55359214Y-72566952D01*
X55311595Y-72376476D01*
X55263976Y-72281238D01*
X55168738Y-72186000D01*
X55025880Y-72138380D01*
X54930642Y-72138380D01*
X54787785Y-72186000D01*
X54740166Y-72233619D01*
X53835404Y-72138380D02*
X54311595Y-72138380D01*
X54359214Y-72614571D01*
X54311595Y-72566952D01*
X54216357Y-72519333D01*
X53978261Y-72519333D01*
X53883023Y-72566952D01*
X53835404Y-72614571D01*
X53787785Y-72709809D01*
X53787785Y-72947904D01*
X53835404Y-73043142D01*
X53883023Y-73090761D01*
X53978261Y-73138380D01*
X54216357Y-73138380D01*
X54311595Y-73090761D01*
X54359214Y-73043142D01*
X116212857Y-58757142D02*
X116260476Y-58804761D01*
X116403333Y-58852380D01*
X116498571Y-58852380D01*
X116641428Y-58804761D01*
X116736666Y-58709523D01*
X116784285Y-58614285D01*
X116831904Y-58423809D01*
X116831904Y-58280952D01*
X116784285Y-58090476D01*
X116736666Y-57995238D01*
X116641428Y-57900000D01*
X116498571Y-57852380D01*
X116403333Y-57852380D01*
X116260476Y-57900000D01*
X116212857Y-57947619D01*
X115260476Y-58852380D02*
X115831904Y-58852380D01*
X115546190Y-58852380D02*
X115546190Y-57852380D01*
X115641428Y-57995238D01*
X115736666Y-58090476D01*
X115831904Y-58138095D01*
X114355714Y-57852380D02*
X114831904Y-57852380D01*
X114879523Y-58328571D01*
X114831904Y-58280952D01*
X114736666Y-58233333D01*
X114498571Y-58233333D01*
X114403333Y-58280952D01*
X114355714Y-58328571D01*
X114308095Y-58423809D01*
X114308095Y-58661904D01*
X114355714Y-58757142D01*
X114403333Y-58804761D01*
X114498571Y-58852380D01*
X114736666Y-58852380D01*
X114831904Y-58804761D01*
X114879523Y-58757142D01*
X103512857Y-60959142D02*
X103560476Y-61006761D01*
X103703333Y-61054380D01*
X103798571Y-61054380D01*
X103941428Y-61006761D01*
X104036666Y-60911523D01*
X104084285Y-60816285D01*
X104131904Y-60625809D01*
X104131904Y-60482952D01*
X104084285Y-60292476D01*
X104036666Y-60197238D01*
X103941428Y-60102000D01*
X103798571Y-60054380D01*
X103703333Y-60054380D01*
X103560476Y-60102000D01*
X103512857Y-60149619D01*
X102560476Y-61054380D02*
X103131904Y-61054380D01*
X102846190Y-61054380D02*
X102846190Y-60054380D01*
X102941428Y-60197238D01*
X103036666Y-60292476D01*
X103131904Y-60340095D01*
X101703333Y-60387714D02*
X101703333Y-61054380D01*
X101941428Y-60006761D02*
X102179523Y-60721047D01*
X101560476Y-60721047D01*
X74810857Y-75267142D02*
X74858476Y-75314761D01*
X75001333Y-75362380D01*
X75096571Y-75362380D01*
X75239428Y-75314761D01*
X75334666Y-75219523D01*
X75382285Y-75124285D01*
X75429904Y-74933809D01*
X75429904Y-74790952D01*
X75382285Y-74600476D01*
X75334666Y-74505238D01*
X75239428Y-74410000D01*
X75096571Y-74362380D01*
X75001333Y-74362380D01*
X74858476Y-74410000D01*
X74810857Y-74457619D01*
X73858476Y-75362380D02*
X74429904Y-75362380D01*
X74144190Y-75362380D02*
X74144190Y-74362380D01*
X74239428Y-74505238D01*
X74334666Y-74600476D01*
X74429904Y-74648095D01*
X73525142Y-74362380D02*
X72906095Y-74362380D01*
X73239428Y-74743333D01*
X73096571Y-74743333D01*
X73001333Y-74790952D01*
X72953714Y-74838571D01*
X72906095Y-74933809D01*
X72906095Y-75171904D01*
X72953714Y-75267142D01*
X73001333Y-75314761D01*
X73096571Y-75362380D01*
X73382285Y-75362380D01*
X73477523Y-75314761D01*
X73525142Y-75267142D01*
X66392357Y-59011142D02*
X66439976Y-59058761D01*
X66582833Y-59106380D01*
X66678071Y-59106380D01*
X66820928Y-59058761D01*
X66916166Y-58963523D01*
X66963785Y-58868285D01*
X67011404Y-58677809D01*
X67011404Y-58534952D01*
X66963785Y-58344476D01*
X66916166Y-58249238D01*
X66820928Y-58154000D01*
X66678071Y-58106380D01*
X66582833Y-58106380D01*
X66439976Y-58154000D01*
X66392357Y-58201619D01*
X65439976Y-59106380D02*
X66011404Y-59106380D01*
X65725690Y-59106380D02*
X65725690Y-58106380D01*
X65820928Y-58249238D01*
X65916166Y-58344476D01*
X66011404Y-58392095D01*
X65059023Y-58201619D02*
X65011404Y-58154000D01*
X64916166Y-58106380D01*
X64678071Y-58106380D01*
X64582833Y-58154000D01*
X64535214Y-58201619D01*
X64487595Y-58296857D01*
X64487595Y-58392095D01*
X64535214Y-58534952D01*
X65106642Y-59106380D01*
X64487595Y-59106380D01*
X93098857Y-61213142D02*
X93146476Y-61260761D01*
X93289333Y-61308380D01*
X93384571Y-61308380D01*
X93527428Y-61260761D01*
X93622666Y-61165523D01*
X93670285Y-61070285D01*
X93717904Y-60879809D01*
X93717904Y-60736952D01*
X93670285Y-60546476D01*
X93622666Y-60451238D01*
X93527428Y-60356000D01*
X93384571Y-60308380D01*
X93289333Y-60308380D01*
X93146476Y-60356000D01*
X93098857Y-60403619D01*
X92146476Y-61308380D02*
X92717904Y-61308380D01*
X92432190Y-61308380D02*
X92432190Y-60308380D01*
X92527428Y-60451238D01*
X92622666Y-60546476D01*
X92717904Y-60594095D01*
X91194095Y-61308380D02*
X91765523Y-61308380D01*
X91479809Y-61308380D02*
X91479809Y-60308380D01*
X91575047Y-60451238D01*
X91670285Y-60546476D01*
X91765523Y-60594095D01*
X127860357Y-59265142D02*
X127907976Y-59312761D01*
X128050833Y-59360380D01*
X128146071Y-59360380D01*
X128288928Y-59312761D01*
X128384166Y-59217523D01*
X128431785Y-59122285D01*
X128479404Y-58931809D01*
X128479404Y-58788952D01*
X128431785Y-58598476D01*
X128384166Y-58503238D01*
X128288928Y-58408000D01*
X128146071Y-58360380D01*
X128050833Y-58360380D01*
X127907976Y-58408000D01*
X127860357Y-58455619D01*
X126907976Y-59360380D02*
X127479404Y-59360380D01*
X127193690Y-59360380D02*
X127193690Y-58360380D01*
X127288928Y-58503238D01*
X127384166Y-58598476D01*
X127479404Y-58646095D01*
X126288928Y-58360380D02*
X126193690Y-58360380D01*
X126098452Y-58408000D01*
X126050833Y-58455619D01*
X126003214Y-58550857D01*
X125955595Y-58741333D01*
X125955595Y-58979428D01*
X126003214Y-59169904D01*
X126050833Y-59265142D01*
X126098452Y-59312761D01*
X126193690Y-59360380D01*
X126288928Y-59360380D01*
X126384166Y-59312761D01*
X126431785Y-59265142D01*
X126479404Y-59169904D01*
X126527023Y-58979428D01*
X126527023Y-58741333D01*
X126479404Y-58550857D01*
X126431785Y-58455619D01*
X126384166Y-58408000D01*
X126288928Y-58360380D01*
X76874666Y-80771142D02*
X76922285Y-80818761D01*
X77065142Y-80866380D01*
X77160380Y-80866380D01*
X77303238Y-80818761D01*
X77398476Y-80723523D01*
X77446095Y-80628285D01*
X77493714Y-80437809D01*
X77493714Y-80294952D01*
X77446095Y-80104476D01*
X77398476Y-80009238D01*
X77303238Y-79914000D01*
X77160380Y-79866380D01*
X77065142Y-79866380D01*
X76922285Y-79914000D01*
X76874666Y-79961619D01*
X76398476Y-80866380D02*
X76208000Y-80866380D01*
X76112761Y-80818761D01*
X76065142Y-80771142D01*
X75969904Y-80628285D01*
X75922285Y-80437809D01*
X75922285Y-80056857D01*
X75969904Y-79961619D01*
X76017523Y-79914000D01*
X76112761Y-79866380D01*
X76303238Y-79866380D01*
X76398476Y-79914000D01*
X76446095Y-79961619D01*
X76493714Y-80056857D01*
X76493714Y-80294952D01*
X76446095Y-80390190D01*
X76398476Y-80437809D01*
X76303238Y-80485428D01*
X76112761Y-80485428D01*
X76017523Y-80437809D01*
X75969904Y-80390190D01*
X75922285Y-80294952D01*
X127928666Y-76109142D02*
X127976285Y-76156761D01*
X128119142Y-76204380D01*
X128214380Y-76204380D01*
X128357238Y-76156761D01*
X128452476Y-76061523D01*
X128500095Y-75966285D01*
X128547714Y-75775809D01*
X128547714Y-75632952D01*
X128500095Y-75442476D01*
X128452476Y-75347238D01*
X128357238Y-75252000D01*
X128214380Y-75204380D01*
X128119142Y-75204380D01*
X127976285Y-75252000D01*
X127928666Y-75299619D01*
X127357238Y-75632952D02*
X127452476Y-75585333D01*
X127500095Y-75537714D01*
X127547714Y-75442476D01*
X127547714Y-75394857D01*
X127500095Y-75299619D01*
X127452476Y-75252000D01*
X127357238Y-75204380D01*
X127166761Y-75204380D01*
X127071523Y-75252000D01*
X127023904Y-75299619D01*
X126976285Y-75394857D01*
X126976285Y-75442476D01*
X127023904Y-75537714D01*
X127071523Y-75585333D01*
X127166761Y-75632952D01*
X127357238Y-75632952D01*
X127452476Y-75680571D01*
X127500095Y-75728190D01*
X127547714Y-75823428D01*
X127547714Y-76013904D01*
X127500095Y-76109142D01*
X127452476Y-76156761D01*
X127357238Y-76204380D01*
X127166761Y-76204380D01*
X127071523Y-76156761D01*
X127023904Y-76109142D01*
X126976285Y-76013904D01*
X126976285Y-75823428D01*
X127023904Y-75728190D01*
X127071523Y-75680571D01*
X127166761Y-75632952D01*
X108842166Y-59265142D02*
X108889785Y-59312761D01*
X109032642Y-59360380D01*
X109127880Y-59360380D01*
X109270738Y-59312761D01*
X109365976Y-59217523D01*
X109413595Y-59122285D01*
X109461214Y-58931809D01*
X109461214Y-58788952D01*
X109413595Y-58598476D01*
X109365976Y-58503238D01*
X109270738Y-58408000D01*
X109127880Y-58360380D01*
X109032642Y-58360380D01*
X108889785Y-58408000D01*
X108842166Y-58455619D01*
X108508833Y-58360380D02*
X107842166Y-58360380D01*
X108270738Y-59360380D01*
X116752666Y-76109142D02*
X116800285Y-76156761D01*
X116943142Y-76204380D01*
X117038380Y-76204380D01*
X117181238Y-76156761D01*
X117276476Y-76061523D01*
X117324095Y-75966285D01*
X117371714Y-75775809D01*
X117371714Y-75632952D01*
X117324095Y-75442476D01*
X117276476Y-75347238D01*
X117181238Y-75252000D01*
X117038380Y-75204380D01*
X116943142Y-75204380D01*
X116800285Y-75252000D01*
X116752666Y-75299619D01*
X115895523Y-75204380D02*
X116086000Y-75204380D01*
X116181238Y-75252000D01*
X116228857Y-75299619D01*
X116324095Y-75442476D01*
X116371714Y-75632952D01*
X116371714Y-76013904D01*
X116324095Y-76109142D01*
X116276476Y-76156761D01*
X116181238Y-76204380D01*
X115990761Y-76204380D01*
X115895523Y-76156761D01*
X115847904Y-76109142D01*
X115800285Y-76013904D01*
X115800285Y-75775809D01*
X115847904Y-75680571D01*
X115895523Y-75632952D01*
X115990761Y-75585333D01*
X116181238Y-75585333D01*
X116276476Y-75632952D01*
X116324095Y-75680571D01*
X116371714Y-75775809D01*
X54740166Y-59011142D02*
X54787785Y-59058761D01*
X54930642Y-59106380D01*
X55025880Y-59106380D01*
X55168738Y-59058761D01*
X55263976Y-58963523D01*
X55311595Y-58868285D01*
X55359214Y-58677809D01*
X55359214Y-58534952D01*
X55311595Y-58344476D01*
X55263976Y-58249238D01*
X55168738Y-58154000D01*
X55025880Y-58106380D01*
X54930642Y-58106380D01*
X54787785Y-58154000D01*
X54740166Y-58201619D01*
X53883023Y-58439714D02*
X53883023Y-59106380D01*
X54121119Y-58058761D02*
X54359214Y-58773047D01*
X53740166Y-58773047D01*
X77092166Y-59073142D02*
X77139785Y-59120761D01*
X77282642Y-59168380D01*
X77377880Y-59168380D01*
X77520738Y-59120761D01*
X77615976Y-59025523D01*
X77663595Y-58930285D01*
X77711214Y-58739809D01*
X77711214Y-58596952D01*
X77663595Y-58406476D01*
X77615976Y-58311238D01*
X77520738Y-58216000D01*
X77377880Y-58168380D01*
X77282642Y-58168380D01*
X77139785Y-58216000D01*
X77092166Y-58263619D01*
X76758833Y-58168380D02*
X76139785Y-58168380D01*
X76473119Y-58549333D01*
X76330261Y-58549333D01*
X76235023Y-58596952D01*
X76187404Y-58644571D01*
X76139785Y-58739809D01*
X76139785Y-58977904D01*
X76187404Y-59073142D01*
X76235023Y-59120761D01*
X76330261Y-59168380D01*
X76615976Y-59168380D01*
X76711214Y-59120761D01*
X76758833Y-59073142D01*
X109096166Y-75093142D02*
X109143785Y-75140761D01*
X109286642Y-75188380D01*
X109381880Y-75188380D01*
X109524738Y-75140761D01*
X109619976Y-75045523D01*
X109667595Y-74950285D01*
X109715214Y-74759809D01*
X109715214Y-74616952D01*
X109667595Y-74426476D01*
X109619976Y-74331238D01*
X109524738Y-74236000D01*
X109381880Y-74188380D01*
X109286642Y-74188380D01*
X109143785Y-74236000D01*
X109096166Y-74283619D01*
X108715214Y-74283619D02*
X108667595Y-74236000D01*
X108572357Y-74188380D01*
X108334261Y-74188380D01*
X108239023Y-74236000D01*
X108191404Y-74283619D01*
X108143785Y-74378857D01*
X108143785Y-74474095D01*
X108191404Y-74616952D01*
X108762833Y-75188380D01*
X108143785Y-75188380D01*
X91860666Y-77803142D02*
X91908285Y-77850761D01*
X92051142Y-77898380D01*
X92146380Y-77898380D01*
X92289238Y-77850761D01*
X92384476Y-77755523D01*
X92432095Y-77660285D01*
X92479714Y-77469809D01*
X92479714Y-77326952D01*
X92432095Y-77136476D01*
X92384476Y-77041238D01*
X92289238Y-76946000D01*
X92146380Y-76898380D01*
X92051142Y-76898380D01*
X91908285Y-76946000D01*
X91860666Y-76993619D01*
X90908285Y-77898380D02*
X91479714Y-77898380D01*
X91194000Y-77898380D02*
X91194000Y-76898380D01*
X91289238Y-77041238D01*
X91384476Y-77136476D01*
X91479714Y-77184095D01*
M02*
