G04 #@! TF.GenerationSoftware,KiCad,Pcbnew,5.1.5+dfsg1-2build2*
G04 #@! TF.CreationDate,2022-05-11T22:38:19-07:00*
G04 #@! TF.ProjectId,ProgramCounter,50726f67-7261-46d4-936f-756e7465722e,rev?*
G04 #@! TF.SameCoordinates,Original*
G04 #@! TF.FileFunction,Legend,Top*
G04 #@! TF.FilePolarity,Positive*
%FSLAX46Y46*%
G04 Gerber Fmt 4.6, Leading zero omitted, Abs format (unit mm)*
G04 Created by KiCad (PCBNEW 5.1.5+dfsg1-2build2) date 2022-05-11 22:38:19*
%MOMM*%
%LPD*%
G04 APERTURE LIST*
%ADD10C,0.120000*%
%ADD11C,0.150000*%
G04 APERTURE END LIST*
D10*
X50994000Y-53654000D02*
X50994000Y-52324000D01*
X52324000Y-53654000D02*
X50994000Y-53654000D01*
X53594000Y-53654000D02*
X53594000Y-50994000D01*
X53594000Y-50994000D02*
X76514000Y-50994000D01*
X53594000Y-53654000D02*
X76514000Y-53654000D01*
X76514000Y-53654000D02*
X76514000Y-50994000D01*
X140170000Y-84390000D02*
X140170000Y-85660000D01*
X138900000Y-84390000D02*
X140170000Y-84390000D01*
X120740000Y-86702929D02*
X120740000Y-87157071D01*
X121500000Y-86702929D02*
X121500000Y-87157071D01*
X120740000Y-89242929D02*
X120740000Y-89640000D01*
X121500000Y-89242929D02*
X121500000Y-89640000D01*
X120740000Y-98300000D02*
X120740000Y-92300000D01*
X121500000Y-98300000D02*
X120740000Y-98300000D01*
X121500000Y-92300000D02*
X121500000Y-98300000D01*
X122390000Y-89640000D02*
X122390000Y-92300000D01*
X123280000Y-86702929D02*
X123280000Y-87157071D01*
X124040000Y-86702929D02*
X124040000Y-87157071D01*
X123280000Y-89242929D02*
X123280000Y-89640000D01*
X124040000Y-89242929D02*
X124040000Y-89640000D01*
X123280000Y-98300000D02*
X123280000Y-92300000D01*
X124040000Y-98300000D02*
X123280000Y-98300000D01*
X124040000Y-92300000D02*
X124040000Y-98300000D01*
X124930000Y-89640000D02*
X124930000Y-92300000D01*
X125820000Y-86702929D02*
X125820000Y-87157071D01*
X126580000Y-86702929D02*
X126580000Y-87157071D01*
X125820000Y-89242929D02*
X125820000Y-89640000D01*
X126580000Y-89242929D02*
X126580000Y-89640000D01*
X125820000Y-98300000D02*
X125820000Y-92300000D01*
X126580000Y-98300000D02*
X125820000Y-98300000D01*
X126580000Y-92300000D02*
X126580000Y-98300000D01*
X127470000Y-89640000D02*
X127470000Y-92300000D01*
X128360000Y-86702929D02*
X128360000Y-87157071D01*
X129120000Y-86702929D02*
X129120000Y-87157071D01*
X128360000Y-89242929D02*
X128360000Y-89640000D01*
X129120000Y-89242929D02*
X129120000Y-89640000D01*
X128360000Y-98300000D02*
X128360000Y-92300000D01*
X129120000Y-98300000D02*
X128360000Y-98300000D01*
X129120000Y-92300000D02*
X129120000Y-98300000D01*
X130010000Y-89640000D02*
X130010000Y-92300000D01*
X130900000Y-86702929D02*
X130900000Y-87157071D01*
X131660000Y-86702929D02*
X131660000Y-87157071D01*
X130900000Y-89242929D02*
X130900000Y-89640000D01*
X131660000Y-89242929D02*
X131660000Y-89640000D01*
X130900000Y-98300000D02*
X130900000Y-92300000D01*
X131660000Y-98300000D02*
X130900000Y-98300000D01*
X131660000Y-92300000D02*
X131660000Y-98300000D01*
X132550000Y-89640000D02*
X132550000Y-92300000D01*
X133440000Y-86702929D02*
X133440000Y-87157071D01*
X134200000Y-86702929D02*
X134200000Y-87157071D01*
X133440000Y-89242929D02*
X133440000Y-89640000D01*
X134200000Y-89242929D02*
X134200000Y-89640000D01*
X133440000Y-98300000D02*
X133440000Y-92300000D01*
X134200000Y-98300000D02*
X133440000Y-98300000D01*
X134200000Y-92300000D02*
X134200000Y-98300000D01*
X135090000Y-89640000D02*
X135090000Y-92300000D01*
X135980000Y-86702929D02*
X135980000Y-87157071D01*
X136740000Y-86702929D02*
X136740000Y-87157071D01*
X135980000Y-89242929D02*
X135980000Y-89640000D01*
X136740000Y-89242929D02*
X136740000Y-89640000D01*
X135980000Y-98300000D02*
X135980000Y-92300000D01*
X136740000Y-98300000D02*
X135980000Y-98300000D01*
X136740000Y-92300000D02*
X136740000Y-98300000D01*
X137630000Y-89640000D02*
X137630000Y-92300000D01*
X138520000Y-86770000D02*
X138520000Y-87157071D01*
X139280000Y-86770000D02*
X139280000Y-87157071D01*
X138520000Y-89242929D02*
X138520000Y-89640000D01*
X139280000Y-89242929D02*
X139280000Y-89640000D01*
X138620000Y-92300000D02*
X138620000Y-98300000D01*
X138740000Y-92300000D02*
X138740000Y-98300000D01*
X138860000Y-92300000D02*
X138860000Y-98300000D01*
X138980000Y-92300000D02*
X138980000Y-98300000D01*
X139100000Y-92300000D02*
X139100000Y-98300000D01*
X139220000Y-92300000D02*
X139220000Y-98300000D01*
X138520000Y-98300000D02*
X138520000Y-92300000D01*
X139280000Y-98300000D02*
X138520000Y-98300000D01*
X139280000Y-92300000D02*
X139280000Y-98300000D01*
X140230000Y-92300000D02*
X140230000Y-89640000D01*
X119790000Y-92300000D02*
X140230000Y-92300000D01*
X119790000Y-89640000D02*
X119790000Y-92300000D01*
X140230000Y-89640000D02*
X119790000Y-89640000D01*
X94450000Y-84390000D02*
X94450000Y-85660000D01*
X93180000Y-84390000D02*
X94450000Y-84390000D01*
X75020000Y-86702929D02*
X75020000Y-87157071D01*
X75780000Y-86702929D02*
X75780000Y-87157071D01*
X75020000Y-89242929D02*
X75020000Y-89640000D01*
X75780000Y-89242929D02*
X75780000Y-89640000D01*
X75020000Y-98300000D02*
X75020000Y-92300000D01*
X75780000Y-98300000D02*
X75020000Y-98300000D01*
X75780000Y-92300000D02*
X75780000Y-98300000D01*
X76670000Y-89640000D02*
X76670000Y-92300000D01*
X77560000Y-86702929D02*
X77560000Y-87157071D01*
X78320000Y-86702929D02*
X78320000Y-87157071D01*
X77560000Y-89242929D02*
X77560000Y-89640000D01*
X78320000Y-89242929D02*
X78320000Y-89640000D01*
X77560000Y-98300000D02*
X77560000Y-92300000D01*
X78320000Y-98300000D02*
X77560000Y-98300000D01*
X78320000Y-92300000D02*
X78320000Y-98300000D01*
X79210000Y-89640000D02*
X79210000Y-92300000D01*
X80100000Y-86702929D02*
X80100000Y-87157071D01*
X80860000Y-86702929D02*
X80860000Y-87157071D01*
X80100000Y-89242929D02*
X80100000Y-89640000D01*
X80860000Y-89242929D02*
X80860000Y-89640000D01*
X80100000Y-98300000D02*
X80100000Y-92300000D01*
X80860000Y-98300000D02*
X80100000Y-98300000D01*
X80860000Y-92300000D02*
X80860000Y-98300000D01*
X81750000Y-89640000D02*
X81750000Y-92300000D01*
X82640000Y-86702929D02*
X82640000Y-87157071D01*
X83400000Y-86702929D02*
X83400000Y-87157071D01*
X82640000Y-89242929D02*
X82640000Y-89640000D01*
X83400000Y-89242929D02*
X83400000Y-89640000D01*
X82640000Y-98300000D02*
X82640000Y-92300000D01*
X83400000Y-98300000D02*
X82640000Y-98300000D01*
X83400000Y-92300000D02*
X83400000Y-98300000D01*
X84290000Y-89640000D02*
X84290000Y-92300000D01*
X85180000Y-86702929D02*
X85180000Y-87157071D01*
X85940000Y-86702929D02*
X85940000Y-87157071D01*
X85180000Y-89242929D02*
X85180000Y-89640000D01*
X85940000Y-89242929D02*
X85940000Y-89640000D01*
X85180000Y-98300000D02*
X85180000Y-92300000D01*
X85940000Y-98300000D02*
X85180000Y-98300000D01*
X85940000Y-92300000D02*
X85940000Y-98300000D01*
X86830000Y-89640000D02*
X86830000Y-92300000D01*
X87720000Y-86702929D02*
X87720000Y-87157071D01*
X88480000Y-86702929D02*
X88480000Y-87157071D01*
X87720000Y-89242929D02*
X87720000Y-89640000D01*
X88480000Y-89242929D02*
X88480000Y-89640000D01*
X87720000Y-98300000D02*
X87720000Y-92300000D01*
X88480000Y-98300000D02*
X87720000Y-98300000D01*
X88480000Y-92300000D02*
X88480000Y-98300000D01*
X89370000Y-89640000D02*
X89370000Y-92300000D01*
X90260000Y-86702929D02*
X90260000Y-87157071D01*
X91020000Y-86702929D02*
X91020000Y-87157071D01*
X90260000Y-89242929D02*
X90260000Y-89640000D01*
X91020000Y-89242929D02*
X91020000Y-89640000D01*
X90260000Y-98300000D02*
X90260000Y-92300000D01*
X91020000Y-98300000D02*
X90260000Y-98300000D01*
X91020000Y-92300000D02*
X91020000Y-98300000D01*
X91910000Y-89640000D02*
X91910000Y-92300000D01*
X92800000Y-86770000D02*
X92800000Y-87157071D01*
X93560000Y-86770000D02*
X93560000Y-87157071D01*
X92800000Y-89242929D02*
X92800000Y-89640000D01*
X93560000Y-89242929D02*
X93560000Y-89640000D01*
X92900000Y-92300000D02*
X92900000Y-98300000D01*
X93020000Y-92300000D02*
X93020000Y-98300000D01*
X93140000Y-92300000D02*
X93140000Y-98300000D01*
X93260000Y-92300000D02*
X93260000Y-98300000D01*
X93380000Y-92300000D02*
X93380000Y-98300000D01*
X93500000Y-92300000D02*
X93500000Y-98300000D01*
X92800000Y-98300000D02*
X92800000Y-92300000D01*
X93560000Y-98300000D02*
X92800000Y-98300000D01*
X93560000Y-92300000D02*
X93560000Y-98300000D01*
X94510000Y-92300000D02*
X94510000Y-89640000D01*
X74070000Y-92300000D02*
X94510000Y-92300000D01*
X74070000Y-89640000D02*
X74070000Y-92300000D01*
X94510000Y-89640000D02*
X74070000Y-89640000D01*
X71590000Y-84390000D02*
X71590000Y-85660000D01*
X70320000Y-84390000D02*
X71590000Y-84390000D01*
X52160000Y-86702929D02*
X52160000Y-87157071D01*
X52920000Y-86702929D02*
X52920000Y-87157071D01*
X52160000Y-89242929D02*
X52160000Y-89640000D01*
X52920000Y-89242929D02*
X52920000Y-89640000D01*
X52160000Y-98300000D02*
X52160000Y-92300000D01*
X52920000Y-98300000D02*
X52160000Y-98300000D01*
X52920000Y-92300000D02*
X52920000Y-98300000D01*
X53810000Y-89640000D02*
X53810000Y-92300000D01*
X54700000Y-86702929D02*
X54700000Y-87157071D01*
X55460000Y-86702929D02*
X55460000Y-87157071D01*
X54700000Y-89242929D02*
X54700000Y-89640000D01*
X55460000Y-89242929D02*
X55460000Y-89640000D01*
X54700000Y-98300000D02*
X54700000Y-92300000D01*
X55460000Y-98300000D02*
X54700000Y-98300000D01*
X55460000Y-92300000D02*
X55460000Y-98300000D01*
X56350000Y-89640000D02*
X56350000Y-92300000D01*
X57240000Y-86702929D02*
X57240000Y-87157071D01*
X58000000Y-86702929D02*
X58000000Y-87157071D01*
X57240000Y-89242929D02*
X57240000Y-89640000D01*
X58000000Y-89242929D02*
X58000000Y-89640000D01*
X57240000Y-98300000D02*
X57240000Y-92300000D01*
X58000000Y-98300000D02*
X57240000Y-98300000D01*
X58000000Y-92300000D02*
X58000000Y-98300000D01*
X58890000Y-89640000D02*
X58890000Y-92300000D01*
X59780000Y-86702929D02*
X59780000Y-87157071D01*
X60540000Y-86702929D02*
X60540000Y-87157071D01*
X59780000Y-89242929D02*
X59780000Y-89640000D01*
X60540000Y-89242929D02*
X60540000Y-89640000D01*
X59780000Y-98300000D02*
X59780000Y-92300000D01*
X60540000Y-98300000D02*
X59780000Y-98300000D01*
X60540000Y-92300000D02*
X60540000Y-98300000D01*
X61430000Y-89640000D02*
X61430000Y-92300000D01*
X62320000Y-86702929D02*
X62320000Y-87157071D01*
X63080000Y-86702929D02*
X63080000Y-87157071D01*
X62320000Y-89242929D02*
X62320000Y-89640000D01*
X63080000Y-89242929D02*
X63080000Y-89640000D01*
X62320000Y-98300000D02*
X62320000Y-92300000D01*
X63080000Y-98300000D02*
X62320000Y-98300000D01*
X63080000Y-92300000D02*
X63080000Y-98300000D01*
X63970000Y-89640000D02*
X63970000Y-92300000D01*
X64860000Y-86702929D02*
X64860000Y-87157071D01*
X65620000Y-86702929D02*
X65620000Y-87157071D01*
X64860000Y-89242929D02*
X64860000Y-89640000D01*
X65620000Y-89242929D02*
X65620000Y-89640000D01*
X64860000Y-98300000D02*
X64860000Y-92300000D01*
X65620000Y-98300000D02*
X64860000Y-98300000D01*
X65620000Y-92300000D02*
X65620000Y-98300000D01*
X66510000Y-89640000D02*
X66510000Y-92300000D01*
X67400000Y-86702929D02*
X67400000Y-87157071D01*
X68160000Y-86702929D02*
X68160000Y-87157071D01*
X67400000Y-89242929D02*
X67400000Y-89640000D01*
X68160000Y-89242929D02*
X68160000Y-89640000D01*
X67400000Y-98300000D02*
X67400000Y-92300000D01*
X68160000Y-98300000D02*
X67400000Y-98300000D01*
X68160000Y-92300000D02*
X68160000Y-98300000D01*
X69050000Y-89640000D02*
X69050000Y-92300000D01*
X69940000Y-86770000D02*
X69940000Y-87157071D01*
X70700000Y-86770000D02*
X70700000Y-87157071D01*
X69940000Y-89242929D02*
X69940000Y-89640000D01*
X70700000Y-89242929D02*
X70700000Y-89640000D01*
X70040000Y-92300000D02*
X70040000Y-98300000D01*
X70160000Y-92300000D02*
X70160000Y-98300000D01*
X70280000Y-92300000D02*
X70280000Y-98300000D01*
X70400000Y-92300000D02*
X70400000Y-98300000D01*
X70520000Y-92300000D02*
X70520000Y-98300000D01*
X70640000Y-92300000D02*
X70640000Y-98300000D01*
X69940000Y-98300000D02*
X69940000Y-92300000D01*
X70700000Y-98300000D02*
X69940000Y-98300000D01*
X70700000Y-92300000D02*
X70700000Y-98300000D01*
X71650000Y-92300000D02*
X71650000Y-89640000D01*
X51210000Y-92300000D02*
X71650000Y-92300000D01*
X51210000Y-89640000D02*
X51210000Y-92300000D01*
X71650000Y-89640000D02*
X51210000Y-89640000D01*
X117310000Y-84390000D02*
X117310000Y-85660000D01*
X116040000Y-84390000D02*
X117310000Y-84390000D01*
X97880000Y-86702929D02*
X97880000Y-87157071D01*
X98640000Y-86702929D02*
X98640000Y-87157071D01*
X97880000Y-89242929D02*
X97880000Y-89640000D01*
X98640000Y-89242929D02*
X98640000Y-89640000D01*
X97880000Y-98300000D02*
X97880000Y-92300000D01*
X98640000Y-98300000D02*
X97880000Y-98300000D01*
X98640000Y-92300000D02*
X98640000Y-98300000D01*
X99530000Y-89640000D02*
X99530000Y-92300000D01*
X100420000Y-86702929D02*
X100420000Y-87157071D01*
X101180000Y-86702929D02*
X101180000Y-87157071D01*
X100420000Y-89242929D02*
X100420000Y-89640000D01*
X101180000Y-89242929D02*
X101180000Y-89640000D01*
X100420000Y-98300000D02*
X100420000Y-92300000D01*
X101180000Y-98300000D02*
X100420000Y-98300000D01*
X101180000Y-92300000D02*
X101180000Y-98300000D01*
X102070000Y-89640000D02*
X102070000Y-92300000D01*
X102960000Y-86702929D02*
X102960000Y-87157071D01*
X103720000Y-86702929D02*
X103720000Y-87157071D01*
X102960000Y-89242929D02*
X102960000Y-89640000D01*
X103720000Y-89242929D02*
X103720000Y-89640000D01*
X102960000Y-98300000D02*
X102960000Y-92300000D01*
X103720000Y-98300000D02*
X102960000Y-98300000D01*
X103720000Y-92300000D02*
X103720000Y-98300000D01*
X104610000Y-89640000D02*
X104610000Y-92300000D01*
X105500000Y-86702929D02*
X105500000Y-87157071D01*
X106260000Y-86702929D02*
X106260000Y-87157071D01*
X105500000Y-89242929D02*
X105500000Y-89640000D01*
X106260000Y-89242929D02*
X106260000Y-89640000D01*
X105500000Y-98300000D02*
X105500000Y-92300000D01*
X106260000Y-98300000D02*
X105500000Y-98300000D01*
X106260000Y-92300000D02*
X106260000Y-98300000D01*
X107150000Y-89640000D02*
X107150000Y-92300000D01*
X108040000Y-86702929D02*
X108040000Y-87157071D01*
X108800000Y-86702929D02*
X108800000Y-87157071D01*
X108040000Y-89242929D02*
X108040000Y-89640000D01*
X108800000Y-89242929D02*
X108800000Y-89640000D01*
X108040000Y-98300000D02*
X108040000Y-92300000D01*
X108800000Y-98300000D02*
X108040000Y-98300000D01*
X108800000Y-92300000D02*
X108800000Y-98300000D01*
X109690000Y-89640000D02*
X109690000Y-92300000D01*
X110580000Y-86702929D02*
X110580000Y-87157071D01*
X111340000Y-86702929D02*
X111340000Y-87157071D01*
X110580000Y-89242929D02*
X110580000Y-89640000D01*
X111340000Y-89242929D02*
X111340000Y-89640000D01*
X110580000Y-98300000D02*
X110580000Y-92300000D01*
X111340000Y-98300000D02*
X110580000Y-98300000D01*
X111340000Y-92300000D02*
X111340000Y-98300000D01*
X112230000Y-89640000D02*
X112230000Y-92300000D01*
X113120000Y-86702929D02*
X113120000Y-87157071D01*
X113880000Y-86702929D02*
X113880000Y-87157071D01*
X113120000Y-89242929D02*
X113120000Y-89640000D01*
X113880000Y-89242929D02*
X113880000Y-89640000D01*
X113120000Y-98300000D02*
X113120000Y-92300000D01*
X113880000Y-98300000D02*
X113120000Y-98300000D01*
X113880000Y-92300000D02*
X113880000Y-98300000D01*
X114770000Y-89640000D02*
X114770000Y-92300000D01*
X115660000Y-86770000D02*
X115660000Y-87157071D01*
X116420000Y-86770000D02*
X116420000Y-87157071D01*
X115660000Y-89242929D02*
X115660000Y-89640000D01*
X116420000Y-89242929D02*
X116420000Y-89640000D01*
X115760000Y-92300000D02*
X115760000Y-98300000D01*
X115880000Y-92300000D02*
X115880000Y-98300000D01*
X116000000Y-92300000D02*
X116000000Y-98300000D01*
X116120000Y-92300000D02*
X116120000Y-98300000D01*
X116240000Y-92300000D02*
X116240000Y-98300000D01*
X116360000Y-92300000D02*
X116360000Y-98300000D01*
X115660000Y-98300000D02*
X115660000Y-92300000D01*
X116420000Y-98300000D02*
X115660000Y-98300000D01*
X116420000Y-92300000D02*
X116420000Y-98300000D01*
X117370000Y-92300000D02*
X117370000Y-89640000D01*
X96930000Y-92300000D02*
X117370000Y-92300000D01*
X96930000Y-89640000D02*
X96930000Y-92300000D01*
X117370000Y-89640000D02*
X96930000Y-89640000D01*
X135293000Y-80922000D02*
X125603000Y-80922000D01*
X135293000Y-72022000D02*
X135293000Y-80922000D01*
X124803000Y-72022000D02*
X135293000Y-72022000D01*
X124803000Y-80122000D02*
X124803000Y-72022000D01*
X125603000Y-80922000D02*
X124803000Y-80122000D01*
X64008000Y-64648000D02*
X63208000Y-63848000D01*
X63208000Y-63848000D02*
X63208000Y-55748000D01*
X63208000Y-55748000D02*
X72428000Y-55748000D01*
X72428000Y-55748000D02*
X72428000Y-64648000D01*
X72428000Y-64648000D02*
X64008000Y-64648000D01*
X53086000Y-64586000D02*
X52286000Y-63786000D01*
X52286000Y-63786000D02*
X52286000Y-55686000D01*
X52286000Y-55686000D02*
X61506000Y-55686000D01*
X61506000Y-55686000D02*
X61506000Y-64586000D01*
X61506000Y-64586000D02*
X53086000Y-64586000D01*
X75184000Y-64648000D02*
X74384000Y-63848000D01*
X74384000Y-63848000D02*
X74384000Y-55748000D01*
X74384000Y-55748000D02*
X83604000Y-55748000D01*
X83604000Y-55748000D02*
X83604000Y-64648000D01*
X83604000Y-64648000D02*
X75184000Y-64648000D01*
D11*
X106278000Y-63966000D02*
X106278000Y-57991000D01*
X113178000Y-62441000D02*
X113178000Y-57991000D01*
X106278000Y-80222000D02*
X106278000Y-74247000D01*
X113178000Y-78697000D02*
X113178000Y-74247000D01*
D10*
X72009000Y-80904000D02*
X71209000Y-80104000D01*
X71209000Y-80104000D02*
X71209000Y-72004000D01*
X71209000Y-72004000D02*
X81699000Y-72004000D01*
X81699000Y-72004000D02*
X81699000Y-80904000D01*
X81699000Y-80904000D02*
X72009000Y-80904000D01*
X64935000Y-82850000D02*
X52705000Y-82850000D01*
X64935000Y-69550000D02*
X64935000Y-82850000D01*
X51905000Y-69550000D02*
X64935000Y-69550000D01*
X51905000Y-82050000D02*
X51905000Y-69550000D01*
X52705000Y-82850000D02*
X51905000Y-82050000D01*
X124371000Y-64666000D02*
X114681000Y-64666000D01*
X124371000Y-55766000D02*
X124371000Y-64666000D01*
X113881000Y-55766000D02*
X124371000Y-55766000D01*
X113881000Y-63866000D02*
X113881000Y-55766000D01*
X114681000Y-64666000D02*
X113881000Y-63866000D01*
X95085000Y-55766000D02*
X104775000Y-55766000D01*
X95085000Y-64666000D02*
X95085000Y-55766000D01*
X105575000Y-64666000D02*
X95085000Y-64666000D01*
X105575000Y-56566000D02*
X105575000Y-64666000D01*
X104775000Y-55766000D02*
X105575000Y-56566000D01*
X124371000Y-80922000D02*
X114681000Y-80922000D01*
X124371000Y-72022000D02*
X124371000Y-80922000D01*
X113881000Y-72022000D02*
X124371000Y-72022000D01*
X113881000Y-80122000D02*
X113881000Y-72022000D01*
X114681000Y-80922000D02*
X113881000Y-80122000D01*
X95085000Y-72022000D02*
X104775000Y-72022000D01*
X95085000Y-80922000D02*
X95085000Y-72022000D01*
X105575000Y-80922000D02*
X95085000Y-80922000D01*
X105575000Y-72822000D02*
X105575000Y-80922000D01*
X104775000Y-72022000D02*
X105575000Y-72822000D01*
X135293000Y-64666000D02*
X125603000Y-64666000D01*
X135293000Y-55766000D02*
X135293000Y-64666000D01*
X124803000Y-55766000D02*
X135293000Y-55766000D01*
X124803000Y-63866000D02*
X124803000Y-55766000D01*
X125603000Y-64666000D02*
X124803000Y-63866000D01*
X84163000Y-55766000D02*
X93853000Y-55766000D01*
X84163000Y-64666000D02*
X84163000Y-55766000D01*
X94653000Y-64666000D02*
X84163000Y-64666000D01*
X94653000Y-56566000D02*
X94653000Y-64666000D01*
X93853000Y-55766000D02*
X94653000Y-56566000D01*
X84163000Y-72022000D02*
X93853000Y-72022000D01*
X84163000Y-80922000D02*
X84163000Y-72022000D01*
X94653000Y-80922000D02*
X84163000Y-80922000D01*
X94653000Y-72822000D02*
X94653000Y-80922000D01*
X93853000Y-72022000D02*
X94653000Y-72822000D01*
D11*
X50720666Y-54316380D02*
X50720666Y-55030666D01*
X50673047Y-55173523D01*
X50577809Y-55268761D01*
X50434952Y-55316380D01*
X50339714Y-55316380D01*
X51673047Y-54316380D02*
X51196857Y-54316380D01*
X51149238Y-54792571D01*
X51196857Y-54744952D01*
X51292095Y-54697333D01*
X51530190Y-54697333D01*
X51625428Y-54744952D01*
X51673047Y-54792571D01*
X51720666Y-54887809D01*
X51720666Y-55125904D01*
X51673047Y-55221142D01*
X51625428Y-55268761D01*
X51530190Y-55316380D01*
X51292095Y-55316380D01*
X51196857Y-55268761D01*
X51149238Y-55221142D01*
X120824666Y-90384380D02*
X120824666Y-91098666D01*
X120777047Y-91241523D01*
X120681809Y-91336761D01*
X120538952Y-91384380D01*
X120443714Y-91384380D01*
X121729428Y-90717714D02*
X121729428Y-91384380D01*
X121491333Y-90336761D02*
X121253238Y-91051047D01*
X121872285Y-91051047D01*
X75104666Y-90384380D02*
X75104666Y-91098666D01*
X75057047Y-91241523D01*
X74961809Y-91336761D01*
X74818952Y-91384380D01*
X74723714Y-91384380D01*
X75533238Y-90479619D02*
X75580857Y-90432000D01*
X75676095Y-90384380D01*
X75914190Y-90384380D01*
X76009428Y-90432000D01*
X76057047Y-90479619D01*
X76104666Y-90574857D01*
X76104666Y-90670095D01*
X76057047Y-90812952D01*
X75485619Y-91384380D01*
X76104666Y-91384380D01*
X52244666Y-90384380D02*
X52244666Y-91098666D01*
X52197047Y-91241523D01*
X52101809Y-91336761D01*
X51958952Y-91384380D01*
X51863714Y-91384380D01*
X53244666Y-91384380D02*
X52673238Y-91384380D01*
X52958952Y-91384380D02*
X52958952Y-90384380D01*
X52863714Y-90527238D01*
X52768476Y-90622476D01*
X52673238Y-90670095D01*
X97964666Y-90384380D02*
X97964666Y-91098666D01*
X97917047Y-91241523D01*
X97821809Y-91336761D01*
X97678952Y-91384380D01*
X97583714Y-91384380D01*
X98345619Y-90384380D02*
X98964666Y-90384380D01*
X98631333Y-90765333D01*
X98774190Y-90765333D01*
X98869428Y-90812952D01*
X98917047Y-90860571D01*
X98964666Y-90955809D01*
X98964666Y-91193904D01*
X98917047Y-91289142D01*
X98869428Y-91336761D01*
X98774190Y-91384380D01*
X98488476Y-91384380D01*
X98393238Y-91336761D01*
X98345619Y-91289142D01*
X127857523Y-76432380D02*
X127857523Y-77241904D01*
X127905142Y-77337142D01*
X127952761Y-77384761D01*
X128048000Y-77432380D01*
X128238476Y-77432380D01*
X128333714Y-77384761D01*
X128381333Y-77337142D01*
X128428952Y-77241904D01*
X128428952Y-76432380D01*
X128857523Y-77146666D02*
X129333714Y-77146666D01*
X128762285Y-77432380D02*
X129095619Y-76432380D01*
X129428952Y-77432380D01*
X129762285Y-77432380D02*
X129762285Y-76432380D01*
X130000380Y-76432380D01*
X130143238Y-76480000D01*
X130238476Y-76575238D01*
X130286095Y-76670476D01*
X130333714Y-76860952D01*
X130333714Y-77003809D01*
X130286095Y-77194285D01*
X130238476Y-77289523D01*
X130143238Y-77384761D01*
X130000380Y-77432380D01*
X129762285Y-77432380D01*
X130762285Y-77432380D02*
X130762285Y-76432380D01*
X131000380Y-76432380D01*
X131143238Y-76480000D01*
X131238476Y-76575238D01*
X131286095Y-76670476D01*
X131333714Y-76860952D01*
X131333714Y-77003809D01*
X131286095Y-77194285D01*
X131238476Y-77289523D01*
X131143238Y-77384761D01*
X131000380Y-77432380D01*
X130762285Y-77432380D01*
X132286095Y-77432380D02*
X131714666Y-77432380D01*
X132000380Y-77432380D02*
X132000380Y-76432380D01*
X131905142Y-76575238D01*
X131809904Y-76670476D01*
X131714666Y-76718095D01*
X127405142Y-75162380D02*
X128071809Y-75162380D01*
X127643238Y-76162380D01*
X128881333Y-75495714D02*
X128881333Y-76162380D01*
X128643238Y-75114761D02*
X128405142Y-75829047D01*
X129024190Y-75829047D01*
X129309904Y-76162380D02*
X129833714Y-75495714D01*
X129309904Y-75495714D02*
X129833714Y-76162380D01*
X130167047Y-75257619D02*
X130214666Y-75210000D01*
X130309904Y-75162380D01*
X130548000Y-75162380D01*
X130643238Y-75210000D01*
X130690857Y-75257619D01*
X130738476Y-75352857D01*
X130738476Y-75448095D01*
X130690857Y-75590952D01*
X130119428Y-76162380D01*
X130738476Y-76162380D01*
X131309904Y-75590952D02*
X131214666Y-75543333D01*
X131167047Y-75495714D01*
X131119428Y-75400476D01*
X131119428Y-75352857D01*
X131167047Y-75257619D01*
X131214666Y-75210000D01*
X131309904Y-75162380D01*
X131500380Y-75162380D01*
X131595619Y-75210000D01*
X131643238Y-75257619D01*
X131690857Y-75352857D01*
X131690857Y-75400476D01*
X131643238Y-75495714D01*
X131595619Y-75543333D01*
X131500380Y-75590952D01*
X131309904Y-75590952D01*
X131214666Y-75638571D01*
X131167047Y-75686190D01*
X131119428Y-75781428D01*
X131119428Y-75971904D01*
X131167047Y-76067142D01*
X131214666Y-76114761D01*
X131309904Y-76162380D01*
X131500380Y-76162380D01*
X131595619Y-76114761D01*
X131643238Y-76067142D01*
X131690857Y-75971904D01*
X131690857Y-75781428D01*
X131643238Y-75686190D01*
X131595619Y-75638571D01*
X131500380Y-75590952D01*
X132024190Y-75162380D02*
X132643238Y-75162380D01*
X132309904Y-75543333D01*
X132452761Y-75543333D01*
X132548000Y-75590952D01*
X132595619Y-75638571D01*
X132643238Y-75733809D01*
X132643238Y-75971904D01*
X132595619Y-76067142D01*
X132548000Y-76114761D01*
X132452761Y-76162380D01*
X132167047Y-76162380D01*
X132071809Y-76114761D01*
X132024190Y-76067142D01*
X65079904Y-60158380D02*
X65079904Y-60967904D01*
X65127523Y-61063142D01*
X65175142Y-61110761D01*
X65270380Y-61158380D01*
X65460857Y-61158380D01*
X65556095Y-61110761D01*
X65603714Y-61063142D01*
X65651333Y-60967904D01*
X65651333Y-60158380D01*
X66794190Y-61253619D02*
X66698952Y-61206000D01*
X66603714Y-61110761D01*
X66460857Y-60967904D01*
X66365619Y-60920285D01*
X66270380Y-60920285D01*
X66318000Y-61158380D02*
X66222761Y-61110761D01*
X66127523Y-61015523D01*
X66079904Y-60825047D01*
X66079904Y-60491714D01*
X66127523Y-60301238D01*
X66222761Y-60206000D01*
X66318000Y-60158380D01*
X66508476Y-60158380D01*
X66603714Y-60206000D01*
X66698952Y-60301238D01*
X66746571Y-60491714D01*
X66746571Y-60825047D01*
X66698952Y-61015523D01*
X66603714Y-61110761D01*
X66508476Y-61158380D01*
X66318000Y-61158380D01*
X67127523Y-60872666D02*
X67603714Y-60872666D01*
X67032285Y-61158380D02*
X67365619Y-60158380D01*
X67698952Y-61158380D01*
X68032285Y-61158380D02*
X68032285Y-60158380D01*
X68603714Y-61158380D01*
X68603714Y-60158380D01*
X69079904Y-61158380D02*
X69079904Y-60158380D01*
X69318000Y-60158380D01*
X69460857Y-60206000D01*
X69556095Y-60301238D01*
X69603714Y-60396476D01*
X69651333Y-60586952D01*
X69651333Y-60729809D01*
X69603714Y-60920285D01*
X69556095Y-61015523D01*
X69460857Y-61110761D01*
X69318000Y-61158380D01*
X69079904Y-61158380D01*
X70603714Y-61158380D02*
X70032285Y-61158380D01*
X70318000Y-61158380D02*
X70318000Y-60158380D01*
X70222761Y-60301238D01*
X70127523Y-60396476D01*
X70032285Y-60444095D01*
X65651333Y-58888380D02*
X66318000Y-58888380D01*
X65889428Y-59888380D01*
X67127523Y-59221714D02*
X67127523Y-59888380D01*
X66889428Y-58840761D02*
X66651333Y-59555047D01*
X67270380Y-59555047D01*
X67556095Y-59888380D02*
X68079904Y-59221714D01*
X67556095Y-59221714D02*
X68079904Y-59888380D01*
X68413238Y-58983619D02*
X68460857Y-58936000D01*
X68556095Y-58888380D01*
X68794190Y-58888380D01*
X68889428Y-58936000D01*
X68937047Y-58983619D01*
X68984666Y-59078857D01*
X68984666Y-59174095D01*
X68937047Y-59316952D01*
X68365619Y-59888380D01*
X68984666Y-59888380D01*
X69937047Y-59888380D02*
X69365619Y-59888380D01*
X69651333Y-59888380D02*
X69651333Y-58888380D01*
X69556095Y-59031238D01*
X69460857Y-59126476D01*
X69365619Y-59174095D01*
X54157904Y-60096380D02*
X54157904Y-60905904D01*
X54205523Y-61001142D01*
X54253142Y-61048761D01*
X54348380Y-61096380D01*
X54538857Y-61096380D01*
X54634095Y-61048761D01*
X54681714Y-61001142D01*
X54729333Y-60905904D01*
X54729333Y-60096380D01*
X55205523Y-61096380D02*
X55205523Y-60096380D01*
X55776952Y-61096380D01*
X55776952Y-60096380D01*
X56205523Y-60810666D02*
X56681714Y-60810666D01*
X56110285Y-61096380D02*
X56443619Y-60096380D01*
X56776952Y-61096380D01*
X57110285Y-61096380D02*
X57110285Y-60096380D01*
X57681714Y-61096380D01*
X57681714Y-60096380D01*
X58157904Y-61096380D02*
X58157904Y-60096380D01*
X58396000Y-60096380D01*
X58538857Y-60144000D01*
X58634095Y-60239238D01*
X58681714Y-60334476D01*
X58729333Y-60524952D01*
X58729333Y-60667809D01*
X58681714Y-60858285D01*
X58634095Y-60953523D01*
X58538857Y-61048761D01*
X58396000Y-61096380D01*
X58157904Y-61096380D01*
X59681714Y-61096380D02*
X59110285Y-61096380D01*
X59396000Y-61096380D02*
X59396000Y-60096380D01*
X59300761Y-60239238D01*
X59205523Y-60334476D01*
X59110285Y-60382095D01*
X54729333Y-58826380D02*
X55396000Y-58826380D01*
X54967428Y-59826380D01*
X56205523Y-59159714D02*
X56205523Y-59826380D01*
X55967428Y-58778761D02*
X55729333Y-59493047D01*
X56348380Y-59493047D01*
X56634095Y-59826380D02*
X57157904Y-59159714D01*
X56634095Y-59159714D02*
X57157904Y-59826380D01*
X57729333Y-58826380D02*
X57824571Y-58826380D01*
X57919809Y-58874000D01*
X57967428Y-58921619D01*
X58015047Y-59016857D01*
X58062666Y-59207333D01*
X58062666Y-59445428D01*
X58015047Y-59635904D01*
X57967428Y-59731142D01*
X57919809Y-59778761D01*
X57824571Y-59826380D01*
X57729333Y-59826380D01*
X57634095Y-59778761D01*
X57586476Y-59731142D01*
X57538857Y-59635904D01*
X57491238Y-59445428D01*
X57491238Y-59207333D01*
X57538857Y-59016857D01*
X57586476Y-58921619D01*
X57634095Y-58874000D01*
X57729333Y-58826380D01*
X58681714Y-58826380D02*
X58776952Y-58826380D01*
X58872190Y-58874000D01*
X58919809Y-58921619D01*
X58967428Y-59016857D01*
X59015047Y-59207333D01*
X59015047Y-59445428D01*
X58967428Y-59635904D01*
X58919809Y-59731142D01*
X58872190Y-59778761D01*
X58776952Y-59826380D01*
X58681714Y-59826380D01*
X58586476Y-59778761D01*
X58538857Y-59731142D01*
X58491238Y-59635904D01*
X58443619Y-59445428D01*
X58443619Y-59207333D01*
X58491238Y-59016857D01*
X58538857Y-58921619D01*
X58586476Y-58874000D01*
X58681714Y-58826380D01*
X76735095Y-59038380D02*
X76735095Y-59847904D01*
X76782714Y-59943142D01*
X76830333Y-59990761D01*
X76925571Y-60038380D01*
X77116047Y-60038380D01*
X77211285Y-59990761D01*
X77258904Y-59943142D01*
X77306523Y-59847904D01*
X77306523Y-59038380D01*
X77687476Y-59038380D02*
X78354142Y-60038380D01*
X78354142Y-59038380D02*
X77687476Y-60038380D01*
X78925571Y-59038380D02*
X79116047Y-59038380D01*
X79211285Y-59086000D01*
X79306523Y-59181238D01*
X79354142Y-59371714D01*
X79354142Y-59705047D01*
X79306523Y-59895523D01*
X79211285Y-59990761D01*
X79116047Y-60038380D01*
X78925571Y-60038380D01*
X78830333Y-59990761D01*
X78735095Y-59895523D01*
X78687476Y-59705047D01*
X78687476Y-59371714D01*
X78735095Y-59181238D01*
X78830333Y-59086000D01*
X78925571Y-59038380D01*
X80354142Y-60038380D02*
X80020809Y-59562190D01*
X79782714Y-60038380D02*
X79782714Y-59038380D01*
X80163666Y-59038380D01*
X80258904Y-59086000D01*
X80306523Y-59133619D01*
X80354142Y-59228857D01*
X80354142Y-59371714D01*
X80306523Y-59466952D01*
X80258904Y-59514571D01*
X80163666Y-59562190D01*
X79782714Y-59562190D01*
X81306523Y-60038380D02*
X80735095Y-60038380D01*
X81020809Y-60038380D02*
X81020809Y-59038380D01*
X80925571Y-59181238D01*
X80830333Y-59276476D01*
X80735095Y-59324095D01*
X76830333Y-60435380D02*
X77497000Y-60435380D01*
X77068428Y-61435380D01*
X78306523Y-60768714D02*
X78306523Y-61435380D01*
X78068428Y-60387761D02*
X77830333Y-61102047D01*
X78449380Y-61102047D01*
X78735095Y-61435380D02*
X79258904Y-60768714D01*
X78735095Y-60768714D02*
X79258904Y-61435380D01*
X79782714Y-60863952D02*
X79687476Y-60816333D01*
X79639857Y-60768714D01*
X79592238Y-60673476D01*
X79592238Y-60625857D01*
X79639857Y-60530619D01*
X79687476Y-60483000D01*
X79782714Y-60435380D01*
X79973190Y-60435380D01*
X80068428Y-60483000D01*
X80116047Y-60530619D01*
X80163666Y-60625857D01*
X80163666Y-60673476D01*
X80116047Y-60768714D01*
X80068428Y-60816333D01*
X79973190Y-60863952D01*
X79782714Y-60863952D01*
X79687476Y-60911571D01*
X79639857Y-60959190D01*
X79592238Y-61054428D01*
X79592238Y-61244904D01*
X79639857Y-61340142D01*
X79687476Y-61387761D01*
X79782714Y-61435380D01*
X79973190Y-61435380D01*
X80068428Y-61387761D01*
X80116047Y-61340142D01*
X80163666Y-61244904D01*
X80163666Y-61054428D01*
X80116047Y-60959190D01*
X80068428Y-60911571D01*
X79973190Y-60863952D01*
X81020809Y-60435380D02*
X80830333Y-60435380D01*
X80735095Y-60483000D01*
X80687476Y-60530619D01*
X80592238Y-60673476D01*
X80544619Y-60863952D01*
X80544619Y-61244904D01*
X80592238Y-61340142D01*
X80639857Y-61387761D01*
X80735095Y-61435380D01*
X80925571Y-61435380D01*
X81020809Y-61387761D01*
X81068428Y-61340142D01*
X81116047Y-61244904D01*
X81116047Y-61006809D01*
X81068428Y-60911571D01*
X81020809Y-60863952D01*
X80925571Y-60816333D01*
X80735095Y-60816333D01*
X80639857Y-60863952D01*
X80592238Y-60911571D01*
X80544619Y-61006809D01*
X107966095Y-60938380D02*
X107966095Y-61747904D01*
X108013714Y-61843142D01*
X108061333Y-61890761D01*
X108156571Y-61938380D01*
X108347047Y-61938380D01*
X108442285Y-61890761D01*
X108489904Y-61843142D01*
X108537523Y-61747904D01*
X108537523Y-60938380D01*
X109013714Y-61938380D02*
X109013714Y-60938380D01*
X109394666Y-60938380D01*
X109489904Y-60986000D01*
X109537523Y-61033619D01*
X109585142Y-61128857D01*
X109585142Y-61271714D01*
X109537523Y-61366952D01*
X109489904Y-61414571D01*
X109394666Y-61462190D01*
X109013714Y-61462190D01*
X110585142Y-61938380D02*
X110251809Y-61462190D01*
X110013714Y-61938380D02*
X110013714Y-60938380D01*
X110394666Y-60938380D01*
X110489904Y-60986000D01*
X110537523Y-61033619D01*
X110585142Y-61128857D01*
X110585142Y-61271714D01*
X110537523Y-61366952D01*
X110489904Y-61414571D01*
X110394666Y-61462190D01*
X110013714Y-61462190D01*
X111537523Y-61938380D02*
X110966095Y-61938380D01*
X111251809Y-61938380D02*
X111251809Y-60938380D01*
X111156571Y-61081238D01*
X111061333Y-61176476D01*
X110966095Y-61224095D01*
X107085142Y-58525380D02*
X107751809Y-58525380D01*
X107323238Y-59525380D01*
X108561333Y-58858714D02*
X108561333Y-59525380D01*
X108323238Y-58477761D02*
X108085142Y-59192047D01*
X108704190Y-59192047D01*
X108989904Y-59525380D02*
X109513714Y-58858714D01*
X108989904Y-58858714D02*
X109513714Y-59525380D01*
X109847047Y-58620619D02*
X109894666Y-58573000D01*
X109989904Y-58525380D01*
X110228000Y-58525380D01*
X110323238Y-58573000D01*
X110370857Y-58620619D01*
X110418476Y-58715857D01*
X110418476Y-58811095D01*
X110370857Y-58953952D01*
X109799428Y-59525380D01*
X110418476Y-59525380D01*
X110751809Y-58525380D02*
X111418476Y-58525380D01*
X110989904Y-59525380D01*
X111704190Y-58525380D02*
X112323238Y-58525380D01*
X111989904Y-58906333D01*
X112132761Y-58906333D01*
X112228000Y-58953952D01*
X112275619Y-59001571D01*
X112323238Y-59096809D01*
X112323238Y-59334904D01*
X112275619Y-59430142D01*
X112228000Y-59477761D01*
X112132761Y-59525380D01*
X111847047Y-59525380D01*
X111751809Y-59477761D01*
X111704190Y-59430142D01*
X107966095Y-77067380D02*
X107966095Y-77876904D01*
X108013714Y-77972142D01*
X108061333Y-78019761D01*
X108156571Y-78067380D01*
X108347047Y-78067380D01*
X108442285Y-78019761D01*
X108489904Y-77972142D01*
X108537523Y-77876904D01*
X108537523Y-77067380D01*
X109013714Y-78067380D02*
X109013714Y-77067380D01*
X109394666Y-77067380D01*
X109489904Y-77115000D01*
X109537523Y-77162619D01*
X109585142Y-77257857D01*
X109585142Y-77400714D01*
X109537523Y-77495952D01*
X109489904Y-77543571D01*
X109394666Y-77591190D01*
X109013714Y-77591190D01*
X110585142Y-78067380D02*
X110251809Y-77591190D01*
X110013714Y-78067380D02*
X110013714Y-77067380D01*
X110394666Y-77067380D01*
X110489904Y-77115000D01*
X110537523Y-77162619D01*
X110585142Y-77257857D01*
X110585142Y-77400714D01*
X110537523Y-77495952D01*
X110489904Y-77543571D01*
X110394666Y-77591190D01*
X110013714Y-77591190D01*
X111204190Y-77067380D02*
X111299428Y-77067380D01*
X111394666Y-77115000D01*
X111442285Y-77162619D01*
X111489904Y-77257857D01*
X111537523Y-77448333D01*
X111537523Y-77686428D01*
X111489904Y-77876904D01*
X111442285Y-77972142D01*
X111394666Y-78019761D01*
X111299428Y-78067380D01*
X111204190Y-78067380D01*
X111108952Y-78019761D01*
X111061333Y-77972142D01*
X111013714Y-77876904D01*
X110966095Y-77686428D01*
X110966095Y-77448333D01*
X111013714Y-77257857D01*
X111061333Y-77162619D01*
X111108952Y-77115000D01*
X111204190Y-77067380D01*
X107085142Y-74654380D02*
X107751809Y-74654380D01*
X107323238Y-75654380D01*
X108561333Y-74987714D02*
X108561333Y-75654380D01*
X108323238Y-74606761D02*
X108085142Y-75321047D01*
X108704190Y-75321047D01*
X108989904Y-75654380D02*
X109513714Y-74987714D01*
X108989904Y-74987714D02*
X109513714Y-75654380D01*
X109847047Y-74749619D02*
X109894666Y-74702000D01*
X109989904Y-74654380D01*
X110228000Y-74654380D01*
X110323238Y-74702000D01*
X110370857Y-74749619D01*
X110418476Y-74844857D01*
X110418476Y-74940095D01*
X110370857Y-75082952D01*
X109799428Y-75654380D01*
X110418476Y-75654380D01*
X110751809Y-74654380D02*
X111418476Y-74654380D01*
X110989904Y-75654380D01*
X111704190Y-74654380D02*
X112323238Y-74654380D01*
X111989904Y-75035333D01*
X112132761Y-75035333D01*
X112228000Y-75082952D01*
X112275619Y-75130571D01*
X112323238Y-75225809D01*
X112323238Y-75463904D01*
X112275619Y-75559142D01*
X112228000Y-75606761D01*
X112132761Y-75654380D01*
X111847047Y-75654380D01*
X111751809Y-75606761D01*
X111704190Y-75559142D01*
X72007047Y-75265380D02*
X72007047Y-76074904D01*
X72054666Y-76170142D01*
X72102285Y-76217761D01*
X72197523Y-76265380D01*
X72388000Y-76265380D01*
X72483238Y-76217761D01*
X72530857Y-76170142D01*
X72578476Y-76074904D01*
X72578476Y-75265380D01*
X73626095Y-76170142D02*
X73578476Y-76217761D01*
X73435619Y-76265380D01*
X73340380Y-76265380D01*
X73197523Y-76217761D01*
X73102285Y-76122523D01*
X73054666Y-76027285D01*
X73007047Y-75836809D01*
X73007047Y-75693952D01*
X73054666Y-75503476D01*
X73102285Y-75408238D01*
X73197523Y-75313000D01*
X73340380Y-75265380D01*
X73435619Y-75265380D01*
X73578476Y-75313000D01*
X73626095Y-75360619D01*
X74245142Y-75265380D02*
X74435619Y-75265380D01*
X74530857Y-75313000D01*
X74626095Y-75408238D01*
X74673714Y-75598714D01*
X74673714Y-75932047D01*
X74626095Y-76122523D01*
X74530857Y-76217761D01*
X74435619Y-76265380D01*
X74245142Y-76265380D01*
X74149904Y-76217761D01*
X74054666Y-76122523D01*
X74007047Y-75932047D01*
X74007047Y-75598714D01*
X74054666Y-75408238D01*
X74149904Y-75313000D01*
X74245142Y-75265380D01*
X75102285Y-76265380D02*
X75102285Y-75265380D01*
X75673714Y-76265380D01*
X75673714Y-75265380D01*
X76149904Y-76265380D02*
X76149904Y-75265380D01*
X76388000Y-75265380D01*
X76530857Y-75313000D01*
X76626095Y-75408238D01*
X76673714Y-75503476D01*
X76721333Y-75693952D01*
X76721333Y-75836809D01*
X76673714Y-76027285D01*
X76626095Y-76122523D01*
X76530857Y-76217761D01*
X76388000Y-76265380D01*
X76149904Y-76265380D01*
X77149904Y-76265380D02*
X77149904Y-75265380D01*
X77483238Y-75979666D01*
X77816571Y-75265380D01*
X77816571Y-76265380D01*
X78292761Y-75265380D02*
X78292761Y-76074904D01*
X78340380Y-76170142D01*
X78388000Y-76217761D01*
X78483238Y-76265380D01*
X78673714Y-76265380D01*
X78768952Y-76217761D01*
X78816571Y-76170142D01*
X78864190Y-76074904D01*
X78864190Y-75265380D01*
X79245142Y-75265380D02*
X79911809Y-76265380D01*
X79911809Y-75265380D02*
X79245142Y-76265380D01*
X80816571Y-76265380D02*
X80245142Y-76265380D01*
X80530857Y-76265380D02*
X80530857Y-75265380D01*
X80435619Y-75408238D01*
X80340380Y-75503476D01*
X80245142Y-75551095D01*
X74215904Y-76535380D02*
X74882571Y-76535380D01*
X74454000Y-77535380D01*
X75692095Y-76868714D02*
X75692095Y-77535380D01*
X75454000Y-76487761D02*
X75215904Y-77202047D01*
X75834952Y-77202047D01*
X76739714Y-77535380D02*
X76168285Y-77535380D01*
X76454000Y-77535380D02*
X76454000Y-76535380D01*
X76358761Y-76678238D01*
X76263523Y-76773476D01*
X76168285Y-76821095D01*
X77644476Y-76535380D02*
X77168285Y-76535380D01*
X77120666Y-77011571D01*
X77168285Y-76963952D01*
X77263523Y-76916333D01*
X77501619Y-76916333D01*
X77596857Y-76963952D01*
X77644476Y-77011571D01*
X77692095Y-77106809D01*
X77692095Y-77344904D01*
X77644476Y-77440142D01*
X77596857Y-77487761D01*
X77501619Y-77535380D01*
X77263523Y-77535380D01*
X77168285Y-77487761D01*
X77120666Y-77440142D01*
X78644476Y-77535380D02*
X78073047Y-77535380D01*
X78358761Y-77535380D02*
X78358761Y-76535380D01*
X78263523Y-76678238D01*
X78168285Y-76773476D01*
X78073047Y-76821095D01*
X56030666Y-73541380D02*
X56030666Y-74350904D01*
X56078285Y-74446142D01*
X56125904Y-74493761D01*
X56221142Y-74541380D01*
X56411619Y-74541380D01*
X56506857Y-74493761D01*
X56554476Y-74446142D01*
X56602095Y-74350904D01*
X56602095Y-73541380D01*
X57649714Y-74446142D02*
X57602095Y-74493761D01*
X57459238Y-74541380D01*
X57364000Y-74541380D01*
X57221142Y-74493761D01*
X57125904Y-74398523D01*
X57078285Y-74303285D01*
X57030666Y-74112809D01*
X57030666Y-73969952D01*
X57078285Y-73779476D01*
X57125904Y-73684238D01*
X57221142Y-73589000D01*
X57364000Y-73541380D01*
X57459238Y-73541380D01*
X57602095Y-73589000D01*
X57649714Y-73636619D01*
X58078285Y-74541380D02*
X58078285Y-73541380D01*
X58411619Y-74255666D01*
X58744952Y-73541380D01*
X58744952Y-74541380D01*
X59221142Y-74541380D02*
X59221142Y-73541380D01*
X59602095Y-73541380D01*
X59697333Y-73589000D01*
X59744952Y-73636619D01*
X59792571Y-73731857D01*
X59792571Y-73874714D01*
X59744952Y-73969952D01*
X59697333Y-74017571D01*
X59602095Y-74065190D01*
X59221142Y-74065190D01*
X60744952Y-74541380D02*
X60173523Y-74541380D01*
X60459238Y-74541380D02*
X60459238Y-73541380D01*
X60364000Y-73684238D01*
X60268761Y-73779476D01*
X60173523Y-73827095D01*
X55300952Y-77732380D02*
X55967619Y-77732380D01*
X55539047Y-78732380D01*
X56777142Y-78065714D02*
X56777142Y-78732380D01*
X56539047Y-77684761D02*
X56300952Y-78399047D01*
X56920000Y-78399047D01*
X57777142Y-78732380D02*
X57300952Y-78732380D01*
X57300952Y-77732380D01*
X58062857Y-78684761D02*
X58205714Y-78732380D01*
X58443809Y-78732380D01*
X58539047Y-78684761D01*
X58586666Y-78637142D01*
X58634285Y-78541904D01*
X58634285Y-78446666D01*
X58586666Y-78351428D01*
X58539047Y-78303809D01*
X58443809Y-78256190D01*
X58253333Y-78208571D01*
X58158095Y-78160952D01*
X58110476Y-78113333D01*
X58062857Y-78018095D01*
X58062857Y-77922857D01*
X58110476Y-77827619D01*
X58158095Y-77780000D01*
X58253333Y-77732380D01*
X58491428Y-77732380D01*
X58634285Y-77780000D01*
X59491428Y-77732380D02*
X59300952Y-77732380D01*
X59205714Y-77780000D01*
X59158095Y-77827619D01*
X59062857Y-77970476D01*
X59015238Y-78160952D01*
X59015238Y-78541904D01*
X59062857Y-78637142D01*
X59110476Y-78684761D01*
X59205714Y-78732380D01*
X59396190Y-78732380D01*
X59491428Y-78684761D01*
X59539047Y-78637142D01*
X59586666Y-78541904D01*
X59586666Y-78303809D01*
X59539047Y-78208571D01*
X59491428Y-78160952D01*
X59396190Y-78113333D01*
X59205714Y-78113333D01*
X59110476Y-78160952D01*
X59062857Y-78208571D01*
X59015238Y-78303809D01*
X60158095Y-78160952D02*
X60062857Y-78113333D01*
X60015238Y-78065714D01*
X59967619Y-77970476D01*
X59967619Y-77922857D01*
X60015238Y-77827619D01*
X60062857Y-77780000D01*
X60158095Y-77732380D01*
X60348571Y-77732380D01*
X60443809Y-77780000D01*
X60491428Y-77827619D01*
X60539047Y-77922857D01*
X60539047Y-77970476D01*
X60491428Y-78065714D01*
X60443809Y-78113333D01*
X60348571Y-78160952D01*
X60158095Y-78160952D01*
X60062857Y-78208571D01*
X60015238Y-78256190D01*
X59967619Y-78351428D01*
X59967619Y-78541904D01*
X60015238Y-78637142D01*
X60062857Y-78684761D01*
X60158095Y-78732380D01*
X60348571Y-78732380D01*
X60443809Y-78684761D01*
X60491428Y-78637142D01*
X60539047Y-78541904D01*
X60539047Y-78351428D01*
X60491428Y-78256190D01*
X60443809Y-78208571D01*
X60348571Y-78160952D01*
X61396190Y-78065714D02*
X61396190Y-78732380D01*
X61158095Y-77684761D02*
X60920000Y-78399047D01*
X61539047Y-78399047D01*
X116792666Y-60176380D02*
X116792666Y-60985904D01*
X116840285Y-61081142D01*
X116887904Y-61128761D01*
X116983142Y-61176380D01*
X117173619Y-61176380D01*
X117268857Y-61128761D01*
X117316476Y-61081142D01*
X117364095Y-60985904D01*
X117364095Y-60176380D01*
X117840285Y-61176380D02*
X117840285Y-60176380D01*
X118173619Y-60890666D01*
X118506952Y-60176380D01*
X118506952Y-61176380D01*
X118983142Y-60176380D02*
X118983142Y-60985904D01*
X119030761Y-61081142D01*
X119078380Y-61128761D01*
X119173619Y-61176380D01*
X119364095Y-61176380D01*
X119459333Y-61128761D01*
X119506952Y-61081142D01*
X119554571Y-60985904D01*
X119554571Y-60176380D01*
X119935523Y-60176380D02*
X120602190Y-61176380D01*
X120602190Y-60176380D02*
X119935523Y-61176380D01*
X120887904Y-60176380D02*
X121506952Y-60176380D01*
X121173619Y-60557333D01*
X121316476Y-60557333D01*
X121411714Y-60604952D01*
X121459333Y-60652571D01*
X121506952Y-60747809D01*
X121506952Y-60985904D01*
X121459333Y-61081142D01*
X121411714Y-61128761D01*
X121316476Y-61176380D01*
X121030761Y-61176380D01*
X120935523Y-61128761D01*
X120887904Y-61081142D01*
X116483142Y-58906380D02*
X117149809Y-58906380D01*
X116721238Y-59906380D01*
X117959333Y-59239714D02*
X117959333Y-59906380D01*
X117721238Y-58858761D02*
X117483142Y-59573047D01*
X118102190Y-59573047D01*
X118387904Y-59906380D02*
X118911714Y-59239714D01*
X118387904Y-59239714D02*
X118911714Y-59906380D01*
X119816476Y-59906380D02*
X119245047Y-59906380D01*
X119530761Y-59906380D02*
X119530761Y-58906380D01*
X119435523Y-59049238D01*
X119340285Y-59144476D01*
X119245047Y-59192095D01*
X120721238Y-58906380D02*
X120245047Y-58906380D01*
X120197428Y-59382571D01*
X120245047Y-59334952D01*
X120340285Y-59287333D01*
X120578380Y-59287333D01*
X120673619Y-59334952D01*
X120721238Y-59382571D01*
X120768857Y-59477809D01*
X120768857Y-59715904D01*
X120721238Y-59811142D01*
X120673619Y-59858761D01*
X120578380Y-59906380D01*
X120340285Y-59906380D01*
X120245047Y-59858761D01*
X120197428Y-59811142D01*
X121102190Y-58906380D02*
X121768857Y-58906380D01*
X121340285Y-59906380D01*
X97996666Y-59033380D02*
X97996666Y-59842904D01*
X98044285Y-59938142D01*
X98091904Y-59985761D01*
X98187142Y-60033380D01*
X98377619Y-60033380D01*
X98472857Y-59985761D01*
X98520476Y-59938142D01*
X98568095Y-59842904D01*
X98568095Y-59033380D01*
X99044285Y-60033380D02*
X99044285Y-59033380D01*
X99377619Y-59747666D01*
X99710952Y-59033380D01*
X99710952Y-60033380D01*
X100187142Y-59033380D02*
X100187142Y-59842904D01*
X100234761Y-59938142D01*
X100282380Y-59985761D01*
X100377619Y-60033380D01*
X100568095Y-60033380D01*
X100663333Y-59985761D01*
X100710952Y-59938142D01*
X100758571Y-59842904D01*
X100758571Y-59033380D01*
X101139523Y-59033380D02*
X101806190Y-60033380D01*
X101806190Y-59033380D02*
X101139523Y-60033380D01*
X102139523Y-59128619D02*
X102187142Y-59081000D01*
X102282380Y-59033380D01*
X102520476Y-59033380D01*
X102615714Y-59081000D01*
X102663333Y-59128619D01*
X102710952Y-59223857D01*
X102710952Y-59319095D01*
X102663333Y-59461952D01*
X102091904Y-60033380D01*
X102710952Y-60033380D01*
X97687142Y-60303380D02*
X98353809Y-60303380D01*
X97925238Y-61303380D01*
X99163333Y-60636714D02*
X99163333Y-61303380D01*
X98925238Y-60255761D02*
X98687142Y-60970047D01*
X99306190Y-60970047D01*
X99591904Y-61303380D02*
X100115714Y-60636714D01*
X99591904Y-60636714D02*
X100115714Y-61303380D01*
X101020476Y-61303380D02*
X100449047Y-61303380D01*
X100734761Y-61303380D02*
X100734761Y-60303380D01*
X100639523Y-60446238D01*
X100544285Y-60541476D01*
X100449047Y-60589095D01*
X101925238Y-60303380D02*
X101449047Y-60303380D01*
X101401428Y-60779571D01*
X101449047Y-60731952D01*
X101544285Y-60684333D01*
X101782380Y-60684333D01*
X101877619Y-60731952D01*
X101925238Y-60779571D01*
X101972857Y-60874809D01*
X101972857Y-61112904D01*
X101925238Y-61208142D01*
X101877619Y-61255761D01*
X101782380Y-61303380D01*
X101544285Y-61303380D01*
X101449047Y-61255761D01*
X101401428Y-61208142D01*
X102306190Y-60303380D02*
X102972857Y-60303380D01*
X102544285Y-61303380D01*
X116665666Y-76559380D02*
X116665666Y-77368904D01*
X116713285Y-77464142D01*
X116760904Y-77511761D01*
X116856142Y-77559380D01*
X117046619Y-77559380D01*
X117141857Y-77511761D01*
X117189476Y-77464142D01*
X117237095Y-77368904D01*
X117237095Y-76559380D01*
X117713285Y-77559380D02*
X117713285Y-76559380D01*
X118046619Y-77273666D01*
X118379952Y-76559380D01*
X118379952Y-77559380D01*
X118856142Y-76559380D02*
X118856142Y-77368904D01*
X118903761Y-77464142D01*
X118951380Y-77511761D01*
X119046619Y-77559380D01*
X119237095Y-77559380D01*
X119332333Y-77511761D01*
X119379952Y-77464142D01*
X119427571Y-77368904D01*
X119427571Y-76559380D01*
X119808523Y-76559380D02*
X120475190Y-77559380D01*
X120475190Y-76559380D02*
X119808523Y-77559380D01*
X121379952Y-77559380D02*
X120808523Y-77559380D01*
X121094238Y-77559380D02*
X121094238Y-76559380D01*
X120999000Y-76702238D01*
X120903761Y-76797476D01*
X120808523Y-76845095D01*
X116483142Y-75289380D02*
X117149809Y-75289380D01*
X116721238Y-76289380D01*
X117959333Y-75622714D02*
X117959333Y-76289380D01*
X117721238Y-75241761D02*
X117483142Y-75956047D01*
X118102190Y-75956047D01*
X118387904Y-76289380D02*
X118911714Y-75622714D01*
X118387904Y-75622714D02*
X118911714Y-76289380D01*
X119816476Y-76289380D02*
X119245047Y-76289380D01*
X119530761Y-76289380D02*
X119530761Y-75289380D01*
X119435523Y-75432238D01*
X119340285Y-75527476D01*
X119245047Y-75575095D01*
X120721238Y-75289380D02*
X120245047Y-75289380D01*
X120197428Y-75765571D01*
X120245047Y-75717952D01*
X120340285Y-75670333D01*
X120578380Y-75670333D01*
X120673619Y-75717952D01*
X120721238Y-75765571D01*
X120768857Y-75860809D01*
X120768857Y-76098904D01*
X120721238Y-76194142D01*
X120673619Y-76241761D01*
X120578380Y-76289380D01*
X120340285Y-76289380D01*
X120245047Y-76241761D01*
X120197428Y-76194142D01*
X121102190Y-75289380D02*
X121768857Y-75289380D01*
X121340285Y-76289380D01*
X97996666Y-75416380D02*
X97996666Y-76225904D01*
X98044285Y-76321142D01*
X98091904Y-76368761D01*
X98187142Y-76416380D01*
X98377619Y-76416380D01*
X98472857Y-76368761D01*
X98520476Y-76321142D01*
X98568095Y-76225904D01*
X98568095Y-75416380D01*
X99044285Y-76416380D02*
X99044285Y-75416380D01*
X99377619Y-76130666D01*
X99710952Y-75416380D01*
X99710952Y-76416380D01*
X100187142Y-75416380D02*
X100187142Y-76225904D01*
X100234761Y-76321142D01*
X100282380Y-76368761D01*
X100377619Y-76416380D01*
X100568095Y-76416380D01*
X100663333Y-76368761D01*
X100710952Y-76321142D01*
X100758571Y-76225904D01*
X100758571Y-75416380D01*
X101139523Y-75416380D02*
X101806190Y-76416380D01*
X101806190Y-75416380D02*
X101139523Y-76416380D01*
X102377619Y-75416380D02*
X102472857Y-75416380D01*
X102568095Y-75464000D01*
X102615714Y-75511619D01*
X102663333Y-75606857D01*
X102710952Y-75797333D01*
X102710952Y-76035428D01*
X102663333Y-76225904D01*
X102615714Y-76321142D01*
X102568095Y-76368761D01*
X102472857Y-76416380D01*
X102377619Y-76416380D01*
X102282380Y-76368761D01*
X102234761Y-76321142D01*
X102187142Y-76225904D01*
X102139523Y-76035428D01*
X102139523Y-75797333D01*
X102187142Y-75606857D01*
X102234761Y-75511619D01*
X102282380Y-75464000D01*
X102377619Y-75416380D01*
X97687142Y-76686380D02*
X98353809Y-76686380D01*
X97925238Y-77686380D01*
X99163333Y-77019714D02*
X99163333Y-77686380D01*
X98925238Y-76638761D02*
X98687142Y-77353047D01*
X99306190Y-77353047D01*
X99591904Y-77686380D02*
X100115714Y-77019714D01*
X99591904Y-77019714D02*
X100115714Y-77686380D01*
X101020476Y-77686380D02*
X100449047Y-77686380D01*
X100734761Y-77686380D02*
X100734761Y-76686380D01*
X100639523Y-76829238D01*
X100544285Y-76924476D01*
X100449047Y-76972095D01*
X101925238Y-76686380D02*
X101449047Y-76686380D01*
X101401428Y-77162571D01*
X101449047Y-77114952D01*
X101544285Y-77067333D01*
X101782380Y-77067333D01*
X101877619Y-77114952D01*
X101925238Y-77162571D01*
X101972857Y-77257809D01*
X101972857Y-77495904D01*
X101925238Y-77591142D01*
X101877619Y-77638761D01*
X101782380Y-77686380D01*
X101544285Y-77686380D01*
X101449047Y-77638761D01*
X101401428Y-77591142D01*
X102306190Y-76686380D02*
X102972857Y-76686380D01*
X102544285Y-77686380D01*
X127857523Y-60303380D02*
X127857523Y-61112904D01*
X127905142Y-61208142D01*
X127952761Y-61255761D01*
X128048000Y-61303380D01*
X128238476Y-61303380D01*
X128333714Y-61255761D01*
X128381333Y-61208142D01*
X128428952Y-61112904D01*
X128428952Y-60303380D01*
X128857523Y-61017666D02*
X129333714Y-61017666D01*
X128762285Y-61303380D02*
X129095619Y-60303380D01*
X129428952Y-61303380D01*
X129762285Y-61303380D02*
X129762285Y-60303380D01*
X130000380Y-60303380D01*
X130143238Y-60351000D01*
X130238476Y-60446238D01*
X130286095Y-60541476D01*
X130333714Y-60731952D01*
X130333714Y-60874809D01*
X130286095Y-61065285D01*
X130238476Y-61160523D01*
X130143238Y-61255761D01*
X130000380Y-61303380D01*
X129762285Y-61303380D01*
X130762285Y-61303380D02*
X130762285Y-60303380D01*
X131000380Y-60303380D01*
X131143238Y-60351000D01*
X131238476Y-60446238D01*
X131286095Y-60541476D01*
X131333714Y-60731952D01*
X131333714Y-60874809D01*
X131286095Y-61065285D01*
X131238476Y-61160523D01*
X131143238Y-61255761D01*
X131000380Y-61303380D01*
X130762285Y-61303380D01*
X131667047Y-60303380D02*
X132286095Y-60303380D01*
X131952761Y-60684333D01*
X132095619Y-60684333D01*
X132190857Y-60731952D01*
X132238476Y-60779571D01*
X132286095Y-60874809D01*
X132286095Y-61112904D01*
X132238476Y-61208142D01*
X132190857Y-61255761D01*
X132095619Y-61303380D01*
X131809904Y-61303380D01*
X131714666Y-61255761D01*
X131667047Y-61208142D01*
X127405142Y-58906380D02*
X128071809Y-58906380D01*
X127643238Y-59906380D01*
X128881333Y-59239714D02*
X128881333Y-59906380D01*
X128643238Y-58858761D02*
X128405142Y-59573047D01*
X129024190Y-59573047D01*
X129309904Y-59906380D02*
X129833714Y-59239714D01*
X129309904Y-59239714D02*
X129833714Y-59906380D01*
X130167047Y-59001619D02*
X130214666Y-58954000D01*
X130309904Y-58906380D01*
X130548000Y-58906380D01*
X130643238Y-58954000D01*
X130690857Y-59001619D01*
X130738476Y-59096857D01*
X130738476Y-59192095D01*
X130690857Y-59334952D01*
X130119428Y-59906380D01*
X130738476Y-59906380D01*
X131309904Y-59334952D02*
X131214666Y-59287333D01*
X131167047Y-59239714D01*
X131119428Y-59144476D01*
X131119428Y-59096857D01*
X131167047Y-59001619D01*
X131214666Y-58954000D01*
X131309904Y-58906380D01*
X131500380Y-58906380D01*
X131595619Y-58954000D01*
X131643238Y-59001619D01*
X131690857Y-59096857D01*
X131690857Y-59144476D01*
X131643238Y-59239714D01*
X131595619Y-59287333D01*
X131500380Y-59334952D01*
X131309904Y-59334952D01*
X131214666Y-59382571D01*
X131167047Y-59430190D01*
X131119428Y-59525428D01*
X131119428Y-59715904D01*
X131167047Y-59811142D01*
X131214666Y-59858761D01*
X131309904Y-59906380D01*
X131500380Y-59906380D01*
X131595619Y-59858761D01*
X131643238Y-59811142D01*
X131690857Y-59715904D01*
X131690857Y-59525428D01*
X131643238Y-59430190D01*
X131595619Y-59382571D01*
X131500380Y-59334952D01*
X132024190Y-58906380D02*
X132643238Y-58906380D01*
X132309904Y-59287333D01*
X132452761Y-59287333D01*
X132548000Y-59334952D01*
X132595619Y-59382571D01*
X132643238Y-59477809D01*
X132643238Y-59715904D01*
X132595619Y-59811142D01*
X132548000Y-59858761D01*
X132452761Y-59906380D01*
X132167047Y-59906380D01*
X132071809Y-59858761D01*
X132024190Y-59811142D01*
X87217523Y-59033380D02*
X87217523Y-59842904D01*
X87265142Y-59938142D01*
X87312761Y-59985761D01*
X87408000Y-60033380D01*
X87598476Y-60033380D01*
X87693714Y-59985761D01*
X87741333Y-59938142D01*
X87788952Y-59842904D01*
X87788952Y-59033380D01*
X88217523Y-59747666D02*
X88693714Y-59747666D01*
X88122285Y-60033380D02*
X88455619Y-59033380D01*
X88788952Y-60033380D01*
X89122285Y-60033380D02*
X89122285Y-59033380D01*
X89360380Y-59033380D01*
X89503238Y-59081000D01*
X89598476Y-59176238D01*
X89646095Y-59271476D01*
X89693714Y-59461952D01*
X89693714Y-59604809D01*
X89646095Y-59795285D01*
X89598476Y-59890523D01*
X89503238Y-59985761D01*
X89360380Y-60033380D01*
X89122285Y-60033380D01*
X90122285Y-60033380D02*
X90122285Y-59033380D01*
X90360380Y-59033380D01*
X90503238Y-59081000D01*
X90598476Y-59176238D01*
X90646095Y-59271476D01*
X90693714Y-59461952D01*
X90693714Y-59604809D01*
X90646095Y-59795285D01*
X90598476Y-59890523D01*
X90503238Y-59985761D01*
X90360380Y-60033380D01*
X90122285Y-60033380D01*
X91074666Y-59128619D02*
X91122285Y-59081000D01*
X91217523Y-59033380D01*
X91455619Y-59033380D01*
X91550857Y-59081000D01*
X91598476Y-59128619D01*
X91646095Y-59223857D01*
X91646095Y-59319095D01*
X91598476Y-59461952D01*
X91027047Y-60033380D01*
X91646095Y-60033380D01*
X86765142Y-60303380D02*
X87431809Y-60303380D01*
X87003238Y-61303380D01*
X88241333Y-60636714D02*
X88241333Y-61303380D01*
X88003238Y-60255761D02*
X87765142Y-60970047D01*
X88384190Y-60970047D01*
X88669904Y-61303380D02*
X89193714Y-60636714D01*
X88669904Y-60636714D02*
X89193714Y-61303380D01*
X89527047Y-60398619D02*
X89574666Y-60351000D01*
X89669904Y-60303380D01*
X89908000Y-60303380D01*
X90003238Y-60351000D01*
X90050857Y-60398619D01*
X90098476Y-60493857D01*
X90098476Y-60589095D01*
X90050857Y-60731952D01*
X89479428Y-61303380D01*
X90098476Y-61303380D01*
X90669904Y-60731952D02*
X90574666Y-60684333D01*
X90527047Y-60636714D01*
X90479428Y-60541476D01*
X90479428Y-60493857D01*
X90527047Y-60398619D01*
X90574666Y-60351000D01*
X90669904Y-60303380D01*
X90860380Y-60303380D01*
X90955619Y-60351000D01*
X91003238Y-60398619D01*
X91050857Y-60493857D01*
X91050857Y-60541476D01*
X91003238Y-60636714D01*
X90955619Y-60684333D01*
X90860380Y-60731952D01*
X90669904Y-60731952D01*
X90574666Y-60779571D01*
X90527047Y-60827190D01*
X90479428Y-60922428D01*
X90479428Y-61112904D01*
X90527047Y-61208142D01*
X90574666Y-61255761D01*
X90669904Y-61303380D01*
X90860380Y-61303380D01*
X90955619Y-61255761D01*
X91003238Y-61208142D01*
X91050857Y-61112904D01*
X91050857Y-60922428D01*
X91003238Y-60827190D01*
X90955619Y-60779571D01*
X90860380Y-60731952D01*
X91384190Y-60303380D02*
X92003238Y-60303380D01*
X91669904Y-60684333D01*
X91812761Y-60684333D01*
X91908000Y-60731952D01*
X91955619Y-60779571D01*
X92003238Y-60874809D01*
X92003238Y-61112904D01*
X91955619Y-61208142D01*
X91908000Y-61255761D01*
X91812761Y-61303380D01*
X91527047Y-61303380D01*
X91431809Y-61255761D01*
X91384190Y-61208142D01*
X87217523Y-75416380D02*
X87217523Y-76225904D01*
X87265142Y-76321142D01*
X87312761Y-76368761D01*
X87408000Y-76416380D01*
X87598476Y-76416380D01*
X87693714Y-76368761D01*
X87741333Y-76321142D01*
X87788952Y-76225904D01*
X87788952Y-75416380D01*
X88217523Y-76130666D02*
X88693714Y-76130666D01*
X88122285Y-76416380D02*
X88455619Y-75416380D01*
X88788952Y-76416380D01*
X89122285Y-76416380D02*
X89122285Y-75416380D01*
X89360380Y-75416380D01*
X89503238Y-75464000D01*
X89598476Y-75559238D01*
X89646095Y-75654476D01*
X89693714Y-75844952D01*
X89693714Y-75987809D01*
X89646095Y-76178285D01*
X89598476Y-76273523D01*
X89503238Y-76368761D01*
X89360380Y-76416380D01*
X89122285Y-76416380D01*
X90122285Y-76416380D02*
X90122285Y-75416380D01*
X90360380Y-75416380D01*
X90503238Y-75464000D01*
X90598476Y-75559238D01*
X90646095Y-75654476D01*
X90693714Y-75844952D01*
X90693714Y-75987809D01*
X90646095Y-76178285D01*
X90598476Y-76273523D01*
X90503238Y-76368761D01*
X90360380Y-76416380D01*
X90122285Y-76416380D01*
X91312761Y-75416380D02*
X91408000Y-75416380D01*
X91503238Y-75464000D01*
X91550857Y-75511619D01*
X91598476Y-75606857D01*
X91646095Y-75797333D01*
X91646095Y-76035428D01*
X91598476Y-76225904D01*
X91550857Y-76321142D01*
X91503238Y-76368761D01*
X91408000Y-76416380D01*
X91312761Y-76416380D01*
X91217523Y-76368761D01*
X91169904Y-76321142D01*
X91122285Y-76225904D01*
X91074666Y-76035428D01*
X91074666Y-75797333D01*
X91122285Y-75606857D01*
X91169904Y-75511619D01*
X91217523Y-75464000D01*
X91312761Y-75416380D01*
X86765142Y-76686380D02*
X87431809Y-76686380D01*
X87003238Y-77686380D01*
X88241333Y-77019714D02*
X88241333Y-77686380D01*
X88003238Y-76638761D02*
X87765142Y-77353047D01*
X88384190Y-77353047D01*
X88669904Y-77686380D02*
X89193714Y-77019714D01*
X88669904Y-77019714D02*
X89193714Y-77686380D01*
X89527047Y-76781619D02*
X89574666Y-76734000D01*
X89669904Y-76686380D01*
X89908000Y-76686380D01*
X90003238Y-76734000D01*
X90050857Y-76781619D01*
X90098476Y-76876857D01*
X90098476Y-76972095D01*
X90050857Y-77114952D01*
X89479428Y-77686380D01*
X90098476Y-77686380D01*
X90669904Y-77114952D02*
X90574666Y-77067333D01*
X90527047Y-77019714D01*
X90479428Y-76924476D01*
X90479428Y-76876857D01*
X90527047Y-76781619D01*
X90574666Y-76734000D01*
X90669904Y-76686380D01*
X90860380Y-76686380D01*
X90955619Y-76734000D01*
X91003238Y-76781619D01*
X91050857Y-76876857D01*
X91050857Y-76924476D01*
X91003238Y-77019714D01*
X90955619Y-77067333D01*
X90860380Y-77114952D01*
X90669904Y-77114952D01*
X90574666Y-77162571D01*
X90527047Y-77210190D01*
X90479428Y-77305428D01*
X90479428Y-77495904D01*
X90527047Y-77591142D01*
X90574666Y-77638761D01*
X90669904Y-77686380D01*
X90860380Y-77686380D01*
X90955619Y-77638761D01*
X91003238Y-77591142D01*
X91050857Y-77495904D01*
X91050857Y-77305428D01*
X91003238Y-77210190D01*
X90955619Y-77162571D01*
X90860380Y-77114952D01*
X91384190Y-76686380D02*
X92003238Y-76686380D01*
X91669904Y-77067333D01*
X91812761Y-77067333D01*
X91908000Y-77114952D01*
X91955619Y-77162571D01*
X92003238Y-77257809D01*
X92003238Y-77495904D01*
X91955619Y-77591142D01*
X91908000Y-77638761D01*
X91812761Y-77686380D01*
X91527047Y-77686380D01*
X91431809Y-77638761D01*
X91384190Y-77591142D01*
M02*
