%TF.GenerationSoftware,KiCad,Pcbnew,6.0.6-3a73a75311~116~ubuntu20.04.1*%
%TF.CreationDate,2022-07-29T20:39:59-07:00*%
%TF.ProjectId,ALUMux,414c554d-7578-42e6-9b69-6361645f7063,rev?*%
%TF.SameCoordinates,Original*%
%TF.FileFunction,Soldermask,Bot*%
%TF.FilePolarity,Negative*%
%FSLAX46Y46*%
G04 Gerber Fmt 4.6, Leading zero omitted, Abs format (unit mm)*
G04 Created by KiCad (PCBNEW 6.0.6-3a73a75311~116~ubuntu20.04.1) date 2022-07-29 20:39:59*
%MOMM*%
%LPD*%
G01*
G04 APERTURE LIST*
G04 Aperture macros list*
%AMRoundRect*
0 Rectangle with rounded corners*
0 $1 Rounding radius*
0 $2 $3 $4 $5 $6 $7 $8 $9 X,Y pos of 4 corners*
0 Add a 4 corners polygon primitive as box body*
4,1,4,$2,$3,$4,$5,$6,$7,$8,$9,$2,$3,0*
0 Add four circle primitives for the rounded corners*
1,1,$1+$1,$2,$3*
1,1,$1+$1,$4,$5*
1,1,$1+$1,$6,$7*
1,1,$1+$1,$8,$9*
0 Add four rect primitives between the rounded corners*
20,1,$1+$1,$2,$3,$4,$5,0*
20,1,$1+$1,$4,$5,$6,$7,0*
20,1,$1+$1,$6,$7,$8,$9,0*
20,1,$1+$1,$8,$9,$2,$3,0*%
G04 Aperture macros list end*
%ADD10R,1.700000X1.700000*%
%ADD11O,1.700000X1.700000*%
%ADD12RoundRect,0.250000X0.412500X0.650000X-0.412500X0.650000X-0.412500X-0.650000X0.412500X-0.650000X0*%
G04 APERTURE END LIST*
D10*
%TO.C,J3*%
X186690000Y-141035000D03*
D11*
X186690000Y-143575000D03*
X184150000Y-141035000D03*
X184150000Y-143575000D03*
X181610000Y-141035000D03*
X181610000Y-143575000D03*
X179070000Y-141035000D03*
X179070000Y-143575000D03*
X176530000Y-141035000D03*
X176530000Y-143575000D03*
X173990000Y-141035000D03*
X173990000Y-143575000D03*
X171450000Y-141035000D03*
X171450000Y-143575000D03*
X168910000Y-141035000D03*
X168910000Y-143575000D03*
%TD*%
D10*
%TO.C,J2*%
X163815000Y-140970000D03*
D11*
X163815000Y-143510000D03*
X161275000Y-140970000D03*
X161275000Y-143510000D03*
X158735000Y-140970000D03*
X158735000Y-143510000D03*
X156195000Y-140970000D03*
X156195000Y-143510000D03*
X153655000Y-140970000D03*
X153655000Y-143510000D03*
X151115000Y-140970000D03*
X151115000Y-143510000D03*
X148575000Y-140970000D03*
X148575000Y-143510000D03*
X146035000Y-140970000D03*
X146035000Y-143510000D03*
%TD*%
D10*
%TO.C,J1*%
X140970000Y-141035000D03*
D11*
X140970000Y-143575000D03*
X138430000Y-141035000D03*
X138430000Y-143575000D03*
X135890000Y-141035000D03*
X135890000Y-143575000D03*
X133350000Y-141035000D03*
X133350000Y-143575000D03*
X130810000Y-141035000D03*
X130810000Y-143575000D03*
X128270000Y-141035000D03*
X128270000Y-143575000D03*
X125730000Y-141035000D03*
X125730000Y-143575000D03*
X123190000Y-141035000D03*
X123190000Y-143575000D03*
%TD*%
D12*
%TO.C,C5*%
X188379500Y-118110000D03*
X185254500Y-118110000D03*
%TD*%
%TO.C,C15*%
X150279500Y-106680000D03*
X147154500Y-106680000D03*
%TD*%
%TO.C,C1*%
X131229500Y-115570000D03*
X128104500Y-115570000D03*
%TD*%
%TO.C,C10*%
X150279500Y-118110000D03*
X147154500Y-118110000D03*
%TD*%
%TO.C,C12*%
X188252500Y-129540000D03*
X185127500Y-129540000D03*
%TD*%
%TO.C,C13*%
X188379500Y-106680000D03*
X185254500Y-106680000D03*
%TD*%
%TO.C,C9*%
X129070500Y-130175000D03*
X125945500Y-130175000D03*
%TD*%
%TO.C,C11*%
X169329500Y-118110000D03*
X166204500Y-118110000D03*
%TD*%
%TO.C,C2*%
X178727500Y-129540000D03*
X175602500Y-129540000D03*
%TD*%
%TO.C,C16*%
X178854500Y-118110000D03*
X175729500Y-118110000D03*
%TD*%
%TO.C,C8*%
X140754500Y-118110000D03*
X137629500Y-118110000D03*
%TD*%
%TO.C,C7*%
X140754500Y-106680000D03*
X137629500Y-106680000D03*
%TD*%
%TO.C,C6*%
X159804500Y-106680000D03*
X156679500Y-106680000D03*
%TD*%
%TO.C,C3*%
X169329500Y-106680000D03*
X166204500Y-106680000D03*
%TD*%
%TO.C,C4*%
X159804500Y-118110000D03*
X156679500Y-118110000D03*
%TD*%
%TO.C,C14*%
X178854500Y-106680000D03*
X175729500Y-106680000D03*
%TD*%
M02*
