M48
; DRILL file {KiCad 6.0.6-3a73a75311~116~ubuntu20.04.1} date Fri 29 Jul 2022 08:40:02 PM PDT
; FORMAT={-:-/ absolute / inch / decimal}
; #@! TF.CreationDate,2022-07-29T20:40:02-07:00
; #@! TF.GenerationSoftware,Kicad,Pcbnew,6.0.6-3a73a75311~116~ubuntu20.04.1
; #@! TF.FileFunction,Plated,1,4,PTH
FMAT,2
INCH
; #@! TA.AperFunction,Plated,PTH,ViaDrill
T1C0.0157
; #@! TA.AperFunction,Plated,PTH,ComponentDrill
T2C0.0394
%
G90
G05
T1
X4.82Y-4.675
X4.82Y-4.875
X4.825Y-4.575
X4.825Y-4.975
X4.9096Y-5.3144
X4.91Y-5.15
X4.91Y-5.4
X4.91Y-5.36
X4.915Y-5.205
X4.9274Y-5.0626
X4.965Y-4.74
X5.015Y-5.29
X5.025Y-5.06
X5.04Y-5.1
X5.08Y-4.75
X5.102Y-5.43
X5.125Y-4.525
X5.125Y-4.625
X5.1254Y-5.25
X5.1254Y-5.3
X5.13Y-4.675
X5.13Y-4.875
X5.13Y-5.03
X5.1996Y-5.3
X5.23Y-4.68
X5.275Y-5.325
X5.2756Y-4.675
X5.368Y-4.6254
X5.37Y-4.825
X5.37Y-4.225
X5.37Y-4.375
X5.37Y-4.525
X5.37Y-4.975
X5.37Y-5.395
X5.37Y-4.928
X5.455Y-4.52
X5.475Y-4.87
X5.494Y-4.374
X5.495Y-4.175
X5.495Y-4.225
X5.495Y-4.275
X5.495Y-4.425
X5.495Y-4.625
X5.495Y-4.675
X5.58Y-4.525
X5.58Y-4.825
X5.58Y-4.975
X5.5846Y-5.3089
X5.585Y-4.475
X5.6Y-5.36
X5.65Y-5.605
X5.695Y-5.375
X5.745Y-4.175
X5.745Y-4.475
X5.745Y-4.525
X5.745Y-4.625
X5.745Y-4.925
X5.745Y-4.975
X5.75Y-5.145
X5.87Y-4.175
X5.87Y-4.325
X5.87Y-4.375
X5.87Y-4.4246
X5.87Y-4.475
X5.87Y-4.625
X5.87Y-4.7746
X5.87Y-4.825
X5.87Y-4.875
X5.87Y-4.925
X5.9Y-5.095
X5.915Y-5.48
X5.955Y-4.7254
X5.962Y-4.2754
X5.99Y-4.62
X6.015Y-4.325
X6.015Y-5.13
X6.0248Y-4.6226
X6.0248Y-4.875
X6.03Y-4.925
X6.0316Y-4.6718
X6.12Y-4.175
X6.12Y-4.525
X6.12Y-4.625
X6.12Y-4.975
X6.135Y-4.4254
X6.17Y-5.155
X6.235Y-5.245
X6.245Y-4.175
X6.245Y-4.275
X6.245Y-4.325
X6.245Y-4.3746
X6.245Y-4.425
X6.245Y-4.475
X6.245Y-4.625
X6.245Y-4.775
X6.245Y-4.8246
X6.245Y-4.875
X6.245Y-4.925
X6.245Y-4.7254
X6.34Y-4.875
X6.39Y-5.22
X6.395Y-5.1
X6.405Y-4.675
X6.41Y-4.225
X6.495Y-4.175
X6.495Y-4.525
X6.495Y-4.625
X6.495Y-4.975
X6.5Y-4.925
X6.51Y-4.425
X6.515Y-4.825
X6.55Y-5.6
X6.5846Y-4.625
X6.62Y-4.175
X6.62Y-4.275
X6.62Y-4.325
X6.62Y-4.375
X6.62Y-4.425
X6.62Y-4.475
X6.62Y-4.625
X6.62Y-4.725
X6.62Y-4.775
X6.62Y-4.825
X6.62Y-4.875
X6.7004Y-4.525
X6.7128Y-4.725
X6.715Y-4.275
X6.715Y-4.325
X6.725Y-4.775
X6.725Y-4.825
X6.73Y-5.455
X6.78Y-4.375
X6.78Y-4.425
X6.78Y-4.875
X6.7816Y-4.2218
X6.785Y-4.675
X6.86Y-5.175
X6.865Y-4.175
X6.865Y-4.525
X6.865Y-5.325
X6.865Y-5.425
X6.87Y-4.625
X6.87Y-4.975
X6.875Y-4.7
X6.8939Y-4.275
X6.915Y-5.245
X6.9746Y-5.045
X6.99Y-4.725
X6.99Y-5.075
X6.99Y-5.125
X6.995Y-4.175
X6.995Y-4.275
X6.995Y-4.325
X6.995Y-4.375
X6.995Y-4.425
X6.995Y-4.475
X6.995Y-4.625
X6.995Y-4.775
X6.995Y-4.825
X6.995Y-4.875
X6.995Y-4.925
X7.02Y-5.47
X7.075Y-5.225
X7.075Y-5.275
X7.075Y-5.375
X7.08Y-4.525
X7.08Y-4.975
X7.145Y-5.425
X7.15Y-4.5554
X7.15Y-5.125
X7.15Y-5.175
X7.15Y-5.275
X7.15Y-5.325
X7.155Y-4.175
X7.155Y-4.225
X7.155Y-4.275
X7.155Y-4.4258
X7.155Y-4.625
X7.155Y-4.725
X7.155Y-4.775
X7.155Y-4.825
X7.155Y-4.875
X7.2304Y-5.425
X7.235Y-5.125
X7.235Y-5.225
X7.24Y-4.3251
X7.24Y-4.525
X7.24Y-4.975
X7.2451Y-4.2
X7.28Y-4.71
X7.2885Y-5.2246
X7.305Y-5.0
X7.3354Y-5.3504
X7.36Y-5.075
X7.36Y-5.125
X7.365Y-4.625
X7.365Y-4.735
X7.365Y-5.175
X7.365Y-5.325
X7.365Y-4.675
X7.365Y-4.775
X7.365Y-4.825
X7.37Y-4.175
X7.37Y-4.225
X7.37Y-4.275
X7.37Y-4.325
X7.37Y-4.375
X7.37Y-4.475
T2
X4.85Y-5.5526
X4.85Y-5.6526
X4.95Y-5.5526
X4.95Y-5.6526
X5.05Y-5.5526
X5.05Y-5.6526
X5.15Y-5.5526
X5.15Y-5.6526
X5.25Y-5.5526
X5.25Y-5.6526
X5.35Y-5.5526
X5.35Y-5.6526
X5.45Y-5.5526
X5.45Y-5.6526
X5.55Y-5.5526
X5.55Y-5.6526
X5.7494Y-5.55
X5.7494Y-5.65
X5.8494Y-5.55
X5.8494Y-5.65
X5.9494Y-5.55
X5.9494Y-5.65
X6.0494Y-5.55
X6.0494Y-5.65
X6.1494Y-5.55
X6.1494Y-5.65
X6.2494Y-5.55
X6.2494Y-5.65
X6.3494Y-5.55
X6.3494Y-5.65
X6.4494Y-5.55
X6.4494Y-5.65
X6.65Y-5.5526
X6.65Y-5.6526
X6.75Y-5.5526
X6.75Y-5.6526
X6.85Y-5.5526
X6.85Y-5.6526
X6.95Y-5.5526
X6.95Y-5.6526
X7.05Y-5.5526
X7.05Y-5.6526
X7.15Y-5.5526
X7.15Y-5.6526
X7.25Y-5.5526
X7.25Y-5.6526
X7.35Y-5.5526
X7.35Y-5.6526
T0
M30
