%TF.GenerationSoftware,KiCad,Pcbnew,6.0.6-3a73a75311~116~ubuntu20.04.1*%
%TF.CreationDate,2022-07-29T20:39:59-07:00*%
%TF.ProjectId,ALUMux,414c554d-7578-42e6-9b69-6361645f7063,rev?*%
%TF.SameCoordinates,Original*%
%TF.FileFunction,Legend,Bot*%
%TF.FilePolarity,Positive*%
%FSLAX46Y46*%
G04 Gerber Fmt 4.6, Leading zero omitted, Abs format (unit mm)*
G04 Created by KiCad (PCBNEW 6.0.6-3a73a75311~116~ubuntu20.04.1) date 2022-07-29 20:39:59*
%MOMM*%
%LPD*%
G01*
G04 APERTURE LIST*
%ADD10C,0.150000*%
%ADD11C,0.120000*%
G04 APERTURE END LIST*
D10*
X184403809Y-146248380D02*
X184737142Y-145772190D01*
X184975238Y-146248380D02*
X184975238Y-145248380D01*
X184594285Y-145248380D01*
X184499047Y-145296000D01*
X184451428Y-145343619D01*
X184403809Y-145438857D01*
X184403809Y-145581714D01*
X184451428Y-145676952D01*
X184499047Y-145724571D01*
X184594285Y-145772190D01*
X184975238Y-145772190D01*
X183594285Y-146200761D02*
X183689523Y-146248380D01*
X183880000Y-146248380D01*
X183975238Y-146200761D01*
X184022857Y-146105523D01*
X184022857Y-145724571D01*
X183975238Y-145629333D01*
X183880000Y-145581714D01*
X183689523Y-145581714D01*
X183594285Y-145629333D01*
X183546666Y-145724571D01*
X183546666Y-145819809D01*
X184022857Y-145915047D01*
X183165714Y-146200761D02*
X183070476Y-146248380D01*
X182880000Y-146248380D01*
X182784761Y-146200761D01*
X182737142Y-146105523D01*
X182737142Y-146057904D01*
X182784761Y-145962666D01*
X182880000Y-145915047D01*
X183022857Y-145915047D01*
X183118095Y-145867428D01*
X183165714Y-145772190D01*
X183165714Y-145724571D01*
X183118095Y-145629333D01*
X183022857Y-145581714D01*
X182880000Y-145581714D01*
X182784761Y-145629333D01*
X181880000Y-145581714D02*
X181880000Y-146248380D01*
X182308571Y-145581714D02*
X182308571Y-146105523D01*
X182260952Y-146200761D01*
X182165714Y-146248380D01*
X182022857Y-146248380D01*
X181927619Y-146200761D01*
X181880000Y-146153142D01*
X181260952Y-146248380D02*
X181356190Y-146200761D01*
X181403809Y-146105523D01*
X181403809Y-145248380D01*
X181022857Y-145581714D02*
X180641904Y-145581714D01*
X180880000Y-145248380D02*
X180880000Y-146105523D01*
X180832380Y-146200761D01*
X180737142Y-146248380D01*
X180641904Y-146248380D01*
X173263644Y-145363963D02*
X173073167Y-145363963D01*
X172977929Y-145411583D01*
X172882691Y-145506821D01*
X172835072Y-145697297D01*
X172835072Y-146030630D01*
X172882691Y-146221106D01*
X172977929Y-146316344D01*
X173073167Y-146363963D01*
X173263644Y-146363963D01*
X173358882Y-146316344D01*
X173454120Y-146221106D01*
X173501739Y-146030630D01*
X173501739Y-145697297D01*
X173454120Y-145506821D01*
X173358882Y-145411583D01*
X173263644Y-145363963D01*
X172406501Y-145697297D02*
X172406501Y-146697297D01*
X172406501Y-145744916D02*
X172311263Y-145697297D01*
X172120786Y-145697297D01*
X172025548Y-145744916D01*
X171977929Y-145792535D01*
X171930310Y-145887773D01*
X171930310Y-146173487D01*
X171977929Y-146268725D01*
X172025548Y-146316344D01*
X172120786Y-146363963D01*
X172311263Y-146363963D01*
X172406501Y-146316344D01*
X162139047Y-146248380D02*
X162139047Y-145248380D01*
X161662857Y-145581714D02*
X161662857Y-146248380D01*
X161662857Y-145676952D02*
X161615238Y-145629333D01*
X161520000Y-145581714D01*
X161377142Y-145581714D01*
X161281904Y-145629333D01*
X161234285Y-145724571D01*
X161234285Y-146248380D01*
X160043809Y-145962666D02*
X159567619Y-145962666D01*
X160139047Y-146248380D02*
X159805714Y-145248380D01*
X159472380Y-146248380D01*
X158710476Y-146200761D02*
X158805714Y-146248380D01*
X158996190Y-146248380D01*
X159091428Y-146200761D01*
X159139047Y-146153142D01*
X159186666Y-146057904D01*
X159186666Y-145772190D01*
X159139047Y-145676952D01*
X159091428Y-145629333D01*
X158996190Y-145581714D01*
X158805714Y-145581714D01*
X158710476Y-145629333D01*
X157853333Y-146200761D02*
X157948571Y-146248380D01*
X158139047Y-146248380D01*
X158234285Y-146200761D01*
X158281904Y-146153142D01*
X158329523Y-146057904D01*
X158329523Y-145772190D01*
X158281904Y-145676952D01*
X158234285Y-145629333D01*
X158139047Y-145581714D01*
X157948571Y-145581714D01*
X157853333Y-145629333D01*
X151669523Y-145248380D02*
X151479047Y-145248380D01*
X151383809Y-145296000D01*
X151288571Y-145391238D01*
X151240952Y-145581714D01*
X151240952Y-145915047D01*
X151288571Y-146105523D01*
X151383809Y-146200761D01*
X151479047Y-146248380D01*
X151669523Y-146248380D01*
X151764761Y-146200761D01*
X151860000Y-146105523D01*
X151907619Y-145915047D01*
X151907619Y-145581714D01*
X151860000Y-145391238D01*
X151764761Y-145296000D01*
X151669523Y-145248380D01*
X150383809Y-145581714D02*
X150383809Y-146248380D01*
X150812380Y-145581714D02*
X150812380Y-146105523D01*
X150764761Y-146200761D01*
X150669523Y-146248380D01*
X150526666Y-146248380D01*
X150431428Y-146200761D01*
X150383809Y-146153142D01*
X150050476Y-145581714D02*
X149669523Y-145581714D01*
X149907619Y-145248380D02*
X149907619Y-146105523D01*
X149860000Y-146200761D01*
X149764761Y-146248380D01*
X149669523Y-146248380D01*
X148764761Y-146248380D02*
X149098095Y-145772190D01*
X149336190Y-146248380D02*
X149336190Y-145248380D01*
X148955238Y-145248380D01*
X148860000Y-145296000D01*
X148812380Y-145343619D01*
X148764761Y-145438857D01*
X148764761Y-145581714D01*
X148812380Y-145676952D01*
X148860000Y-145724571D01*
X148955238Y-145772190D01*
X149336190Y-145772190D01*
X148431428Y-145248380D02*
X147764761Y-146248380D01*
X147764761Y-145248380D02*
X148431428Y-146248380D01*
X130619047Y-146248380D02*
X130619047Y-145248380D01*
X130142857Y-146248380D02*
X130142857Y-145581714D01*
X130142857Y-145676952D02*
X130095238Y-145629333D01*
X130000000Y-145581714D01*
X129857142Y-145581714D01*
X129761904Y-145629333D01*
X129714285Y-145724571D01*
X129714285Y-146248380D01*
X129714285Y-145724571D02*
X129666666Y-145629333D01*
X129571428Y-145581714D01*
X129428571Y-145581714D01*
X129333333Y-145629333D01*
X129285714Y-145724571D01*
X129285714Y-146248380D01*
X128809523Y-146248380D02*
X128809523Y-145581714D01*
X128809523Y-145676952D02*
X128761904Y-145629333D01*
X128666666Y-145581714D01*
X128523809Y-145581714D01*
X128428571Y-145629333D01*
X128380952Y-145724571D01*
X128380952Y-146248380D01*
X128380952Y-145724571D02*
X128333333Y-145629333D01*
X128238095Y-145581714D01*
X128095238Y-145581714D01*
X128000000Y-145629333D01*
X127952380Y-145724571D01*
X127952380Y-146248380D01*
X127095238Y-146200761D02*
X127190476Y-146248380D01*
X127380952Y-146248380D01*
X127476190Y-146200761D01*
X127523809Y-146105523D01*
X127523809Y-145724571D01*
X127476190Y-145629333D01*
X127380952Y-145581714D01*
X127190476Y-145581714D01*
X127095238Y-145629333D01*
X127047619Y-145724571D01*
X127047619Y-145819809D01*
X127523809Y-145915047D01*
X126190476Y-146248380D02*
X126190476Y-145248380D01*
X126190476Y-146200761D02*
X126285714Y-146248380D01*
X126476190Y-146248380D01*
X126571428Y-146200761D01*
X126619047Y-146153142D01*
X126666666Y-146057904D01*
X126666666Y-145772190D01*
X126619047Y-145676952D01*
X126571428Y-145629333D01*
X126476190Y-145581714D01*
X126285714Y-145581714D01*
X126190476Y-145629333D01*
X125714285Y-146248380D02*
X125714285Y-145581714D01*
X125714285Y-145248380D02*
X125761904Y-145296000D01*
X125714285Y-145343619D01*
X125666666Y-145296000D01*
X125714285Y-145248380D01*
X125714285Y-145343619D01*
X124809523Y-146248380D02*
X124809523Y-145724571D01*
X124857142Y-145629333D01*
X124952380Y-145581714D01*
X125142857Y-145581714D01*
X125238095Y-145629333D01*
X124809523Y-146200761D02*
X124904761Y-146248380D01*
X125142857Y-146248380D01*
X125238095Y-146200761D01*
X125285714Y-146105523D01*
X125285714Y-146010285D01*
X125238095Y-145915047D01*
X125142857Y-145867428D01*
X124904761Y-145867428D01*
X124809523Y-145819809D01*
X124476190Y-145581714D02*
X124095238Y-145581714D01*
X124333333Y-145248380D02*
X124333333Y-146105523D01*
X124285714Y-146200761D01*
X124190476Y-146248380D01*
X124095238Y-146248380D01*
X123380952Y-146200761D02*
X123476190Y-146248380D01*
X123666666Y-146248380D01*
X123761904Y-146200761D01*
X123809523Y-146105523D01*
X123809523Y-145724571D01*
X123761904Y-145629333D01*
X123666666Y-145581714D01*
X123476190Y-145581714D01*
X123380952Y-145629333D01*
X123333333Y-145724571D01*
X123333333Y-145819809D01*
X123809523Y-145915047D01*
X139374285Y-146121380D02*
X139707619Y-145645190D01*
X139945714Y-146121380D02*
X139945714Y-145121380D01*
X139564761Y-145121380D01*
X139469523Y-145169000D01*
X139421904Y-145216619D01*
X139374285Y-145311857D01*
X139374285Y-145454714D01*
X139421904Y-145549952D01*
X139469523Y-145597571D01*
X139564761Y-145645190D01*
X139945714Y-145645190D01*
X138564761Y-146073761D02*
X138660000Y-146121380D01*
X138850476Y-146121380D01*
X138945714Y-146073761D01*
X138993333Y-145978523D01*
X138993333Y-145597571D01*
X138945714Y-145502333D01*
X138850476Y-145454714D01*
X138660000Y-145454714D01*
X138564761Y-145502333D01*
X138517142Y-145597571D01*
X138517142Y-145692809D01*
X138993333Y-145788047D01*
X137660000Y-145454714D02*
X137660000Y-146264238D01*
X137707619Y-146359476D01*
X137755238Y-146407095D01*
X137850476Y-146454714D01*
X137993333Y-146454714D01*
X138088571Y-146407095D01*
X137660000Y-146073761D02*
X137755238Y-146121380D01*
X137945714Y-146121380D01*
X138040952Y-146073761D01*
X138088571Y-146026142D01*
X138136190Y-145930904D01*
X138136190Y-145645190D01*
X138088571Y-145549952D01*
X138040952Y-145502333D01*
X137945714Y-145454714D01*
X137755238Y-145454714D01*
X137660000Y-145502333D01*
X136755238Y-146121380D02*
X136755238Y-145121380D01*
X136755238Y-146073761D02*
X136850476Y-146121380D01*
X137040952Y-146121380D01*
X137136190Y-146073761D01*
X137183809Y-146026142D01*
X137231428Y-145930904D01*
X137231428Y-145645190D01*
X137183809Y-145549952D01*
X137136190Y-145502333D01*
X137040952Y-145454714D01*
X136850476Y-145454714D01*
X136755238Y-145502333D01*
X135850476Y-146121380D02*
X135850476Y-145597571D01*
X135898095Y-145502333D01*
X135993333Y-145454714D01*
X136183809Y-145454714D01*
X136279047Y-145502333D01*
X135850476Y-146073761D02*
X135945714Y-146121380D01*
X136183809Y-146121380D01*
X136279047Y-146073761D01*
X136326666Y-145978523D01*
X136326666Y-145883285D01*
X136279047Y-145788047D01*
X136183809Y-145740428D01*
X135945714Y-145740428D01*
X135850476Y-145692809D01*
X135517142Y-145454714D02*
X135136190Y-145454714D01*
X135374285Y-145121380D02*
X135374285Y-145978523D01*
X135326666Y-146073761D01*
X135231428Y-146121380D01*
X135136190Y-146121380D01*
X134374285Y-146121380D02*
X134374285Y-145597571D01*
X134421904Y-145502333D01*
X134517142Y-145454714D01*
X134707619Y-145454714D01*
X134802857Y-145502333D01*
X134374285Y-146073761D02*
X134469523Y-146121380D01*
X134707619Y-146121380D01*
X134802857Y-146073761D01*
X134850476Y-145978523D01*
X134850476Y-145883285D01*
X134802857Y-145788047D01*
X134707619Y-145740428D01*
X134469523Y-145740428D01*
X134374285Y-145692809D01*
%TO.C,C5*%
X186983666Y-116617142D02*
X187031285Y-116664761D01*
X187174142Y-116712380D01*
X187269380Y-116712380D01*
X187412238Y-116664761D01*
X187507476Y-116569523D01*
X187555095Y-116474285D01*
X187602714Y-116283809D01*
X187602714Y-116140952D01*
X187555095Y-115950476D01*
X187507476Y-115855238D01*
X187412238Y-115760000D01*
X187269380Y-115712380D01*
X187174142Y-115712380D01*
X187031285Y-115760000D01*
X186983666Y-115807619D01*
X186078904Y-115712380D02*
X186555095Y-115712380D01*
X186602714Y-116188571D01*
X186555095Y-116140952D01*
X186459857Y-116093333D01*
X186221761Y-116093333D01*
X186126523Y-116140952D01*
X186078904Y-116188571D01*
X186031285Y-116283809D01*
X186031285Y-116521904D01*
X186078904Y-116617142D01*
X186126523Y-116664761D01*
X186221761Y-116712380D01*
X186459857Y-116712380D01*
X186555095Y-116664761D01*
X186602714Y-116617142D01*
%TO.C,C15*%
X149232857Y-108942142D02*
X149280476Y-108989761D01*
X149423333Y-109037380D01*
X149518571Y-109037380D01*
X149661428Y-108989761D01*
X149756666Y-108894523D01*
X149804285Y-108799285D01*
X149851904Y-108608809D01*
X149851904Y-108465952D01*
X149804285Y-108275476D01*
X149756666Y-108180238D01*
X149661428Y-108085000D01*
X149518571Y-108037380D01*
X149423333Y-108037380D01*
X149280476Y-108085000D01*
X149232857Y-108132619D01*
X148280476Y-109037380D02*
X148851904Y-109037380D01*
X148566190Y-109037380D02*
X148566190Y-108037380D01*
X148661428Y-108180238D01*
X148756666Y-108275476D01*
X148851904Y-108323095D01*
X147375714Y-108037380D02*
X147851904Y-108037380D01*
X147899523Y-108513571D01*
X147851904Y-108465952D01*
X147756666Y-108418333D01*
X147518571Y-108418333D01*
X147423333Y-108465952D01*
X147375714Y-108513571D01*
X147328095Y-108608809D01*
X147328095Y-108846904D01*
X147375714Y-108942142D01*
X147423333Y-108989761D01*
X147518571Y-109037380D01*
X147756666Y-109037380D01*
X147851904Y-108989761D01*
X147899523Y-108942142D01*
%TO.C,C1*%
X129833666Y-114077142D02*
X129881285Y-114124761D01*
X130024142Y-114172380D01*
X130119380Y-114172380D01*
X130262238Y-114124761D01*
X130357476Y-114029523D01*
X130405095Y-113934285D01*
X130452714Y-113743809D01*
X130452714Y-113600952D01*
X130405095Y-113410476D01*
X130357476Y-113315238D01*
X130262238Y-113220000D01*
X130119380Y-113172380D01*
X130024142Y-113172380D01*
X129881285Y-113220000D01*
X129833666Y-113267619D01*
X128881285Y-114172380D02*
X129452714Y-114172380D01*
X129167000Y-114172380D02*
X129167000Y-113172380D01*
X129262238Y-113315238D01*
X129357476Y-113410476D01*
X129452714Y-113458095D01*
%TO.C,C10*%
X149359857Y-116617142D02*
X149407476Y-116664761D01*
X149550333Y-116712380D01*
X149645571Y-116712380D01*
X149788428Y-116664761D01*
X149883666Y-116569523D01*
X149931285Y-116474285D01*
X149978904Y-116283809D01*
X149978904Y-116140952D01*
X149931285Y-115950476D01*
X149883666Y-115855238D01*
X149788428Y-115760000D01*
X149645571Y-115712380D01*
X149550333Y-115712380D01*
X149407476Y-115760000D01*
X149359857Y-115807619D01*
X148407476Y-116712380D02*
X148978904Y-116712380D01*
X148693190Y-116712380D02*
X148693190Y-115712380D01*
X148788428Y-115855238D01*
X148883666Y-115950476D01*
X148978904Y-115998095D01*
X147788428Y-115712380D02*
X147693190Y-115712380D01*
X147597952Y-115760000D01*
X147550333Y-115807619D01*
X147502714Y-115902857D01*
X147455095Y-116093333D01*
X147455095Y-116331428D01*
X147502714Y-116521904D01*
X147550333Y-116617142D01*
X147597952Y-116664761D01*
X147693190Y-116712380D01*
X147788428Y-116712380D01*
X147883666Y-116664761D01*
X147931285Y-116617142D01*
X147978904Y-116521904D01*
X148026523Y-116331428D01*
X148026523Y-116093333D01*
X147978904Y-115902857D01*
X147931285Y-115807619D01*
X147883666Y-115760000D01*
X147788428Y-115712380D01*
%TO.C,C12*%
X187332857Y-128047142D02*
X187380476Y-128094761D01*
X187523333Y-128142380D01*
X187618571Y-128142380D01*
X187761428Y-128094761D01*
X187856666Y-127999523D01*
X187904285Y-127904285D01*
X187951904Y-127713809D01*
X187951904Y-127570952D01*
X187904285Y-127380476D01*
X187856666Y-127285238D01*
X187761428Y-127190000D01*
X187618571Y-127142380D01*
X187523333Y-127142380D01*
X187380476Y-127190000D01*
X187332857Y-127237619D01*
X186380476Y-128142380D02*
X186951904Y-128142380D01*
X186666190Y-128142380D02*
X186666190Y-127142380D01*
X186761428Y-127285238D01*
X186856666Y-127380476D01*
X186951904Y-127428095D01*
X185999523Y-127237619D02*
X185951904Y-127190000D01*
X185856666Y-127142380D01*
X185618571Y-127142380D01*
X185523333Y-127190000D01*
X185475714Y-127237619D01*
X185428095Y-127332857D01*
X185428095Y-127428095D01*
X185475714Y-127570952D01*
X186047142Y-128142380D01*
X185428095Y-128142380D01*
%TO.C,C13*%
X187459857Y-108942142D02*
X187507476Y-108989761D01*
X187650333Y-109037380D01*
X187745571Y-109037380D01*
X187888428Y-108989761D01*
X187983666Y-108894523D01*
X188031285Y-108799285D01*
X188078904Y-108608809D01*
X188078904Y-108465952D01*
X188031285Y-108275476D01*
X187983666Y-108180238D01*
X187888428Y-108085000D01*
X187745571Y-108037380D01*
X187650333Y-108037380D01*
X187507476Y-108085000D01*
X187459857Y-108132619D01*
X186507476Y-109037380D02*
X187078904Y-109037380D01*
X186793190Y-109037380D02*
X186793190Y-108037380D01*
X186888428Y-108180238D01*
X186983666Y-108275476D01*
X187078904Y-108323095D01*
X186174142Y-108037380D02*
X185555095Y-108037380D01*
X185888428Y-108418333D01*
X185745571Y-108418333D01*
X185650333Y-108465952D01*
X185602714Y-108513571D01*
X185555095Y-108608809D01*
X185555095Y-108846904D01*
X185602714Y-108942142D01*
X185650333Y-108989761D01*
X185745571Y-109037380D01*
X186031285Y-109037380D01*
X186126523Y-108989761D01*
X186174142Y-108942142D01*
%TO.C,C9*%
X127674666Y-128682142D02*
X127722285Y-128729761D01*
X127865142Y-128777380D01*
X127960380Y-128777380D01*
X128103238Y-128729761D01*
X128198476Y-128634523D01*
X128246095Y-128539285D01*
X128293714Y-128348809D01*
X128293714Y-128205952D01*
X128246095Y-128015476D01*
X128198476Y-127920238D01*
X128103238Y-127825000D01*
X127960380Y-127777380D01*
X127865142Y-127777380D01*
X127722285Y-127825000D01*
X127674666Y-127872619D01*
X127198476Y-128777380D02*
X127008000Y-128777380D01*
X126912761Y-128729761D01*
X126865142Y-128682142D01*
X126769904Y-128539285D01*
X126722285Y-128348809D01*
X126722285Y-127967857D01*
X126769904Y-127872619D01*
X126817523Y-127825000D01*
X126912761Y-127777380D01*
X127103238Y-127777380D01*
X127198476Y-127825000D01*
X127246095Y-127872619D01*
X127293714Y-127967857D01*
X127293714Y-128205952D01*
X127246095Y-128301190D01*
X127198476Y-128348809D01*
X127103238Y-128396428D01*
X126912761Y-128396428D01*
X126817523Y-128348809D01*
X126769904Y-128301190D01*
X126722285Y-128205952D01*
%TO.C,C11*%
X168409857Y-116617142D02*
X168457476Y-116664761D01*
X168600333Y-116712380D01*
X168695571Y-116712380D01*
X168838428Y-116664761D01*
X168933666Y-116569523D01*
X168981285Y-116474285D01*
X169028904Y-116283809D01*
X169028904Y-116140952D01*
X168981285Y-115950476D01*
X168933666Y-115855238D01*
X168838428Y-115760000D01*
X168695571Y-115712380D01*
X168600333Y-115712380D01*
X168457476Y-115760000D01*
X168409857Y-115807619D01*
X167457476Y-116712380D02*
X168028904Y-116712380D01*
X167743190Y-116712380D02*
X167743190Y-115712380D01*
X167838428Y-115855238D01*
X167933666Y-115950476D01*
X168028904Y-115998095D01*
X166505095Y-116712380D02*
X167076523Y-116712380D01*
X166790809Y-116712380D02*
X166790809Y-115712380D01*
X166886047Y-115855238D01*
X166981285Y-115950476D01*
X167076523Y-115998095D01*
%TO.C,C2*%
X177331666Y-128047142D02*
X177379285Y-128094761D01*
X177522142Y-128142380D01*
X177617380Y-128142380D01*
X177760238Y-128094761D01*
X177855476Y-127999523D01*
X177903095Y-127904285D01*
X177950714Y-127713809D01*
X177950714Y-127570952D01*
X177903095Y-127380476D01*
X177855476Y-127285238D01*
X177760238Y-127190000D01*
X177617380Y-127142380D01*
X177522142Y-127142380D01*
X177379285Y-127190000D01*
X177331666Y-127237619D01*
X176950714Y-127237619D02*
X176903095Y-127190000D01*
X176807857Y-127142380D01*
X176569761Y-127142380D01*
X176474523Y-127190000D01*
X176426904Y-127237619D01*
X176379285Y-127332857D01*
X176379285Y-127428095D01*
X176426904Y-127570952D01*
X176998333Y-128142380D01*
X176379285Y-128142380D01*
%TO.C,C16*%
X177934857Y-116617142D02*
X177982476Y-116664761D01*
X178125333Y-116712380D01*
X178220571Y-116712380D01*
X178363428Y-116664761D01*
X178458666Y-116569523D01*
X178506285Y-116474285D01*
X178553904Y-116283809D01*
X178553904Y-116140952D01*
X178506285Y-115950476D01*
X178458666Y-115855238D01*
X178363428Y-115760000D01*
X178220571Y-115712380D01*
X178125333Y-115712380D01*
X177982476Y-115760000D01*
X177934857Y-115807619D01*
X176982476Y-116712380D02*
X177553904Y-116712380D01*
X177268190Y-116712380D02*
X177268190Y-115712380D01*
X177363428Y-115855238D01*
X177458666Y-115950476D01*
X177553904Y-115998095D01*
X176125333Y-115712380D02*
X176315809Y-115712380D01*
X176411047Y-115760000D01*
X176458666Y-115807619D01*
X176553904Y-115950476D01*
X176601523Y-116140952D01*
X176601523Y-116521904D01*
X176553904Y-116617142D01*
X176506285Y-116664761D01*
X176411047Y-116712380D01*
X176220571Y-116712380D01*
X176125333Y-116664761D01*
X176077714Y-116617142D01*
X176030095Y-116521904D01*
X176030095Y-116283809D01*
X176077714Y-116188571D01*
X176125333Y-116140952D01*
X176220571Y-116093333D01*
X176411047Y-116093333D01*
X176506285Y-116140952D01*
X176553904Y-116188571D01*
X176601523Y-116283809D01*
%TO.C,C8*%
X139358666Y-116617142D02*
X139406285Y-116664761D01*
X139549142Y-116712380D01*
X139644380Y-116712380D01*
X139787238Y-116664761D01*
X139882476Y-116569523D01*
X139930095Y-116474285D01*
X139977714Y-116283809D01*
X139977714Y-116140952D01*
X139930095Y-115950476D01*
X139882476Y-115855238D01*
X139787238Y-115760000D01*
X139644380Y-115712380D01*
X139549142Y-115712380D01*
X139406285Y-115760000D01*
X139358666Y-115807619D01*
X138787238Y-116140952D02*
X138882476Y-116093333D01*
X138930095Y-116045714D01*
X138977714Y-115950476D01*
X138977714Y-115902857D01*
X138930095Y-115807619D01*
X138882476Y-115760000D01*
X138787238Y-115712380D01*
X138596761Y-115712380D01*
X138501523Y-115760000D01*
X138453904Y-115807619D01*
X138406285Y-115902857D01*
X138406285Y-115950476D01*
X138453904Y-116045714D01*
X138501523Y-116093333D01*
X138596761Y-116140952D01*
X138787238Y-116140952D01*
X138882476Y-116188571D01*
X138930095Y-116236190D01*
X138977714Y-116331428D01*
X138977714Y-116521904D01*
X138930095Y-116617142D01*
X138882476Y-116664761D01*
X138787238Y-116712380D01*
X138596761Y-116712380D01*
X138501523Y-116664761D01*
X138453904Y-116617142D01*
X138406285Y-116521904D01*
X138406285Y-116331428D01*
X138453904Y-116236190D01*
X138501523Y-116188571D01*
X138596761Y-116140952D01*
%TO.C,C7*%
X139358666Y-108942142D02*
X139406285Y-108989761D01*
X139549142Y-109037380D01*
X139644380Y-109037380D01*
X139787238Y-108989761D01*
X139882476Y-108894523D01*
X139930095Y-108799285D01*
X139977714Y-108608809D01*
X139977714Y-108465952D01*
X139930095Y-108275476D01*
X139882476Y-108180238D01*
X139787238Y-108085000D01*
X139644380Y-108037380D01*
X139549142Y-108037380D01*
X139406285Y-108085000D01*
X139358666Y-108132619D01*
X139025333Y-108037380D02*
X138358666Y-108037380D01*
X138787238Y-109037380D01*
%TO.C,C6*%
X158408666Y-108942142D02*
X158456285Y-108989761D01*
X158599142Y-109037380D01*
X158694380Y-109037380D01*
X158837238Y-108989761D01*
X158932476Y-108894523D01*
X158980095Y-108799285D01*
X159027714Y-108608809D01*
X159027714Y-108465952D01*
X158980095Y-108275476D01*
X158932476Y-108180238D01*
X158837238Y-108085000D01*
X158694380Y-108037380D01*
X158599142Y-108037380D01*
X158456285Y-108085000D01*
X158408666Y-108132619D01*
X157551523Y-108037380D02*
X157742000Y-108037380D01*
X157837238Y-108085000D01*
X157884857Y-108132619D01*
X157980095Y-108275476D01*
X158027714Y-108465952D01*
X158027714Y-108846904D01*
X157980095Y-108942142D01*
X157932476Y-108989761D01*
X157837238Y-109037380D01*
X157646761Y-109037380D01*
X157551523Y-108989761D01*
X157503904Y-108942142D01*
X157456285Y-108846904D01*
X157456285Y-108608809D01*
X157503904Y-108513571D01*
X157551523Y-108465952D01*
X157646761Y-108418333D01*
X157837238Y-108418333D01*
X157932476Y-108465952D01*
X157980095Y-108513571D01*
X158027714Y-108608809D01*
%TO.C,C3*%
X167933666Y-108942142D02*
X167981285Y-108989761D01*
X168124142Y-109037380D01*
X168219380Y-109037380D01*
X168362238Y-108989761D01*
X168457476Y-108894523D01*
X168505095Y-108799285D01*
X168552714Y-108608809D01*
X168552714Y-108465952D01*
X168505095Y-108275476D01*
X168457476Y-108180238D01*
X168362238Y-108085000D01*
X168219380Y-108037380D01*
X168124142Y-108037380D01*
X167981285Y-108085000D01*
X167933666Y-108132619D01*
X167600333Y-108037380D02*
X166981285Y-108037380D01*
X167314619Y-108418333D01*
X167171761Y-108418333D01*
X167076523Y-108465952D01*
X167028904Y-108513571D01*
X166981285Y-108608809D01*
X166981285Y-108846904D01*
X167028904Y-108942142D01*
X167076523Y-108989761D01*
X167171761Y-109037380D01*
X167457476Y-109037380D01*
X167552714Y-108989761D01*
X167600333Y-108942142D01*
%TO.C,C4*%
X158408666Y-116617142D02*
X158456285Y-116664761D01*
X158599142Y-116712380D01*
X158694380Y-116712380D01*
X158837238Y-116664761D01*
X158932476Y-116569523D01*
X158980095Y-116474285D01*
X159027714Y-116283809D01*
X159027714Y-116140952D01*
X158980095Y-115950476D01*
X158932476Y-115855238D01*
X158837238Y-115760000D01*
X158694380Y-115712380D01*
X158599142Y-115712380D01*
X158456285Y-115760000D01*
X158408666Y-115807619D01*
X157551523Y-116045714D02*
X157551523Y-116712380D01*
X157789619Y-115664761D02*
X158027714Y-116379047D01*
X157408666Y-116379047D01*
%TO.C,C14*%
X177934857Y-108942142D02*
X177982476Y-108989761D01*
X178125333Y-109037380D01*
X178220571Y-109037380D01*
X178363428Y-108989761D01*
X178458666Y-108894523D01*
X178506285Y-108799285D01*
X178553904Y-108608809D01*
X178553904Y-108465952D01*
X178506285Y-108275476D01*
X178458666Y-108180238D01*
X178363428Y-108085000D01*
X178220571Y-108037380D01*
X178125333Y-108037380D01*
X177982476Y-108085000D01*
X177934857Y-108132619D01*
X176982476Y-109037380D02*
X177553904Y-109037380D01*
X177268190Y-109037380D02*
X177268190Y-108037380D01*
X177363428Y-108180238D01*
X177458666Y-108275476D01*
X177553904Y-108323095D01*
X176125333Y-108370714D02*
X176125333Y-109037380D01*
X176363428Y-107989761D02*
X176601523Y-108704047D01*
X175982476Y-108704047D01*
D11*
%TO.C,C5*%
X187528252Y-119020000D02*
X186105748Y-119020000D01*
X187528252Y-117200000D02*
X186105748Y-117200000D01*
%TO.C,C15*%
X149428252Y-107590000D02*
X148005748Y-107590000D01*
X149428252Y-105770000D02*
X148005748Y-105770000D01*
%TO.C,C1*%
X130378252Y-116480000D02*
X128955748Y-116480000D01*
X130378252Y-114660000D02*
X128955748Y-114660000D01*
%TO.C,C10*%
X149428252Y-117200000D02*
X148005748Y-117200000D01*
X149428252Y-119020000D02*
X148005748Y-119020000D01*
%TO.C,C12*%
X187401252Y-130450000D02*
X185978748Y-130450000D01*
X187401252Y-128630000D02*
X185978748Y-128630000D01*
%TO.C,C13*%
X187528252Y-105770000D02*
X186105748Y-105770000D01*
X187528252Y-107590000D02*
X186105748Y-107590000D01*
%TO.C,C9*%
X128219252Y-131085000D02*
X126796748Y-131085000D01*
X128219252Y-129265000D02*
X126796748Y-129265000D01*
%TO.C,C11*%
X168478252Y-119020000D02*
X167055748Y-119020000D01*
X168478252Y-117200000D02*
X167055748Y-117200000D01*
%TO.C,C2*%
X177876252Y-128630000D02*
X176453748Y-128630000D01*
X177876252Y-130450000D02*
X176453748Y-130450000D01*
%TO.C,C16*%
X178003252Y-119020000D02*
X176580748Y-119020000D01*
X178003252Y-117200000D02*
X176580748Y-117200000D01*
%TO.C,C8*%
X139903252Y-117200000D02*
X138480748Y-117200000D01*
X139903252Y-119020000D02*
X138480748Y-119020000D01*
%TO.C,C7*%
X139903252Y-105770000D02*
X138480748Y-105770000D01*
X139903252Y-107590000D02*
X138480748Y-107590000D01*
%TO.C,C6*%
X158953252Y-107590000D02*
X157530748Y-107590000D01*
X158953252Y-105770000D02*
X157530748Y-105770000D01*
%TO.C,C3*%
X168478252Y-105770000D02*
X167055748Y-105770000D01*
X168478252Y-107590000D02*
X167055748Y-107590000D01*
%TO.C,C4*%
X158953252Y-117200000D02*
X157530748Y-117200000D01*
X158953252Y-119020000D02*
X157530748Y-119020000D01*
%TO.C,C14*%
X178003252Y-105770000D02*
X176580748Y-105770000D01*
X178003252Y-107590000D02*
X176580748Y-107590000D01*
%TD*%
M02*
