%TF.GenerationSoftware,KiCad,Pcbnew,6.0.6-3a73a75311~116~ubuntu20.04.1*%
%TF.CreationDate,2022-07-29T20:39:59-07:00*%
%TF.ProjectId,ALUMux,414c554d-7578-42e6-9b69-6361645f7063,rev?*%
%TF.SameCoordinates,Original*%
%TF.FileFunction,Paste,Top*%
%TF.FilePolarity,Positive*%
%FSLAX46Y46*%
G04 Gerber Fmt 4.6, Leading zero omitted, Abs format (unit mm)*
G04 Created by KiCad (PCBNEW 6.0.6-3a73a75311~116~ubuntu20.04.1) date 2022-07-29 20:39:59*
%MOMM*%
%LPD*%
G01*
G04 APERTURE LIST*
%ADD10R,1.550000X0.600000*%
%ADD11R,1.300000X0.520000*%
G04 APERTURE END LIST*
D10*
%TO.C,U2MUX1*%
X135255000Y-117475000D03*
X135255000Y-118745000D03*
X135255000Y-120015000D03*
X135255000Y-121285000D03*
X135255000Y-122555000D03*
X135255000Y-123825000D03*
X135255000Y-125095000D03*
X135255000Y-126365000D03*
X140655000Y-126365000D03*
X140655000Y-125095000D03*
X140655000Y-123825000D03*
X140655000Y-122555000D03*
X140655000Y-121285000D03*
X140655000Y-120015000D03*
X140655000Y-118745000D03*
X140655000Y-117475000D03*
%TD*%
%TO.C,U4MUX3*%
X163830000Y-117475000D03*
X163830000Y-118745000D03*
X163830000Y-120015000D03*
X163830000Y-121285000D03*
X163830000Y-122555000D03*
X163830000Y-123825000D03*
X163830000Y-125095000D03*
X163830000Y-126365000D03*
X169230000Y-126365000D03*
X169230000Y-125095000D03*
X169230000Y-123825000D03*
X169230000Y-122555000D03*
X169230000Y-121285000D03*
X169230000Y-120015000D03*
X169230000Y-118745000D03*
X169230000Y-117475000D03*
%TD*%
%TO.C,U2MUX3*%
X173195000Y-128905000D03*
X173195000Y-130175000D03*
X173195000Y-131445000D03*
X173195000Y-132715000D03*
X173195000Y-133985000D03*
X173195000Y-135255000D03*
X173195000Y-136525000D03*
X173195000Y-137795000D03*
X178595000Y-137795000D03*
X178595000Y-136525000D03*
X178595000Y-135255000D03*
X178595000Y-133985000D03*
X178595000Y-132715000D03*
X178595000Y-131445000D03*
X178595000Y-130175000D03*
X178595000Y-128905000D03*
%TD*%
%TO.C,UADD2*%
X182880000Y-106045000D03*
X182880000Y-107315000D03*
X182880000Y-108585000D03*
X182880000Y-109855000D03*
X182880000Y-111125000D03*
X182880000Y-112395000D03*
X182880000Y-113665000D03*
X182880000Y-114935000D03*
X188280000Y-114935000D03*
X188280000Y-113665000D03*
X188280000Y-112395000D03*
X188280000Y-111125000D03*
X188280000Y-109855000D03*
X188280000Y-108585000D03*
X188280000Y-107315000D03*
X188280000Y-106045000D03*
%TD*%
%TO.C,U2MUX4*%
X182720000Y-128905000D03*
X182720000Y-130175000D03*
X182720000Y-131445000D03*
X182720000Y-132715000D03*
X182720000Y-133985000D03*
X182720000Y-135255000D03*
X182720000Y-136525000D03*
X182720000Y-137795000D03*
X188120000Y-137795000D03*
X188120000Y-136525000D03*
X188120000Y-135255000D03*
X188120000Y-133985000D03*
X188120000Y-132715000D03*
X188120000Y-131445000D03*
X188120000Y-130175000D03*
X188120000Y-128905000D03*
%TD*%
%TO.C,U4MUX1*%
X144780000Y-117475000D03*
X144780000Y-118745000D03*
X144780000Y-120015000D03*
X144780000Y-121285000D03*
X144780000Y-122555000D03*
X144780000Y-123825000D03*
X144780000Y-125095000D03*
X144780000Y-126365000D03*
X150180000Y-126365000D03*
X150180000Y-125095000D03*
X150180000Y-123825000D03*
X150180000Y-122555000D03*
X150180000Y-121285000D03*
X150180000Y-120015000D03*
X150180000Y-118745000D03*
X150180000Y-117475000D03*
%TD*%
%TO.C,U4MUX6*%
X154305000Y-106045000D03*
X154305000Y-107315000D03*
X154305000Y-108585000D03*
X154305000Y-109855000D03*
X154305000Y-111125000D03*
X154305000Y-112395000D03*
X154305000Y-113665000D03*
X154305000Y-114935000D03*
X159705000Y-114935000D03*
X159705000Y-113665000D03*
X159705000Y-112395000D03*
X159705000Y-111125000D03*
X159705000Y-109855000D03*
X159705000Y-108585000D03*
X159705000Y-107315000D03*
X159705000Y-106045000D03*
%TD*%
%TO.C,U4MUX5*%
X144780000Y-106045000D03*
X144780000Y-107315000D03*
X144780000Y-108585000D03*
X144780000Y-109855000D03*
X144780000Y-111125000D03*
X144780000Y-112395000D03*
X144780000Y-113665000D03*
X144780000Y-114935000D03*
X150180000Y-114935000D03*
X150180000Y-113665000D03*
X150180000Y-112395000D03*
X150180000Y-111125000D03*
X150180000Y-109855000D03*
X150180000Y-108585000D03*
X150180000Y-107315000D03*
X150180000Y-106045000D03*
%TD*%
D11*
%TO.C,UREG1*%
X121515000Y-114935000D03*
X121515000Y-116205000D03*
X121515000Y-117475000D03*
X121515000Y-118745000D03*
X121515000Y-120015000D03*
X121515000Y-121285000D03*
X121515000Y-122555000D03*
X121515000Y-123825000D03*
X121515000Y-125095000D03*
X121515000Y-126365000D03*
X131215000Y-126365000D03*
X131215000Y-125095000D03*
X131215000Y-123825000D03*
X131215000Y-122555000D03*
X131215000Y-121285000D03*
X131215000Y-120015000D03*
X131215000Y-118745000D03*
X131215000Y-117475000D03*
X131215000Y-116205000D03*
X131215000Y-114935000D03*
%TD*%
D10*
%TO.C,U4MUX4*%
X173355000Y-117475000D03*
X173355000Y-118745000D03*
X173355000Y-120015000D03*
X173355000Y-121285000D03*
X173355000Y-122555000D03*
X173355000Y-123825000D03*
X173355000Y-125095000D03*
X173355000Y-126365000D03*
X178755000Y-126365000D03*
X178755000Y-125095000D03*
X178755000Y-123825000D03*
X178755000Y-122555000D03*
X178755000Y-121285000D03*
X178755000Y-120015000D03*
X178755000Y-118745000D03*
X178755000Y-117475000D03*
%TD*%
%TO.C,U2MUX2*%
X135255000Y-106045000D03*
X135255000Y-107315000D03*
X135255000Y-108585000D03*
X135255000Y-109855000D03*
X135255000Y-111125000D03*
X135255000Y-112395000D03*
X135255000Y-113665000D03*
X135255000Y-114935000D03*
X140655000Y-114935000D03*
X140655000Y-113665000D03*
X140655000Y-112395000D03*
X140655000Y-111125000D03*
X140655000Y-109855000D03*
X140655000Y-108585000D03*
X140655000Y-107315000D03*
X140655000Y-106045000D03*
%TD*%
%TO.C,U4MUX7*%
X163830000Y-106045000D03*
X163830000Y-107315000D03*
X163830000Y-108585000D03*
X163830000Y-109855000D03*
X163830000Y-111125000D03*
X163830000Y-112395000D03*
X163830000Y-113665000D03*
X163830000Y-114935000D03*
X169230000Y-114935000D03*
X169230000Y-113665000D03*
X169230000Y-112395000D03*
X169230000Y-111125000D03*
X169230000Y-109855000D03*
X169230000Y-108585000D03*
X169230000Y-107315000D03*
X169230000Y-106045000D03*
%TD*%
%TO.C,U4MUX8*%
X173355000Y-106045000D03*
X173355000Y-107315000D03*
X173355000Y-108585000D03*
X173355000Y-109855000D03*
X173355000Y-111125000D03*
X173355000Y-112395000D03*
X173355000Y-113665000D03*
X173355000Y-114935000D03*
X178755000Y-114935000D03*
X178755000Y-113665000D03*
X178755000Y-112395000D03*
X178755000Y-111125000D03*
X178755000Y-109855000D03*
X178755000Y-108585000D03*
X178755000Y-107315000D03*
X178755000Y-106045000D03*
%TD*%
%TO.C,UAND1*%
X123665000Y-129540000D03*
X123665000Y-130810000D03*
X123665000Y-132080000D03*
X123665000Y-133350000D03*
X123665000Y-134620000D03*
X123665000Y-135890000D03*
X123665000Y-137160000D03*
X129065000Y-137160000D03*
X129065000Y-135890000D03*
X129065000Y-134620000D03*
X129065000Y-133350000D03*
X129065000Y-132080000D03*
X129065000Y-130810000D03*
X129065000Y-129540000D03*
%TD*%
%TO.C,UADD1*%
X182880000Y-117475000D03*
X182880000Y-118745000D03*
X182880000Y-120015000D03*
X182880000Y-121285000D03*
X182880000Y-122555000D03*
X182880000Y-123825000D03*
X182880000Y-125095000D03*
X182880000Y-126365000D03*
X188280000Y-126365000D03*
X188280000Y-125095000D03*
X188280000Y-123825000D03*
X188280000Y-122555000D03*
X188280000Y-121285000D03*
X188280000Y-120015000D03*
X188280000Y-118745000D03*
X188280000Y-117475000D03*
%TD*%
%TO.C,U4MUX2*%
X154305000Y-117475000D03*
X154305000Y-118745000D03*
X154305000Y-120015000D03*
X154305000Y-121285000D03*
X154305000Y-122555000D03*
X154305000Y-123825000D03*
X154305000Y-125095000D03*
X154305000Y-126365000D03*
X159705000Y-126365000D03*
X159705000Y-125095000D03*
X159705000Y-123825000D03*
X159705000Y-122555000D03*
X159705000Y-121285000D03*
X159705000Y-120015000D03*
X159705000Y-118745000D03*
X159705000Y-117475000D03*
%TD*%
M02*
