%TF.GenerationSoftware,KiCad,Pcbnew,7.0.0-da2b9df05c~171~ubuntu20.04.1*%
%TF.CreationDate,2023-03-29T16:06:27-07:00*%
%TF.ProjectId,Motherboard,4d6f7468-6572-4626-9f61-72642e6b6963,rev?*%
%TF.SameCoordinates,Original*%
%TF.FileFunction,Soldermask,Bot*%
%TF.FilePolarity,Negative*%
%FSLAX46Y46*%
G04 Gerber Fmt 4.6, Leading zero omitted, Abs format (unit mm)*
G04 Created by KiCad (PCBNEW 7.0.0-da2b9df05c~171~ubuntu20.04.1) date 2023-03-29 16:06:27*
%MOMM*%
%LPD*%
G01*
G04 APERTURE LIST*
G04 Aperture macros list*
%AMRoundRect*
0 Rectangle with rounded corners*
0 $1 Rounding radius*
0 $2 $3 $4 $5 $6 $7 $8 $9 X,Y pos of 4 corners*
0 Add a 4 corners polygon primitive as box body*
4,1,4,$2,$3,$4,$5,$6,$7,$8,$9,$2,$3,0*
0 Add four circle primitives for the rounded corners*
1,1,$1+$1,$2,$3*
1,1,$1+$1,$4,$5*
1,1,$1+$1,$6,$7*
1,1,$1+$1,$8,$9*
0 Add four rect primitives between the rounded corners*
20,1,$1+$1,$2,$3,$4,$5,0*
20,1,$1+$1,$4,$5,$6,$7,0*
20,1,$1+$1,$6,$7,$8,$9,0*
20,1,$1+$1,$8,$9,$2,$3,0*%
G04 Aperture macros list end*
%ADD10R,1.700000X1.700000*%
%ADD11O,1.700000X1.700000*%
%ADD12C,1.600000*%
%ADD13R,1.500000X1.500000*%
%ADD14C,1.500000*%
%ADD15R,1.650000X1.650000*%
%ADD16C,1.650000*%
%ADD17R,3.500000X3.500000*%
%ADD18RoundRect,0.750000X1.000000X-0.750000X1.000000X0.750000X-1.000000X0.750000X-1.000000X-0.750000X0*%
%ADD19RoundRect,0.875000X0.875000X-0.875000X0.875000X0.875000X-0.875000X0.875000X-0.875000X-0.875000X0*%
%ADD20C,2.000000*%
%ADD21RoundRect,0.250000X-0.412500X-0.650000X0.412500X-0.650000X0.412500X0.650000X-0.412500X0.650000X0*%
%ADD22RoundRect,0.237500X-0.250000X-0.237500X0.250000X-0.237500X0.250000X0.237500X-0.250000X0.237500X0*%
%ADD23RoundRect,0.250000X0.412500X0.650000X-0.412500X0.650000X-0.412500X-0.650000X0.412500X-0.650000X0*%
%ADD24R,2.800000X3.150000*%
%ADD25RoundRect,0.250000X0.400000X0.625000X-0.400000X0.625000X-0.400000X-0.625000X0.400000X-0.625000X0*%
%ADD26RoundRect,0.250000X0.650000X-0.412500X0.650000X0.412500X-0.650000X0.412500X-0.650000X-0.412500X0*%
%ADD27R,0.950000X0.420000*%
%ADD28RoundRect,0.250000X-0.650000X0.412500X-0.650000X-0.412500X0.650000X-0.412500X0.650000X0.412500X0*%
G04 APERTURE END LIST*
D10*
%TO.C,JMEM_C2*%
X208279999Y-104139999D03*
D11*
X208279999Y-101599999D03*
X205739999Y-104139999D03*
X205739999Y-101599999D03*
X203199999Y-104139999D03*
X203199999Y-101599999D03*
X200659999Y-104139999D03*
X200659999Y-101599999D03*
X198119999Y-104139999D03*
X198119999Y-101599999D03*
X195579999Y-104139999D03*
X195579999Y-101599999D03*
X193039999Y-104139999D03*
X193039999Y-101599999D03*
X190499999Y-104139999D03*
X190499999Y-101599999D03*
%TD*%
D10*
%TO.C,JMEM_C1*%
X185419999Y-104139999D03*
D11*
X185419999Y-101599999D03*
X182879999Y-104139999D03*
X182879999Y-101599999D03*
X180339999Y-104139999D03*
X180339999Y-101599999D03*
X177799999Y-104139999D03*
X177799999Y-101599999D03*
X175259999Y-104139999D03*
X175259999Y-101599999D03*
X172719999Y-104139999D03*
X172719999Y-101599999D03*
X170179999Y-104139999D03*
X170179999Y-101599999D03*
X167639999Y-104139999D03*
X167639999Y-101599999D03*
%TD*%
D10*
%TO.C,JREGLOW3*%
X134619999Y-93979999D03*
D11*
X134619999Y-91439999D03*
X132079999Y-93979999D03*
X132079999Y-91439999D03*
X129539999Y-93979999D03*
X129539999Y-91439999D03*
X126999999Y-93979999D03*
X126999999Y-91439999D03*
X124459999Y-93979999D03*
X124459999Y-91439999D03*
X121919999Y-93979999D03*
X121919999Y-91439999D03*
X119379999Y-93979999D03*
X119379999Y-91439999D03*
X116839999Y-93979999D03*
X116839999Y-91439999D03*
%TD*%
D10*
%TO.C,JALU2*%
X111759999Y-104139999D03*
D11*
X111759999Y-101599999D03*
X109219999Y-104139999D03*
X109219999Y-101599999D03*
X106679999Y-104139999D03*
X106679999Y-101599999D03*
X104139999Y-104139999D03*
X104139999Y-101599999D03*
X101599999Y-104139999D03*
X101599999Y-101599999D03*
X99059999Y-104139999D03*
X99059999Y-101599999D03*
X96519999Y-104139999D03*
X96519999Y-101599999D03*
X93979999Y-104139999D03*
X93979999Y-101599999D03*
%TD*%
D10*
%TO.C,JMEM_B2*%
X208279999Y-93979999D03*
D11*
X208279999Y-91439999D03*
X205739999Y-93979999D03*
X205739999Y-91439999D03*
X203199999Y-93979999D03*
X203199999Y-91439999D03*
X200659999Y-93979999D03*
X200659999Y-91439999D03*
X198119999Y-93979999D03*
X198119999Y-91439999D03*
X195579999Y-93979999D03*
X195579999Y-91439999D03*
X193039999Y-93979999D03*
X193039999Y-91439999D03*
X190499999Y-93979999D03*
X190499999Y-91439999D03*
%TD*%
D10*
%TO.C,JMEM_D1*%
X185419999Y-114299999D03*
D11*
X185419999Y-111759999D03*
X182879999Y-114299999D03*
X182879999Y-111759999D03*
X180339999Y-114299999D03*
X180339999Y-111759999D03*
X177799999Y-114299999D03*
X177799999Y-111759999D03*
X175259999Y-114299999D03*
X175259999Y-111759999D03*
X172719999Y-114299999D03*
X172719999Y-111759999D03*
X170179999Y-114299999D03*
X170179999Y-111759999D03*
X167639999Y-114299999D03*
X167639999Y-111759999D03*
%TD*%
D10*
%TO.C,JMEM_B1*%
X185419999Y-93979999D03*
D11*
X185419999Y-91439999D03*
X182879999Y-93979999D03*
X182879999Y-91439999D03*
X180339999Y-93979999D03*
X180339999Y-91439999D03*
X177799999Y-93979999D03*
X177799999Y-91439999D03*
X175259999Y-93979999D03*
X175259999Y-91439999D03*
X172719999Y-93979999D03*
X172719999Y-91439999D03*
X170179999Y-93979999D03*
X170179999Y-91439999D03*
X167639999Y-93979999D03*
X167639999Y-91439999D03*
%TD*%
D12*
%TO.C,C4*%
X86320000Y-133350000D03*
X83820000Y-133350000D03*
%TD*%
D13*
%TO.C,TPROM15*%
X187451999Y-125983999D03*
%TD*%
D10*
%TO.C,JREGLOW1*%
X88899999Y-93979999D03*
D11*
X88899999Y-91439999D03*
X86359999Y-93979999D03*
X86359999Y-91439999D03*
X83819999Y-93979999D03*
X83819999Y-91439999D03*
X81279999Y-93979999D03*
X81279999Y-91439999D03*
X78739999Y-93979999D03*
X78739999Y-91439999D03*
X76199999Y-93979999D03*
X76199999Y-91439999D03*
X73659999Y-93979999D03*
X73659999Y-91439999D03*
X71119999Y-93979999D03*
X71119999Y-91439999D03*
%TD*%
D10*
%TO.C,JMEM_A1*%
X185419999Y-83819999D03*
D11*
X185419999Y-81279999D03*
X182879999Y-83819999D03*
X182879999Y-81279999D03*
X180339999Y-83819999D03*
X180339999Y-81279999D03*
X177799999Y-83819999D03*
X177799999Y-81279999D03*
X175259999Y-83819999D03*
X175259999Y-81279999D03*
X172719999Y-83819999D03*
X172719999Y-81279999D03*
X170179999Y-83819999D03*
X170179999Y-81279999D03*
X167639999Y-83819999D03*
X167639999Y-81279999D03*
%TD*%
D10*
%TO.C,JREGHIGH4*%
X157479999Y-83819999D03*
D11*
X157479999Y-81279999D03*
X154939999Y-83819999D03*
X154939999Y-81279999D03*
X152399999Y-83819999D03*
X152399999Y-81279999D03*
X149859999Y-83819999D03*
X149859999Y-81279999D03*
X147319999Y-83819999D03*
X147319999Y-81279999D03*
X144779999Y-83819999D03*
X144779999Y-81279999D03*
X142239999Y-83819999D03*
X142239999Y-81279999D03*
X139699999Y-83819999D03*
X139699999Y-81279999D03*
%TD*%
D14*
%TO.C,Y1*%
X90645000Y-128365000D03*
X85765000Y-128365000D03*
%TD*%
D10*
%TO.C,JALU1*%
X88899999Y-104139999D03*
D11*
X88899999Y-101599999D03*
X86359999Y-104139999D03*
X86359999Y-101599999D03*
X83819999Y-104139999D03*
X83819999Y-101599999D03*
X81279999Y-104139999D03*
X81279999Y-101599999D03*
X78739999Y-104139999D03*
X78739999Y-101599999D03*
X76199999Y-104139999D03*
X76199999Y-101599999D03*
X73659999Y-104139999D03*
X73659999Y-101599999D03*
X71119999Y-104139999D03*
X71119999Y-101599999D03*
%TD*%
D10*
%TO.C,JP1*%
X84454999Y-121538999D03*
D11*
X84454999Y-118998999D03*
%TD*%
D15*
%TO.C,U2*%
X194309999Y-126079999D03*
D16*
X191770000Y-128620000D03*
X194310000Y-128620000D03*
X191770000Y-131160000D03*
X194310000Y-133700000D03*
X194310000Y-131160000D03*
X196850000Y-133700000D03*
X196850000Y-131160000D03*
X199390000Y-133700000D03*
X199390000Y-131160000D03*
X201930000Y-133700000D03*
X201930000Y-131160000D03*
X204470000Y-133700000D03*
X207010000Y-131160000D03*
X204470000Y-131160000D03*
X207010000Y-128620000D03*
X204470000Y-128620000D03*
X207010000Y-126080000D03*
X204470000Y-126080000D03*
X207010000Y-123540000D03*
X204470000Y-121000000D03*
X204470000Y-123540000D03*
X201930000Y-121000000D03*
X201930000Y-123540000D03*
X199390000Y-121000000D03*
X199390000Y-123540000D03*
X196850000Y-121000000D03*
X196850000Y-123540000D03*
X194310000Y-121000000D03*
X191770000Y-123540000D03*
X194310000Y-123540000D03*
X191770000Y-126080000D03*
%TD*%
D17*
%TO.C,J1*%
X73599999Y-126599999D03*
D18*
X73600000Y-132600000D03*
D19*
X78300000Y-129600000D03*
%TD*%
D10*
%TO.C,JMEM_A2*%
X208279999Y-83819999D03*
D11*
X208279999Y-81279999D03*
X205739999Y-83819999D03*
X205739999Y-81279999D03*
X203199999Y-83819999D03*
X203199999Y-81279999D03*
X200659999Y-83819999D03*
X200659999Y-81279999D03*
X198119999Y-83819999D03*
X198119999Y-81279999D03*
X195579999Y-83819999D03*
X195579999Y-81279999D03*
X193039999Y-83819999D03*
X193039999Y-81279999D03*
X190499999Y-83819999D03*
X190499999Y-81279999D03*
%TD*%
D10*
%TO.C,JREGHIGH1*%
X88899999Y-83819999D03*
D11*
X88899999Y-81279999D03*
X86359999Y-83819999D03*
X86359999Y-81279999D03*
X83819999Y-83819999D03*
X83819999Y-81279999D03*
X81279999Y-83819999D03*
X81279999Y-81279999D03*
X78739999Y-83819999D03*
X78739999Y-81279999D03*
X76199999Y-83819999D03*
X76199999Y-81279999D03*
X73659999Y-83819999D03*
X73659999Y-81279999D03*
X71119999Y-83819999D03*
X71119999Y-81279999D03*
%TD*%
D10*
%TO.C,JREGLOW4*%
X157479999Y-93979999D03*
D11*
X157479999Y-91439999D03*
X154939999Y-93979999D03*
X154939999Y-91439999D03*
X152399999Y-93979999D03*
X152399999Y-91439999D03*
X149859999Y-93979999D03*
X149859999Y-91439999D03*
X147319999Y-93979999D03*
X147319999Y-91439999D03*
X144779999Y-93979999D03*
X144779999Y-91439999D03*
X142239999Y-93979999D03*
X142239999Y-91439999D03*
X139699999Y-93979999D03*
X139699999Y-91439999D03*
%TD*%
D10*
%TO.C,JREGHIGH3*%
X134619999Y-83819999D03*
D11*
X134619999Y-81279999D03*
X132079999Y-83819999D03*
X132079999Y-81279999D03*
X129539999Y-83819999D03*
X129539999Y-81279999D03*
X126999999Y-83819999D03*
X126999999Y-81279999D03*
X124459999Y-83819999D03*
X124459999Y-81279999D03*
X121919999Y-83819999D03*
X121919999Y-81279999D03*
X119379999Y-83819999D03*
X119379999Y-81279999D03*
X116839999Y-83819999D03*
X116839999Y-81279999D03*
%TD*%
D10*
%TO.C,JMEM_D2*%
X208279999Y-114299999D03*
D11*
X208279999Y-111759999D03*
X205739999Y-114299999D03*
X205739999Y-111759999D03*
X203199999Y-114299999D03*
X203199999Y-111759999D03*
X200659999Y-114299999D03*
X200659999Y-111759999D03*
X198119999Y-114299999D03*
X198119999Y-111759999D03*
X195579999Y-114299999D03*
X195579999Y-111759999D03*
X193039999Y-114299999D03*
X193039999Y-111759999D03*
X190499999Y-114299999D03*
X190499999Y-111759999D03*
%TD*%
D10*
%TO.C,JREGHIGH2*%
X111759999Y-83819999D03*
D11*
X111759999Y-81279999D03*
X109219999Y-83819999D03*
X109219999Y-81279999D03*
X106679999Y-83819999D03*
X106679999Y-81279999D03*
X104139999Y-83819999D03*
X104139999Y-81279999D03*
X101599999Y-83819999D03*
X101599999Y-81279999D03*
X99059999Y-83819999D03*
X99059999Y-81279999D03*
X96519999Y-83819999D03*
X96519999Y-81279999D03*
X93979999Y-83819999D03*
X93979999Y-81279999D03*
%TD*%
D20*
%TO.C,SW1*%
X71120000Y-108585000D03*
X77620000Y-108585000D03*
X71120000Y-113085000D03*
X77620000Y-113085000D03*
%TD*%
D12*
%TO.C,C8*%
X90170000Y-133350000D03*
X92670000Y-133350000D03*
%TD*%
D10*
%TO.C,JDBG1*%
X106679999Y-111759999D03*
D11*
X106679999Y-114299999D03*
X104139999Y-111759999D03*
X104139999Y-114299999D03*
X101599999Y-111759999D03*
X101599999Y-114299999D03*
X99059999Y-111759999D03*
X99059999Y-114299999D03*
X96519999Y-111759999D03*
X96519999Y-114299999D03*
X93979999Y-111759999D03*
X93979999Y-114299999D03*
X91439999Y-111759999D03*
X91439999Y-114299999D03*
X88899999Y-111759999D03*
X88899999Y-114299999D03*
X86359999Y-111759999D03*
X86359999Y-114299999D03*
X83819999Y-111759999D03*
X83819999Y-114299999D03*
X81279999Y-111759999D03*
X81279999Y-114299999D03*
%TD*%
D10*
%TO.C,JALU3*%
X134619999Y-104139999D03*
D11*
X134619999Y-101599999D03*
X132079999Y-104139999D03*
X132079999Y-101599999D03*
X129539999Y-104139999D03*
X129539999Y-101599999D03*
X126999999Y-104139999D03*
X126999999Y-101599999D03*
X124459999Y-104139999D03*
X124459999Y-101599999D03*
X121919999Y-104139999D03*
X121919999Y-101599999D03*
X119379999Y-104139999D03*
X119379999Y-101599999D03*
X116839999Y-104139999D03*
X116839999Y-101599999D03*
%TD*%
D21*
%TO.C,C17*%
X176784000Y-128524000D03*
X179909000Y-128524000D03*
%TD*%
%TO.C,C18*%
X148590000Y-121285000D03*
X151715000Y-121285000D03*
%TD*%
%TO.C,C22*%
X189026800Y-119913400D03*
X192151800Y-119913400D03*
%TD*%
%TO.C,C10*%
X139446000Y-110490000D03*
X142571000Y-110490000D03*
%TD*%
%TO.C,C24*%
X104394000Y-90330000D03*
X107519000Y-90330000D03*
%TD*%
%TO.C,C35*%
X86219900Y-86588600D03*
X89344900Y-86588600D03*
%TD*%
%TO.C,C14*%
X133350000Y-121285000D03*
X136475000Y-121285000D03*
%TD*%
%TO.C,C12*%
X97409000Y-119380000D03*
X100534000Y-119380000D03*
%TD*%
%TO.C,C21*%
X89521900Y-119329200D03*
X92646900Y-119329200D03*
%TD*%
%TO.C,C34*%
X86169100Y-96596200D03*
X89294100Y-96596200D03*
%TD*%
D22*
%TO.C,R1*%
X85004250Y-126034800D03*
X86829250Y-126034800D03*
%TD*%
D23*
%TO.C,C30*%
X208865000Y-117475000D03*
X205740000Y-117475000D03*
%TD*%
%TO.C,C32*%
X208865000Y-86995000D03*
X205740000Y-86995000D03*
%TD*%
D21*
%TO.C,C5*%
X97409000Y-128270000D03*
X100534000Y-128270000D03*
%TD*%
D24*
%TO.C,F2*%
X76859999Y-121774999D03*
X71059999Y-121774999D03*
%TD*%
D21*
%TO.C,C2*%
X120269000Y-128204000D03*
X123394000Y-128204000D03*
%TD*%
%TO.C,C11*%
X153416000Y-100076000D03*
X156541000Y-100076000D03*
%TD*%
D25*
%TO.C,R2*%
X92191150Y-126034800D03*
X89091150Y-126034800D03*
%TD*%
D21*
%TO.C,C19*%
X176784000Y-119888000D03*
X179909000Y-119888000D03*
%TD*%
%TO.C,C3*%
X108635000Y-119380000D03*
X111760000Y-119380000D03*
%TD*%
%TO.C,C25*%
X113284000Y-110490000D03*
X116409000Y-110490000D03*
%TD*%
%TO.C,C15*%
X139446000Y-100330000D03*
X142571000Y-100330000D03*
%TD*%
D23*
%TO.C,C33*%
X101638500Y-106807000D03*
X98513500Y-106807000D03*
%TD*%
%TO.C,C31*%
X208865000Y-97155000D03*
X205740000Y-97155000D03*
%TD*%
%TO.C,C29*%
X208865000Y-107315000D03*
X205740000Y-107315000D03*
%TD*%
D26*
%TO.C,C27*%
X109448600Y-114567100D03*
X109448600Y-111442100D03*
%TD*%
D21*
%TO.C,C9*%
X153416000Y-110490000D03*
X156541000Y-110490000D03*
%TD*%
D27*
%TO.C,D2*%
X78324999Y-118599999D03*
X80474999Y-118599999D03*
%TD*%
D28*
%TO.C,C6*%
X80645000Y-122555000D03*
X80645000Y-125680000D03*
%TD*%
D21*
%TO.C,C13*%
X120650000Y-119540000D03*
X123775000Y-119540000D03*
%TD*%
%TO.C,C1*%
X108839000Y-128270000D03*
X111964000Y-128270000D03*
%TD*%
%TO.C,C16*%
X164084000Y-119634000D03*
X167209000Y-119634000D03*
%TD*%
%TO.C,C20*%
X73188000Y-117134000D03*
X76313000Y-117134000D03*
%TD*%
%TO.C,C23*%
X127254000Y-110490000D03*
X130379000Y-110490000D03*
%TD*%
%TO.C,C7*%
X164084000Y-128778000D03*
X167209000Y-128778000D03*
%TD*%
M02*
