%TF.GenerationSoftware,KiCad,Pcbnew,7.0.0-da2b9df05c~171~ubuntu20.04.1*%
%TF.CreationDate,2023-03-29T16:56:17-07:00*%
%TF.ProjectId,Motherboard,4d6f7468-6572-4626-9f61-72642e6b6963,rev?*%
%TF.SameCoordinates,Original*%
%TF.FileFunction,Legend,Top*%
%TF.FilePolarity,Positive*%
%FSLAX46Y46*%
G04 Gerber Fmt 4.6, Leading zero omitted, Abs format (unit mm)*
G04 Created by KiCad (PCBNEW 7.0.0-da2b9df05c~171~ubuntu20.04.1) date 2023-03-29 16:56:17*
%MOMM*%
%LPD*%
G01*
G04 APERTURE LIST*
%ADD10C,0.250000*%
%ADD11C,0.300000*%
%ADD12C,0.150000*%
%ADD13C,0.120000*%
%ADD14C,0.127000*%
%ADD15C,0.200000*%
G04 APERTURE END LIST*
D10*
X132999237Y-135354761D02*
X132332570Y-134402380D01*
X131856380Y-135354761D02*
X131856380Y-133354761D01*
X131856380Y-133354761D02*
X132618285Y-133354761D01*
X132618285Y-133354761D02*
X132808761Y-133450000D01*
X132808761Y-133450000D02*
X132903999Y-133545238D01*
X132903999Y-133545238D02*
X132999237Y-133735714D01*
X132999237Y-133735714D02*
X132999237Y-134021428D01*
X132999237Y-134021428D02*
X132903999Y-134211904D01*
X132903999Y-134211904D02*
X132808761Y-134307142D01*
X132808761Y-134307142D02*
X132618285Y-134402380D01*
X132618285Y-134402380D02*
X131856380Y-134402380D01*
X134999237Y-135354761D02*
X134332570Y-134402380D01*
X133856380Y-135354761D02*
X133856380Y-133354761D01*
X133856380Y-133354761D02*
X134618285Y-133354761D01*
X134618285Y-133354761D02*
X134808761Y-133450000D01*
X134808761Y-133450000D02*
X134903999Y-133545238D01*
X134903999Y-133545238D02*
X134999237Y-133735714D01*
X134999237Y-133735714D02*
X134999237Y-134021428D01*
X134999237Y-134021428D02*
X134903999Y-134211904D01*
X134903999Y-134211904D02*
X134808761Y-134307142D01*
X134808761Y-134307142D02*
X134618285Y-134402380D01*
X134618285Y-134402380D02*
X133856380Y-134402380D01*
X135856380Y-135354761D02*
X135856380Y-133354761D01*
X136713523Y-135259523D02*
X136999237Y-135354761D01*
X136999237Y-135354761D02*
X137475428Y-135354761D01*
X137475428Y-135354761D02*
X137665904Y-135259523D01*
X137665904Y-135259523D02*
X137761142Y-135164285D01*
X137761142Y-135164285D02*
X137856380Y-134973809D01*
X137856380Y-134973809D02*
X137856380Y-134783333D01*
X137856380Y-134783333D02*
X137761142Y-134592857D01*
X137761142Y-134592857D02*
X137665904Y-134497619D01*
X137665904Y-134497619D02*
X137475428Y-134402380D01*
X137475428Y-134402380D02*
X137094475Y-134307142D01*
X137094475Y-134307142D02*
X136903999Y-134211904D01*
X136903999Y-134211904D02*
X136808761Y-134116666D01*
X136808761Y-134116666D02*
X136713523Y-133926190D01*
X136713523Y-133926190D02*
X136713523Y-133735714D01*
X136713523Y-133735714D02*
X136808761Y-133545238D01*
X136808761Y-133545238D02*
X136903999Y-133450000D01*
X136903999Y-133450000D02*
X137094475Y-133354761D01*
X137094475Y-133354761D02*
X137570666Y-133354761D01*
X137570666Y-133354761D02*
X137856380Y-133450000D01*
X139856380Y-135164285D02*
X139761142Y-135259523D01*
X139761142Y-135259523D02*
X139475428Y-135354761D01*
X139475428Y-135354761D02*
X139284952Y-135354761D01*
X139284952Y-135354761D02*
X138999237Y-135259523D01*
X138999237Y-135259523D02*
X138808761Y-135069047D01*
X138808761Y-135069047D02*
X138713523Y-134878571D01*
X138713523Y-134878571D02*
X138618285Y-134497619D01*
X138618285Y-134497619D02*
X138618285Y-134211904D01*
X138618285Y-134211904D02*
X138713523Y-133830952D01*
X138713523Y-133830952D02*
X138808761Y-133640476D01*
X138808761Y-133640476D02*
X138999237Y-133450000D01*
X138999237Y-133450000D02*
X139284952Y-133354761D01*
X139284952Y-133354761D02*
X139475428Y-133354761D01*
X139475428Y-133354761D02*
X139761142Y-133450000D01*
X139761142Y-133450000D02*
X139856380Y-133545238D01*
X141627809Y-133354761D02*
X142294475Y-135354761D01*
X142294475Y-135354761D02*
X142961142Y-133354761D01*
X144675428Y-135354761D02*
X143532571Y-135354761D01*
X144103999Y-135354761D02*
X144103999Y-133354761D01*
X144103999Y-133354761D02*
X143913523Y-133640476D01*
X143913523Y-133640476D02*
X143723047Y-133830952D01*
X143723047Y-133830952D02*
X143532571Y-133926190D01*
X146732571Y-135354761D02*
X146732571Y-133354761D01*
X146732571Y-134116666D02*
X146923047Y-134021428D01*
X146923047Y-134021428D02*
X147304000Y-134021428D01*
X147304000Y-134021428D02*
X147494476Y-134116666D01*
X147494476Y-134116666D02*
X147589714Y-134211904D01*
X147589714Y-134211904D02*
X147684952Y-134402380D01*
X147684952Y-134402380D02*
X147684952Y-134973809D01*
X147684952Y-134973809D02*
X147589714Y-135164285D01*
X147589714Y-135164285D02*
X147494476Y-135259523D01*
X147494476Y-135259523D02*
X147304000Y-135354761D01*
X147304000Y-135354761D02*
X146923047Y-135354761D01*
X146923047Y-135354761D02*
X146732571Y-135259523D01*
X148351619Y-134021428D02*
X148827809Y-135354761D01*
X149304000Y-134021428D02*
X148827809Y-135354761D01*
X148827809Y-135354761D02*
X148637333Y-135830952D01*
X148637333Y-135830952D02*
X148542095Y-135926190D01*
X148542095Y-135926190D02*
X148351619Y-136021428D01*
X151075429Y-133354761D02*
X152408762Y-133354761D01*
X152408762Y-133354761D02*
X151075429Y-135354761D01*
X151075429Y-135354761D02*
X152408762Y-135354761D01*
X154027810Y-135354761D02*
X154027810Y-134307142D01*
X154027810Y-134307142D02*
X153932572Y-134116666D01*
X153932572Y-134116666D02*
X153742096Y-134021428D01*
X153742096Y-134021428D02*
X153361143Y-134021428D01*
X153361143Y-134021428D02*
X153170667Y-134116666D01*
X154027810Y-135259523D02*
X153837334Y-135354761D01*
X153837334Y-135354761D02*
X153361143Y-135354761D01*
X153361143Y-135354761D02*
X153170667Y-135259523D01*
X153170667Y-135259523D02*
X153075429Y-135069047D01*
X153075429Y-135069047D02*
X153075429Y-134878571D01*
X153075429Y-134878571D02*
X153170667Y-134688095D01*
X153170667Y-134688095D02*
X153361143Y-134592857D01*
X153361143Y-134592857D02*
X153837334Y-134592857D01*
X153837334Y-134592857D02*
X154027810Y-134497619D01*
X154980191Y-134021428D02*
X154980191Y-135354761D01*
X154980191Y-134211904D02*
X155075429Y-134116666D01*
X155075429Y-134116666D02*
X155265905Y-134021428D01*
X155265905Y-134021428D02*
X155551620Y-134021428D01*
X155551620Y-134021428D02*
X155742096Y-134116666D01*
X155742096Y-134116666D02*
X155837334Y-134307142D01*
X155837334Y-134307142D02*
X155837334Y-135354761D01*
X157551620Y-135259523D02*
X157361144Y-135354761D01*
X157361144Y-135354761D02*
X156980191Y-135354761D01*
X156980191Y-135354761D02*
X156789715Y-135259523D01*
X156789715Y-135259523D02*
X156694477Y-135069047D01*
X156694477Y-135069047D02*
X156694477Y-134307142D01*
X156694477Y-134307142D02*
X156789715Y-134116666D01*
X156789715Y-134116666D02*
X156980191Y-134021428D01*
X156980191Y-134021428D02*
X157361144Y-134021428D01*
X157361144Y-134021428D02*
X157551620Y-134116666D01*
X157551620Y-134116666D02*
X157646858Y-134307142D01*
X157646858Y-134307142D02*
X157646858Y-134497619D01*
X157646858Y-134497619D02*
X156694477Y-134688095D01*
X160846858Y-135164285D02*
X160751620Y-135259523D01*
X160751620Y-135259523D02*
X160465906Y-135354761D01*
X160465906Y-135354761D02*
X160275430Y-135354761D01*
X160275430Y-135354761D02*
X159989715Y-135259523D01*
X159989715Y-135259523D02*
X159799239Y-135069047D01*
X159799239Y-135069047D02*
X159704001Y-134878571D01*
X159704001Y-134878571D02*
X159608763Y-134497619D01*
X159608763Y-134497619D02*
X159608763Y-134211904D01*
X159608763Y-134211904D02*
X159704001Y-133830952D01*
X159704001Y-133830952D02*
X159799239Y-133640476D01*
X159799239Y-133640476D02*
X159989715Y-133450000D01*
X159989715Y-133450000D02*
X160275430Y-133354761D01*
X160275430Y-133354761D02*
X160465906Y-133354761D01*
X160465906Y-133354761D02*
X160751620Y-133450000D01*
X160751620Y-133450000D02*
X160846858Y-133545238D01*
D11*
X79724286Y-133671071D02*
X79010000Y-133671071D01*
X79010000Y-133671071D02*
X78938572Y-134385357D01*
X78938572Y-134385357D02*
X79010000Y-134313928D01*
X79010000Y-134313928D02*
X79152858Y-134242500D01*
X79152858Y-134242500D02*
X79510000Y-134242500D01*
X79510000Y-134242500D02*
X79652858Y-134313928D01*
X79652858Y-134313928D02*
X79724286Y-134385357D01*
X79724286Y-134385357D02*
X79795715Y-134528214D01*
X79795715Y-134528214D02*
X79795715Y-134885357D01*
X79795715Y-134885357D02*
X79724286Y-135028214D01*
X79724286Y-135028214D02*
X79652858Y-135099642D01*
X79652858Y-135099642D02*
X79510000Y-135171071D01*
X79510000Y-135171071D02*
X79152858Y-135171071D01*
X79152858Y-135171071D02*
X79010000Y-135099642D01*
X79010000Y-135099642D02*
X78938572Y-135028214D01*
X80224286Y-133671071D02*
X80724286Y-135171071D01*
X80724286Y-135171071D02*
X81224286Y-133671071D01*
D12*
%TO.C,UREG1*%
X136469714Y-124462380D02*
X136469714Y-125271904D01*
X136469714Y-125271904D02*
X136517333Y-125367142D01*
X136517333Y-125367142D02*
X136564952Y-125414761D01*
X136564952Y-125414761D02*
X136660190Y-125462380D01*
X136660190Y-125462380D02*
X136850666Y-125462380D01*
X136850666Y-125462380D02*
X136945904Y-125414761D01*
X136945904Y-125414761D02*
X136993523Y-125367142D01*
X136993523Y-125367142D02*
X137041142Y-125271904D01*
X137041142Y-125271904D02*
X137041142Y-124462380D01*
X138088761Y-125462380D02*
X137755428Y-124986190D01*
X137517333Y-125462380D02*
X137517333Y-124462380D01*
X137517333Y-124462380D02*
X137898285Y-124462380D01*
X137898285Y-124462380D02*
X137993523Y-124510000D01*
X137993523Y-124510000D02*
X138041142Y-124557619D01*
X138041142Y-124557619D02*
X138088761Y-124652857D01*
X138088761Y-124652857D02*
X138088761Y-124795714D01*
X138088761Y-124795714D02*
X138041142Y-124890952D01*
X138041142Y-124890952D02*
X137993523Y-124938571D01*
X137993523Y-124938571D02*
X137898285Y-124986190D01*
X137898285Y-124986190D02*
X137517333Y-124986190D01*
X138517333Y-124938571D02*
X138850666Y-124938571D01*
X138993523Y-125462380D02*
X138517333Y-125462380D01*
X138517333Y-125462380D02*
X138517333Y-124462380D01*
X138517333Y-124462380D02*
X138993523Y-124462380D01*
X139945904Y-124510000D02*
X139850666Y-124462380D01*
X139850666Y-124462380D02*
X139707809Y-124462380D01*
X139707809Y-124462380D02*
X139564952Y-124510000D01*
X139564952Y-124510000D02*
X139469714Y-124605238D01*
X139469714Y-124605238D02*
X139422095Y-124700476D01*
X139422095Y-124700476D02*
X139374476Y-124890952D01*
X139374476Y-124890952D02*
X139374476Y-125033809D01*
X139374476Y-125033809D02*
X139422095Y-125224285D01*
X139422095Y-125224285D02*
X139469714Y-125319523D01*
X139469714Y-125319523D02*
X139564952Y-125414761D01*
X139564952Y-125414761D02*
X139707809Y-125462380D01*
X139707809Y-125462380D02*
X139803047Y-125462380D01*
X139803047Y-125462380D02*
X139945904Y-125414761D01*
X139945904Y-125414761D02*
X139993523Y-125367142D01*
X139993523Y-125367142D02*
X139993523Y-125033809D01*
X139993523Y-125033809D02*
X139803047Y-125033809D01*
X140945904Y-125462380D02*
X140374476Y-125462380D01*
X140660190Y-125462380D02*
X140660190Y-124462380D01*
X140660190Y-124462380D02*
X140564952Y-124605238D01*
X140564952Y-124605238D02*
X140469714Y-124700476D01*
X140469714Y-124700476D02*
X140374476Y-124748095D01*
X136041143Y-125732380D02*
X136707809Y-125732380D01*
X136707809Y-125732380D02*
X136279238Y-126732380D01*
X137517333Y-126065714D02*
X137517333Y-126732380D01*
X137279238Y-125684761D02*
X137041143Y-126399047D01*
X137041143Y-126399047D02*
X137660190Y-126399047D01*
X137945905Y-126732380D02*
X138469714Y-126065714D01*
X137945905Y-126065714D02*
X138469714Y-126732380D01*
X138755429Y-125732380D02*
X139374476Y-125732380D01*
X139374476Y-125732380D02*
X139041143Y-126113333D01*
X139041143Y-126113333D02*
X139184000Y-126113333D01*
X139184000Y-126113333D02*
X139279238Y-126160952D01*
X139279238Y-126160952D02*
X139326857Y-126208571D01*
X139326857Y-126208571D02*
X139374476Y-126303809D01*
X139374476Y-126303809D02*
X139374476Y-126541904D01*
X139374476Y-126541904D02*
X139326857Y-126637142D01*
X139326857Y-126637142D02*
X139279238Y-126684761D01*
X139279238Y-126684761D02*
X139184000Y-126732380D01*
X139184000Y-126732380D02*
X138898286Y-126732380D01*
X138898286Y-126732380D02*
X138803048Y-126684761D01*
X138803048Y-126684761D02*
X138755429Y-126637142D01*
X139707810Y-125732380D02*
X140374476Y-125732380D01*
X140374476Y-125732380D02*
X139945905Y-126732380D01*
X140660191Y-125732380D02*
X141326857Y-125732380D01*
X141326857Y-125732380D02*
X140898286Y-126732380D01*
%TO.C,U1*%
X90358095Y-116588380D02*
X90358095Y-117397904D01*
X90358095Y-117397904D02*
X90405714Y-117493142D01*
X90405714Y-117493142D02*
X90453333Y-117540761D01*
X90453333Y-117540761D02*
X90548571Y-117588380D01*
X90548571Y-117588380D02*
X90739047Y-117588380D01*
X90739047Y-117588380D02*
X90834285Y-117540761D01*
X90834285Y-117540761D02*
X90881904Y-117493142D01*
X90881904Y-117493142D02*
X90929523Y-117397904D01*
X90929523Y-117397904D02*
X90929523Y-116588380D01*
X91929523Y-117588380D02*
X91358095Y-117588380D01*
X91643809Y-117588380D02*
X91643809Y-116588380D01*
X91643809Y-116588380D02*
X91548571Y-116731238D01*
X91548571Y-116731238D02*
X91453333Y-116826476D01*
X91453333Y-116826476D02*
X91358095Y-116874095D01*
X88310476Y-123867380D02*
X88310476Y-122867380D01*
X88786666Y-123867380D02*
X88786666Y-122867380D01*
X88786666Y-122867380D02*
X89358094Y-123867380D01*
X89358094Y-123867380D02*
X89358094Y-122867380D01*
X89691428Y-122867380D02*
X90024761Y-123867380D01*
X90024761Y-123867380D02*
X90358094Y-122867380D01*
X90453333Y-123962619D02*
X91215237Y-123962619D01*
X91453333Y-122867380D02*
X91453333Y-123676904D01*
X91453333Y-123676904D02*
X91500952Y-123772142D01*
X91500952Y-123772142D02*
X91548571Y-123819761D01*
X91548571Y-123819761D02*
X91643809Y-123867380D01*
X91643809Y-123867380D02*
X91834285Y-123867380D01*
X91834285Y-123867380D02*
X91929523Y-123819761D01*
X91929523Y-123819761D02*
X91977142Y-123772142D01*
X91977142Y-123772142D02*
X92024761Y-123676904D01*
X92024761Y-123676904D02*
X92024761Y-122867380D01*
X92691428Y-122867380D02*
X92786666Y-122867380D01*
X92786666Y-122867380D02*
X92881904Y-122915000D01*
X92881904Y-122915000D02*
X92929523Y-122962619D01*
X92929523Y-122962619D02*
X92977142Y-123057857D01*
X92977142Y-123057857D02*
X93024761Y-123248333D01*
X93024761Y-123248333D02*
X93024761Y-123486428D01*
X93024761Y-123486428D02*
X92977142Y-123676904D01*
X92977142Y-123676904D02*
X92929523Y-123772142D01*
X92929523Y-123772142D02*
X92881904Y-123819761D01*
X92881904Y-123819761D02*
X92786666Y-123867380D01*
X92786666Y-123867380D02*
X92691428Y-123867380D01*
X92691428Y-123867380D02*
X92596190Y-123819761D01*
X92596190Y-123819761D02*
X92548571Y-123772142D01*
X92548571Y-123772142D02*
X92500952Y-123676904D01*
X92500952Y-123676904D02*
X92453333Y-123486428D01*
X92453333Y-123486428D02*
X92453333Y-123248333D01*
X92453333Y-123248333D02*
X92500952Y-123057857D01*
X92500952Y-123057857D02*
X92548571Y-122962619D01*
X92548571Y-122962619D02*
X92596190Y-122915000D01*
X92596190Y-122915000D02*
X92691428Y-122867380D01*
X93881904Y-123200714D02*
X93881904Y-123867380D01*
X93643809Y-122819761D02*
X93405714Y-123534047D01*
X93405714Y-123534047D02*
X94024761Y-123534047D01*
%TO.C,JMEM_C2*%
X202930476Y-106047380D02*
X202930476Y-106761666D01*
X202930476Y-106761666D02*
X202882857Y-106904523D01*
X202882857Y-106904523D02*
X202787619Y-106999761D01*
X202787619Y-106999761D02*
X202644762Y-107047380D01*
X202644762Y-107047380D02*
X202549524Y-107047380D01*
X203406667Y-107047380D02*
X203406667Y-106047380D01*
X203406667Y-106047380D02*
X203740000Y-106761666D01*
X203740000Y-106761666D02*
X204073333Y-106047380D01*
X204073333Y-106047380D02*
X204073333Y-107047380D01*
X204549524Y-106523571D02*
X204882857Y-106523571D01*
X205025714Y-107047380D02*
X204549524Y-107047380D01*
X204549524Y-107047380D02*
X204549524Y-106047380D01*
X204549524Y-106047380D02*
X205025714Y-106047380D01*
X205454286Y-107047380D02*
X205454286Y-106047380D01*
X205454286Y-106047380D02*
X205787619Y-106761666D01*
X205787619Y-106761666D02*
X206120952Y-106047380D01*
X206120952Y-106047380D02*
X206120952Y-107047380D01*
X206359048Y-107142619D02*
X207120952Y-107142619D01*
X207930476Y-106952142D02*
X207882857Y-106999761D01*
X207882857Y-106999761D02*
X207740000Y-107047380D01*
X207740000Y-107047380D02*
X207644762Y-107047380D01*
X207644762Y-107047380D02*
X207501905Y-106999761D01*
X207501905Y-106999761D02*
X207406667Y-106904523D01*
X207406667Y-106904523D02*
X207359048Y-106809285D01*
X207359048Y-106809285D02*
X207311429Y-106618809D01*
X207311429Y-106618809D02*
X207311429Y-106475952D01*
X207311429Y-106475952D02*
X207359048Y-106285476D01*
X207359048Y-106285476D02*
X207406667Y-106190238D01*
X207406667Y-106190238D02*
X207501905Y-106095000D01*
X207501905Y-106095000D02*
X207644762Y-106047380D01*
X207644762Y-106047380D02*
X207740000Y-106047380D01*
X207740000Y-106047380D02*
X207882857Y-106095000D01*
X207882857Y-106095000D02*
X207930476Y-106142619D01*
X208311429Y-106142619D02*
X208359048Y-106095000D01*
X208359048Y-106095000D02*
X208454286Y-106047380D01*
X208454286Y-106047380D02*
X208692381Y-106047380D01*
X208692381Y-106047380D02*
X208787619Y-106095000D01*
X208787619Y-106095000D02*
X208835238Y-106142619D01*
X208835238Y-106142619D02*
X208882857Y-106237857D01*
X208882857Y-106237857D02*
X208882857Y-106333095D01*
X208882857Y-106333095D02*
X208835238Y-106475952D01*
X208835238Y-106475952D02*
X208263810Y-107047380D01*
X208263810Y-107047380D02*
X208882857Y-107047380D01*
%TO.C,JMEM_C1*%
X180070476Y-106047380D02*
X180070476Y-106761666D01*
X180070476Y-106761666D02*
X180022857Y-106904523D01*
X180022857Y-106904523D02*
X179927619Y-106999761D01*
X179927619Y-106999761D02*
X179784762Y-107047380D01*
X179784762Y-107047380D02*
X179689524Y-107047380D01*
X180546667Y-107047380D02*
X180546667Y-106047380D01*
X180546667Y-106047380D02*
X180880000Y-106761666D01*
X180880000Y-106761666D02*
X181213333Y-106047380D01*
X181213333Y-106047380D02*
X181213333Y-107047380D01*
X181689524Y-106523571D02*
X182022857Y-106523571D01*
X182165714Y-107047380D02*
X181689524Y-107047380D01*
X181689524Y-107047380D02*
X181689524Y-106047380D01*
X181689524Y-106047380D02*
X182165714Y-106047380D01*
X182594286Y-107047380D02*
X182594286Y-106047380D01*
X182594286Y-106047380D02*
X182927619Y-106761666D01*
X182927619Y-106761666D02*
X183260952Y-106047380D01*
X183260952Y-106047380D02*
X183260952Y-107047380D01*
X183499048Y-107142619D02*
X184260952Y-107142619D01*
X185070476Y-106952142D02*
X185022857Y-106999761D01*
X185022857Y-106999761D02*
X184880000Y-107047380D01*
X184880000Y-107047380D02*
X184784762Y-107047380D01*
X184784762Y-107047380D02*
X184641905Y-106999761D01*
X184641905Y-106999761D02*
X184546667Y-106904523D01*
X184546667Y-106904523D02*
X184499048Y-106809285D01*
X184499048Y-106809285D02*
X184451429Y-106618809D01*
X184451429Y-106618809D02*
X184451429Y-106475952D01*
X184451429Y-106475952D02*
X184499048Y-106285476D01*
X184499048Y-106285476D02*
X184546667Y-106190238D01*
X184546667Y-106190238D02*
X184641905Y-106095000D01*
X184641905Y-106095000D02*
X184784762Y-106047380D01*
X184784762Y-106047380D02*
X184880000Y-106047380D01*
X184880000Y-106047380D02*
X185022857Y-106095000D01*
X185022857Y-106095000D02*
X185070476Y-106142619D01*
X186022857Y-107047380D02*
X185451429Y-107047380D01*
X185737143Y-107047380D02*
X185737143Y-106047380D01*
X185737143Y-106047380D02*
X185641905Y-106190238D01*
X185641905Y-106190238D02*
X185546667Y-106285476D01*
X185546667Y-106285476D02*
X185451429Y-106333095D01*
%TO.C,JREGLOW3*%
X128794285Y-95887380D02*
X128794285Y-96601666D01*
X128794285Y-96601666D02*
X128746666Y-96744523D01*
X128746666Y-96744523D02*
X128651428Y-96839761D01*
X128651428Y-96839761D02*
X128508571Y-96887380D01*
X128508571Y-96887380D02*
X128413333Y-96887380D01*
X129841904Y-96887380D02*
X129508571Y-96411190D01*
X129270476Y-96887380D02*
X129270476Y-95887380D01*
X129270476Y-95887380D02*
X129651428Y-95887380D01*
X129651428Y-95887380D02*
X129746666Y-95935000D01*
X129746666Y-95935000D02*
X129794285Y-95982619D01*
X129794285Y-95982619D02*
X129841904Y-96077857D01*
X129841904Y-96077857D02*
X129841904Y-96220714D01*
X129841904Y-96220714D02*
X129794285Y-96315952D01*
X129794285Y-96315952D02*
X129746666Y-96363571D01*
X129746666Y-96363571D02*
X129651428Y-96411190D01*
X129651428Y-96411190D02*
X129270476Y-96411190D01*
X130270476Y-96363571D02*
X130603809Y-96363571D01*
X130746666Y-96887380D02*
X130270476Y-96887380D01*
X130270476Y-96887380D02*
X130270476Y-95887380D01*
X130270476Y-95887380D02*
X130746666Y-95887380D01*
X131699047Y-95935000D02*
X131603809Y-95887380D01*
X131603809Y-95887380D02*
X131460952Y-95887380D01*
X131460952Y-95887380D02*
X131318095Y-95935000D01*
X131318095Y-95935000D02*
X131222857Y-96030238D01*
X131222857Y-96030238D02*
X131175238Y-96125476D01*
X131175238Y-96125476D02*
X131127619Y-96315952D01*
X131127619Y-96315952D02*
X131127619Y-96458809D01*
X131127619Y-96458809D02*
X131175238Y-96649285D01*
X131175238Y-96649285D02*
X131222857Y-96744523D01*
X131222857Y-96744523D02*
X131318095Y-96839761D01*
X131318095Y-96839761D02*
X131460952Y-96887380D01*
X131460952Y-96887380D02*
X131556190Y-96887380D01*
X131556190Y-96887380D02*
X131699047Y-96839761D01*
X131699047Y-96839761D02*
X131746666Y-96792142D01*
X131746666Y-96792142D02*
X131746666Y-96458809D01*
X131746666Y-96458809D02*
X131556190Y-96458809D01*
X132651428Y-96887380D02*
X132175238Y-96887380D01*
X132175238Y-96887380D02*
X132175238Y-95887380D01*
X133175238Y-95887380D02*
X133365714Y-95887380D01*
X133365714Y-95887380D02*
X133460952Y-95935000D01*
X133460952Y-95935000D02*
X133556190Y-96030238D01*
X133556190Y-96030238D02*
X133603809Y-96220714D01*
X133603809Y-96220714D02*
X133603809Y-96554047D01*
X133603809Y-96554047D02*
X133556190Y-96744523D01*
X133556190Y-96744523D02*
X133460952Y-96839761D01*
X133460952Y-96839761D02*
X133365714Y-96887380D01*
X133365714Y-96887380D02*
X133175238Y-96887380D01*
X133175238Y-96887380D02*
X133080000Y-96839761D01*
X133080000Y-96839761D02*
X132984762Y-96744523D01*
X132984762Y-96744523D02*
X132937143Y-96554047D01*
X132937143Y-96554047D02*
X132937143Y-96220714D01*
X132937143Y-96220714D02*
X132984762Y-96030238D01*
X132984762Y-96030238D02*
X133080000Y-95935000D01*
X133080000Y-95935000D02*
X133175238Y-95887380D01*
X133937143Y-95887380D02*
X134175238Y-96887380D01*
X134175238Y-96887380D02*
X134365714Y-96173095D01*
X134365714Y-96173095D02*
X134556190Y-96887380D01*
X134556190Y-96887380D02*
X134794286Y-95887380D01*
X135080000Y-95887380D02*
X135699047Y-95887380D01*
X135699047Y-95887380D02*
X135365714Y-96268333D01*
X135365714Y-96268333D02*
X135508571Y-96268333D01*
X135508571Y-96268333D02*
X135603809Y-96315952D01*
X135603809Y-96315952D02*
X135651428Y-96363571D01*
X135651428Y-96363571D02*
X135699047Y-96458809D01*
X135699047Y-96458809D02*
X135699047Y-96696904D01*
X135699047Y-96696904D02*
X135651428Y-96792142D01*
X135651428Y-96792142D02*
X135603809Y-96839761D01*
X135603809Y-96839761D02*
X135508571Y-96887380D01*
X135508571Y-96887380D02*
X135222857Y-96887380D01*
X135222857Y-96887380D02*
X135127619Y-96839761D01*
X135127619Y-96839761D02*
X135080000Y-96792142D01*
%TO.C,UNOT2*%
X98774524Y-129702380D02*
X98774524Y-130511904D01*
X98774524Y-130511904D02*
X98822143Y-130607142D01*
X98822143Y-130607142D02*
X98869762Y-130654761D01*
X98869762Y-130654761D02*
X98965000Y-130702380D01*
X98965000Y-130702380D02*
X99155476Y-130702380D01*
X99155476Y-130702380D02*
X99250714Y-130654761D01*
X99250714Y-130654761D02*
X99298333Y-130607142D01*
X99298333Y-130607142D02*
X99345952Y-130511904D01*
X99345952Y-130511904D02*
X99345952Y-129702380D01*
X99822143Y-130702380D02*
X99822143Y-129702380D01*
X99822143Y-129702380D02*
X100393571Y-130702380D01*
X100393571Y-130702380D02*
X100393571Y-129702380D01*
X101060238Y-129702380D02*
X101250714Y-129702380D01*
X101250714Y-129702380D02*
X101345952Y-129750000D01*
X101345952Y-129750000D02*
X101441190Y-129845238D01*
X101441190Y-129845238D02*
X101488809Y-130035714D01*
X101488809Y-130035714D02*
X101488809Y-130369047D01*
X101488809Y-130369047D02*
X101441190Y-130559523D01*
X101441190Y-130559523D02*
X101345952Y-130654761D01*
X101345952Y-130654761D02*
X101250714Y-130702380D01*
X101250714Y-130702380D02*
X101060238Y-130702380D01*
X101060238Y-130702380D02*
X100965000Y-130654761D01*
X100965000Y-130654761D02*
X100869762Y-130559523D01*
X100869762Y-130559523D02*
X100822143Y-130369047D01*
X100822143Y-130369047D02*
X100822143Y-130035714D01*
X100822143Y-130035714D02*
X100869762Y-129845238D01*
X100869762Y-129845238D02*
X100965000Y-129750000D01*
X100965000Y-129750000D02*
X101060238Y-129702380D01*
X101774524Y-129702380D02*
X102345952Y-129702380D01*
X102060238Y-130702380D02*
X102060238Y-129702380D01*
X102631667Y-129797619D02*
X102679286Y-129750000D01*
X102679286Y-129750000D02*
X102774524Y-129702380D01*
X102774524Y-129702380D02*
X103012619Y-129702380D01*
X103012619Y-129702380D02*
X103107857Y-129750000D01*
X103107857Y-129750000D02*
X103155476Y-129797619D01*
X103155476Y-129797619D02*
X103203095Y-129892857D01*
X103203095Y-129892857D02*
X103203095Y-129988095D01*
X103203095Y-129988095D02*
X103155476Y-130130952D01*
X103155476Y-130130952D02*
X102584048Y-130702380D01*
X102584048Y-130702380D02*
X103203095Y-130702380D01*
X98798333Y-130972380D02*
X99464999Y-130972380D01*
X99464999Y-130972380D02*
X99036428Y-131972380D01*
X100274523Y-131305714D02*
X100274523Y-131972380D01*
X100036428Y-130924761D02*
X99798333Y-131639047D01*
X99798333Y-131639047D02*
X100417380Y-131639047D01*
X100703095Y-131972380D02*
X101226904Y-131305714D01*
X100703095Y-131305714D02*
X101226904Y-131972380D01*
X102131666Y-131972380D02*
X101560238Y-131972380D01*
X101845952Y-131972380D02*
X101845952Y-130972380D01*
X101845952Y-130972380D02*
X101750714Y-131115238D01*
X101750714Y-131115238D02*
X101655476Y-131210476D01*
X101655476Y-131210476D02*
X101560238Y-131258095D01*
X102988809Y-131305714D02*
X102988809Y-131972380D01*
X102750714Y-130924761D02*
X102512619Y-131639047D01*
X102512619Y-131639047D02*
X103131666Y-131639047D01*
%TO.C,U2MUX3*%
X154670476Y-101442380D02*
X154670476Y-102251904D01*
X154670476Y-102251904D02*
X154718095Y-102347142D01*
X154718095Y-102347142D02*
X154765714Y-102394761D01*
X154765714Y-102394761D02*
X154860952Y-102442380D01*
X154860952Y-102442380D02*
X155051428Y-102442380D01*
X155051428Y-102442380D02*
X155146666Y-102394761D01*
X155146666Y-102394761D02*
X155194285Y-102347142D01*
X155194285Y-102347142D02*
X155241904Y-102251904D01*
X155241904Y-102251904D02*
X155241904Y-101442380D01*
X155670476Y-101537619D02*
X155718095Y-101490000D01*
X155718095Y-101490000D02*
X155813333Y-101442380D01*
X155813333Y-101442380D02*
X156051428Y-101442380D01*
X156051428Y-101442380D02*
X156146666Y-101490000D01*
X156146666Y-101490000D02*
X156194285Y-101537619D01*
X156194285Y-101537619D02*
X156241904Y-101632857D01*
X156241904Y-101632857D02*
X156241904Y-101728095D01*
X156241904Y-101728095D02*
X156194285Y-101870952D01*
X156194285Y-101870952D02*
X155622857Y-102442380D01*
X155622857Y-102442380D02*
X156241904Y-102442380D01*
X156670476Y-102442380D02*
X156670476Y-101442380D01*
X156670476Y-101442380D02*
X157003809Y-102156666D01*
X157003809Y-102156666D02*
X157337142Y-101442380D01*
X157337142Y-101442380D02*
X157337142Y-102442380D01*
X157813333Y-101442380D02*
X157813333Y-102251904D01*
X157813333Y-102251904D02*
X157860952Y-102347142D01*
X157860952Y-102347142D02*
X157908571Y-102394761D01*
X157908571Y-102394761D02*
X158003809Y-102442380D01*
X158003809Y-102442380D02*
X158194285Y-102442380D01*
X158194285Y-102442380D02*
X158289523Y-102394761D01*
X158289523Y-102394761D02*
X158337142Y-102347142D01*
X158337142Y-102347142D02*
X158384761Y-102251904D01*
X158384761Y-102251904D02*
X158384761Y-101442380D01*
X158765714Y-101442380D02*
X159432380Y-102442380D01*
X159432380Y-101442380D02*
X158765714Y-102442380D01*
X159718095Y-101442380D02*
X160337142Y-101442380D01*
X160337142Y-101442380D02*
X160003809Y-101823333D01*
X160003809Y-101823333D02*
X160146666Y-101823333D01*
X160146666Y-101823333D02*
X160241904Y-101870952D01*
X160241904Y-101870952D02*
X160289523Y-101918571D01*
X160289523Y-101918571D02*
X160337142Y-102013809D01*
X160337142Y-102013809D02*
X160337142Y-102251904D01*
X160337142Y-102251904D02*
X160289523Y-102347142D01*
X160289523Y-102347142D02*
X160241904Y-102394761D01*
X160241904Y-102394761D02*
X160146666Y-102442380D01*
X160146666Y-102442380D02*
X159860952Y-102442380D01*
X159860952Y-102442380D02*
X159765714Y-102394761D01*
X159765714Y-102394761D02*
X159718095Y-102347142D01*
X154837143Y-102712380D02*
X155503809Y-102712380D01*
X155503809Y-102712380D02*
X155075238Y-103712380D01*
X156313333Y-103045714D02*
X156313333Y-103712380D01*
X156075238Y-102664761D02*
X155837143Y-103379047D01*
X155837143Y-103379047D02*
X156456190Y-103379047D01*
X156741905Y-103712380D02*
X157265714Y-103045714D01*
X156741905Y-103045714D02*
X157265714Y-103712380D01*
X158170476Y-103712380D02*
X157599048Y-103712380D01*
X157884762Y-103712380D02*
X157884762Y-102712380D01*
X157884762Y-102712380D02*
X157789524Y-102855238D01*
X157789524Y-102855238D02*
X157694286Y-102950476D01*
X157694286Y-102950476D02*
X157599048Y-102998095D01*
X159075238Y-102712380D02*
X158599048Y-102712380D01*
X158599048Y-102712380D02*
X158551429Y-103188571D01*
X158551429Y-103188571D02*
X158599048Y-103140952D01*
X158599048Y-103140952D02*
X158694286Y-103093333D01*
X158694286Y-103093333D02*
X158932381Y-103093333D01*
X158932381Y-103093333D02*
X159027619Y-103140952D01*
X159027619Y-103140952D02*
X159075238Y-103188571D01*
X159075238Y-103188571D02*
X159122857Y-103283809D01*
X159122857Y-103283809D02*
X159122857Y-103521904D01*
X159122857Y-103521904D02*
X159075238Y-103617142D01*
X159075238Y-103617142D02*
X159027619Y-103664761D01*
X159027619Y-103664761D02*
X158932381Y-103712380D01*
X158932381Y-103712380D02*
X158694286Y-103712380D01*
X158694286Y-103712380D02*
X158599048Y-103664761D01*
X158599048Y-103664761D02*
X158551429Y-103617142D01*
X159456191Y-102712380D02*
X160122857Y-102712380D01*
X160122857Y-102712380D02*
X159694286Y-103712380D01*
%TO.C,JALU2*%
X107529523Y-106047380D02*
X107529523Y-106761666D01*
X107529523Y-106761666D02*
X107481904Y-106904523D01*
X107481904Y-106904523D02*
X107386666Y-106999761D01*
X107386666Y-106999761D02*
X107243809Y-107047380D01*
X107243809Y-107047380D02*
X107148571Y-107047380D01*
X107958095Y-106761666D02*
X108434285Y-106761666D01*
X107862857Y-107047380D02*
X108196190Y-106047380D01*
X108196190Y-106047380D02*
X108529523Y-107047380D01*
X109339047Y-107047380D02*
X108862857Y-107047380D01*
X108862857Y-107047380D02*
X108862857Y-106047380D01*
X109672381Y-106047380D02*
X109672381Y-106856904D01*
X109672381Y-106856904D02*
X109720000Y-106952142D01*
X109720000Y-106952142D02*
X109767619Y-106999761D01*
X109767619Y-106999761D02*
X109862857Y-107047380D01*
X109862857Y-107047380D02*
X110053333Y-107047380D01*
X110053333Y-107047380D02*
X110148571Y-106999761D01*
X110148571Y-106999761D02*
X110196190Y-106952142D01*
X110196190Y-106952142D02*
X110243809Y-106856904D01*
X110243809Y-106856904D02*
X110243809Y-106047380D01*
X110672381Y-106142619D02*
X110720000Y-106095000D01*
X110720000Y-106095000D02*
X110815238Y-106047380D01*
X110815238Y-106047380D02*
X111053333Y-106047380D01*
X111053333Y-106047380D02*
X111148571Y-106095000D01*
X111148571Y-106095000D02*
X111196190Y-106142619D01*
X111196190Y-106142619D02*
X111243809Y-106237857D01*
X111243809Y-106237857D02*
X111243809Y-106333095D01*
X111243809Y-106333095D02*
X111196190Y-106475952D01*
X111196190Y-106475952D02*
X110624762Y-107047380D01*
X110624762Y-107047380D02*
X111243809Y-107047380D01*
%TO.C,JMEM_B2*%
X202930476Y-95887380D02*
X202930476Y-96601666D01*
X202930476Y-96601666D02*
X202882857Y-96744523D01*
X202882857Y-96744523D02*
X202787619Y-96839761D01*
X202787619Y-96839761D02*
X202644762Y-96887380D01*
X202644762Y-96887380D02*
X202549524Y-96887380D01*
X203406667Y-96887380D02*
X203406667Y-95887380D01*
X203406667Y-95887380D02*
X203740000Y-96601666D01*
X203740000Y-96601666D02*
X204073333Y-95887380D01*
X204073333Y-95887380D02*
X204073333Y-96887380D01*
X204549524Y-96363571D02*
X204882857Y-96363571D01*
X205025714Y-96887380D02*
X204549524Y-96887380D01*
X204549524Y-96887380D02*
X204549524Y-95887380D01*
X204549524Y-95887380D02*
X205025714Y-95887380D01*
X205454286Y-96887380D02*
X205454286Y-95887380D01*
X205454286Y-95887380D02*
X205787619Y-96601666D01*
X205787619Y-96601666D02*
X206120952Y-95887380D01*
X206120952Y-95887380D02*
X206120952Y-96887380D01*
X206359048Y-96982619D02*
X207120952Y-96982619D01*
X207692381Y-96363571D02*
X207835238Y-96411190D01*
X207835238Y-96411190D02*
X207882857Y-96458809D01*
X207882857Y-96458809D02*
X207930476Y-96554047D01*
X207930476Y-96554047D02*
X207930476Y-96696904D01*
X207930476Y-96696904D02*
X207882857Y-96792142D01*
X207882857Y-96792142D02*
X207835238Y-96839761D01*
X207835238Y-96839761D02*
X207740000Y-96887380D01*
X207740000Y-96887380D02*
X207359048Y-96887380D01*
X207359048Y-96887380D02*
X207359048Y-95887380D01*
X207359048Y-95887380D02*
X207692381Y-95887380D01*
X207692381Y-95887380D02*
X207787619Y-95935000D01*
X207787619Y-95935000D02*
X207835238Y-95982619D01*
X207835238Y-95982619D02*
X207882857Y-96077857D01*
X207882857Y-96077857D02*
X207882857Y-96173095D01*
X207882857Y-96173095D02*
X207835238Y-96268333D01*
X207835238Y-96268333D02*
X207787619Y-96315952D01*
X207787619Y-96315952D02*
X207692381Y-96363571D01*
X207692381Y-96363571D02*
X207359048Y-96363571D01*
X208311429Y-95982619D02*
X208359048Y-95935000D01*
X208359048Y-95935000D02*
X208454286Y-95887380D01*
X208454286Y-95887380D02*
X208692381Y-95887380D01*
X208692381Y-95887380D02*
X208787619Y-95935000D01*
X208787619Y-95935000D02*
X208835238Y-95982619D01*
X208835238Y-95982619D02*
X208882857Y-96077857D01*
X208882857Y-96077857D02*
X208882857Y-96173095D01*
X208882857Y-96173095D02*
X208835238Y-96315952D01*
X208835238Y-96315952D02*
X208263810Y-96887380D01*
X208263810Y-96887380D02*
X208882857Y-96887380D01*
%TO.C,JMEM_D1*%
X180070476Y-116207380D02*
X180070476Y-116921666D01*
X180070476Y-116921666D02*
X180022857Y-117064523D01*
X180022857Y-117064523D02*
X179927619Y-117159761D01*
X179927619Y-117159761D02*
X179784762Y-117207380D01*
X179784762Y-117207380D02*
X179689524Y-117207380D01*
X180546667Y-117207380D02*
X180546667Y-116207380D01*
X180546667Y-116207380D02*
X180880000Y-116921666D01*
X180880000Y-116921666D02*
X181213333Y-116207380D01*
X181213333Y-116207380D02*
X181213333Y-117207380D01*
X181689524Y-116683571D02*
X182022857Y-116683571D01*
X182165714Y-117207380D02*
X181689524Y-117207380D01*
X181689524Y-117207380D02*
X181689524Y-116207380D01*
X181689524Y-116207380D02*
X182165714Y-116207380D01*
X182594286Y-117207380D02*
X182594286Y-116207380D01*
X182594286Y-116207380D02*
X182927619Y-116921666D01*
X182927619Y-116921666D02*
X183260952Y-116207380D01*
X183260952Y-116207380D02*
X183260952Y-117207380D01*
X183499048Y-117302619D02*
X184260952Y-117302619D01*
X184499048Y-117207380D02*
X184499048Y-116207380D01*
X184499048Y-116207380D02*
X184737143Y-116207380D01*
X184737143Y-116207380D02*
X184880000Y-116255000D01*
X184880000Y-116255000D02*
X184975238Y-116350238D01*
X184975238Y-116350238D02*
X185022857Y-116445476D01*
X185022857Y-116445476D02*
X185070476Y-116635952D01*
X185070476Y-116635952D02*
X185070476Y-116778809D01*
X185070476Y-116778809D02*
X185022857Y-116969285D01*
X185022857Y-116969285D02*
X184975238Y-117064523D01*
X184975238Y-117064523D02*
X184880000Y-117159761D01*
X184880000Y-117159761D02*
X184737143Y-117207380D01*
X184737143Y-117207380D02*
X184499048Y-117207380D01*
X186022857Y-117207380D02*
X185451429Y-117207380D01*
X185737143Y-117207380D02*
X185737143Y-116207380D01*
X185737143Y-116207380D02*
X185641905Y-116350238D01*
X185641905Y-116350238D02*
X185546667Y-116445476D01*
X185546667Y-116445476D02*
X185451429Y-116493095D01*
%TO.C,JMEM_B1*%
X180070476Y-95887380D02*
X180070476Y-96601666D01*
X180070476Y-96601666D02*
X180022857Y-96744523D01*
X180022857Y-96744523D02*
X179927619Y-96839761D01*
X179927619Y-96839761D02*
X179784762Y-96887380D01*
X179784762Y-96887380D02*
X179689524Y-96887380D01*
X180546667Y-96887380D02*
X180546667Y-95887380D01*
X180546667Y-95887380D02*
X180880000Y-96601666D01*
X180880000Y-96601666D02*
X181213333Y-95887380D01*
X181213333Y-95887380D02*
X181213333Y-96887380D01*
X181689524Y-96363571D02*
X182022857Y-96363571D01*
X182165714Y-96887380D02*
X181689524Y-96887380D01*
X181689524Y-96887380D02*
X181689524Y-95887380D01*
X181689524Y-95887380D02*
X182165714Y-95887380D01*
X182594286Y-96887380D02*
X182594286Y-95887380D01*
X182594286Y-95887380D02*
X182927619Y-96601666D01*
X182927619Y-96601666D02*
X183260952Y-95887380D01*
X183260952Y-95887380D02*
X183260952Y-96887380D01*
X183499048Y-96982619D02*
X184260952Y-96982619D01*
X184832381Y-96363571D02*
X184975238Y-96411190D01*
X184975238Y-96411190D02*
X185022857Y-96458809D01*
X185022857Y-96458809D02*
X185070476Y-96554047D01*
X185070476Y-96554047D02*
X185070476Y-96696904D01*
X185070476Y-96696904D02*
X185022857Y-96792142D01*
X185022857Y-96792142D02*
X184975238Y-96839761D01*
X184975238Y-96839761D02*
X184880000Y-96887380D01*
X184880000Y-96887380D02*
X184499048Y-96887380D01*
X184499048Y-96887380D02*
X184499048Y-95887380D01*
X184499048Y-95887380D02*
X184832381Y-95887380D01*
X184832381Y-95887380D02*
X184927619Y-95935000D01*
X184927619Y-95935000D02*
X184975238Y-95982619D01*
X184975238Y-95982619D02*
X185022857Y-96077857D01*
X185022857Y-96077857D02*
X185022857Y-96173095D01*
X185022857Y-96173095D02*
X184975238Y-96268333D01*
X184975238Y-96268333D02*
X184927619Y-96315952D01*
X184927619Y-96315952D02*
X184832381Y-96363571D01*
X184832381Y-96363571D02*
X184499048Y-96363571D01*
X186022857Y-96887380D02*
X185451429Y-96887380D01*
X185737143Y-96887380D02*
X185737143Y-95887380D01*
X185737143Y-95887380D02*
X185641905Y-96030238D01*
X185641905Y-96030238D02*
X185546667Y-96125476D01*
X185546667Y-96125476D02*
X185451429Y-96173095D01*
%TO.C,U2MUX1*%
X140700476Y-101602380D02*
X140700476Y-102411904D01*
X140700476Y-102411904D02*
X140748095Y-102507142D01*
X140748095Y-102507142D02*
X140795714Y-102554761D01*
X140795714Y-102554761D02*
X140890952Y-102602380D01*
X140890952Y-102602380D02*
X141081428Y-102602380D01*
X141081428Y-102602380D02*
X141176666Y-102554761D01*
X141176666Y-102554761D02*
X141224285Y-102507142D01*
X141224285Y-102507142D02*
X141271904Y-102411904D01*
X141271904Y-102411904D02*
X141271904Y-101602380D01*
X141700476Y-101697619D02*
X141748095Y-101650000D01*
X141748095Y-101650000D02*
X141843333Y-101602380D01*
X141843333Y-101602380D02*
X142081428Y-101602380D01*
X142081428Y-101602380D02*
X142176666Y-101650000D01*
X142176666Y-101650000D02*
X142224285Y-101697619D01*
X142224285Y-101697619D02*
X142271904Y-101792857D01*
X142271904Y-101792857D02*
X142271904Y-101888095D01*
X142271904Y-101888095D02*
X142224285Y-102030952D01*
X142224285Y-102030952D02*
X141652857Y-102602380D01*
X141652857Y-102602380D02*
X142271904Y-102602380D01*
X142700476Y-102602380D02*
X142700476Y-101602380D01*
X142700476Y-101602380D02*
X143033809Y-102316666D01*
X143033809Y-102316666D02*
X143367142Y-101602380D01*
X143367142Y-101602380D02*
X143367142Y-102602380D01*
X143843333Y-101602380D02*
X143843333Y-102411904D01*
X143843333Y-102411904D02*
X143890952Y-102507142D01*
X143890952Y-102507142D02*
X143938571Y-102554761D01*
X143938571Y-102554761D02*
X144033809Y-102602380D01*
X144033809Y-102602380D02*
X144224285Y-102602380D01*
X144224285Y-102602380D02*
X144319523Y-102554761D01*
X144319523Y-102554761D02*
X144367142Y-102507142D01*
X144367142Y-102507142D02*
X144414761Y-102411904D01*
X144414761Y-102411904D02*
X144414761Y-101602380D01*
X144795714Y-101602380D02*
X145462380Y-102602380D01*
X145462380Y-101602380D02*
X144795714Y-102602380D01*
X146367142Y-102602380D02*
X145795714Y-102602380D01*
X146081428Y-102602380D02*
X146081428Y-101602380D01*
X146081428Y-101602380D02*
X145986190Y-101745238D01*
X145986190Y-101745238D02*
X145890952Y-101840476D01*
X145890952Y-101840476D02*
X145795714Y-101888095D01*
X140867143Y-102872380D02*
X141533809Y-102872380D01*
X141533809Y-102872380D02*
X141105238Y-103872380D01*
X142343333Y-103205714D02*
X142343333Y-103872380D01*
X142105238Y-102824761D02*
X141867143Y-103539047D01*
X141867143Y-103539047D02*
X142486190Y-103539047D01*
X142771905Y-103872380D02*
X143295714Y-103205714D01*
X142771905Y-103205714D02*
X143295714Y-103872380D01*
X144200476Y-103872380D02*
X143629048Y-103872380D01*
X143914762Y-103872380D02*
X143914762Y-102872380D01*
X143914762Y-102872380D02*
X143819524Y-103015238D01*
X143819524Y-103015238D02*
X143724286Y-103110476D01*
X143724286Y-103110476D02*
X143629048Y-103158095D01*
X145105238Y-102872380D02*
X144629048Y-102872380D01*
X144629048Y-102872380D02*
X144581429Y-103348571D01*
X144581429Y-103348571D02*
X144629048Y-103300952D01*
X144629048Y-103300952D02*
X144724286Y-103253333D01*
X144724286Y-103253333D02*
X144962381Y-103253333D01*
X144962381Y-103253333D02*
X145057619Y-103300952D01*
X145057619Y-103300952D02*
X145105238Y-103348571D01*
X145105238Y-103348571D02*
X145152857Y-103443809D01*
X145152857Y-103443809D02*
X145152857Y-103681904D01*
X145152857Y-103681904D02*
X145105238Y-103777142D01*
X145105238Y-103777142D02*
X145057619Y-103824761D01*
X145057619Y-103824761D02*
X144962381Y-103872380D01*
X144962381Y-103872380D02*
X144724286Y-103872380D01*
X144724286Y-103872380D02*
X144629048Y-103824761D01*
X144629048Y-103824761D02*
X144581429Y-103777142D01*
X145486191Y-102872380D02*
X146152857Y-102872380D01*
X146152857Y-102872380D02*
X145724286Y-103872380D01*
%TO.C,U2MUX2*%
X140700476Y-111922380D02*
X140700476Y-112731904D01*
X140700476Y-112731904D02*
X140748095Y-112827142D01*
X140748095Y-112827142D02*
X140795714Y-112874761D01*
X140795714Y-112874761D02*
X140890952Y-112922380D01*
X140890952Y-112922380D02*
X141081428Y-112922380D01*
X141081428Y-112922380D02*
X141176666Y-112874761D01*
X141176666Y-112874761D02*
X141224285Y-112827142D01*
X141224285Y-112827142D02*
X141271904Y-112731904D01*
X141271904Y-112731904D02*
X141271904Y-111922380D01*
X141700476Y-112017619D02*
X141748095Y-111970000D01*
X141748095Y-111970000D02*
X141843333Y-111922380D01*
X141843333Y-111922380D02*
X142081428Y-111922380D01*
X142081428Y-111922380D02*
X142176666Y-111970000D01*
X142176666Y-111970000D02*
X142224285Y-112017619D01*
X142224285Y-112017619D02*
X142271904Y-112112857D01*
X142271904Y-112112857D02*
X142271904Y-112208095D01*
X142271904Y-112208095D02*
X142224285Y-112350952D01*
X142224285Y-112350952D02*
X141652857Y-112922380D01*
X141652857Y-112922380D02*
X142271904Y-112922380D01*
X142700476Y-112922380D02*
X142700476Y-111922380D01*
X142700476Y-111922380D02*
X143033809Y-112636666D01*
X143033809Y-112636666D02*
X143367142Y-111922380D01*
X143367142Y-111922380D02*
X143367142Y-112922380D01*
X143843333Y-111922380D02*
X143843333Y-112731904D01*
X143843333Y-112731904D02*
X143890952Y-112827142D01*
X143890952Y-112827142D02*
X143938571Y-112874761D01*
X143938571Y-112874761D02*
X144033809Y-112922380D01*
X144033809Y-112922380D02*
X144224285Y-112922380D01*
X144224285Y-112922380D02*
X144319523Y-112874761D01*
X144319523Y-112874761D02*
X144367142Y-112827142D01*
X144367142Y-112827142D02*
X144414761Y-112731904D01*
X144414761Y-112731904D02*
X144414761Y-111922380D01*
X144795714Y-111922380D02*
X145462380Y-112922380D01*
X145462380Y-111922380D02*
X144795714Y-112922380D01*
X145795714Y-112017619D02*
X145843333Y-111970000D01*
X145843333Y-111970000D02*
X145938571Y-111922380D01*
X145938571Y-111922380D02*
X146176666Y-111922380D01*
X146176666Y-111922380D02*
X146271904Y-111970000D01*
X146271904Y-111970000D02*
X146319523Y-112017619D01*
X146319523Y-112017619D02*
X146367142Y-112112857D01*
X146367142Y-112112857D02*
X146367142Y-112208095D01*
X146367142Y-112208095D02*
X146319523Y-112350952D01*
X146319523Y-112350952D02*
X145748095Y-112922380D01*
X145748095Y-112922380D02*
X146367142Y-112922380D01*
X140867143Y-113192380D02*
X141533809Y-113192380D01*
X141533809Y-113192380D02*
X141105238Y-114192380D01*
X142343333Y-113525714D02*
X142343333Y-114192380D01*
X142105238Y-113144761D02*
X141867143Y-113859047D01*
X141867143Y-113859047D02*
X142486190Y-113859047D01*
X142771905Y-114192380D02*
X143295714Y-113525714D01*
X142771905Y-113525714D02*
X143295714Y-114192380D01*
X144200476Y-114192380D02*
X143629048Y-114192380D01*
X143914762Y-114192380D02*
X143914762Y-113192380D01*
X143914762Y-113192380D02*
X143819524Y-113335238D01*
X143819524Y-113335238D02*
X143724286Y-113430476D01*
X143724286Y-113430476D02*
X143629048Y-113478095D01*
X145105238Y-113192380D02*
X144629048Y-113192380D01*
X144629048Y-113192380D02*
X144581429Y-113668571D01*
X144581429Y-113668571D02*
X144629048Y-113620952D01*
X144629048Y-113620952D02*
X144724286Y-113573333D01*
X144724286Y-113573333D02*
X144962381Y-113573333D01*
X144962381Y-113573333D02*
X145057619Y-113620952D01*
X145057619Y-113620952D02*
X145105238Y-113668571D01*
X145105238Y-113668571D02*
X145152857Y-113763809D01*
X145152857Y-113763809D02*
X145152857Y-114001904D01*
X145152857Y-114001904D02*
X145105238Y-114097142D01*
X145105238Y-114097142D02*
X145057619Y-114144761D01*
X145057619Y-114144761D02*
X144962381Y-114192380D01*
X144962381Y-114192380D02*
X144724286Y-114192380D01*
X144724286Y-114192380D02*
X144629048Y-114144761D01*
X144629048Y-114144761D02*
X144581429Y-114097142D01*
X145486191Y-113192380D02*
X146152857Y-113192380D01*
X146152857Y-113192380D02*
X145724286Y-114192380D01*
%TO.C,C4*%
X84923333Y-136162142D02*
X84875714Y-136209761D01*
X84875714Y-136209761D02*
X84732857Y-136257380D01*
X84732857Y-136257380D02*
X84637619Y-136257380D01*
X84637619Y-136257380D02*
X84494762Y-136209761D01*
X84494762Y-136209761D02*
X84399524Y-136114523D01*
X84399524Y-136114523D02*
X84351905Y-136019285D01*
X84351905Y-136019285D02*
X84304286Y-135828809D01*
X84304286Y-135828809D02*
X84304286Y-135685952D01*
X84304286Y-135685952D02*
X84351905Y-135495476D01*
X84351905Y-135495476D02*
X84399524Y-135400238D01*
X84399524Y-135400238D02*
X84494762Y-135305000D01*
X84494762Y-135305000D02*
X84637619Y-135257380D01*
X84637619Y-135257380D02*
X84732857Y-135257380D01*
X84732857Y-135257380D02*
X84875714Y-135305000D01*
X84875714Y-135305000D02*
X84923333Y-135352619D01*
X85780476Y-135590714D02*
X85780476Y-136257380D01*
X85542381Y-135209761D02*
X85304286Y-135924047D01*
X85304286Y-135924047D02*
X85923333Y-135924047D01*
%TO.C,UNAND2*%
X109656905Y-129702380D02*
X109656905Y-130511904D01*
X109656905Y-130511904D02*
X109704524Y-130607142D01*
X109704524Y-130607142D02*
X109752143Y-130654761D01*
X109752143Y-130654761D02*
X109847381Y-130702380D01*
X109847381Y-130702380D02*
X110037857Y-130702380D01*
X110037857Y-130702380D02*
X110133095Y-130654761D01*
X110133095Y-130654761D02*
X110180714Y-130607142D01*
X110180714Y-130607142D02*
X110228333Y-130511904D01*
X110228333Y-130511904D02*
X110228333Y-129702380D01*
X110704524Y-130702380D02*
X110704524Y-129702380D01*
X110704524Y-129702380D02*
X111275952Y-130702380D01*
X111275952Y-130702380D02*
X111275952Y-129702380D01*
X111704524Y-130416666D02*
X112180714Y-130416666D01*
X111609286Y-130702380D02*
X111942619Y-129702380D01*
X111942619Y-129702380D02*
X112275952Y-130702380D01*
X112609286Y-130702380D02*
X112609286Y-129702380D01*
X112609286Y-129702380D02*
X113180714Y-130702380D01*
X113180714Y-130702380D02*
X113180714Y-129702380D01*
X113656905Y-130702380D02*
X113656905Y-129702380D01*
X113656905Y-129702380D02*
X113895000Y-129702380D01*
X113895000Y-129702380D02*
X114037857Y-129750000D01*
X114037857Y-129750000D02*
X114133095Y-129845238D01*
X114133095Y-129845238D02*
X114180714Y-129940476D01*
X114180714Y-129940476D02*
X114228333Y-130130952D01*
X114228333Y-130130952D02*
X114228333Y-130273809D01*
X114228333Y-130273809D02*
X114180714Y-130464285D01*
X114180714Y-130464285D02*
X114133095Y-130559523D01*
X114133095Y-130559523D02*
X114037857Y-130654761D01*
X114037857Y-130654761D02*
X113895000Y-130702380D01*
X113895000Y-130702380D02*
X113656905Y-130702380D01*
X114609286Y-129797619D02*
X114656905Y-129750000D01*
X114656905Y-129750000D02*
X114752143Y-129702380D01*
X114752143Y-129702380D02*
X114990238Y-129702380D01*
X114990238Y-129702380D02*
X115085476Y-129750000D01*
X115085476Y-129750000D02*
X115133095Y-129797619D01*
X115133095Y-129797619D02*
X115180714Y-129892857D01*
X115180714Y-129892857D02*
X115180714Y-129988095D01*
X115180714Y-129988095D02*
X115133095Y-130130952D01*
X115133095Y-130130952D02*
X114561667Y-130702380D01*
X114561667Y-130702380D02*
X115180714Y-130702380D01*
X110228333Y-130972380D02*
X110894999Y-130972380D01*
X110894999Y-130972380D02*
X110466428Y-131972380D01*
X111704523Y-131305714D02*
X111704523Y-131972380D01*
X111466428Y-130924761D02*
X111228333Y-131639047D01*
X111228333Y-131639047D02*
X111847380Y-131639047D01*
X112133095Y-131972380D02*
X112656904Y-131305714D01*
X112133095Y-131305714D02*
X112656904Y-131972380D01*
X113228333Y-130972380D02*
X113323571Y-130972380D01*
X113323571Y-130972380D02*
X113418809Y-131020000D01*
X113418809Y-131020000D02*
X113466428Y-131067619D01*
X113466428Y-131067619D02*
X113514047Y-131162857D01*
X113514047Y-131162857D02*
X113561666Y-131353333D01*
X113561666Y-131353333D02*
X113561666Y-131591428D01*
X113561666Y-131591428D02*
X113514047Y-131781904D01*
X113514047Y-131781904D02*
X113466428Y-131877142D01*
X113466428Y-131877142D02*
X113418809Y-131924761D01*
X113418809Y-131924761D02*
X113323571Y-131972380D01*
X113323571Y-131972380D02*
X113228333Y-131972380D01*
X113228333Y-131972380D02*
X113133095Y-131924761D01*
X113133095Y-131924761D02*
X113085476Y-131877142D01*
X113085476Y-131877142D02*
X113037857Y-131781904D01*
X113037857Y-131781904D02*
X112990238Y-131591428D01*
X112990238Y-131591428D02*
X112990238Y-131353333D01*
X112990238Y-131353333D02*
X113037857Y-131162857D01*
X113037857Y-131162857D02*
X113085476Y-131067619D01*
X113085476Y-131067619D02*
X113133095Y-131020000D01*
X113133095Y-131020000D02*
X113228333Y-130972380D01*
X114180714Y-130972380D02*
X114275952Y-130972380D01*
X114275952Y-130972380D02*
X114371190Y-131020000D01*
X114371190Y-131020000D02*
X114418809Y-131067619D01*
X114418809Y-131067619D02*
X114466428Y-131162857D01*
X114466428Y-131162857D02*
X114514047Y-131353333D01*
X114514047Y-131353333D02*
X114514047Y-131591428D01*
X114514047Y-131591428D02*
X114466428Y-131781904D01*
X114466428Y-131781904D02*
X114418809Y-131877142D01*
X114418809Y-131877142D02*
X114371190Y-131924761D01*
X114371190Y-131924761D02*
X114275952Y-131972380D01*
X114275952Y-131972380D02*
X114180714Y-131972380D01*
X114180714Y-131972380D02*
X114085476Y-131924761D01*
X114085476Y-131924761D02*
X114037857Y-131877142D01*
X114037857Y-131877142D02*
X113990238Y-131781904D01*
X113990238Y-131781904D02*
X113942619Y-131591428D01*
X113942619Y-131591428D02*
X113942619Y-131353333D01*
X113942619Y-131353333D02*
X113990238Y-131162857D01*
X113990238Y-131162857D02*
X114037857Y-131067619D01*
X114037857Y-131067619D02*
X114085476Y-131020000D01*
X114085476Y-131020000D02*
X114180714Y-130972380D01*
%TO.C,JREGLOW1*%
X83074285Y-95887380D02*
X83074285Y-96601666D01*
X83074285Y-96601666D02*
X83026666Y-96744523D01*
X83026666Y-96744523D02*
X82931428Y-96839761D01*
X82931428Y-96839761D02*
X82788571Y-96887380D01*
X82788571Y-96887380D02*
X82693333Y-96887380D01*
X84121904Y-96887380D02*
X83788571Y-96411190D01*
X83550476Y-96887380D02*
X83550476Y-95887380D01*
X83550476Y-95887380D02*
X83931428Y-95887380D01*
X83931428Y-95887380D02*
X84026666Y-95935000D01*
X84026666Y-95935000D02*
X84074285Y-95982619D01*
X84074285Y-95982619D02*
X84121904Y-96077857D01*
X84121904Y-96077857D02*
X84121904Y-96220714D01*
X84121904Y-96220714D02*
X84074285Y-96315952D01*
X84074285Y-96315952D02*
X84026666Y-96363571D01*
X84026666Y-96363571D02*
X83931428Y-96411190D01*
X83931428Y-96411190D02*
X83550476Y-96411190D01*
X84550476Y-96363571D02*
X84883809Y-96363571D01*
X85026666Y-96887380D02*
X84550476Y-96887380D01*
X84550476Y-96887380D02*
X84550476Y-95887380D01*
X84550476Y-95887380D02*
X85026666Y-95887380D01*
X85979047Y-95935000D02*
X85883809Y-95887380D01*
X85883809Y-95887380D02*
X85740952Y-95887380D01*
X85740952Y-95887380D02*
X85598095Y-95935000D01*
X85598095Y-95935000D02*
X85502857Y-96030238D01*
X85502857Y-96030238D02*
X85455238Y-96125476D01*
X85455238Y-96125476D02*
X85407619Y-96315952D01*
X85407619Y-96315952D02*
X85407619Y-96458809D01*
X85407619Y-96458809D02*
X85455238Y-96649285D01*
X85455238Y-96649285D02*
X85502857Y-96744523D01*
X85502857Y-96744523D02*
X85598095Y-96839761D01*
X85598095Y-96839761D02*
X85740952Y-96887380D01*
X85740952Y-96887380D02*
X85836190Y-96887380D01*
X85836190Y-96887380D02*
X85979047Y-96839761D01*
X85979047Y-96839761D02*
X86026666Y-96792142D01*
X86026666Y-96792142D02*
X86026666Y-96458809D01*
X86026666Y-96458809D02*
X85836190Y-96458809D01*
X86931428Y-96887380D02*
X86455238Y-96887380D01*
X86455238Y-96887380D02*
X86455238Y-95887380D01*
X87455238Y-95887380D02*
X87645714Y-95887380D01*
X87645714Y-95887380D02*
X87740952Y-95935000D01*
X87740952Y-95935000D02*
X87836190Y-96030238D01*
X87836190Y-96030238D02*
X87883809Y-96220714D01*
X87883809Y-96220714D02*
X87883809Y-96554047D01*
X87883809Y-96554047D02*
X87836190Y-96744523D01*
X87836190Y-96744523D02*
X87740952Y-96839761D01*
X87740952Y-96839761D02*
X87645714Y-96887380D01*
X87645714Y-96887380D02*
X87455238Y-96887380D01*
X87455238Y-96887380D02*
X87360000Y-96839761D01*
X87360000Y-96839761D02*
X87264762Y-96744523D01*
X87264762Y-96744523D02*
X87217143Y-96554047D01*
X87217143Y-96554047D02*
X87217143Y-96220714D01*
X87217143Y-96220714D02*
X87264762Y-96030238D01*
X87264762Y-96030238D02*
X87360000Y-95935000D01*
X87360000Y-95935000D02*
X87455238Y-95887380D01*
X88217143Y-95887380D02*
X88455238Y-96887380D01*
X88455238Y-96887380D02*
X88645714Y-96173095D01*
X88645714Y-96173095D02*
X88836190Y-96887380D01*
X88836190Y-96887380D02*
X89074286Y-95887380D01*
X89979047Y-96887380D02*
X89407619Y-96887380D01*
X89693333Y-96887380D02*
X89693333Y-95887380D01*
X89693333Y-95887380D02*
X89598095Y-96030238D01*
X89598095Y-96030238D02*
X89502857Y-96125476D01*
X89502857Y-96125476D02*
X89407619Y-96173095D01*
%TO.C,UDEMUX1*%
X114189286Y-111856380D02*
X114189286Y-112665904D01*
X114189286Y-112665904D02*
X114236905Y-112761142D01*
X114236905Y-112761142D02*
X114284524Y-112808761D01*
X114284524Y-112808761D02*
X114379762Y-112856380D01*
X114379762Y-112856380D02*
X114570238Y-112856380D01*
X114570238Y-112856380D02*
X114665476Y-112808761D01*
X114665476Y-112808761D02*
X114713095Y-112761142D01*
X114713095Y-112761142D02*
X114760714Y-112665904D01*
X114760714Y-112665904D02*
X114760714Y-111856380D01*
X115236905Y-112856380D02*
X115236905Y-111856380D01*
X115236905Y-111856380D02*
X115475000Y-111856380D01*
X115475000Y-111856380D02*
X115617857Y-111904000D01*
X115617857Y-111904000D02*
X115713095Y-111999238D01*
X115713095Y-111999238D02*
X115760714Y-112094476D01*
X115760714Y-112094476D02*
X115808333Y-112284952D01*
X115808333Y-112284952D02*
X115808333Y-112427809D01*
X115808333Y-112427809D02*
X115760714Y-112618285D01*
X115760714Y-112618285D02*
X115713095Y-112713523D01*
X115713095Y-112713523D02*
X115617857Y-112808761D01*
X115617857Y-112808761D02*
X115475000Y-112856380D01*
X115475000Y-112856380D02*
X115236905Y-112856380D01*
X116236905Y-112332571D02*
X116570238Y-112332571D01*
X116713095Y-112856380D02*
X116236905Y-112856380D01*
X116236905Y-112856380D02*
X116236905Y-111856380D01*
X116236905Y-111856380D02*
X116713095Y-111856380D01*
X117141667Y-112856380D02*
X117141667Y-111856380D01*
X117141667Y-111856380D02*
X117475000Y-112570666D01*
X117475000Y-112570666D02*
X117808333Y-111856380D01*
X117808333Y-111856380D02*
X117808333Y-112856380D01*
X118284524Y-111856380D02*
X118284524Y-112665904D01*
X118284524Y-112665904D02*
X118332143Y-112761142D01*
X118332143Y-112761142D02*
X118379762Y-112808761D01*
X118379762Y-112808761D02*
X118475000Y-112856380D01*
X118475000Y-112856380D02*
X118665476Y-112856380D01*
X118665476Y-112856380D02*
X118760714Y-112808761D01*
X118760714Y-112808761D02*
X118808333Y-112761142D01*
X118808333Y-112761142D02*
X118855952Y-112665904D01*
X118855952Y-112665904D02*
X118855952Y-111856380D01*
X119236905Y-111856380D02*
X119903571Y-112856380D01*
X119903571Y-111856380D02*
X119236905Y-112856380D01*
X120808333Y-112856380D02*
X120236905Y-112856380D01*
X120522619Y-112856380D02*
X120522619Y-111856380D01*
X120522619Y-111856380D02*
X120427381Y-111999238D01*
X120427381Y-111999238D02*
X120332143Y-112094476D01*
X120332143Y-112094476D02*
X120236905Y-112142095D01*
X114832143Y-113126380D02*
X115498809Y-113126380D01*
X115498809Y-113126380D02*
X115070238Y-114126380D01*
X116308333Y-113459714D02*
X116308333Y-114126380D01*
X116070238Y-113078761D02*
X115832143Y-113793047D01*
X115832143Y-113793047D02*
X116451190Y-113793047D01*
X116736905Y-114126380D02*
X117260714Y-113459714D01*
X116736905Y-113459714D02*
X117260714Y-114126380D01*
X118165476Y-114126380D02*
X117594048Y-114126380D01*
X117879762Y-114126380D02*
X117879762Y-113126380D01*
X117879762Y-113126380D02*
X117784524Y-113269238D01*
X117784524Y-113269238D02*
X117689286Y-113364476D01*
X117689286Y-113364476D02*
X117594048Y-113412095D01*
X118498810Y-113126380D02*
X119117857Y-113126380D01*
X119117857Y-113126380D02*
X118784524Y-113507333D01*
X118784524Y-113507333D02*
X118927381Y-113507333D01*
X118927381Y-113507333D02*
X119022619Y-113554952D01*
X119022619Y-113554952D02*
X119070238Y-113602571D01*
X119070238Y-113602571D02*
X119117857Y-113697809D01*
X119117857Y-113697809D02*
X119117857Y-113935904D01*
X119117857Y-113935904D02*
X119070238Y-114031142D01*
X119070238Y-114031142D02*
X119022619Y-114078761D01*
X119022619Y-114078761D02*
X118927381Y-114126380D01*
X118927381Y-114126380D02*
X118641667Y-114126380D01*
X118641667Y-114126380D02*
X118546429Y-114078761D01*
X118546429Y-114078761D02*
X118498810Y-114031142D01*
X119689286Y-113554952D02*
X119594048Y-113507333D01*
X119594048Y-113507333D02*
X119546429Y-113459714D01*
X119546429Y-113459714D02*
X119498810Y-113364476D01*
X119498810Y-113364476D02*
X119498810Y-113316857D01*
X119498810Y-113316857D02*
X119546429Y-113221619D01*
X119546429Y-113221619D02*
X119594048Y-113174000D01*
X119594048Y-113174000D02*
X119689286Y-113126380D01*
X119689286Y-113126380D02*
X119879762Y-113126380D01*
X119879762Y-113126380D02*
X119975000Y-113174000D01*
X119975000Y-113174000D02*
X120022619Y-113221619D01*
X120022619Y-113221619D02*
X120070238Y-113316857D01*
X120070238Y-113316857D02*
X120070238Y-113364476D01*
X120070238Y-113364476D02*
X120022619Y-113459714D01*
X120022619Y-113459714D02*
X119975000Y-113507333D01*
X119975000Y-113507333D02*
X119879762Y-113554952D01*
X119879762Y-113554952D02*
X119689286Y-113554952D01*
X119689286Y-113554952D02*
X119594048Y-113602571D01*
X119594048Y-113602571D02*
X119546429Y-113650190D01*
X119546429Y-113650190D02*
X119498810Y-113745428D01*
X119498810Y-113745428D02*
X119498810Y-113935904D01*
X119498810Y-113935904D02*
X119546429Y-114031142D01*
X119546429Y-114031142D02*
X119594048Y-114078761D01*
X119594048Y-114078761D02*
X119689286Y-114126380D01*
X119689286Y-114126380D02*
X119879762Y-114126380D01*
X119879762Y-114126380D02*
X119975000Y-114078761D01*
X119975000Y-114078761D02*
X120022619Y-114031142D01*
X120022619Y-114031142D02*
X120070238Y-113935904D01*
X120070238Y-113935904D02*
X120070238Y-113745428D01*
X120070238Y-113745428D02*
X120022619Y-113650190D01*
X120022619Y-113650190D02*
X119975000Y-113602571D01*
X119975000Y-113602571D02*
X119879762Y-113554952D01*
%TO.C,JMEM_A1*%
X180141904Y-85727380D02*
X180141904Y-86441666D01*
X180141904Y-86441666D02*
X180094285Y-86584523D01*
X180094285Y-86584523D02*
X179999047Y-86679761D01*
X179999047Y-86679761D02*
X179856190Y-86727380D01*
X179856190Y-86727380D02*
X179760952Y-86727380D01*
X180618095Y-86727380D02*
X180618095Y-85727380D01*
X180618095Y-85727380D02*
X180951428Y-86441666D01*
X180951428Y-86441666D02*
X181284761Y-85727380D01*
X181284761Y-85727380D02*
X181284761Y-86727380D01*
X181760952Y-86203571D02*
X182094285Y-86203571D01*
X182237142Y-86727380D02*
X181760952Y-86727380D01*
X181760952Y-86727380D02*
X181760952Y-85727380D01*
X181760952Y-85727380D02*
X182237142Y-85727380D01*
X182665714Y-86727380D02*
X182665714Y-85727380D01*
X182665714Y-85727380D02*
X182999047Y-86441666D01*
X182999047Y-86441666D02*
X183332380Y-85727380D01*
X183332380Y-85727380D02*
X183332380Y-86727380D01*
X183570476Y-86822619D02*
X184332380Y-86822619D01*
X184522857Y-86441666D02*
X184999047Y-86441666D01*
X184427619Y-86727380D02*
X184760952Y-85727380D01*
X184760952Y-85727380D02*
X185094285Y-86727380D01*
X185951428Y-86727380D02*
X185380000Y-86727380D01*
X185665714Y-86727380D02*
X185665714Y-85727380D01*
X185665714Y-85727380D02*
X185570476Y-85870238D01*
X185570476Y-85870238D02*
X185475238Y-85965476D01*
X185475238Y-85965476D02*
X185380000Y-86013095D01*
%TO.C,JREGHIGH4*%
X151368571Y-85727380D02*
X151368571Y-86441666D01*
X151368571Y-86441666D02*
X151320952Y-86584523D01*
X151320952Y-86584523D02*
X151225714Y-86679761D01*
X151225714Y-86679761D02*
X151082857Y-86727380D01*
X151082857Y-86727380D02*
X150987619Y-86727380D01*
X152416190Y-86727380D02*
X152082857Y-86251190D01*
X151844762Y-86727380D02*
X151844762Y-85727380D01*
X151844762Y-85727380D02*
X152225714Y-85727380D01*
X152225714Y-85727380D02*
X152320952Y-85775000D01*
X152320952Y-85775000D02*
X152368571Y-85822619D01*
X152368571Y-85822619D02*
X152416190Y-85917857D01*
X152416190Y-85917857D02*
X152416190Y-86060714D01*
X152416190Y-86060714D02*
X152368571Y-86155952D01*
X152368571Y-86155952D02*
X152320952Y-86203571D01*
X152320952Y-86203571D02*
X152225714Y-86251190D01*
X152225714Y-86251190D02*
X151844762Y-86251190D01*
X152844762Y-86203571D02*
X153178095Y-86203571D01*
X153320952Y-86727380D02*
X152844762Y-86727380D01*
X152844762Y-86727380D02*
X152844762Y-85727380D01*
X152844762Y-85727380D02*
X153320952Y-85727380D01*
X154273333Y-85775000D02*
X154178095Y-85727380D01*
X154178095Y-85727380D02*
X154035238Y-85727380D01*
X154035238Y-85727380D02*
X153892381Y-85775000D01*
X153892381Y-85775000D02*
X153797143Y-85870238D01*
X153797143Y-85870238D02*
X153749524Y-85965476D01*
X153749524Y-85965476D02*
X153701905Y-86155952D01*
X153701905Y-86155952D02*
X153701905Y-86298809D01*
X153701905Y-86298809D02*
X153749524Y-86489285D01*
X153749524Y-86489285D02*
X153797143Y-86584523D01*
X153797143Y-86584523D02*
X153892381Y-86679761D01*
X153892381Y-86679761D02*
X154035238Y-86727380D01*
X154035238Y-86727380D02*
X154130476Y-86727380D01*
X154130476Y-86727380D02*
X154273333Y-86679761D01*
X154273333Y-86679761D02*
X154320952Y-86632142D01*
X154320952Y-86632142D02*
X154320952Y-86298809D01*
X154320952Y-86298809D02*
X154130476Y-86298809D01*
X154749524Y-86727380D02*
X154749524Y-85727380D01*
X154749524Y-86203571D02*
X155320952Y-86203571D01*
X155320952Y-86727380D02*
X155320952Y-85727380D01*
X155797143Y-86727380D02*
X155797143Y-85727380D01*
X156797142Y-85775000D02*
X156701904Y-85727380D01*
X156701904Y-85727380D02*
X156559047Y-85727380D01*
X156559047Y-85727380D02*
X156416190Y-85775000D01*
X156416190Y-85775000D02*
X156320952Y-85870238D01*
X156320952Y-85870238D02*
X156273333Y-85965476D01*
X156273333Y-85965476D02*
X156225714Y-86155952D01*
X156225714Y-86155952D02*
X156225714Y-86298809D01*
X156225714Y-86298809D02*
X156273333Y-86489285D01*
X156273333Y-86489285D02*
X156320952Y-86584523D01*
X156320952Y-86584523D02*
X156416190Y-86679761D01*
X156416190Y-86679761D02*
X156559047Y-86727380D01*
X156559047Y-86727380D02*
X156654285Y-86727380D01*
X156654285Y-86727380D02*
X156797142Y-86679761D01*
X156797142Y-86679761D02*
X156844761Y-86632142D01*
X156844761Y-86632142D02*
X156844761Y-86298809D01*
X156844761Y-86298809D02*
X156654285Y-86298809D01*
X157273333Y-86727380D02*
X157273333Y-85727380D01*
X157273333Y-86203571D02*
X157844761Y-86203571D01*
X157844761Y-86727380D02*
X157844761Y-85727380D01*
X158749523Y-86060714D02*
X158749523Y-86727380D01*
X158511428Y-85679761D02*
X158273333Y-86394047D01*
X158273333Y-86394047D02*
X158892380Y-86394047D01*
%TO.C,Y1*%
X87728809Y-128256190D02*
X87728809Y-128732380D01*
X87395476Y-127732380D02*
X87728809Y-128256190D01*
X87728809Y-128256190D02*
X88062142Y-127732380D01*
X88919285Y-128732380D02*
X88347857Y-128732380D01*
X88633571Y-128732380D02*
X88633571Y-127732380D01*
X88633571Y-127732380D02*
X88538333Y-127875238D01*
X88538333Y-127875238D02*
X88443095Y-127970476D01*
X88443095Y-127970476D02*
X88347857Y-128018095D01*
%TO.C,JALU1*%
X84669523Y-106047380D02*
X84669523Y-106761666D01*
X84669523Y-106761666D02*
X84621904Y-106904523D01*
X84621904Y-106904523D02*
X84526666Y-106999761D01*
X84526666Y-106999761D02*
X84383809Y-107047380D01*
X84383809Y-107047380D02*
X84288571Y-107047380D01*
X85098095Y-106761666D02*
X85574285Y-106761666D01*
X85002857Y-107047380D02*
X85336190Y-106047380D01*
X85336190Y-106047380D02*
X85669523Y-107047380D01*
X86479047Y-107047380D02*
X86002857Y-107047380D01*
X86002857Y-107047380D02*
X86002857Y-106047380D01*
X86812381Y-106047380D02*
X86812381Y-106856904D01*
X86812381Y-106856904D02*
X86860000Y-106952142D01*
X86860000Y-106952142D02*
X86907619Y-106999761D01*
X86907619Y-106999761D02*
X87002857Y-107047380D01*
X87002857Y-107047380D02*
X87193333Y-107047380D01*
X87193333Y-107047380D02*
X87288571Y-106999761D01*
X87288571Y-106999761D02*
X87336190Y-106952142D01*
X87336190Y-106952142D02*
X87383809Y-106856904D01*
X87383809Y-106856904D02*
X87383809Y-106047380D01*
X88383809Y-107047380D02*
X87812381Y-107047380D01*
X88098095Y-107047380D02*
X88098095Y-106047380D01*
X88098095Y-106047380D02*
X88002857Y-106190238D01*
X88002857Y-106190238D02*
X87907619Y-106285476D01*
X87907619Y-106285476D02*
X87812381Y-106333095D01*
%TO.C,U4*%
X153289095Y-124843380D02*
X153289095Y-125652904D01*
X153289095Y-125652904D02*
X153336714Y-125748142D01*
X153336714Y-125748142D02*
X153384333Y-125795761D01*
X153384333Y-125795761D02*
X153479571Y-125843380D01*
X153479571Y-125843380D02*
X153670047Y-125843380D01*
X153670047Y-125843380D02*
X153765285Y-125795761D01*
X153765285Y-125795761D02*
X153812904Y-125748142D01*
X153812904Y-125748142D02*
X153860523Y-125652904D01*
X153860523Y-125652904D02*
X153860523Y-124843380D01*
X154765285Y-125176714D02*
X154765285Y-125843380D01*
X154527190Y-124795761D02*
X154289095Y-125510047D01*
X154289095Y-125510047D02*
X154908142Y-125510047D01*
X151408143Y-126113380D02*
X152074809Y-126113380D01*
X152074809Y-126113380D02*
X151646238Y-127113380D01*
X152884333Y-126446714D02*
X152884333Y-127113380D01*
X152646238Y-126065761D02*
X152408143Y-126780047D01*
X152408143Y-126780047D02*
X153027190Y-126780047D01*
X153312905Y-127113380D02*
X153836714Y-126446714D01*
X153312905Y-126446714D02*
X153836714Y-127113380D01*
X154170048Y-126208619D02*
X154217667Y-126161000D01*
X154217667Y-126161000D02*
X154312905Y-126113380D01*
X154312905Y-126113380D02*
X154551000Y-126113380D01*
X154551000Y-126113380D02*
X154646238Y-126161000D01*
X154646238Y-126161000D02*
X154693857Y-126208619D01*
X154693857Y-126208619D02*
X154741476Y-126303857D01*
X154741476Y-126303857D02*
X154741476Y-126399095D01*
X154741476Y-126399095D02*
X154693857Y-126541952D01*
X154693857Y-126541952D02*
X154122429Y-127113380D01*
X154122429Y-127113380D02*
X154741476Y-127113380D01*
X155598619Y-126446714D02*
X155598619Y-127113380D01*
X155360524Y-126065761D02*
X155122429Y-126780047D01*
X155122429Y-126780047D02*
X155741476Y-126780047D01*
X156551000Y-126446714D02*
X156551000Y-127113380D01*
X156312905Y-126065761D02*
X156074810Y-126780047D01*
X156074810Y-126780047D02*
X156693857Y-126780047D01*
%TO.C,JP1*%
X83621666Y-116207380D02*
X83621666Y-116921666D01*
X83621666Y-116921666D02*
X83574047Y-117064523D01*
X83574047Y-117064523D02*
X83478809Y-117159761D01*
X83478809Y-117159761D02*
X83335952Y-117207380D01*
X83335952Y-117207380D02*
X83240714Y-117207380D01*
X84097857Y-117207380D02*
X84097857Y-116207380D01*
X84097857Y-116207380D02*
X84478809Y-116207380D01*
X84478809Y-116207380D02*
X84574047Y-116255000D01*
X84574047Y-116255000D02*
X84621666Y-116302619D01*
X84621666Y-116302619D02*
X84669285Y-116397857D01*
X84669285Y-116397857D02*
X84669285Y-116540714D01*
X84669285Y-116540714D02*
X84621666Y-116635952D01*
X84621666Y-116635952D02*
X84574047Y-116683571D01*
X84574047Y-116683571D02*
X84478809Y-116731190D01*
X84478809Y-116731190D02*
X84097857Y-116731190D01*
X85621666Y-117207380D02*
X85050238Y-117207380D01*
X85335952Y-117207380D02*
X85335952Y-116207380D01*
X85335952Y-116207380D02*
X85240714Y-116350238D01*
X85240714Y-116350238D02*
X85145476Y-116445476D01*
X85145476Y-116445476D02*
X85050238Y-116493095D01*
X82288332Y-124097142D02*
X82240713Y-124144761D01*
X82240713Y-124144761D02*
X82097856Y-124192380D01*
X82097856Y-124192380D02*
X82002618Y-124192380D01*
X82002618Y-124192380D02*
X81859761Y-124144761D01*
X81859761Y-124144761D02*
X81764523Y-124049523D01*
X81764523Y-124049523D02*
X81716904Y-123954285D01*
X81716904Y-123954285D02*
X81669285Y-123763809D01*
X81669285Y-123763809D02*
X81669285Y-123620952D01*
X81669285Y-123620952D02*
X81716904Y-123430476D01*
X81716904Y-123430476D02*
X81764523Y-123335238D01*
X81764523Y-123335238D02*
X81859761Y-123240000D01*
X81859761Y-123240000D02*
X82002618Y-123192380D01*
X82002618Y-123192380D02*
X82097856Y-123192380D01*
X82097856Y-123192380D02*
X82240713Y-123240000D01*
X82240713Y-123240000D02*
X82288332Y-123287619D01*
X82859761Y-124192380D02*
X82764523Y-124144761D01*
X82764523Y-124144761D02*
X82716904Y-124049523D01*
X82716904Y-124049523D02*
X82716904Y-123192380D01*
X83240714Y-124192380D02*
X83240714Y-123192380D01*
X83335952Y-123811428D02*
X83621666Y-124192380D01*
X83621666Y-123525714D02*
X83240714Y-123906666D01*
X84335952Y-123192380D02*
X84335952Y-123906666D01*
X84335952Y-123906666D02*
X84288333Y-124049523D01*
X84288333Y-124049523D02*
X84193095Y-124144761D01*
X84193095Y-124144761D02*
X84050238Y-124192380D01*
X84050238Y-124192380D02*
X83955000Y-124192380D01*
X84812143Y-124192380D02*
X84812143Y-123525714D01*
X84812143Y-123620952D02*
X84859762Y-123573333D01*
X84859762Y-123573333D02*
X84955000Y-123525714D01*
X84955000Y-123525714D02*
X85097857Y-123525714D01*
X85097857Y-123525714D02*
X85193095Y-123573333D01*
X85193095Y-123573333D02*
X85240714Y-123668571D01*
X85240714Y-123668571D02*
X85240714Y-124192380D01*
X85240714Y-123668571D02*
X85288333Y-123573333D01*
X85288333Y-123573333D02*
X85383571Y-123525714D01*
X85383571Y-123525714D02*
X85526428Y-123525714D01*
X85526428Y-123525714D02*
X85621667Y-123573333D01*
X85621667Y-123573333D02*
X85669286Y-123668571D01*
X85669286Y-123668571D02*
X85669286Y-124192380D01*
X86145476Y-123525714D02*
X86145476Y-124525714D01*
X86145476Y-123573333D02*
X86240714Y-123525714D01*
X86240714Y-123525714D02*
X86431190Y-123525714D01*
X86431190Y-123525714D02*
X86526428Y-123573333D01*
X86526428Y-123573333D02*
X86574047Y-123620952D01*
X86574047Y-123620952D02*
X86621666Y-123716190D01*
X86621666Y-123716190D02*
X86621666Y-124001904D01*
X86621666Y-124001904D02*
X86574047Y-124097142D01*
X86574047Y-124097142D02*
X86526428Y-124144761D01*
X86526428Y-124144761D02*
X86431190Y-124192380D01*
X86431190Y-124192380D02*
X86240714Y-124192380D01*
X86240714Y-124192380D02*
X86145476Y-124144761D01*
X87050238Y-124192380D02*
X87050238Y-123525714D01*
X87050238Y-123716190D02*
X87097857Y-123620952D01*
X87097857Y-123620952D02*
X87145476Y-123573333D01*
X87145476Y-123573333D02*
X87240714Y-123525714D01*
X87240714Y-123525714D02*
X87335952Y-123525714D01*
%TO.C,U2*%
X186873095Y-135257380D02*
X186873095Y-136066904D01*
X186873095Y-136066904D02*
X186920714Y-136162142D01*
X186920714Y-136162142D02*
X186968333Y-136209761D01*
X186968333Y-136209761D02*
X187063571Y-136257380D01*
X187063571Y-136257380D02*
X187254047Y-136257380D01*
X187254047Y-136257380D02*
X187349285Y-136209761D01*
X187349285Y-136209761D02*
X187396904Y-136162142D01*
X187396904Y-136162142D02*
X187444523Y-136066904D01*
X187444523Y-136066904D02*
X187444523Y-135257380D01*
X187873095Y-135352619D02*
X187920714Y-135305000D01*
X187920714Y-135305000D02*
X188015952Y-135257380D01*
X188015952Y-135257380D02*
X188254047Y-135257380D01*
X188254047Y-135257380D02*
X188349285Y-135305000D01*
X188349285Y-135305000D02*
X188396904Y-135352619D01*
X188396904Y-135352619D02*
X188444523Y-135447857D01*
X188444523Y-135447857D02*
X188444523Y-135543095D01*
X188444523Y-135543095D02*
X188396904Y-135685952D01*
X188396904Y-135685952D02*
X187825476Y-136257380D01*
X187825476Y-136257380D02*
X188444523Y-136257380D01*
%TO.C,J1*%
X69326666Y-124257380D02*
X69326666Y-124971666D01*
X69326666Y-124971666D02*
X69279047Y-125114523D01*
X69279047Y-125114523D02*
X69183809Y-125209761D01*
X69183809Y-125209761D02*
X69040952Y-125257380D01*
X69040952Y-125257380D02*
X68945714Y-125257380D01*
X70326666Y-125257380D02*
X69755238Y-125257380D01*
X70040952Y-125257380D02*
X70040952Y-124257380D01*
X70040952Y-124257380D02*
X69945714Y-124400238D01*
X69945714Y-124400238D02*
X69850476Y-124495476D01*
X69850476Y-124495476D02*
X69755238Y-124543095D01*
%TO.C,UR3*%
X167013095Y-129872380D02*
X167013095Y-130681904D01*
X167013095Y-130681904D02*
X167060714Y-130777142D01*
X167060714Y-130777142D02*
X167108333Y-130824761D01*
X167108333Y-130824761D02*
X167203571Y-130872380D01*
X167203571Y-130872380D02*
X167394047Y-130872380D01*
X167394047Y-130872380D02*
X167489285Y-130824761D01*
X167489285Y-130824761D02*
X167536904Y-130777142D01*
X167536904Y-130777142D02*
X167584523Y-130681904D01*
X167584523Y-130681904D02*
X167584523Y-129872380D01*
X168632142Y-130872380D02*
X168298809Y-130396190D01*
X168060714Y-130872380D02*
X168060714Y-129872380D01*
X168060714Y-129872380D02*
X168441666Y-129872380D01*
X168441666Y-129872380D02*
X168536904Y-129920000D01*
X168536904Y-129920000D02*
X168584523Y-129967619D01*
X168584523Y-129967619D02*
X168632142Y-130062857D01*
X168632142Y-130062857D02*
X168632142Y-130205714D01*
X168632142Y-130205714D02*
X168584523Y-130300952D01*
X168584523Y-130300952D02*
X168536904Y-130348571D01*
X168536904Y-130348571D02*
X168441666Y-130396190D01*
X168441666Y-130396190D02*
X168060714Y-130396190D01*
X168965476Y-129872380D02*
X169584523Y-129872380D01*
X169584523Y-129872380D02*
X169251190Y-130253333D01*
X169251190Y-130253333D02*
X169394047Y-130253333D01*
X169394047Y-130253333D02*
X169489285Y-130300952D01*
X169489285Y-130300952D02*
X169536904Y-130348571D01*
X169536904Y-130348571D02*
X169584523Y-130443809D01*
X169584523Y-130443809D02*
X169584523Y-130681904D01*
X169584523Y-130681904D02*
X169536904Y-130777142D01*
X169536904Y-130777142D02*
X169489285Y-130824761D01*
X169489285Y-130824761D02*
X169394047Y-130872380D01*
X169394047Y-130872380D02*
X169108333Y-130872380D01*
X169108333Y-130872380D02*
X169013095Y-130824761D01*
X169013095Y-130824761D02*
X168965476Y-130777142D01*
X165632143Y-131142380D02*
X166298809Y-131142380D01*
X166298809Y-131142380D02*
X165870238Y-132142380D01*
X167108333Y-131475714D02*
X167108333Y-132142380D01*
X166870238Y-131094761D02*
X166632143Y-131809047D01*
X166632143Y-131809047D02*
X167251190Y-131809047D01*
X167536905Y-132142380D02*
X168060714Y-131475714D01*
X167536905Y-131475714D02*
X168060714Y-132142380D01*
X168965476Y-132142380D02*
X168394048Y-132142380D01*
X168679762Y-132142380D02*
X168679762Y-131142380D01*
X168679762Y-131142380D02*
X168584524Y-131285238D01*
X168584524Y-131285238D02*
X168489286Y-131380476D01*
X168489286Y-131380476D02*
X168394048Y-131428095D01*
X169822619Y-131142380D02*
X169632143Y-131142380D01*
X169632143Y-131142380D02*
X169536905Y-131190000D01*
X169536905Y-131190000D02*
X169489286Y-131237619D01*
X169489286Y-131237619D02*
X169394048Y-131380476D01*
X169394048Y-131380476D02*
X169346429Y-131570952D01*
X169346429Y-131570952D02*
X169346429Y-131951904D01*
X169346429Y-131951904D02*
X169394048Y-132047142D01*
X169394048Y-132047142D02*
X169441667Y-132094761D01*
X169441667Y-132094761D02*
X169536905Y-132142380D01*
X169536905Y-132142380D02*
X169727381Y-132142380D01*
X169727381Y-132142380D02*
X169822619Y-132094761D01*
X169822619Y-132094761D02*
X169870238Y-132047142D01*
X169870238Y-132047142D02*
X169917857Y-131951904D01*
X169917857Y-131951904D02*
X169917857Y-131713809D01*
X169917857Y-131713809D02*
X169870238Y-131618571D01*
X169870238Y-131618571D02*
X169822619Y-131570952D01*
X169822619Y-131570952D02*
X169727381Y-131523333D01*
X169727381Y-131523333D02*
X169536905Y-131523333D01*
X169536905Y-131523333D02*
X169441667Y-131570952D01*
X169441667Y-131570952D02*
X169394048Y-131618571D01*
X169394048Y-131618571D02*
X169346429Y-131713809D01*
X170870238Y-132142380D02*
X170298810Y-132142380D01*
X170584524Y-132142380D02*
X170584524Y-131142380D01*
X170584524Y-131142380D02*
X170489286Y-131285238D01*
X170489286Y-131285238D02*
X170394048Y-131380476D01*
X170394048Y-131380476D02*
X170298810Y-131428095D01*
%TO.C,UXOR1*%
X128548095Y-111922380D02*
X128548095Y-112731904D01*
X128548095Y-112731904D02*
X128595714Y-112827142D01*
X128595714Y-112827142D02*
X128643333Y-112874761D01*
X128643333Y-112874761D02*
X128738571Y-112922380D01*
X128738571Y-112922380D02*
X128929047Y-112922380D01*
X128929047Y-112922380D02*
X129024285Y-112874761D01*
X129024285Y-112874761D02*
X129071904Y-112827142D01*
X129071904Y-112827142D02*
X129119523Y-112731904D01*
X129119523Y-112731904D02*
X129119523Y-111922380D01*
X129500476Y-111922380D02*
X130167142Y-112922380D01*
X130167142Y-111922380D02*
X129500476Y-112922380D01*
X130738571Y-111922380D02*
X130929047Y-111922380D01*
X130929047Y-111922380D02*
X131024285Y-111970000D01*
X131024285Y-111970000D02*
X131119523Y-112065238D01*
X131119523Y-112065238D02*
X131167142Y-112255714D01*
X131167142Y-112255714D02*
X131167142Y-112589047D01*
X131167142Y-112589047D02*
X131119523Y-112779523D01*
X131119523Y-112779523D02*
X131024285Y-112874761D01*
X131024285Y-112874761D02*
X130929047Y-112922380D01*
X130929047Y-112922380D02*
X130738571Y-112922380D01*
X130738571Y-112922380D02*
X130643333Y-112874761D01*
X130643333Y-112874761D02*
X130548095Y-112779523D01*
X130548095Y-112779523D02*
X130500476Y-112589047D01*
X130500476Y-112589047D02*
X130500476Y-112255714D01*
X130500476Y-112255714D02*
X130548095Y-112065238D01*
X130548095Y-112065238D02*
X130643333Y-111970000D01*
X130643333Y-111970000D02*
X130738571Y-111922380D01*
X132167142Y-112922380D02*
X131833809Y-112446190D01*
X131595714Y-112922380D02*
X131595714Y-111922380D01*
X131595714Y-111922380D02*
X131976666Y-111922380D01*
X131976666Y-111922380D02*
X132071904Y-111970000D01*
X132071904Y-111970000D02*
X132119523Y-112017619D01*
X132119523Y-112017619D02*
X132167142Y-112112857D01*
X132167142Y-112112857D02*
X132167142Y-112255714D01*
X132167142Y-112255714D02*
X132119523Y-112350952D01*
X132119523Y-112350952D02*
X132071904Y-112398571D01*
X132071904Y-112398571D02*
X131976666Y-112446190D01*
X131976666Y-112446190D02*
X131595714Y-112446190D01*
X133119523Y-112922380D02*
X132548095Y-112922380D01*
X132833809Y-112922380D02*
X132833809Y-111922380D01*
X132833809Y-111922380D02*
X132738571Y-112065238D01*
X132738571Y-112065238D02*
X132643333Y-112160476D01*
X132643333Y-112160476D02*
X132548095Y-112208095D01*
X128643333Y-113192380D02*
X129309999Y-113192380D01*
X129309999Y-113192380D02*
X128881428Y-114192380D01*
X130119523Y-113525714D02*
X130119523Y-114192380D01*
X129881428Y-113144761D02*
X129643333Y-113859047D01*
X129643333Y-113859047D02*
X130262380Y-113859047D01*
X130548095Y-114192380D02*
X131071904Y-113525714D01*
X130548095Y-113525714D02*
X131071904Y-114192380D01*
X131595714Y-113620952D02*
X131500476Y-113573333D01*
X131500476Y-113573333D02*
X131452857Y-113525714D01*
X131452857Y-113525714D02*
X131405238Y-113430476D01*
X131405238Y-113430476D02*
X131405238Y-113382857D01*
X131405238Y-113382857D02*
X131452857Y-113287619D01*
X131452857Y-113287619D02*
X131500476Y-113240000D01*
X131500476Y-113240000D02*
X131595714Y-113192380D01*
X131595714Y-113192380D02*
X131786190Y-113192380D01*
X131786190Y-113192380D02*
X131881428Y-113240000D01*
X131881428Y-113240000D02*
X131929047Y-113287619D01*
X131929047Y-113287619D02*
X131976666Y-113382857D01*
X131976666Y-113382857D02*
X131976666Y-113430476D01*
X131976666Y-113430476D02*
X131929047Y-113525714D01*
X131929047Y-113525714D02*
X131881428Y-113573333D01*
X131881428Y-113573333D02*
X131786190Y-113620952D01*
X131786190Y-113620952D02*
X131595714Y-113620952D01*
X131595714Y-113620952D02*
X131500476Y-113668571D01*
X131500476Y-113668571D02*
X131452857Y-113716190D01*
X131452857Y-113716190D02*
X131405238Y-113811428D01*
X131405238Y-113811428D02*
X131405238Y-114001904D01*
X131405238Y-114001904D02*
X131452857Y-114097142D01*
X131452857Y-114097142D02*
X131500476Y-114144761D01*
X131500476Y-114144761D02*
X131595714Y-114192380D01*
X131595714Y-114192380D02*
X131786190Y-114192380D01*
X131786190Y-114192380D02*
X131881428Y-114144761D01*
X131881428Y-114144761D02*
X131929047Y-114097142D01*
X131929047Y-114097142D02*
X131976666Y-114001904D01*
X131976666Y-114001904D02*
X131976666Y-113811428D01*
X131976666Y-113811428D02*
X131929047Y-113716190D01*
X131929047Y-113716190D02*
X131881428Y-113668571D01*
X131881428Y-113668571D02*
X131786190Y-113620952D01*
X132833809Y-113192380D02*
X132643333Y-113192380D01*
X132643333Y-113192380D02*
X132548095Y-113240000D01*
X132548095Y-113240000D02*
X132500476Y-113287619D01*
X132500476Y-113287619D02*
X132405238Y-113430476D01*
X132405238Y-113430476D02*
X132357619Y-113620952D01*
X132357619Y-113620952D02*
X132357619Y-114001904D01*
X132357619Y-114001904D02*
X132405238Y-114097142D01*
X132405238Y-114097142D02*
X132452857Y-114144761D01*
X132452857Y-114144761D02*
X132548095Y-114192380D01*
X132548095Y-114192380D02*
X132738571Y-114192380D01*
X132738571Y-114192380D02*
X132833809Y-114144761D01*
X132833809Y-114144761D02*
X132881428Y-114097142D01*
X132881428Y-114097142D02*
X132929047Y-114001904D01*
X132929047Y-114001904D02*
X132929047Y-113763809D01*
X132929047Y-113763809D02*
X132881428Y-113668571D01*
X132881428Y-113668571D02*
X132833809Y-113620952D01*
X132833809Y-113620952D02*
X132738571Y-113573333D01*
X132738571Y-113573333D02*
X132548095Y-113573333D01*
X132548095Y-113573333D02*
X132452857Y-113620952D01*
X132452857Y-113620952D02*
X132405238Y-113668571D01*
X132405238Y-113668571D02*
X132357619Y-113763809D01*
%TO.C,JMEM_A2*%
X203001904Y-85727380D02*
X203001904Y-86441666D01*
X203001904Y-86441666D02*
X202954285Y-86584523D01*
X202954285Y-86584523D02*
X202859047Y-86679761D01*
X202859047Y-86679761D02*
X202716190Y-86727380D01*
X202716190Y-86727380D02*
X202620952Y-86727380D01*
X203478095Y-86727380D02*
X203478095Y-85727380D01*
X203478095Y-85727380D02*
X203811428Y-86441666D01*
X203811428Y-86441666D02*
X204144761Y-85727380D01*
X204144761Y-85727380D02*
X204144761Y-86727380D01*
X204620952Y-86203571D02*
X204954285Y-86203571D01*
X205097142Y-86727380D02*
X204620952Y-86727380D01*
X204620952Y-86727380D02*
X204620952Y-85727380D01*
X204620952Y-85727380D02*
X205097142Y-85727380D01*
X205525714Y-86727380D02*
X205525714Y-85727380D01*
X205525714Y-85727380D02*
X205859047Y-86441666D01*
X205859047Y-86441666D02*
X206192380Y-85727380D01*
X206192380Y-85727380D02*
X206192380Y-86727380D01*
X206430476Y-86822619D02*
X207192380Y-86822619D01*
X207382857Y-86441666D02*
X207859047Y-86441666D01*
X207287619Y-86727380D02*
X207620952Y-85727380D01*
X207620952Y-85727380D02*
X207954285Y-86727380D01*
X208240000Y-85822619D02*
X208287619Y-85775000D01*
X208287619Y-85775000D02*
X208382857Y-85727380D01*
X208382857Y-85727380D02*
X208620952Y-85727380D01*
X208620952Y-85727380D02*
X208716190Y-85775000D01*
X208716190Y-85775000D02*
X208763809Y-85822619D01*
X208763809Y-85822619D02*
X208811428Y-85917857D01*
X208811428Y-85917857D02*
X208811428Y-86013095D01*
X208811428Y-86013095D02*
X208763809Y-86155952D01*
X208763809Y-86155952D02*
X208192381Y-86727380D01*
X208192381Y-86727380D02*
X208811428Y-86727380D01*
%TO.C,JREGHIGH1*%
X82788571Y-85727380D02*
X82788571Y-86441666D01*
X82788571Y-86441666D02*
X82740952Y-86584523D01*
X82740952Y-86584523D02*
X82645714Y-86679761D01*
X82645714Y-86679761D02*
X82502857Y-86727380D01*
X82502857Y-86727380D02*
X82407619Y-86727380D01*
X83836190Y-86727380D02*
X83502857Y-86251190D01*
X83264762Y-86727380D02*
X83264762Y-85727380D01*
X83264762Y-85727380D02*
X83645714Y-85727380D01*
X83645714Y-85727380D02*
X83740952Y-85775000D01*
X83740952Y-85775000D02*
X83788571Y-85822619D01*
X83788571Y-85822619D02*
X83836190Y-85917857D01*
X83836190Y-85917857D02*
X83836190Y-86060714D01*
X83836190Y-86060714D02*
X83788571Y-86155952D01*
X83788571Y-86155952D02*
X83740952Y-86203571D01*
X83740952Y-86203571D02*
X83645714Y-86251190D01*
X83645714Y-86251190D02*
X83264762Y-86251190D01*
X84264762Y-86203571D02*
X84598095Y-86203571D01*
X84740952Y-86727380D02*
X84264762Y-86727380D01*
X84264762Y-86727380D02*
X84264762Y-85727380D01*
X84264762Y-85727380D02*
X84740952Y-85727380D01*
X85693333Y-85775000D02*
X85598095Y-85727380D01*
X85598095Y-85727380D02*
X85455238Y-85727380D01*
X85455238Y-85727380D02*
X85312381Y-85775000D01*
X85312381Y-85775000D02*
X85217143Y-85870238D01*
X85217143Y-85870238D02*
X85169524Y-85965476D01*
X85169524Y-85965476D02*
X85121905Y-86155952D01*
X85121905Y-86155952D02*
X85121905Y-86298809D01*
X85121905Y-86298809D02*
X85169524Y-86489285D01*
X85169524Y-86489285D02*
X85217143Y-86584523D01*
X85217143Y-86584523D02*
X85312381Y-86679761D01*
X85312381Y-86679761D02*
X85455238Y-86727380D01*
X85455238Y-86727380D02*
X85550476Y-86727380D01*
X85550476Y-86727380D02*
X85693333Y-86679761D01*
X85693333Y-86679761D02*
X85740952Y-86632142D01*
X85740952Y-86632142D02*
X85740952Y-86298809D01*
X85740952Y-86298809D02*
X85550476Y-86298809D01*
X86169524Y-86727380D02*
X86169524Y-85727380D01*
X86169524Y-86203571D02*
X86740952Y-86203571D01*
X86740952Y-86727380D02*
X86740952Y-85727380D01*
X87217143Y-86727380D02*
X87217143Y-85727380D01*
X88217142Y-85775000D02*
X88121904Y-85727380D01*
X88121904Y-85727380D02*
X87979047Y-85727380D01*
X87979047Y-85727380D02*
X87836190Y-85775000D01*
X87836190Y-85775000D02*
X87740952Y-85870238D01*
X87740952Y-85870238D02*
X87693333Y-85965476D01*
X87693333Y-85965476D02*
X87645714Y-86155952D01*
X87645714Y-86155952D02*
X87645714Y-86298809D01*
X87645714Y-86298809D02*
X87693333Y-86489285D01*
X87693333Y-86489285D02*
X87740952Y-86584523D01*
X87740952Y-86584523D02*
X87836190Y-86679761D01*
X87836190Y-86679761D02*
X87979047Y-86727380D01*
X87979047Y-86727380D02*
X88074285Y-86727380D01*
X88074285Y-86727380D02*
X88217142Y-86679761D01*
X88217142Y-86679761D02*
X88264761Y-86632142D01*
X88264761Y-86632142D02*
X88264761Y-86298809D01*
X88264761Y-86298809D02*
X88074285Y-86298809D01*
X88693333Y-86727380D02*
X88693333Y-85727380D01*
X88693333Y-86203571D02*
X89264761Y-86203571D01*
X89264761Y-86727380D02*
X89264761Y-85727380D01*
X90264761Y-86727380D02*
X89693333Y-86727380D01*
X89979047Y-86727380D02*
X89979047Y-85727380D01*
X89979047Y-85727380D02*
X89883809Y-85870238D01*
X89883809Y-85870238D02*
X89788571Y-85965476D01*
X89788571Y-85965476D02*
X89693333Y-86013095D01*
%TO.C,UR1*%
X179713095Y-129642380D02*
X179713095Y-130451904D01*
X179713095Y-130451904D02*
X179760714Y-130547142D01*
X179760714Y-130547142D02*
X179808333Y-130594761D01*
X179808333Y-130594761D02*
X179903571Y-130642380D01*
X179903571Y-130642380D02*
X180094047Y-130642380D01*
X180094047Y-130642380D02*
X180189285Y-130594761D01*
X180189285Y-130594761D02*
X180236904Y-130547142D01*
X180236904Y-130547142D02*
X180284523Y-130451904D01*
X180284523Y-130451904D02*
X180284523Y-129642380D01*
X181332142Y-130642380D02*
X180998809Y-130166190D01*
X180760714Y-130642380D02*
X180760714Y-129642380D01*
X180760714Y-129642380D02*
X181141666Y-129642380D01*
X181141666Y-129642380D02*
X181236904Y-129690000D01*
X181236904Y-129690000D02*
X181284523Y-129737619D01*
X181284523Y-129737619D02*
X181332142Y-129832857D01*
X181332142Y-129832857D02*
X181332142Y-129975714D01*
X181332142Y-129975714D02*
X181284523Y-130070952D01*
X181284523Y-130070952D02*
X181236904Y-130118571D01*
X181236904Y-130118571D02*
X181141666Y-130166190D01*
X181141666Y-130166190D02*
X180760714Y-130166190D01*
X182284523Y-130642380D02*
X181713095Y-130642380D01*
X181998809Y-130642380D02*
X181998809Y-129642380D01*
X181998809Y-129642380D02*
X181903571Y-129785238D01*
X181903571Y-129785238D02*
X181808333Y-129880476D01*
X181808333Y-129880476D02*
X181713095Y-129928095D01*
X178332143Y-130912380D02*
X178998809Y-130912380D01*
X178998809Y-130912380D02*
X178570238Y-131912380D01*
X179808333Y-131245714D02*
X179808333Y-131912380D01*
X179570238Y-130864761D02*
X179332143Y-131579047D01*
X179332143Y-131579047D02*
X179951190Y-131579047D01*
X180236905Y-131912380D02*
X180760714Y-131245714D01*
X180236905Y-131245714D02*
X180760714Y-131912380D01*
X181665476Y-131912380D02*
X181094048Y-131912380D01*
X181379762Y-131912380D02*
X181379762Y-130912380D01*
X181379762Y-130912380D02*
X181284524Y-131055238D01*
X181284524Y-131055238D02*
X181189286Y-131150476D01*
X181189286Y-131150476D02*
X181094048Y-131198095D01*
X182522619Y-130912380D02*
X182332143Y-130912380D01*
X182332143Y-130912380D02*
X182236905Y-130960000D01*
X182236905Y-130960000D02*
X182189286Y-131007619D01*
X182189286Y-131007619D02*
X182094048Y-131150476D01*
X182094048Y-131150476D02*
X182046429Y-131340952D01*
X182046429Y-131340952D02*
X182046429Y-131721904D01*
X182046429Y-131721904D02*
X182094048Y-131817142D01*
X182094048Y-131817142D02*
X182141667Y-131864761D01*
X182141667Y-131864761D02*
X182236905Y-131912380D01*
X182236905Y-131912380D02*
X182427381Y-131912380D01*
X182427381Y-131912380D02*
X182522619Y-131864761D01*
X182522619Y-131864761D02*
X182570238Y-131817142D01*
X182570238Y-131817142D02*
X182617857Y-131721904D01*
X182617857Y-131721904D02*
X182617857Y-131483809D01*
X182617857Y-131483809D02*
X182570238Y-131388571D01*
X182570238Y-131388571D02*
X182522619Y-131340952D01*
X182522619Y-131340952D02*
X182427381Y-131293333D01*
X182427381Y-131293333D02*
X182236905Y-131293333D01*
X182236905Y-131293333D02*
X182141667Y-131340952D01*
X182141667Y-131340952D02*
X182094048Y-131388571D01*
X182094048Y-131388571D02*
X182046429Y-131483809D01*
X183570238Y-131912380D02*
X182998810Y-131912380D01*
X183284524Y-131912380D02*
X183284524Y-130912380D01*
X183284524Y-130912380D02*
X183189286Y-131055238D01*
X183189286Y-131055238D02*
X183094048Y-131150476D01*
X183094048Y-131150476D02*
X182998810Y-131198095D01*
%TO.C,U3*%
X70238095Y-116567380D02*
X70238095Y-117376904D01*
X70238095Y-117376904D02*
X70285714Y-117472142D01*
X70285714Y-117472142D02*
X70333333Y-117519761D01*
X70333333Y-117519761D02*
X70428571Y-117567380D01*
X70428571Y-117567380D02*
X70619047Y-117567380D01*
X70619047Y-117567380D02*
X70714285Y-117519761D01*
X70714285Y-117519761D02*
X70761904Y-117472142D01*
X70761904Y-117472142D02*
X70809523Y-117376904D01*
X70809523Y-117376904D02*
X70809523Y-116567380D01*
X71190476Y-116567380D02*
X71809523Y-116567380D01*
X71809523Y-116567380D02*
X71476190Y-116948333D01*
X71476190Y-116948333D02*
X71619047Y-116948333D01*
X71619047Y-116948333D02*
X71714285Y-116995952D01*
X71714285Y-116995952D02*
X71761904Y-117043571D01*
X71761904Y-117043571D02*
X71809523Y-117138809D01*
X71809523Y-117138809D02*
X71809523Y-117376904D01*
X71809523Y-117376904D02*
X71761904Y-117472142D01*
X71761904Y-117472142D02*
X71714285Y-117519761D01*
X71714285Y-117519761D02*
X71619047Y-117567380D01*
X71619047Y-117567380D02*
X71333333Y-117567380D01*
X71333333Y-117567380D02*
X71238095Y-117519761D01*
X71238095Y-117519761D02*
X71190476Y-117472142D01*
X71307143Y-121681666D02*
X71783333Y-121681666D01*
X71211905Y-121967380D02*
X71545238Y-120967380D01*
X71545238Y-120967380D02*
X71878571Y-121967380D01*
X72211905Y-121967380D02*
X72211905Y-120967380D01*
X72211905Y-120967380D02*
X72592857Y-120967380D01*
X72592857Y-120967380D02*
X72688095Y-121015000D01*
X72688095Y-121015000D02*
X72735714Y-121062619D01*
X72735714Y-121062619D02*
X72783333Y-121157857D01*
X72783333Y-121157857D02*
X72783333Y-121300714D01*
X72783333Y-121300714D02*
X72735714Y-121395952D01*
X72735714Y-121395952D02*
X72688095Y-121443571D01*
X72688095Y-121443571D02*
X72592857Y-121491190D01*
X72592857Y-121491190D02*
X72211905Y-121491190D01*
X73116667Y-120967380D02*
X73783333Y-121967380D01*
X73783333Y-120967380D02*
X73116667Y-121967380D01*
X74307143Y-121395952D02*
X74211905Y-121348333D01*
X74211905Y-121348333D02*
X74164286Y-121300714D01*
X74164286Y-121300714D02*
X74116667Y-121205476D01*
X74116667Y-121205476D02*
X74116667Y-121157857D01*
X74116667Y-121157857D02*
X74164286Y-121062619D01*
X74164286Y-121062619D02*
X74211905Y-121015000D01*
X74211905Y-121015000D02*
X74307143Y-120967380D01*
X74307143Y-120967380D02*
X74497619Y-120967380D01*
X74497619Y-120967380D02*
X74592857Y-121015000D01*
X74592857Y-121015000D02*
X74640476Y-121062619D01*
X74640476Y-121062619D02*
X74688095Y-121157857D01*
X74688095Y-121157857D02*
X74688095Y-121205476D01*
X74688095Y-121205476D02*
X74640476Y-121300714D01*
X74640476Y-121300714D02*
X74592857Y-121348333D01*
X74592857Y-121348333D02*
X74497619Y-121395952D01*
X74497619Y-121395952D02*
X74307143Y-121395952D01*
X74307143Y-121395952D02*
X74211905Y-121443571D01*
X74211905Y-121443571D02*
X74164286Y-121491190D01*
X74164286Y-121491190D02*
X74116667Y-121586428D01*
X74116667Y-121586428D02*
X74116667Y-121776904D01*
X74116667Y-121776904D02*
X74164286Y-121872142D01*
X74164286Y-121872142D02*
X74211905Y-121919761D01*
X74211905Y-121919761D02*
X74307143Y-121967380D01*
X74307143Y-121967380D02*
X74497619Y-121967380D01*
X74497619Y-121967380D02*
X74592857Y-121919761D01*
X74592857Y-121919761D02*
X74640476Y-121872142D01*
X74640476Y-121872142D02*
X74688095Y-121776904D01*
X74688095Y-121776904D02*
X74688095Y-121586428D01*
X74688095Y-121586428D02*
X74640476Y-121491190D01*
X74640476Y-121491190D02*
X74592857Y-121443571D01*
X74592857Y-121443571D02*
X74497619Y-121395952D01*
X75069048Y-121062619D02*
X75116667Y-121015000D01*
X75116667Y-121015000D02*
X75211905Y-120967380D01*
X75211905Y-120967380D02*
X75450000Y-120967380D01*
X75450000Y-120967380D02*
X75545238Y-121015000D01*
X75545238Y-121015000D02*
X75592857Y-121062619D01*
X75592857Y-121062619D02*
X75640476Y-121157857D01*
X75640476Y-121157857D02*
X75640476Y-121253095D01*
X75640476Y-121253095D02*
X75592857Y-121395952D01*
X75592857Y-121395952D02*
X75021429Y-121967380D01*
X75021429Y-121967380D02*
X75640476Y-121967380D01*
X75973810Y-120967380D02*
X76592857Y-120967380D01*
X76592857Y-120967380D02*
X76259524Y-121348333D01*
X76259524Y-121348333D02*
X76402381Y-121348333D01*
X76402381Y-121348333D02*
X76497619Y-121395952D01*
X76497619Y-121395952D02*
X76545238Y-121443571D01*
X76545238Y-121443571D02*
X76592857Y-121538809D01*
X76592857Y-121538809D02*
X76592857Y-121776904D01*
X76592857Y-121776904D02*
X76545238Y-121872142D01*
X76545238Y-121872142D02*
X76497619Y-121919761D01*
X76497619Y-121919761D02*
X76402381Y-121967380D01*
X76402381Y-121967380D02*
X76116667Y-121967380D01*
X76116667Y-121967380D02*
X76021429Y-121919761D01*
X76021429Y-121919761D02*
X75973810Y-121872142D01*
%TO.C,UNAND1*%
X109656905Y-120812380D02*
X109656905Y-121621904D01*
X109656905Y-121621904D02*
X109704524Y-121717142D01*
X109704524Y-121717142D02*
X109752143Y-121764761D01*
X109752143Y-121764761D02*
X109847381Y-121812380D01*
X109847381Y-121812380D02*
X110037857Y-121812380D01*
X110037857Y-121812380D02*
X110133095Y-121764761D01*
X110133095Y-121764761D02*
X110180714Y-121717142D01*
X110180714Y-121717142D02*
X110228333Y-121621904D01*
X110228333Y-121621904D02*
X110228333Y-120812380D01*
X110704524Y-121812380D02*
X110704524Y-120812380D01*
X110704524Y-120812380D02*
X111275952Y-121812380D01*
X111275952Y-121812380D02*
X111275952Y-120812380D01*
X111704524Y-121526666D02*
X112180714Y-121526666D01*
X111609286Y-121812380D02*
X111942619Y-120812380D01*
X111942619Y-120812380D02*
X112275952Y-121812380D01*
X112609286Y-121812380D02*
X112609286Y-120812380D01*
X112609286Y-120812380D02*
X113180714Y-121812380D01*
X113180714Y-121812380D02*
X113180714Y-120812380D01*
X113656905Y-121812380D02*
X113656905Y-120812380D01*
X113656905Y-120812380D02*
X113895000Y-120812380D01*
X113895000Y-120812380D02*
X114037857Y-120860000D01*
X114037857Y-120860000D02*
X114133095Y-120955238D01*
X114133095Y-120955238D02*
X114180714Y-121050476D01*
X114180714Y-121050476D02*
X114228333Y-121240952D01*
X114228333Y-121240952D02*
X114228333Y-121383809D01*
X114228333Y-121383809D02*
X114180714Y-121574285D01*
X114180714Y-121574285D02*
X114133095Y-121669523D01*
X114133095Y-121669523D02*
X114037857Y-121764761D01*
X114037857Y-121764761D02*
X113895000Y-121812380D01*
X113895000Y-121812380D02*
X113656905Y-121812380D01*
X115180714Y-121812380D02*
X114609286Y-121812380D01*
X114895000Y-121812380D02*
X114895000Y-120812380D01*
X114895000Y-120812380D02*
X114799762Y-120955238D01*
X114799762Y-120955238D02*
X114704524Y-121050476D01*
X114704524Y-121050476D02*
X114609286Y-121098095D01*
X110228333Y-122082380D02*
X110894999Y-122082380D01*
X110894999Y-122082380D02*
X110466428Y-123082380D01*
X111704523Y-122415714D02*
X111704523Y-123082380D01*
X111466428Y-122034761D02*
X111228333Y-122749047D01*
X111228333Y-122749047D02*
X111847380Y-122749047D01*
X112133095Y-123082380D02*
X112656904Y-122415714D01*
X112133095Y-122415714D02*
X112656904Y-123082380D01*
X113228333Y-122082380D02*
X113323571Y-122082380D01*
X113323571Y-122082380D02*
X113418809Y-122130000D01*
X113418809Y-122130000D02*
X113466428Y-122177619D01*
X113466428Y-122177619D02*
X113514047Y-122272857D01*
X113514047Y-122272857D02*
X113561666Y-122463333D01*
X113561666Y-122463333D02*
X113561666Y-122701428D01*
X113561666Y-122701428D02*
X113514047Y-122891904D01*
X113514047Y-122891904D02*
X113466428Y-122987142D01*
X113466428Y-122987142D02*
X113418809Y-123034761D01*
X113418809Y-123034761D02*
X113323571Y-123082380D01*
X113323571Y-123082380D02*
X113228333Y-123082380D01*
X113228333Y-123082380D02*
X113133095Y-123034761D01*
X113133095Y-123034761D02*
X113085476Y-122987142D01*
X113085476Y-122987142D02*
X113037857Y-122891904D01*
X113037857Y-122891904D02*
X112990238Y-122701428D01*
X112990238Y-122701428D02*
X112990238Y-122463333D01*
X112990238Y-122463333D02*
X113037857Y-122272857D01*
X113037857Y-122272857D02*
X113085476Y-122177619D01*
X113085476Y-122177619D02*
X113133095Y-122130000D01*
X113133095Y-122130000D02*
X113228333Y-122082380D01*
X114180714Y-122082380D02*
X114275952Y-122082380D01*
X114275952Y-122082380D02*
X114371190Y-122130000D01*
X114371190Y-122130000D02*
X114418809Y-122177619D01*
X114418809Y-122177619D02*
X114466428Y-122272857D01*
X114466428Y-122272857D02*
X114514047Y-122463333D01*
X114514047Y-122463333D02*
X114514047Y-122701428D01*
X114514047Y-122701428D02*
X114466428Y-122891904D01*
X114466428Y-122891904D02*
X114418809Y-122987142D01*
X114418809Y-122987142D02*
X114371190Y-123034761D01*
X114371190Y-123034761D02*
X114275952Y-123082380D01*
X114275952Y-123082380D02*
X114180714Y-123082380D01*
X114180714Y-123082380D02*
X114085476Y-123034761D01*
X114085476Y-123034761D02*
X114037857Y-122987142D01*
X114037857Y-122987142D02*
X113990238Y-122891904D01*
X113990238Y-122891904D02*
X113942619Y-122701428D01*
X113942619Y-122701428D02*
X113942619Y-122463333D01*
X113942619Y-122463333D02*
X113990238Y-122272857D01*
X113990238Y-122272857D02*
X114037857Y-122177619D01*
X114037857Y-122177619D02*
X114085476Y-122130000D01*
X114085476Y-122130000D02*
X114180714Y-122082380D01*
%TO.C,JREGLOW4*%
X151654285Y-95887380D02*
X151654285Y-96601666D01*
X151654285Y-96601666D02*
X151606666Y-96744523D01*
X151606666Y-96744523D02*
X151511428Y-96839761D01*
X151511428Y-96839761D02*
X151368571Y-96887380D01*
X151368571Y-96887380D02*
X151273333Y-96887380D01*
X152701904Y-96887380D02*
X152368571Y-96411190D01*
X152130476Y-96887380D02*
X152130476Y-95887380D01*
X152130476Y-95887380D02*
X152511428Y-95887380D01*
X152511428Y-95887380D02*
X152606666Y-95935000D01*
X152606666Y-95935000D02*
X152654285Y-95982619D01*
X152654285Y-95982619D02*
X152701904Y-96077857D01*
X152701904Y-96077857D02*
X152701904Y-96220714D01*
X152701904Y-96220714D02*
X152654285Y-96315952D01*
X152654285Y-96315952D02*
X152606666Y-96363571D01*
X152606666Y-96363571D02*
X152511428Y-96411190D01*
X152511428Y-96411190D02*
X152130476Y-96411190D01*
X153130476Y-96363571D02*
X153463809Y-96363571D01*
X153606666Y-96887380D02*
X153130476Y-96887380D01*
X153130476Y-96887380D02*
X153130476Y-95887380D01*
X153130476Y-95887380D02*
X153606666Y-95887380D01*
X154559047Y-95935000D02*
X154463809Y-95887380D01*
X154463809Y-95887380D02*
X154320952Y-95887380D01*
X154320952Y-95887380D02*
X154178095Y-95935000D01*
X154178095Y-95935000D02*
X154082857Y-96030238D01*
X154082857Y-96030238D02*
X154035238Y-96125476D01*
X154035238Y-96125476D02*
X153987619Y-96315952D01*
X153987619Y-96315952D02*
X153987619Y-96458809D01*
X153987619Y-96458809D02*
X154035238Y-96649285D01*
X154035238Y-96649285D02*
X154082857Y-96744523D01*
X154082857Y-96744523D02*
X154178095Y-96839761D01*
X154178095Y-96839761D02*
X154320952Y-96887380D01*
X154320952Y-96887380D02*
X154416190Y-96887380D01*
X154416190Y-96887380D02*
X154559047Y-96839761D01*
X154559047Y-96839761D02*
X154606666Y-96792142D01*
X154606666Y-96792142D02*
X154606666Y-96458809D01*
X154606666Y-96458809D02*
X154416190Y-96458809D01*
X155511428Y-96887380D02*
X155035238Y-96887380D01*
X155035238Y-96887380D02*
X155035238Y-95887380D01*
X156035238Y-95887380D02*
X156225714Y-95887380D01*
X156225714Y-95887380D02*
X156320952Y-95935000D01*
X156320952Y-95935000D02*
X156416190Y-96030238D01*
X156416190Y-96030238D02*
X156463809Y-96220714D01*
X156463809Y-96220714D02*
X156463809Y-96554047D01*
X156463809Y-96554047D02*
X156416190Y-96744523D01*
X156416190Y-96744523D02*
X156320952Y-96839761D01*
X156320952Y-96839761D02*
X156225714Y-96887380D01*
X156225714Y-96887380D02*
X156035238Y-96887380D01*
X156035238Y-96887380D02*
X155940000Y-96839761D01*
X155940000Y-96839761D02*
X155844762Y-96744523D01*
X155844762Y-96744523D02*
X155797143Y-96554047D01*
X155797143Y-96554047D02*
X155797143Y-96220714D01*
X155797143Y-96220714D02*
X155844762Y-96030238D01*
X155844762Y-96030238D02*
X155940000Y-95935000D01*
X155940000Y-95935000D02*
X156035238Y-95887380D01*
X156797143Y-95887380D02*
X157035238Y-96887380D01*
X157035238Y-96887380D02*
X157225714Y-96173095D01*
X157225714Y-96173095D02*
X157416190Y-96887380D01*
X157416190Y-96887380D02*
X157654286Y-95887380D01*
X158463809Y-96220714D02*
X158463809Y-96887380D01*
X158225714Y-95839761D02*
X157987619Y-96554047D01*
X157987619Y-96554047D02*
X158606666Y-96554047D01*
%TO.C,UOR1*%
X106164286Y-91602380D02*
X106164286Y-92411904D01*
X106164286Y-92411904D02*
X106211905Y-92507142D01*
X106211905Y-92507142D02*
X106259524Y-92554761D01*
X106259524Y-92554761D02*
X106354762Y-92602380D01*
X106354762Y-92602380D02*
X106545238Y-92602380D01*
X106545238Y-92602380D02*
X106640476Y-92554761D01*
X106640476Y-92554761D02*
X106688095Y-92507142D01*
X106688095Y-92507142D02*
X106735714Y-92411904D01*
X106735714Y-92411904D02*
X106735714Y-91602380D01*
X107402381Y-91602380D02*
X107592857Y-91602380D01*
X107592857Y-91602380D02*
X107688095Y-91650000D01*
X107688095Y-91650000D02*
X107783333Y-91745238D01*
X107783333Y-91745238D02*
X107830952Y-91935714D01*
X107830952Y-91935714D02*
X107830952Y-92269047D01*
X107830952Y-92269047D02*
X107783333Y-92459523D01*
X107783333Y-92459523D02*
X107688095Y-92554761D01*
X107688095Y-92554761D02*
X107592857Y-92602380D01*
X107592857Y-92602380D02*
X107402381Y-92602380D01*
X107402381Y-92602380D02*
X107307143Y-92554761D01*
X107307143Y-92554761D02*
X107211905Y-92459523D01*
X107211905Y-92459523D02*
X107164286Y-92269047D01*
X107164286Y-92269047D02*
X107164286Y-91935714D01*
X107164286Y-91935714D02*
X107211905Y-91745238D01*
X107211905Y-91745238D02*
X107307143Y-91650000D01*
X107307143Y-91650000D02*
X107402381Y-91602380D01*
X108830952Y-92602380D02*
X108497619Y-92126190D01*
X108259524Y-92602380D02*
X108259524Y-91602380D01*
X108259524Y-91602380D02*
X108640476Y-91602380D01*
X108640476Y-91602380D02*
X108735714Y-91650000D01*
X108735714Y-91650000D02*
X108783333Y-91697619D01*
X108783333Y-91697619D02*
X108830952Y-91792857D01*
X108830952Y-91792857D02*
X108830952Y-91935714D01*
X108830952Y-91935714D02*
X108783333Y-92030952D01*
X108783333Y-92030952D02*
X108735714Y-92078571D01*
X108735714Y-92078571D02*
X108640476Y-92126190D01*
X108640476Y-92126190D02*
X108259524Y-92126190D01*
X109783333Y-92602380D02*
X109211905Y-92602380D01*
X109497619Y-92602380D02*
X109497619Y-91602380D01*
X109497619Y-91602380D02*
X109402381Y-91745238D01*
X109402381Y-91745238D02*
X109307143Y-91840476D01*
X109307143Y-91840476D02*
X109211905Y-91888095D01*
X105783333Y-92872380D02*
X106449999Y-92872380D01*
X106449999Y-92872380D02*
X106021428Y-93872380D01*
X107259523Y-93205714D02*
X107259523Y-93872380D01*
X107021428Y-92824761D02*
X106783333Y-93539047D01*
X106783333Y-93539047D02*
X107402380Y-93539047D01*
X107688095Y-93872380D02*
X108211904Y-93205714D01*
X107688095Y-93205714D02*
X108211904Y-93872380D01*
X108497619Y-92872380D02*
X109116666Y-92872380D01*
X109116666Y-92872380D02*
X108783333Y-93253333D01*
X108783333Y-93253333D02*
X108926190Y-93253333D01*
X108926190Y-93253333D02*
X109021428Y-93300952D01*
X109021428Y-93300952D02*
X109069047Y-93348571D01*
X109069047Y-93348571D02*
X109116666Y-93443809D01*
X109116666Y-93443809D02*
X109116666Y-93681904D01*
X109116666Y-93681904D02*
X109069047Y-93777142D01*
X109069047Y-93777142D02*
X109021428Y-93824761D01*
X109021428Y-93824761D02*
X108926190Y-93872380D01*
X108926190Y-93872380D02*
X108640476Y-93872380D01*
X108640476Y-93872380D02*
X108545238Y-93824761D01*
X108545238Y-93824761D02*
X108497619Y-93777142D01*
X109497619Y-92967619D02*
X109545238Y-92920000D01*
X109545238Y-92920000D02*
X109640476Y-92872380D01*
X109640476Y-92872380D02*
X109878571Y-92872380D01*
X109878571Y-92872380D02*
X109973809Y-92920000D01*
X109973809Y-92920000D02*
X110021428Y-92967619D01*
X110021428Y-92967619D02*
X110069047Y-93062857D01*
X110069047Y-93062857D02*
X110069047Y-93158095D01*
X110069047Y-93158095D02*
X110021428Y-93300952D01*
X110021428Y-93300952D02*
X109450000Y-93872380D01*
X109450000Y-93872380D02*
X110069047Y-93872380D01*
%TO.C,JREGHIGH3*%
X128508571Y-85727380D02*
X128508571Y-86441666D01*
X128508571Y-86441666D02*
X128460952Y-86584523D01*
X128460952Y-86584523D02*
X128365714Y-86679761D01*
X128365714Y-86679761D02*
X128222857Y-86727380D01*
X128222857Y-86727380D02*
X128127619Y-86727380D01*
X129556190Y-86727380D02*
X129222857Y-86251190D01*
X128984762Y-86727380D02*
X128984762Y-85727380D01*
X128984762Y-85727380D02*
X129365714Y-85727380D01*
X129365714Y-85727380D02*
X129460952Y-85775000D01*
X129460952Y-85775000D02*
X129508571Y-85822619D01*
X129508571Y-85822619D02*
X129556190Y-85917857D01*
X129556190Y-85917857D02*
X129556190Y-86060714D01*
X129556190Y-86060714D02*
X129508571Y-86155952D01*
X129508571Y-86155952D02*
X129460952Y-86203571D01*
X129460952Y-86203571D02*
X129365714Y-86251190D01*
X129365714Y-86251190D02*
X128984762Y-86251190D01*
X129984762Y-86203571D02*
X130318095Y-86203571D01*
X130460952Y-86727380D02*
X129984762Y-86727380D01*
X129984762Y-86727380D02*
X129984762Y-85727380D01*
X129984762Y-85727380D02*
X130460952Y-85727380D01*
X131413333Y-85775000D02*
X131318095Y-85727380D01*
X131318095Y-85727380D02*
X131175238Y-85727380D01*
X131175238Y-85727380D02*
X131032381Y-85775000D01*
X131032381Y-85775000D02*
X130937143Y-85870238D01*
X130937143Y-85870238D02*
X130889524Y-85965476D01*
X130889524Y-85965476D02*
X130841905Y-86155952D01*
X130841905Y-86155952D02*
X130841905Y-86298809D01*
X130841905Y-86298809D02*
X130889524Y-86489285D01*
X130889524Y-86489285D02*
X130937143Y-86584523D01*
X130937143Y-86584523D02*
X131032381Y-86679761D01*
X131032381Y-86679761D02*
X131175238Y-86727380D01*
X131175238Y-86727380D02*
X131270476Y-86727380D01*
X131270476Y-86727380D02*
X131413333Y-86679761D01*
X131413333Y-86679761D02*
X131460952Y-86632142D01*
X131460952Y-86632142D02*
X131460952Y-86298809D01*
X131460952Y-86298809D02*
X131270476Y-86298809D01*
X131889524Y-86727380D02*
X131889524Y-85727380D01*
X131889524Y-86203571D02*
X132460952Y-86203571D01*
X132460952Y-86727380D02*
X132460952Y-85727380D01*
X132937143Y-86727380D02*
X132937143Y-85727380D01*
X133937142Y-85775000D02*
X133841904Y-85727380D01*
X133841904Y-85727380D02*
X133699047Y-85727380D01*
X133699047Y-85727380D02*
X133556190Y-85775000D01*
X133556190Y-85775000D02*
X133460952Y-85870238D01*
X133460952Y-85870238D02*
X133413333Y-85965476D01*
X133413333Y-85965476D02*
X133365714Y-86155952D01*
X133365714Y-86155952D02*
X133365714Y-86298809D01*
X133365714Y-86298809D02*
X133413333Y-86489285D01*
X133413333Y-86489285D02*
X133460952Y-86584523D01*
X133460952Y-86584523D02*
X133556190Y-86679761D01*
X133556190Y-86679761D02*
X133699047Y-86727380D01*
X133699047Y-86727380D02*
X133794285Y-86727380D01*
X133794285Y-86727380D02*
X133937142Y-86679761D01*
X133937142Y-86679761D02*
X133984761Y-86632142D01*
X133984761Y-86632142D02*
X133984761Y-86298809D01*
X133984761Y-86298809D02*
X133794285Y-86298809D01*
X134413333Y-86727380D02*
X134413333Y-85727380D01*
X134413333Y-86203571D02*
X134984761Y-86203571D01*
X134984761Y-86727380D02*
X134984761Y-85727380D01*
X135365714Y-85727380D02*
X135984761Y-85727380D01*
X135984761Y-85727380D02*
X135651428Y-86108333D01*
X135651428Y-86108333D02*
X135794285Y-86108333D01*
X135794285Y-86108333D02*
X135889523Y-86155952D01*
X135889523Y-86155952D02*
X135937142Y-86203571D01*
X135937142Y-86203571D02*
X135984761Y-86298809D01*
X135984761Y-86298809D02*
X135984761Y-86536904D01*
X135984761Y-86536904D02*
X135937142Y-86632142D01*
X135937142Y-86632142D02*
X135889523Y-86679761D01*
X135889523Y-86679761D02*
X135794285Y-86727380D01*
X135794285Y-86727380D02*
X135508571Y-86727380D01*
X135508571Y-86727380D02*
X135413333Y-86679761D01*
X135413333Y-86679761D02*
X135365714Y-86632142D01*
%TO.C,JMEM_D2*%
X202930476Y-116207380D02*
X202930476Y-116921666D01*
X202930476Y-116921666D02*
X202882857Y-117064523D01*
X202882857Y-117064523D02*
X202787619Y-117159761D01*
X202787619Y-117159761D02*
X202644762Y-117207380D01*
X202644762Y-117207380D02*
X202549524Y-117207380D01*
X203406667Y-117207380D02*
X203406667Y-116207380D01*
X203406667Y-116207380D02*
X203740000Y-116921666D01*
X203740000Y-116921666D02*
X204073333Y-116207380D01*
X204073333Y-116207380D02*
X204073333Y-117207380D01*
X204549524Y-116683571D02*
X204882857Y-116683571D01*
X205025714Y-117207380D02*
X204549524Y-117207380D01*
X204549524Y-117207380D02*
X204549524Y-116207380D01*
X204549524Y-116207380D02*
X205025714Y-116207380D01*
X205454286Y-117207380D02*
X205454286Y-116207380D01*
X205454286Y-116207380D02*
X205787619Y-116921666D01*
X205787619Y-116921666D02*
X206120952Y-116207380D01*
X206120952Y-116207380D02*
X206120952Y-117207380D01*
X206359048Y-117302619D02*
X207120952Y-117302619D01*
X207359048Y-117207380D02*
X207359048Y-116207380D01*
X207359048Y-116207380D02*
X207597143Y-116207380D01*
X207597143Y-116207380D02*
X207740000Y-116255000D01*
X207740000Y-116255000D02*
X207835238Y-116350238D01*
X207835238Y-116350238D02*
X207882857Y-116445476D01*
X207882857Y-116445476D02*
X207930476Y-116635952D01*
X207930476Y-116635952D02*
X207930476Y-116778809D01*
X207930476Y-116778809D02*
X207882857Y-116969285D01*
X207882857Y-116969285D02*
X207835238Y-117064523D01*
X207835238Y-117064523D02*
X207740000Y-117159761D01*
X207740000Y-117159761D02*
X207597143Y-117207380D01*
X207597143Y-117207380D02*
X207359048Y-117207380D01*
X208311429Y-116302619D02*
X208359048Y-116255000D01*
X208359048Y-116255000D02*
X208454286Y-116207380D01*
X208454286Y-116207380D02*
X208692381Y-116207380D01*
X208692381Y-116207380D02*
X208787619Y-116255000D01*
X208787619Y-116255000D02*
X208835238Y-116302619D01*
X208835238Y-116302619D02*
X208882857Y-116397857D01*
X208882857Y-116397857D02*
X208882857Y-116493095D01*
X208882857Y-116493095D02*
X208835238Y-116635952D01*
X208835238Y-116635952D02*
X208263810Y-117207380D01*
X208263810Y-117207380D02*
X208882857Y-117207380D01*
%TO.C,JREGHIGH2*%
X105648571Y-85727380D02*
X105648571Y-86441666D01*
X105648571Y-86441666D02*
X105600952Y-86584523D01*
X105600952Y-86584523D02*
X105505714Y-86679761D01*
X105505714Y-86679761D02*
X105362857Y-86727380D01*
X105362857Y-86727380D02*
X105267619Y-86727380D01*
X106696190Y-86727380D02*
X106362857Y-86251190D01*
X106124762Y-86727380D02*
X106124762Y-85727380D01*
X106124762Y-85727380D02*
X106505714Y-85727380D01*
X106505714Y-85727380D02*
X106600952Y-85775000D01*
X106600952Y-85775000D02*
X106648571Y-85822619D01*
X106648571Y-85822619D02*
X106696190Y-85917857D01*
X106696190Y-85917857D02*
X106696190Y-86060714D01*
X106696190Y-86060714D02*
X106648571Y-86155952D01*
X106648571Y-86155952D02*
X106600952Y-86203571D01*
X106600952Y-86203571D02*
X106505714Y-86251190D01*
X106505714Y-86251190D02*
X106124762Y-86251190D01*
X107124762Y-86203571D02*
X107458095Y-86203571D01*
X107600952Y-86727380D02*
X107124762Y-86727380D01*
X107124762Y-86727380D02*
X107124762Y-85727380D01*
X107124762Y-85727380D02*
X107600952Y-85727380D01*
X108553333Y-85775000D02*
X108458095Y-85727380D01*
X108458095Y-85727380D02*
X108315238Y-85727380D01*
X108315238Y-85727380D02*
X108172381Y-85775000D01*
X108172381Y-85775000D02*
X108077143Y-85870238D01*
X108077143Y-85870238D02*
X108029524Y-85965476D01*
X108029524Y-85965476D02*
X107981905Y-86155952D01*
X107981905Y-86155952D02*
X107981905Y-86298809D01*
X107981905Y-86298809D02*
X108029524Y-86489285D01*
X108029524Y-86489285D02*
X108077143Y-86584523D01*
X108077143Y-86584523D02*
X108172381Y-86679761D01*
X108172381Y-86679761D02*
X108315238Y-86727380D01*
X108315238Y-86727380D02*
X108410476Y-86727380D01*
X108410476Y-86727380D02*
X108553333Y-86679761D01*
X108553333Y-86679761D02*
X108600952Y-86632142D01*
X108600952Y-86632142D02*
X108600952Y-86298809D01*
X108600952Y-86298809D02*
X108410476Y-86298809D01*
X109029524Y-86727380D02*
X109029524Y-85727380D01*
X109029524Y-86203571D02*
X109600952Y-86203571D01*
X109600952Y-86727380D02*
X109600952Y-85727380D01*
X110077143Y-86727380D02*
X110077143Y-85727380D01*
X111077142Y-85775000D02*
X110981904Y-85727380D01*
X110981904Y-85727380D02*
X110839047Y-85727380D01*
X110839047Y-85727380D02*
X110696190Y-85775000D01*
X110696190Y-85775000D02*
X110600952Y-85870238D01*
X110600952Y-85870238D02*
X110553333Y-85965476D01*
X110553333Y-85965476D02*
X110505714Y-86155952D01*
X110505714Y-86155952D02*
X110505714Y-86298809D01*
X110505714Y-86298809D02*
X110553333Y-86489285D01*
X110553333Y-86489285D02*
X110600952Y-86584523D01*
X110600952Y-86584523D02*
X110696190Y-86679761D01*
X110696190Y-86679761D02*
X110839047Y-86727380D01*
X110839047Y-86727380D02*
X110934285Y-86727380D01*
X110934285Y-86727380D02*
X111077142Y-86679761D01*
X111077142Y-86679761D02*
X111124761Y-86632142D01*
X111124761Y-86632142D02*
X111124761Y-86298809D01*
X111124761Y-86298809D02*
X110934285Y-86298809D01*
X111553333Y-86727380D02*
X111553333Y-85727380D01*
X111553333Y-86203571D02*
X112124761Y-86203571D01*
X112124761Y-86727380D02*
X112124761Y-85727380D01*
X112553333Y-85822619D02*
X112600952Y-85775000D01*
X112600952Y-85775000D02*
X112696190Y-85727380D01*
X112696190Y-85727380D02*
X112934285Y-85727380D01*
X112934285Y-85727380D02*
X113029523Y-85775000D01*
X113029523Y-85775000D02*
X113077142Y-85822619D01*
X113077142Y-85822619D02*
X113124761Y-85917857D01*
X113124761Y-85917857D02*
X113124761Y-86013095D01*
X113124761Y-86013095D02*
X113077142Y-86155952D01*
X113077142Y-86155952D02*
X112505714Y-86727380D01*
X112505714Y-86727380D02*
X113124761Y-86727380D01*
%TO.C,UOR2*%
X122420286Y-120812380D02*
X122420286Y-121621904D01*
X122420286Y-121621904D02*
X122467905Y-121717142D01*
X122467905Y-121717142D02*
X122515524Y-121764761D01*
X122515524Y-121764761D02*
X122610762Y-121812380D01*
X122610762Y-121812380D02*
X122801238Y-121812380D01*
X122801238Y-121812380D02*
X122896476Y-121764761D01*
X122896476Y-121764761D02*
X122944095Y-121717142D01*
X122944095Y-121717142D02*
X122991714Y-121621904D01*
X122991714Y-121621904D02*
X122991714Y-120812380D01*
X123658381Y-120812380D02*
X123848857Y-120812380D01*
X123848857Y-120812380D02*
X123944095Y-120860000D01*
X123944095Y-120860000D02*
X124039333Y-120955238D01*
X124039333Y-120955238D02*
X124086952Y-121145714D01*
X124086952Y-121145714D02*
X124086952Y-121479047D01*
X124086952Y-121479047D02*
X124039333Y-121669523D01*
X124039333Y-121669523D02*
X123944095Y-121764761D01*
X123944095Y-121764761D02*
X123848857Y-121812380D01*
X123848857Y-121812380D02*
X123658381Y-121812380D01*
X123658381Y-121812380D02*
X123563143Y-121764761D01*
X123563143Y-121764761D02*
X123467905Y-121669523D01*
X123467905Y-121669523D02*
X123420286Y-121479047D01*
X123420286Y-121479047D02*
X123420286Y-121145714D01*
X123420286Y-121145714D02*
X123467905Y-120955238D01*
X123467905Y-120955238D02*
X123563143Y-120860000D01*
X123563143Y-120860000D02*
X123658381Y-120812380D01*
X125086952Y-121812380D02*
X124753619Y-121336190D01*
X124515524Y-121812380D02*
X124515524Y-120812380D01*
X124515524Y-120812380D02*
X124896476Y-120812380D01*
X124896476Y-120812380D02*
X124991714Y-120860000D01*
X124991714Y-120860000D02*
X125039333Y-120907619D01*
X125039333Y-120907619D02*
X125086952Y-121002857D01*
X125086952Y-121002857D02*
X125086952Y-121145714D01*
X125086952Y-121145714D02*
X125039333Y-121240952D01*
X125039333Y-121240952D02*
X124991714Y-121288571D01*
X124991714Y-121288571D02*
X124896476Y-121336190D01*
X124896476Y-121336190D02*
X124515524Y-121336190D01*
X125467905Y-120907619D02*
X125515524Y-120860000D01*
X125515524Y-120860000D02*
X125610762Y-120812380D01*
X125610762Y-120812380D02*
X125848857Y-120812380D01*
X125848857Y-120812380D02*
X125944095Y-120860000D01*
X125944095Y-120860000D02*
X125991714Y-120907619D01*
X125991714Y-120907619D02*
X126039333Y-121002857D01*
X126039333Y-121002857D02*
X126039333Y-121098095D01*
X126039333Y-121098095D02*
X125991714Y-121240952D01*
X125991714Y-121240952D02*
X125420286Y-121812380D01*
X125420286Y-121812380D02*
X126039333Y-121812380D01*
X122039333Y-122082380D02*
X122705999Y-122082380D01*
X122705999Y-122082380D02*
X122277428Y-123082380D01*
X123515523Y-122415714D02*
X123515523Y-123082380D01*
X123277428Y-122034761D02*
X123039333Y-122749047D01*
X123039333Y-122749047D02*
X123658380Y-122749047D01*
X123944095Y-123082380D02*
X124467904Y-122415714D01*
X123944095Y-122415714D02*
X124467904Y-123082380D01*
X124753619Y-122082380D02*
X125372666Y-122082380D01*
X125372666Y-122082380D02*
X125039333Y-122463333D01*
X125039333Y-122463333D02*
X125182190Y-122463333D01*
X125182190Y-122463333D02*
X125277428Y-122510952D01*
X125277428Y-122510952D02*
X125325047Y-122558571D01*
X125325047Y-122558571D02*
X125372666Y-122653809D01*
X125372666Y-122653809D02*
X125372666Y-122891904D01*
X125372666Y-122891904D02*
X125325047Y-122987142D01*
X125325047Y-122987142D02*
X125277428Y-123034761D01*
X125277428Y-123034761D02*
X125182190Y-123082380D01*
X125182190Y-123082380D02*
X124896476Y-123082380D01*
X124896476Y-123082380D02*
X124801238Y-123034761D01*
X124801238Y-123034761D02*
X124753619Y-122987142D01*
X125753619Y-122177619D02*
X125801238Y-122130000D01*
X125801238Y-122130000D02*
X125896476Y-122082380D01*
X125896476Y-122082380D02*
X126134571Y-122082380D01*
X126134571Y-122082380D02*
X126229809Y-122130000D01*
X126229809Y-122130000D02*
X126277428Y-122177619D01*
X126277428Y-122177619D02*
X126325047Y-122272857D01*
X126325047Y-122272857D02*
X126325047Y-122368095D01*
X126325047Y-122368095D02*
X126277428Y-122510952D01*
X126277428Y-122510952D02*
X125706000Y-123082380D01*
X125706000Y-123082380D02*
X126325047Y-123082380D01*
%TO.C,UOCTMUX1*%
X120721905Y-129636380D02*
X120721905Y-130445904D01*
X120721905Y-130445904D02*
X120769524Y-130541142D01*
X120769524Y-130541142D02*
X120817143Y-130588761D01*
X120817143Y-130588761D02*
X120912381Y-130636380D01*
X120912381Y-130636380D02*
X121102857Y-130636380D01*
X121102857Y-130636380D02*
X121198095Y-130588761D01*
X121198095Y-130588761D02*
X121245714Y-130541142D01*
X121245714Y-130541142D02*
X121293333Y-130445904D01*
X121293333Y-130445904D02*
X121293333Y-129636380D01*
X121960000Y-129636380D02*
X122150476Y-129636380D01*
X122150476Y-129636380D02*
X122245714Y-129684000D01*
X122245714Y-129684000D02*
X122340952Y-129779238D01*
X122340952Y-129779238D02*
X122388571Y-129969714D01*
X122388571Y-129969714D02*
X122388571Y-130303047D01*
X122388571Y-130303047D02*
X122340952Y-130493523D01*
X122340952Y-130493523D02*
X122245714Y-130588761D01*
X122245714Y-130588761D02*
X122150476Y-130636380D01*
X122150476Y-130636380D02*
X121960000Y-130636380D01*
X121960000Y-130636380D02*
X121864762Y-130588761D01*
X121864762Y-130588761D02*
X121769524Y-130493523D01*
X121769524Y-130493523D02*
X121721905Y-130303047D01*
X121721905Y-130303047D02*
X121721905Y-129969714D01*
X121721905Y-129969714D02*
X121769524Y-129779238D01*
X121769524Y-129779238D02*
X121864762Y-129684000D01*
X121864762Y-129684000D02*
X121960000Y-129636380D01*
X123388571Y-130541142D02*
X123340952Y-130588761D01*
X123340952Y-130588761D02*
X123198095Y-130636380D01*
X123198095Y-130636380D02*
X123102857Y-130636380D01*
X123102857Y-130636380D02*
X122960000Y-130588761D01*
X122960000Y-130588761D02*
X122864762Y-130493523D01*
X122864762Y-130493523D02*
X122817143Y-130398285D01*
X122817143Y-130398285D02*
X122769524Y-130207809D01*
X122769524Y-130207809D02*
X122769524Y-130064952D01*
X122769524Y-130064952D02*
X122817143Y-129874476D01*
X122817143Y-129874476D02*
X122864762Y-129779238D01*
X122864762Y-129779238D02*
X122960000Y-129684000D01*
X122960000Y-129684000D02*
X123102857Y-129636380D01*
X123102857Y-129636380D02*
X123198095Y-129636380D01*
X123198095Y-129636380D02*
X123340952Y-129684000D01*
X123340952Y-129684000D02*
X123388571Y-129731619D01*
X123674286Y-129636380D02*
X124245714Y-129636380D01*
X123960000Y-130636380D02*
X123960000Y-129636380D01*
X124579048Y-130636380D02*
X124579048Y-129636380D01*
X124579048Y-129636380D02*
X124912381Y-130350666D01*
X124912381Y-130350666D02*
X125245714Y-129636380D01*
X125245714Y-129636380D02*
X125245714Y-130636380D01*
X125721905Y-129636380D02*
X125721905Y-130445904D01*
X125721905Y-130445904D02*
X125769524Y-130541142D01*
X125769524Y-130541142D02*
X125817143Y-130588761D01*
X125817143Y-130588761D02*
X125912381Y-130636380D01*
X125912381Y-130636380D02*
X126102857Y-130636380D01*
X126102857Y-130636380D02*
X126198095Y-130588761D01*
X126198095Y-130588761D02*
X126245714Y-130541142D01*
X126245714Y-130541142D02*
X126293333Y-130445904D01*
X126293333Y-130445904D02*
X126293333Y-129636380D01*
X126674286Y-129636380D02*
X127340952Y-130636380D01*
X127340952Y-129636380D02*
X126674286Y-130636380D01*
X128245714Y-130636380D02*
X127674286Y-130636380D01*
X127960000Y-130636380D02*
X127960000Y-129636380D01*
X127960000Y-129636380D02*
X127864762Y-129779238D01*
X127864762Y-129779238D02*
X127769524Y-129874476D01*
X127769524Y-129874476D02*
X127674286Y-129922095D01*
X121817143Y-130906380D02*
X122483809Y-130906380D01*
X122483809Y-130906380D02*
X122055238Y-131906380D01*
X123293333Y-131239714D02*
X123293333Y-131906380D01*
X123055238Y-130858761D02*
X122817143Y-131573047D01*
X122817143Y-131573047D02*
X123436190Y-131573047D01*
X123721905Y-131906380D02*
X124245714Y-131239714D01*
X123721905Y-131239714D02*
X124245714Y-131906380D01*
X125150476Y-131906380D02*
X124579048Y-131906380D01*
X124864762Y-131906380D02*
X124864762Y-130906380D01*
X124864762Y-130906380D02*
X124769524Y-131049238D01*
X124769524Y-131049238D02*
X124674286Y-131144476D01*
X124674286Y-131144476D02*
X124579048Y-131192095D01*
X126055238Y-130906380D02*
X125579048Y-130906380D01*
X125579048Y-130906380D02*
X125531429Y-131382571D01*
X125531429Y-131382571D02*
X125579048Y-131334952D01*
X125579048Y-131334952D02*
X125674286Y-131287333D01*
X125674286Y-131287333D02*
X125912381Y-131287333D01*
X125912381Y-131287333D02*
X126007619Y-131334952D01*
X126007619Y-131334952D02*
X126055238Y-131382571D01*
X126055238Y-131382571D02*
X126102857Y-131477809D01*
X126102857Y-131477809D02*
X126102857Y-131715904D01*
X126102857Y-131715904D02*
X126055238Y-131811142D01*
X126055238Y-131811142D02*
X126007619Y-131858761D01*
X126007619Y-131858761D02*
X125912381Y-131906380D01*
X125912381Y-131906380D02*
X125674286Y-131906380D01*
X125674286Y-131906380D02*
X125579048Y-131858761D01*
X125579048Y-131858761D02*
X125531429Y-131811142D01*
X127055238Y-131906380D02*
X126483810Y-131906380D01*
X126769524Y-131906380D02*
X126769524Y-130906380D01*
X126769524Y-130906380D02*
X126674286Y-131049238D01*
X126674286Y-131049238D02*
X126579048Y-131144476D01*
X126579048Y-131144476D02*
X126483810Y-131192095D01*
%TO.C,UR2*%
X179713095Y-120872380D02*
X179713095Y-121681904D01*
X179713095Y-121681904D02*
X179760714Y-121777142D01*
X179760714Y-121777142D02*
X179808333Y-121824761D01*
X179808333Y-121824761D02*
X179903571Y-121872380D01*
X179903571Y-121872380D02*
X180094047Y-121872380D01*
X180094047Y-121872380D02*
X180189285Y-121824761D01*
X180189285Y-121824761D02*
X180236904Y-121777142D01*
X180236904Y-121777142D02*
X180284523Y-121681904D01*
X180284523Y-121681904D02*
X180284523Y-120872380D01*
X181332142Y-121872380D02*
X180998809Y-121396190D01*
X180760714Y-121872380D02*
X180760714Y-120872380D01*
X180760714Y-120872380D02*
X181141666Y-120872380D01*
X181141666Y-120872380D02*
X181236904Y-120920000D01*
X181236904Y-120920000D02*
X181284523Y-120967619D01*
X181284523Y-120967619D02*
X181332142Y-121062857D01*
X181332142Y-121062857D02*
X181332142Y-121205714D01*
X181332142Y-121205714D02*
X181284523Y-121300952D01*
X181284523Y-121300952D02*
X181236904Y-121348571D01*
X181236904Y-121348571D02*
X181141666Y-121396190D01*
X181141666Y-121396190D02*
X180760714Y-121396190D01*
X181713095Y-120967619D02*
X181760714Y-120920000D01*
X181760714Y-120920000D02*
X181855952Y-120872380D01*
X181855952Y-120872380D02*
X182094047Y-120872380D01*
X182094047Y-120872380D02*
X182189285Y-120920000D01*
X182189285Y-120920000D02*
X182236904Y-120967619D01*
X182236904Y-120967619D02*
X182284523Y-121062857D01*
X182284523Y-121062857D02*
X182284523Y-121158095D01*
X182284523Y-121158095D02*
X182236904Y-121300952D01*
X182236904Y-121300952D02*
X181665476Y-121872380D01*
X181665476Y-121872380D02*
X182284523Y-121872380D01*
X178332143Y-122142380D02*
X178998809Y-122142380D01*
X178998809Y-122142380D02*
X178570238Y-123142380D01*
X179808333Y-122475714D02*
X179808333Y-123142380D01*
X179570238Y-122094761D02*
X179332143Y-122809047D01*
X179332143Y-122809047D02*
X179951190Y-122809047D01*
X180236905Y-123142380D02*
X180760714Y-122475714D01*
X180236905Y-122475714D02*
X180760714Y-123142380D01*
X181665476Y-123142380D02*
X181094048Y-123142380D01*
X181379762Y-123142380D02*
X181379762Y-122142380D01*
X181379762Y-122142380D02*
X181284524Y-122285238D01*
X181284524Y-122285238D02*
X181189286Y-122380476D01*
X181189286Y-122380476D02*
X181094048Y-122428095D01*
X182522619Y-122142380D02*
X182332143Y-122142380D01*
X182332143Y-122142380D02*
X182236905Y-122190000D01*
X182236905Y-122190000D02*
X182189286Y-122237619D01*
X182189286Y-122237619D02*
X182094048Y-122380476D01*
X182094048Y-122380476D02*
X182046429Y-122570952D01*
X182046429Y-122570952D02*
X182046429Y-122951904D01*
X182046429Y-122951904D02*
X182094048Y-123047142D01*
X182094048Y-123047142D02*
X182141667Y-123094761D01*
X182141667Y-123094761D02*
X182236905Y-123142380D01*
X182236905Y-123142380D02*
X182427381Y-123142380D01*
X182427381Y-123142380D02*
X182522619Y-123094761D01*
X182522619Y-123094761D02*
X182570238Y-123047142D01*
X182570238Y-123047142D02*
X182617857Y-122951904D01*
X182617857Y-122951904D02*
X182617857Y-122713809D01*
X182617857Y-122713809D02*
X182570238Y-122618571D01*
X182570238Y-122618571D02*
X182522619Y-122570952D01*
X182522619Y-122570952D02*
X182427381Y-122523333D01*
X182427381Y-122523333D02*
X182236905Y-122523333D01*
X182236905Y-122523333D02*
X182141667Y-122570952D01*
X182141667Y-122570952D02*
X182094048Y-122618571D01*
X182094048Y-122618571D02*
X182046429Y-122713809D01*
X183570238Y-123142380D02*
X182998810Y-123142380D01*
X183284524Y-123142380D02*
X183284524Y-122142380D01*
X183284524Y-122142380D02*
X183189286Y-122285238D01*
X183189286Y-122285238D02*
X183094048Y-122380476D01*
X183094048Y-122380476D02*
X182998810Y-122428095D01*
%TO.C,SW1*%
X73036667Y-111154761D02*
X73179524Y-111202380D01*
X73179524Y-111202380D02*
X73417619Y-111202380D01*
X73417619Y-111202380D02*
X73512857Y-111154761D01*
X73512857Y-111154761D02*
X73560476Y-111107142D01*
X73560476Y-111107142D02*
X73608095Y-111011904D01*
X73608095Y-111011904D02*
X73608095Y-110916666D01*
X73608095Y-110916666D02*
X73560476Y-110821428D01*
X73560476Y-110821428D02*
X73512857Y-110773809D01*
X73512857Y-110773809D02*
X73417619Y-110726190D01*
X73417619Y-110726190D02*
X73227143Y-110678571D01*
X73227143Y-110678571D02*
X73131905Y-110630952D01*
X73131905Y-110630952D02*
X73084286Y-110583333D01*
X73084286Y-110583333D02*
X73036667Y-110488095D01*
X73036667Y-110488095D02*
X73036667Y-110392857D01*
X73036667Y-110392857D02*
X73084286Y-110297619D01*
X73084286Y-110297619D02*
X73131905Y-110250000D01*
X73131905Y-110250000D02*
X73227143Y-110202380D01*
X73227143Y-110202380D02*
X73465238Y-110202380D01*
X73465238Y-110202380D02*
X73608095Y-110250000D01*
X73941429Y-110202380D02*
X74179524Y-111202380D01*
X74179524Y-111202380D02*
X74370000Y-110488095D01*
X74370000Y-110488095D02*
X74560476Y-111202380D01*
X74560476Y-111202380D02*
X74798572Y-110202380D01*
X75703333Y-111202380D02*
X75131905Y-111202380D01*
X75417619Y-111202380D02*
X75417619Y-110202380D01*
X75417619Y-110202380D02*
X75322381Y-110345238D01*
X75322381Y-110345238D02*
X75227143Y-110440476D01*
X75227143Y-110440476D02*
X75131905Y-110488095D01*
X79961904Y-108367380D02*
X79628571Y-107891190D01*
X79390476Y-108367380D02*
X79390476Y-107367380D01*
X79390476Y-107367380D02*
X79771428Y-107367380D01*
X79771428Y-107367380D02*
X79866666Y-107415000D01*
X79866666Y-107415000D02*
X79914285Y-107462619D01*
X79914285Y-107462619D02*
X79961904Y-107557857D01*
X79961904Y-107557857D02*
X79961904Y-107700714D01*
X79961904Y-107700714D02*
X79914285Y-107795952D01*
X79914285Y-107795952D02*
X79866666Y-107843571D01*
X79866666Y-107843571D02*
X79771428Y-107891190D01*
X79771428Y-107891190D02*
X79390476Y-107891190D01*
X80771428Y-108319761D02*
X80676190Y-108367380D01*
X80676190Y-108367380D02*
X80485714Y-108367380D01*
X80485714Y-108367380D02*
X80390476Y-108319761D01*
X80390476Y-108319761D02*
X80342857Y-108224523D01*
X80342857Y-108224523D02*
X80342857Y-107843571D01*
X80342857Y-107843571D02*
X80390476Y-107748333D01*
X80390476Y-107748333D02*
X80485714Y-107700714D01*
X80485714Y-107700714D02*
X80676190Y-107700714D01*
X80676190Y-107700714D02*
X80771428Y-107748333D01*
X80771428Y-107748333D02*
X80819047Y-107843571D01*
X80819047Y-107843571D02*
X80819047Y-107938809D01*
X80819047Y-107938809D02*
X80342857Y-108034047D01*
X81200000Y-108319761D02*
X81295238Y-108367380D01*
X81295238Y-108367380D02*
X81485714Y-108367380D01*
X81485714Y-108367380D02*
X81580952Y-108319761D01*
X81580952Y-108319761D02*
X81628571Y-108224523D01*
X81628571Y-108224523D02*
X81628571Y-108176904D01*
X81628571Y-108176904D02*
X81580952Y-108081666D01*
X81580952Y-108081666D02*
X81485714Y-108034047D01*
X81485714Y-108034047D02*
X81342857Y-108034047D01*
X81342857Y-108034047D02*
X81247619Y-107986428D01*
X81247619Y-107986428D02*
X81200000Y-107891190D01*
X81200000Y-107891190D02*
X81200000Y-107843571D01*
X81200000Y-107843571D02*
X81247619Y-107748333D01*
X81247619Y-107748333D02*
X81342857Y-107700714D01*
X81342857Y-107700714D02*
X81485714Y-107700714D01*
X81485714Y-107700714D02*
X81580952Y-107748333D01*
X82438095Y-108319761D02*
X82342857Y-108367380D01*
X82342857Y-108367380D02*
X82152381Y-108367380D01*
X82152381Y-108367380D02*
X82057143Y-108319761D01*
X82057143Y-108319761D02*
X82009524Y-108224523D01*
X82009524Y-108224523D02*
X82009524Y-107843571D01*
X82009524Y-107843571D02*
X82057143Y-107748333D01*
X82057143Y-107748333D02*
X82152381Y-107700714D01*
X82152381Y-107700714D02*
X82342857Y-107700714D01*
X82342857Y-107700714D02*
X82438095Y-107748333D01*
X82438095Y-107748333D02*
X82485714Y-107843571D01*
X82485714Y-107843571D02*
X82485714Y-107938809D01*
X82485714Y-107938809D02*
X82009524Y-108034047D01*
X82771429Y-107700714D02*
X83152381Y-107700714D01*
X82914286Y-107367380D02*
X82914286Y-108224523D01*
X82914286Y-108224523D02*
X82961905Y-108319761D01*
X82961905Y-108319761D02*
X83057143Y-108367380D01*
X83057143Y-108367380D02*
X83152381Y-108367380D01*
%TO.C,UR4*%
X167013095Y-120752380D02*
X167013095Y-121561904D01*
X167013095Y-121561904D02*
X167060714Y-121657142D01*
X167060714Y-121657142D02*
X167108333Y-121704761D01*
X167108333Y-121704761D02*
X167203571Y-121752380D01*
X167203571Y-121752380D02*
X167394047Y-121752380D01*
X167394047Y-121752380D02*
X167489285Y-121704761D01*
X167489285Y-121704761D02*
X167536904Y-121657142D01*
X167536904Y-121657142D02*
X167584523Y-121561904D01*
X167584523Y-121561904D02*
X167584523Y-120752380D01*
X168632142Y-121752380D02*
X168298809Y-121276190D01*
X168060714Y-121752380D02*
X168060714Y-120752380D01*
X168060714Y-120752380D02*
X168441666Y-120752380D01*
X168441666Y-120752380D02*
X168536904Y-120800000D01*
X168536904Y-120800000D02*
X168584523Y-120847619D01*
X168584523Y-120847619D02*
X168632142Y-120942857D01*
X168632142Y-120942857D02*
X168632142Y-121085714D01*
X168632142Y-121085714D02*
X168584523Y-121180952D01*
X168584523Y-121180952D02*
X168536904Y-121228571D01*
X168536904Y-121228571D02*
X168441666Y-121276190D01*
X168441666Y-121276190D02*
X168060714Y-121276190D01*
X169489285Y-121085714D02*
X169489285Y-121752380D01*
X169251190Y-120704761D02*
X169013095Y-121419047D01*
X169013095Y-121419047D02*
X169632142Y-121419047D01*
X165632143Y-122022380D02*
X166298809Y-122022380D01*
X166298809Y-122022380D02*
X165870238Y-123022380D01*
X167108333Y-122355714D02*
X167108333Y-123022380D01*
X166870238Y-121974761D02*
X166632143Y-122689047D01*
X166632143Y-122689047D02*
X167251190Y-122689047D01*
X167536905Y-123022380D02*
X168060714Y-122355714D01*
X167536905Y-122355714D02*
X168060714Y-123022380D01*
X168965476Y-123022380D02*
X168394048Y-123022380D01*
X168679762Y-123022380D02*
X168679762Y-122022380D01*
X168679762Y-122022380D02*
X168584524Y-122165238D01*
X168584524Y-122165238D02*
X168489286Y-122260476D01*
X168489286Y-122260476D02*
X168394048Y-122308095D01*
X169822619Y-122022380D02*
X169632143Y-122022380D01*
X169632143Y-122022380D02*
X169536905Y-122070000D01*
X169536905Y-122070000D02*
X169489286Y-122117619D01*
X169489286Y-122117619D02*
X169394048Y-122260476D01*
X169394048Y-122260476D02*
X169346429Y-122450952D01*
X169346429Y-122450952D02*
X169346429Y-122831904D01*
X169346429Y-122831904D02*
X169394048Y-122927142D01*
X169394048Y-122927142D02*
X169441667Y-122974761D01*
X169441667Y-122974761D02*
X169536905Y-123022380D01*
X169536905Y-123022380D02*
X169727381Y-123022380D01*
X169727381Y-123022380D02*
X169822619Y-122974761D01*
X169822619Y-122974761D02*
X169870238Y-122927142D01*
X169870238Y-122927142D02*
X169917857Y-122831904D01*
X169917857Y-122831904D02*
X169917857Y-122593809D01*
X169917857Y-122593809D02*
X169870238Y-122498571D01*
X169870238Y-122498571D02*
X169822619Y-122450952D01*
X169822619Y-122450952D02*
X169727381Y-122403333D01*
X169727381Y-122403333D02*
X169536905Y-122403333D01*
X169536905Y-122403333D02*
X169441667Y-122450952D01*
X169441667Y-122450952D02*
X169394048Y-122498571D01*
X169394048Y-122498571D02*
X169346429Y-122593809D01*
X170870238Y-123022380D02*
X170298810Y-123022380D01*
X170584524Y-123022380D02*
X170584524Y-122022380D01*
X170584524Y-122022380D02*
X170489286Y-122165238D01*
X170489286Y-122165238D02*
X170394048Y-122260476D01*
X170394048Y-122260476D02*
X170298810Y-122308095D01*
%TO.C,U2MUX4*%
X154670476Y-111762380D02*
X154670476Y-112571904D01*
X154670476Y-112571904D02*
X154718095Y-112667142D01*
X154718095Y-112667142D02*
X154765714Y-112714761D01*
X154765714Y-112714761D02*
X154860952Y-112762380D01*
X154860952Y-112762380D02*
X155051428Y-112762380D01*
X155051428Y-112762380D02*
X155146666Y-112714761D01*
X155146666Y-112714761D02*
X155194285Y-112667142D01*
X155194285Y-112667142D02*
X155241904Y-112571904D01*
X155241904Y-112571904D02*
X155241904Y-111762380D01*
X155670476Y-111857619D02*
X155718095Y-111810000D01*
X155718095Y-111810000D02*
X155813333Y-111762380D01*
X155813333Y-111762380D02*
X156051428Y-111762380D01*
X156051428Y-111762380D02*
X156146666Y-111810000D01*
X156146666Y-111810000D02*
X156194285Y-111857619D01*
X156194285Y-111857619D02*
X156241904Y-111952857D01*
X156241904Y-111952857D02*
X156241904Y-112048095D01*
X156241904Y-112048095D02*
X156194285Y-112190952D01*
X156194285Y-112190952D02*
X155622857Y-112762380D01*
X155622857Y-112762380D02*
X156241904Y-112762380D01*
X156670476Y-112762380D02*
X156670476Y-111762380D01*
X156670476Y-111762380D02*
X157003809Y-112476666D01*
X157003809Y-112476666D02*
X157337142Y-111762380D01*
X157337142Y-111762380D02*
X157337142Y-112762380D01*
X157813333Y-111762380D02*
X157813333Y-112571904D01*
X157813333Y-112571904D02*
X157860952Y-112667142D01*
X157860952Y-112667142D02*
X157908571Y-112714761D01*
X157908571Y-112714761D02*
X158003809Y-112762380D01*
X158003809Y-112762380D02*
X158194285Y-112762380D01*
X158194285Y-112762380D02*
X158289523Y-112714761D01*
X158289523Y-112714761D02*
X158337142Y-112667142D01*
X158337142Y-112667142D02*
X158384761Y-112571904D01*
X158384761Y-112571904D02*
X158384761Y-111762380D01*
X158765714Y-111762380D02*
X159432380Y-112762380D01*
X159432380Y-111762380D02*
X158765714Y-112762380D01*
X160241904Y-112095714D02*
X160241904Y-112762380D01*
X160003809Y-111714761D02*
X159765714Y-112429047D01*
X159765714Y-112429047D02*
X160384761Y-112429047D01*
X154837143Y-113032380D02*
X155503809Y-113032380D01*
X155503809Y-113032380D02*
X155075238Y-114032380D01*
X156313333Y-113365714D02*
X156313333Y-114032380D01*
X156075238Y-112984761D02*
X155837143Y-113699047D01*
X155837143Y-113699047D02*
X156456190Y-113699047D01*
X156741905Y-114032380D02*
X157265714Y-113365714D01*
X156741905Y-113365714D02*
X157265714Y-114032380D01*
X158170476Y-114032380D02*
X157599048Y-114032380D01*
X157884762Y-114032380D02*
X157884762Y-113032380D01*
X157884762Y-113032380D02*
X157789524Y-113175238D01*
X157789524Y-113175238D02*
X157694286Y-113270476D01*
X157694286Y-113270476D02*
X157599048Y-113318095D01*
X159075238Y-113032380D02*
X158599048Y-113032380D01*
X158599048Y-113032380D02*
X158551429Y-113508571D01*
X158551429Y-113508571D02*
X158599048Y-113460952D01*
X158599048Y-113460952D02*
X158694286Y-113413333D01*
X158694286Y-113413333D02*
X158932381Y-113413333D01*
X158932381Y-113413333D02*
X159027619Y-113460952D01*
X159027619Y-113460952D02*
X159075238Y-113508571D01*
X159075238Y-113508571D02*
X159122857Y-113603809D01*
X159122857Y-113603809D02*
X159122857Y-113841904D01*
X159122857Y-113841904D02*
X159075238Y-113937142D01*
X159075238Y-113937142D02*
X159027619Y-113984761D01*
X159027619Y-113984761D02*
X158932381Y-114032380D01*
X158932381Y-114032380D02*
X158694286Y-114032380D01*
X158694286Y-114032380D02*
X158599048Y-113984761D01*
X158599048Y-113984761D02*
X158551429Y-113937142D01*
X159456191Y-113032380D02*
X160122857Y-113032380D01*
X160122857Y-113032380D02*
X159694286Y-114032380D01*
%TO.C,C8*%
X91273333Y-136162142D02*
X91225714Y-136209761D01*
X91225714Y-136209761D02*
X91082857Y-136257380D01*
X91082857Y-136257380D02*
X90987619Y-136257380D01*
X90987619Y-136257380D02*
X90844762Y-136209761D01*
X90844762Y-136209761D02*
X90749524Y-136114523D01*
X90749524Y-136114523D02*
X90701905Y-136019285D01*
X90701905Y-136019285D02*
X90654286Y-135828809D01*
X90654286Y-135828809D02*
X90654286Y-135685952D01*
X90654286Y-135685952D02*
X90701905Y-135495476D01*
X90701905Y-135495476D02*
X90749524Y-135400238D01*
X90749524Y-135400238D02*
X90844762Y-135305000D01*
X90844762Y-135305000D02*
X90987619Y-135257380D01*
X90987619Y-135257380D02*
X91082857Y-135257380D01*
X91082857Y-135257380D02*
X91225714Y-135305000D01*
X91225714Y-135305000D02*
X91273333Y-135352619D01*
X91844762Y-135685952D02*
X91749524Y-135638333D01*
X91749524Y-135638333D02*
X91701905Y-135590714D01*
X91701905Y-135590714D02*
X91654286Y-135495476D01*
X91654286Y-135495476D02*
X91654286Y-135447857D01*
X91654286Y-135447857D02*
X91701905Y-135352619D01*
X91701905Y-135352619D02*
X91749524Y-135305000D01*
X91749524Y-135305000D02*
X91844762Y-135257380D01*
X91844762Y-135257380D02*
X92035238Y-135257380D01*
X92035238Y-135257380D02*
X92130476Y-135305000D01*
X92130476Y-135305000D02*
X92178095Y-135352619D01*
X92178095Y-135352619D02*
X92225714Y-135447857D01*
X92225714Y-135447857D02*
X92225714Y-135495476D01*
X92225714Y-135495476D02*
X92178095Y-135590714D01*
X92178095Y-135590714D02*
X92130476Y-135638333D01*
X92130476Y-135638333D02*
X92035238Y-135685952D01*
X92035238Y-135685952D02*
X91844762Y-135685952D01*
X91844762Y-135685952D02*
X91749524Y-135733571D01*
X91749524Y-135733571D02*
X91701905Y-135781190D01*
X91701905Y-135781190D02*
X91654286Y-135876428D01*
X91654286Y-135876428D02*
X91654286Y-136066904D01*
X91654286Y-136066904D02*
X91701905Y-136162142D01*
X91701905Y-136162142D02*
X91749524Y-136209761D01*
X91749524Y-136209761D02*
X91844762Y-136257380D01*
X91844762Y-136257380D02*
X92035238Y-136257380D01*
X92035238Y-136257380D02*
X92130476Y-136209761D01*
X92130476Y-136209761D02*
X92178095Y-136162142D01*
X92178095Y-136162142D02*
X92225714Y-136066904D01*
X92225714Y-136066904D02*
X92225714Y-135876428D01*
X92225714Y-135876428D02*
X92178095Y-135781190D01*
X92178095Y-135781190D02*
X92130476Y-135733571D01*
X92130476Y-135733571D02*
X92035238Y-135685952D01*
%TO.C,JDBG1*%
X102306666Y-116207380D02*
X102306666Y-116921666D01*
X102306666Y-116921666D02*
X102259047Y-117064523D01*
X102259047Y-117064523D02*
X102163809Y-117159761D01*
X102163809Y-117159761D02*
X102020952Y-117207380D01*
X102020952Y-117207380D02*
X101925714Y-117207380D01*
X102782857Y-117207380D02*
X102782857Y-116207380D01*
X102782857Y-116207380D02*
X103020952Y-116207380D01*
X103020952Y-116207380D02*
X103163809Y-116255000D01*
X103163809Y-116255000D02*
X103259047Y-116350238D01*
X103259047Y-116350238D02*
X103306666Y-116445476D01*
X103306666Y-116445476D02*
X103354285Y-116635952D01*
X103354285Y-116635952D02*
X103354285Y-116778809D01*
X103354285Y-116778809D02*
X103306666Y-116969285D01*
X103306666Y-116969285D02*
X103259047Y-117064523D01*
X103259047Y-117064523D02*
X103163809Y-117159761D01*
X103163809Y-117159761D02*
X103020952Y-117207380D01*
X103020952Y-117207380D02*
X102782857Y-117207380D01*
X104116190Y-116683571D02*
X104259047Y-116731190D01*
X104259047Y-116731190D02*
X104306666Y-116778809D01*
X104306666Y-116778809D02*
X104354285Y-116874047D01*
X104354285Y-116874047D02*
X104354285Y-117016904D01*
X104354285Y-117016904D02*
X104306666Y-117112142D01*
X104306666Y-117112142D02*
X104259047Y-117159761D01*
X104259047Y-117159761D02*
X104163809Y-117207380D01*
X104163809Y-117207380D02*
X103782857Y-117207380D01*
X103782857Y-117207380D02*
X103782857Y-116207380D01*
X103782857Y-116207380D02*
X104116190Y-116207380D01*
X104116190Y-116207380D02*
X104211428Y-116255000D01*
X104211428Y-116255000D02*
X104259047Y-116302619D01*
X104259047Y-116302619D02*
X104306666Y-116397857D01*
X104306666Y-116397857D02*
X104306666Y-116493095D01*
X104306666Y-116493095D02*
X104259047Y-116588333D01*
X104259047Y-116588333D02*
X104211428Y-116635952D01*
X104211428Y-116635952D02*
X104116190Y-116683571D01*
X104116190Y-116683571D02*
X103782857Y-116683571D01*
X105306666Y-116255000D02*
X105211428Y-116207380D01*
X105211428Y-116207380D02*
X105068571Y-116207380D01*
X105068571Y-116207380D02*
X104925714Y-116255000D01*
X104925714Y-116255000D02*
X104830476Y-116350238D01*
X104830476Y-116350238D02*
X104782857Y-116445476D01*
X104782857Y-116445476D02*
X104735238Y-116635952D01*
X104735238Y-116635952D02*
X104735238Y-116778809D01*
X104735238Y-116778809D02*
X104782857Y-116969285D01*
X104782857Y-116969285D02*
X104830476Y-117064523D01*
X104830476Y-117064523D02*
X104925714Y-117159761D01*
X104925714Y-117159761D02*
X105068571Y-117207380D01*
X105068571Y-117207380D02*
X105163809Y-117207380D01*
X105163809Y-117207380D02*
X105306666Y-117159761D01*
X105306666Y-117159761D02*
X105354285Y-117112142D01*
X105354285Y-117112142D02*
X105354285Y-116778809D01*
X105354285Y-116778809D02*
X105163809Y-116778809D01*
X106306666Y-117207380D02*
X105735238Y-117207380D01*
X106020952Y-117207380D02*
X106020952Y-116207380D01*
X106020952Y-116207380D02*
X105925714Y-116350238D01*
X105925714Y-116350238D02*
X105830476Y-116445476D01*
X105830476Y-116445476D02*
X105735238Y-116493095D01*
%TO.C,JALU3*%
X130389523Y-106047380D02*
X130389523Y-106761666D01*
X130389523Y-106761666D02*
X130341904Y-106904523D01*
X130341904Y-106904523D02*
X130246666Y-106999761D01*
X130246666Y-106999761D02*
X130103809Y-107047380D01*
X130103809Y-107047380D02*
X130008571Y-107047380D01*
X130818095Y-106761666D02*
X131294285Y-106761666D01*
X130722857Y-107047380D02*
X131056190Y-106047380D01*
X131056190Y-106047380D02*
X131389523Y-107047380D01*
X132199047Y-107047380D02*
X131722857Y-107047380D01*
X131722857Y-107047380D02*
X131722857Y-106047380D01*
X132532381Y-106047380D02*
X132532381Y-106856904D01*
X132532381Y-106856904D02*
X132580000Y-106952142D01*
X132580000Y-106952142D02*
X132627619Y-106999761D01*
X132627619Y-106999761D02*
X132722857Y-107047380D01*
X132722857Y-107047380D02*
X132913333Y-107047380D01*
X132913333Y-107047380D02*
X133008571Y-106999761D01*
X133008571Y-106999761D02*
X133056190Y-106952142D01*
X133056190Y-106952142D02*
X133103809Y-106856904D01*
X133103809Y-106856904D02*
X133103809Y-106047380D01*
X133484762Y-106047380D02*
X134103809Y-106047380D01*
X134103809Y-106047380D02*
X133770476Y-106428333D01*
X133770476Y-106428333D02*
X133913333Y-106428333D01*
X133913333Y-106428333D02*
X134008571Y-106475952D01*
X134008571Y-106475952D02*
X134056190Y-106523571D01*
X134056190Y-106523571D02*
X134103809Y-106618809D01*
X134103809Y-106618809D02*
X134103809Y-106856904D01*
X134103809Y-106856904D02*
X134056190Y-106952142D01*
X134056190Y-106952142D02*
X134008571Y-106999761D01*
X134008571Y-106999761D02*
X133913333Y-107047380D01*
X133913333Y-107047380D02*
X133627619Y-107047380D01*
X133627619Y-107047380D02*
X133532381Y-106999761D01*
X133532381Y-106999761D02*
X133484762Y-106952142D01*
%TO.C,UNOT1*%
X98774524Y-120652380D02*
X98774524Y-121461904D01*
X98774524Y-121461904D02*
X98822143Y-121557142D01*
X98822143Y-121557142D02*
X98869762Y-121604761D01*
X98869762Y-121604761D02*
X98965000Y-121652380D01*
X98965000Y-121652380D02*
X99155476Y-121652380D01*
X99155476Y-121652380D02*
X99250714Y-121604761D01*
X99250714Y-121604761D02*
X99298333Y-121557142D01*
X99298333Y-121557142D02*
X99345952Y-121461904D01*
X99345952Y-121461904D02*
X99345952Y-120652380D01*
X99822143Y-121652380D02*
X99822143Y-120652380D01*
X99822143Y-120652380D02*
X100393571Y-121652380D01*
X100393571Y-121652380D02*
X100393571Y-120652380D01*
X101060238Y-120652380D02*
X101250714Y-120652380D01*
X101250714Y-120652380D02*
X101345952Y-120700000D01*
X101345952Y-120700000D02*
X101441190Y-120795238D01*
X101441190Y-120795238D02*
X101488809Y-120985714D01*
X101488809Y-120985714D02*
X101488809Y-121319047D01*
X101488809Y-121319047D02*
X101441190Y-121509523D01*
X101441190Y-121509523D02*
X101345952Y-121604761D01*
X101345952Y-121604761D02*
X101250714Y-121652380D01*
X101250714Y-121652380D02*
X101060238Y-121652380D01*
X101060238Y-121652380D02*
X100965000Y-121604761D01*
X100965000Y-121604761D02*
X100869762Y-121509523D01*
X100869762Y-121509523D02*
X100822143Y-121319047D01*
X100822143Y-121319047D02*
X100822143Y-120985714D01*
X100822143Y-120985714D02*
X100869762Y-120795238D01*
X100869762Y-120795238D02*
X100965000Y-120700000D01*
X100965000Y-120700000D02*
X101060238Y-120652380D01*
X101774524Y-120652380D02*
X102345952Y-120652380D01*
X102060238Y-121652380D02*
X102060238Y-120652380D01*
X103203095Y-121652380D02*
X102631667Y-121652380D01*
X102917381Y-121652380D02*
X102917381Y-120652380D01*
X102917381Y-120652380D02*
X102822143Y-120795238D01*
X102822143Y-120795238D02*
X102726905Y-120890476D01*
X102726905Y-120890476D02*
X102631667Y-120938095D01*
X98798333Y-121922380D02*
X99464999Y-121922380D01*
X99464999Y-121922380D02*
X99036428Y-122922380D01*
X100274523Y-122255714D02*
X100274523Y-122922380D01*
X100036428Y-121874761D02*
X99798333Y-122589047D01*
X99798333Y-122589047D02*
X100417380Y-122589047D01*
X100703095Y-122922380D02*
X101226904Y-122255714D01*
X100703095Y-122255714D02*
X101226904Y-122922380D01*
X102131666Y-122922380D02*
X101560238Y-122922380D01*
X101845952Y-122922380D02*
X101845952Y-121922380D01*
X101845952Y-121922380D02*
X101750714Y-122065238D01*
X101750714Y-122065238D02*
X101655476Y-122160476D01*
X101655476Y-122160476D02*
X101560238Y-122208095D01*
X102988809Y-122255714D02*
X102988809Y-122922380D01*
X102750714Y-121874761D02*
X102512619Y-122589047D01*
X102512619Y-122589047D02*
X103131666Y-122589047D01*
D13*
%TO.C,UREG1*%
X132009000Y-119960000D02*
X145359000Y-119960000D01*
X132009000Y-131160000D02*
X132009000Y-119960000D01*
X132809000Y-131960000D02*
X132009000Y-131160000D01*
X145359000Y-119960000D02*
X145359000Y-131960000D01*
X145359000Y-131960000D02*
X132809000Y-131960000D01*
%TO.C,U1*%
X89320000Y-118196000D02*
X92920000Y-118196000D01*
X89320000Y-121796000D02*
X89320000Y-118196000D01*
X90120000Y-122596000D02*
X89320000Y-121796000D01*
X92920000Y-118196000D02*
X92920000Y-122596000D01*
X92920000Y-122596000D02*
X90120000Y-122596000D01*
%TO.C,JMEM_C2*%
X209610000Y-100270000D02*
X189170000Y-100270000D01*
X209610000Y-100270000D02*
X209610000Y-102870000D01*
X189170000Y-100270000D02*
X189170000Y-105470000D01*
X209610000Y-102870000D02*
X207010000Y-102870000D01*
X207010000Y-102870000D02*
X207010000Y-105470000D01*
X209610000Y-104140000D02*
X209610000Y-105470000D01*
X209610000Y-105470000D02*
X208280000Y-105470000D01*
X207010000Y-105470000D02*
X189170000Y-105470000D01*
%TO.C,JMEM_C1*%
X186750000Y-100270000D02*
X166310000Y-100270000D01*
X186750000Y-100270000D02*
X186750000Y-102870000D01*
X166310000Y-100270000D02*
X166310000Y-105470000D01*
X186750000Y-102870000D02*
X184150000Y-102870000D01*
X184150000Y-102870000D02*
X184150000Y-105470000D01*
X186750000Y-104140000D02*
X186750000Y-105470000D01*
X186750000Y-105470000D02*
X185420000Y-105470000D01*
X184150000Y-105470000D02*
X166310000Y-105470000D01*
%TO.C,JREGLOW3*%
X135950000Y-90110000D02*
X115510000Y-90110000D01*
X135950000Y-90110000D02*
X135950000Y-92710000D01*
X115510000Y-90110000D02*
X115510000Y-95310000D01*
X135950000Y-92710000D02*
X133350000Y-92710000D01*
X133350000Y-92710000D02*
X133350000Y-95310000D01*
X135950000Y-93980000D02*
X135950000Y-95310000D01*
X135950000Y-95310000D02*
X134620000Y-95310000D01*
X133350000Y-95310000D02*
X115510000Y-95310000D01*
%TO.C,UNOT2*%
X96355000Y-126995000D02*
X105575000Y-126995000D01*
X96355000Y-134145000D02*
X96355000Y-126995000D01*
X97155000Y-134945000D02*
X96355000Y-134145000D01*
X105575000Y-126995000D02*
X105575000Y-134945000D01*
X105575000Y-134945000D02*
X97155000Y-134945000D01*
%TO.C,U2MUX3*%
X152135000Y-98735000D02*
X162825000Y-98735000D01*
X152135000Y-105885000D02*
X152135000Y-98735000D01*
X152935000Y-106685000D02*
X152135000Y-105885000D01*
X162825000Y-98735000D02*
X162825000Y-106685000D01*
X162825000Y-106685000D02*
X152935000Y-106685000D01*
%TO.C,JALU2*%
X113090000Y-100270000D02*
X92650000Y-100270000D01*
X113090000Y-100270000D02*
X113090000Y-102870000D01*
X92650000Y-100270000D02*
X92650000Y-105470000D01*
X113090000Y-102870000D02*
X110490000Y-102870000D01*
X110490000Y-102870000D02*
X110490000Y-105470000D01*
X113090000Y-104140000D02*
X113090000Y-105470000D01*
X113090000Y-105470000D02*
X111760000Y-105470000D01*
X110490000Y-105470000D02*
X92650000Y-105470000D01*
%TO.C,JMEM_B2*%
X209610000Y-90110000D02*
X189170000Y-90110000D01*
X209610000Y-90110000D02*
X209610000Y-92710000D01*
X189170000Y-90110000D02*
X189170000Y-95310000D01*
X209610000Y-92710000D02*
X207010000Y-92710000D01*
X207010000Y-92710000D02*
X207010000Y-95310000D01*
X209610000Y-93980000D02*
X209610000Y-95310000D01*
X209610000Y-95310000D02*
X208280000Y-95310000D01*
X207010000Y-95310000D02*
X189170000Y-95310000D01*
%TO.C,JMEM_D1*%
X186750000Y-110430000D02*
X166310000Y-110430000D01*
X186750000Y-110430000D02*
X186750000Y-113030000D01*
X166310000Y-110430000D02*
X166310000Y-115630000D01*
X186750000Y-113030000D02*
X184150000Y-113030000D01*
X184150000Y-113030000D02*
X184150000Y-115630000D01*
X186750000Y-114300000D02*
X186750000Y-115630000D01*
X186750000Y-115630000D02*
X185420000Y-115630000D01*
X184150000Y-115630000D02*
X166310000Y-115630000D01*
%TO.C,JMEM_B1*%
X186750000Y-90110000D02*
X166310000Y-90110000D01*
X186750000Y-90110000D02*
X186750000Y-92710000D01*
X166310000Y-90110000D02*
X166310000Y-95310000D01*
X186750000Y-92710000D02*
X184150000Y-92710000D01*
X184150000Y-92710000D02*
X184150000Y-95310000D01*
X186750000Y-93980000D02*
X186750000Y-95310000D01*
X186750000Y-95310000D02*
X185420000Y-95310000D01*
X184150000Y-95310000D02*
X166310000Y-95310000D01*
%TO.C,U2MUX1*%
X138165000Y-98895000D02*
X148855000Y-98895000D01*
X138165000Y-106045000D02*
X138165000Y-98895000D01*
X138965000Y-106845000D02*
X138165000Y-106045000D01*
X148855000Y-98895000D02*
X148855000Y-106845000D01*
X148855000Y-106845000D02*
X138965000Y-106845000D01*
%TO.C,U2MUX2*%
X138165000Y-109215000D02*
X148855000Y-109215000D01*
X138165000Y-116365000D02*
X138165000Y-109215000D01*
X138965000Y-117165000D02*
X138165000Y-116365000D01*
X148855000Y-109215000D02*
X148855000Y-117165000D01*
X148855000Y-117165000D02*
X138965000Y-117165000D01*
%TO.C,C4*%
X87690000Y-134720000D02*
X87690000Y-131980000D01*
X87690000Y-134720000D02*
X82450000Y-134720000D01*
X87690000Y-131980000D02*
X82450000Y-131980000D01*
X82450000Y-134720000D02*
X82450000Y-131980000D01*
%TO.C,UNAND2*%
X107785000Y-126995000D02*
X117005000Y-126995000D01*
X107785000Y-134145000D02*
X107785000Y-126995000D01*
X108585000Y-134945000D02*
X107785000Y-134145000D01*
X117005000Y-126995000D02*
X117005000Y-134945000D01*
X117005000Y-134945000D02*
X108585000Y-134945000D01*
%TO.C,TPROM15*%
X186502000Y-125034000D02*
X188402000Y-125034000D01*
X186502000Y-126934000D02*
X186502000Y-125034000D01*
X188402000Y-125034000D02*
X188402000Y-126934000D01*
X188402000Y-126934000D02*
X186502000Y-126934000D01*
%TO.C,JREGLOW1*%
X90230000Y-90110000D02*
X69790000Y-90110000D01*
X90230000Y-90110000D02*
X90230000Y-92710000D01*
X69790000Y-90110000D02*
X69790000Y-95310000D01*
X90230000Y-92710000D02*
X87630000Y-92710000D01*
X87630000Y-92710000D02*
X87630000Y-95310000D01*
X90230000Y-93980000D02*
X90230000Y-95310000D01*
X90230000Y-95310000D02*
X88900000Y-95310000D01*
X87630000Y-95310000D02*
X69790000Y-95310000D01*
%TO.C,UDEMUX1*%
X112130000Y-109149000D02*
X122820000Y-109149000D01*
X112130000Y-116299000D02*
X112130000Y-109149000D01*
X112930000Y-117099000D02*
X112130000Y-116299000D01*
X122820000Y-109149000D02*
X122820000Y-117099000D01*
X122820000Y-117099000D02*
X112930000Y-117099000D01*
%TO.C,JMEM_A1*%
X186750000Y-79950000D02*
X166310000Y-79950000D01*
X186750000Y-79950000D02*
X186750000Y-82550000D01*
X166310000Y-79950000D02*
X166310000Y-85150000D01*
X186750000Y-82550000D02*
X184150000Y-82550000D01*
X184150000Y-82550000D02*
X184150000Y-85150000D01*
X186750000Y-83820000D02*
X186750000Y-85150000D01*
X186750000Y-85150000D02*
X185420000Y-85150000D01*
X184150000Y-85150000D02*
X166310000Y-85150000D01*
%TO.C,JREGHIGH4*%
X158810000Y-79950000D02*
X138370000Y-79950000D01*
X158810000Y-79950000D02*
X158810000Y-82550000D01*
X138370000Y-79950000D02*
X138370000Y-85150000D01*
X158810000Y-82550000D02*
X156210000Y-82550000D01*
X156210000Y-82550000D02*
X156210000Y-85150000D01*
X158810000Y-83820000D02*
X158810000Y-85150000D01*
X158810000Y-85150000D02*
X157480000Y-85150000D01*
X156210000Y-85150000D02*
X138370000Y-85150000D01*
%TO.C,Y1*%
X91405000Y-130890000D02*
X85005000Y-130890000D01*
X91405000Y-125840000D02*
X85005000Y-125840000D01*
X91405000Y-130890000D02*
G75*
G03*
X91405000Y-125840000I0J2525000D01*
G01*
X85005000Y-125840000D02*
G75*
G03*
X85005000Y-130890000I0J-2525000D01*
G01*
%TO.C,JALU1*%
X90230000Y-100270000D02*
X69790000Y-100270000D01*
X90230000Y-100270000D02*
X90230000Y-102870000D01*
X69790000Y-100270000D02*
X69790000Y-105470000D01*
X90230000Y-102870000D02*
X87630000Y-102870000D01*
X87630000Y-102870000D02*
X87630000Y-105470000D01*
X90230000Y-104140000D02*
X90230000Y-105470000D01*
X90230000Y-105470000D02*
X88900000Y-105470000D01*
X87630000Y-105470000D02*
X69790000Y-105470000D01*
%TO.C,U4*%
X147536000Y-119961000D02*
X160566000Y-119961000D01*
X147536000Y-131461000D02*
X147536000Y-119961000D01*
X148336000Y-132261000D02*
X147536000Y-131461000D01*
X160566000Y-119961000D02*
X160566000Y-132261000D01*
X160566000Y-132261000D02*
X148336000Y-132261000D01*
%TO.C,JP1*%
X85785000Y-122869000D02*
X84455000Y-122869000D01*
X85785000Y-121539000D02*
X85785000Y-122869000D01*
X85785000Y-120269000D02*
X85785000Y-117669000D01*
X85785000Y-120269000D02*
X83125000Y-120269000D01*
X85785000Y-117669000D02*
X83125000Y-117669000D01*
X83125000Y-120269000D02*
X83125000Y-117669000D01*
D14*
%TO.C,U2*%
X189290000Y-136250000D02*
X209490000Y-136250000D01*
X209490000Y-136250000D02*
X209490000Y-118450000D01*
X189290000Y-118450000D02*
X189290000Y-136250000D01*
X209490000Y-118450000D02*
X189290000Y-118450000D01*
D15*
X188260000Y-126080000D02*
G75*
G03*
X188260000Y-126080000I-100000J0D01*
G01*
D13*
%TO.C,J1*%
X69000000Y-136400000D02*
X69000000Y-125700000D01*
X78200000Y-136400000D02*
X69000000Y-136400000D01*
X78200000Y-131600000D02*
X78200000Y-136400000D01*
X68800000Y-126550000D02*
X68800000Y-125500000D01*
X69000000Y-125700000D02*
X71600000Y-125700000D01*
X75500000Y-125700000D02*
X78200000Y-125700000D01*
X78200000Y-125700000D02*
X78200000Y-127600000D01*
X69850000Y-125500000D02*
X68800000Y-125500000D01*
%TO.C,UR3*%
X163040000Y-127440000D02*
X173510000Y-127440000D01*
X163040000Y-134040000D02*
X163040000Y-127440000D01*
X163840000Y-134840000D02*
X163040000Y-134040000D01*
X173510000Y-127440000D02*
X173510000Y-134840000D01*
X173510000Y-134840000D02*
X163840000Y-134840000D01*
%TO.C,UXOR1*%
X126200000Y-109215000D02*
X135420000Y-109215000D01*
X126200000Y-116365000D02*
X126200000Y-109215000D01*
X127000000Y-117165000D02*
X126200000Y-116365000D01*
X135420000Y-109215000D02*
X135420000Y-117165000D01*
X135420000Y-117165000D02*
X127000000Y-117165000D01*
%TO.C,JMEM_A2*%
X209610000Y-79950000D02*
X189170000Y-79950000D01*
X209610000Y-79950000D02*
X209610000Y-82550000D01*
X189170000Y-79950000D02*
X189170000Y-85150000D01*
X209610000Y-82550000D02*
X207010000Y-82550000D01*
X207010000Y-82550000D02*
X207010000Y-85150000D01*
X209610000Y-83820000D02*
X209610000Y-85150000D01*
X209610000Y-85150000D02*
X208280000Y-85150000D01*
X207010000Y-85150000D02*
X189170000Y-85150000D01*
%TO.C,JREGHIGH1*%
X90230000Y-79950000D02*
X69790000Y-79950000D01*
X90230000Y-79950000D02*
X90230000Y-82550000D01*
X69790000Y-79950000D02*
X69790000Y-85150000D01*
X90230000Y-82550000D02*
X87630000Y-82550000D01*
X87630000Y-82550000D02*
X87630000Y-85150000D01*
X90230000Y-83820000D02*
X90230000Y-85150000D01*
X90230000Y-85150000D02*
X88900000Y-85150000D01*
X87630000Y-85150000D02*
X69790000Y-85150000D01*
%TO.C,UR1*%
X175740000Y-127210000D02*
X186210000Y-127210000D01*
X175740000Y-133810000D02*
X175740000Y-127210000D01*
X176540000Y-134610000D02*
X175740000Y-133810000D01*
X186210000Y-127210000D02*
X186210000Y-134610000D01*
X186210000Y-134610000D02*
X176540000Y-134610000D01*
%TO.C,U3*%
X72200000Y-115775000D02*
X75700000Y-115775000D01*
X72200000Y-119725000D02*
X72200000Y-115775000D01*
X73000000Y-120525000D02*
X72200000Y-119725000D01*
X75700000Y-115775000D02*
X75700000Y-120525000D01*
X75700000Y-120525000D02*
X73000000Y-120525000D01*
%TO.C,UNAND1*%
X107785000Y-118105000D02*
X117005000Y-118105000D01*
X107785000Y-125255000D02*
X107785000Y-118105000D01*
X108585000Y-126055000D02*
X107785000Y-125255000D01*
X117005000Y-118105000D02*
X117005000Y-126055000D01*
X117005000Y-126055000D02*
X108585000Y-126055000D01*
%TO.C,JREGLOW4*%
X158810000Y-90110000D02*
X138370000Y-90110000D01*
X158810000Y-90110000D02*
X158810000Y-92710000D01*
X138370000Y-90110000D02*
X138370000Y-95310000D01*
X158810000Y-92710000D02*
X156210000Y-92710000D01*
X156210000Y-92710000D02*
X156210000Y-95310000D01*
X158810000Y-93980000D02*
X158810000Y-95310000D01*
X158810000Y-95310000D02*
X157480000Y-95310000D01*
X156210000Y-95310000D02*
X138370000Y-95310000D01*
%TO.C,UOR1*%
X103340000Y-88895000D02*
X112560000Y-88895000D01*
X103340000Y-96045000D02*
X103340000Y-88895000D01*
X104140000Y-96845000D02*
X103340000Y-96045000D01*
X112560000Y-88895000D02*
X112560000Y-96845000D01*
X112560000Y-96845000D02*
X104140000Y-96845000D01*
%TO.C,JREGHIGH3*%
X135950000Y-79950000D02*
X115510000Y-79950000D01*
X135950000Y-79950000D02*
X135950000Y-82550000D01*
X115510000Y-79950000D02*
X115510000Y-85150000D01*
X135950000Y-82550000D02*
X133350000Y-82550000D01*
X133350000Y-82550000D02*
X133350000Y-85150000D01*
X135950000Y-83820000D02*
X135950000Y-85150000D01*
X135950000Y-85150000D02*
X134620000Y-85150000D01*
X133350000Y-85150000D02*
X115510000Y-85150000D01*
%TO.C,JMEM_D2*%
X209610000Y-110430000D02*
X189170000Y-110430000D01*
X209610000Y-110430000D02*
X209610000Y-113030000D01*
X189170000Y-110430000D02*
X189170000Y-115630000D01*
X209610000Y-113030000D02*
X207010000Y-113030000D01*
X207010000Y-113030000D02*
X207010000Y-115630000D01*
X209610000Y-114300000D02*
X209610000Y-115630000D01*
X209610000Y-115630000D02*
X208280000Y-115630000D01*
X207010000Y-115630000D02*
X189170000Y-115630000D01*
%TO.C,JREGHIGH2*%
X113090000Y-79950000D02*
X92650000Y-79950000D01*
X113090000Y-79950000D02*
X113090000Y-82550000D01*
X92650000Y-79950000D02*
X92650000Y-85150000D01*
X113090000Y-82550000D02*
X110490000Y-82550000D01*
X110490000Y-82550000D02*
X110490000Y-85150000D01*
X113090000Y-83820000D02*
X113090000Y-85150000D01*
X113090000Y-85150000D02*
X111760000Y-85150000D01*
X110490000Y-85150000D02*
X92650000Y-85150000D01*
%TO.C,UOR2*%
X119596000Y-118105000D02*
X128816000Y-118105000D01*
X119596000Y-125255000D02*
X119596000Y-118105000D01*
X120396000Y-126055000D02*
X119596000Y-125255000D01*
X128816000Y-118105000D02*
X128816000Y-126055000D01*
X128816000Y-126055000D02*
X120396000Y-126055000D01*
%TO.C,UOCTMUX1*%
X119115000Y-126929000D02*
X129805000Y-126929000D01*
X119115000Y-134079000D02*
X119115000Y-126929000D01*
X119915000Y-134879000D02*
X119115000Y-134079000D01*
X129805000Y-126929000D02*
X129805000Y-134879000D01*
X129805000Y-134879000D02*
X119915000Y-134879000D01*
%TO.C,UR2*%
X175740000Y-118440000D02*
X186210000Y-118440000D01*
X175740000Y-125040000D02*
X175740000Y-118440000D01*
X176540000Y-125840000D02*
X175740000Y-125040000D01*
X186210000Y-118440000D02*
X186210000Y-125840000D01*
X186210000Y-125840000D02*
X176540000Y-125840000D01*
%TO.C,SW1*%
X70870000Y-110085000D02*
X70870000Y-111585000D01*
X72120000Y-114085000D02*
X76620000Y-114085000D01*
X76620000Y-107585000D02*
X72120000Y-107585000D01*
X77870000Y-111585000D02*
X77870000Y-110085000D01*
%TO.C,UR4*%
X163040000Y-118320000D02*
X173510000Y-118320000D01*
X163040000Y-124920000D02*
X163040000Y-118320000D01*
X163840000Y-125720000D02*
X163040000Y-124920000D01*
X173510000Y-118320000D02*
X173510000Y-125720000D01*
X173510000Y-125720000D02*
X163840000Y-125720000D01*
%TO.C,U2MUX4*%
X152135000Y-109055000D02*
X162825000Y-109055000D01*
X152135000Y-116205000D02*
X152135000Y-109055000D01*
X152935000Y-117005000D02*
X152135000Y-116205000D01*
X162825000Y-109055000D02*
X162825000Y-117005000D01*
X162825000Y-117005000D02*
X152935000Y-117005000D01*
%TO.C,C8*%
X88800000Y-131980000D02*
X88800000Y-134720000D01*
X88800000Y-131980000D02*
X94040000Y-131980000D01*
X88800000Y-134720000D02*
X94040000Y-134720000D01*
X94040000Y-131980000D02*
X94040000Y-134720000D01*
%TO.C,JDBG1*%
X108010000Y-110430000D02*
X108010000Y-111760000D01*
X106680000Y-110430000D02*
X108010000Y-110430000D01*
X105410000Y-110430000D02*
X79950000Y-110430000D01*
X105410000Y-110430000D02*
X105410000Y-113030000D01*
X79950000Y-110430000D02*
X79950000Y-115630000D01*
X108010000Y-113030000D02*
X108010000Y-115630000D01*
X105410000Y-113030000D02*
X108010000Y-113030000D01*
X108010000Y-115630000D02*
X79950000Y-115630000D01*
%TO.C,JALU3*%
X135950000Y-100270000D02*
X115510000Y-100270000D01*
X135950000Y-100270000D02*
X135950000Y-102870000D01*
X115510000Y-100270000D02*
X115510000Y-105470000D01*
X135950000Y-102870000D02*
X133350000Y-102870000D01*
X133350000Y-102870000D02*
X133350000Y-105470000D01*
X135950000Y-104140000D02*
X135950000Y-105470000D01*
X135950000Y-105470000D02*
X134620000Y-105470000D01*
X133350000Y-105470000D02*
X115510000Y-105470000D01*
%TO.C,UNOT1*%
X96355000Y-117945000D02*
X105575000Y-117945000D01*
X96355000Y-125095000D02*
X96355000Y-117945000D01*
X97155000Y-125895000D02*
X96355000Y-125095000D01*
X105575000Y-117945000D02*
X105575000Y-125895000D01*
X105575000Y-125895000D02*
X97155000Y-125895000D01*
%TD*%
M02*
