%TF.GenerationSoftware,KiCad,Pcbnew,7.0.0-da2b9df05c~171~ubuntu20.04.1*%
%TF.CreationDate,2023-03-29T16:56:17-07:00*%
%TF.ProjectId,Motherboard,4d6f7468-6572-4626-9f61-72642e6b6963,rev?*%
%TF.SameCoordinates,Original*%
%TF.FileFunction,Paste,Top*%
%TF.FilePolarity,Positive*%
%FSLAX46Y46*%
G04 Gerber Fmt 4.6, Leading zero omitted, Abs format (unit mm)*
G04 Created by KiCad (PCBNEW 7.0.0-da2b9df05c~171~ubuntu20.04.1) date 2023-03-29 16:56:17*
%MOMM*%
%LPD*%
G01*
G04 APERTURE LIST*
%ADD10R,0.520000X1.300000*%
%ADD11R,0.700000X1.000000*%
%ADD12R,0.600000X1.550000*%
%ADD13R,0.600000X2.000000*%
%ADD14R,0.580000X1.120000*%
%ADD15R,0.600000X1.050000*%
G04 APERTURE END LIST*
D10*
%TO.C,UREG1*%
X132968999Y-130809999D03*
X134238999Y-130809999D03*
X135508999Y-130809999D03*
X136778999Y-130809999D03*
X138048999Y-130809999D03*
X139318999Y-130809999D03*
X140588999Y-130809999D03*
X141858999Y-130809999D03*
X143128999Y-130809999D03*
X144398999Y-130809999D03*
X144398999Y-121109999D03*
X143128999Y-121109999D03*
X141858999Y-121109999D03*
X140588999Y-121109999D03*
X139318999Y-121109999D03*
X138048999Y-121109999D03*
X136778999Y-121109999D03*
X135508999Y-121109999D03*
X134238999Y-121109999D03*
X132968999Y-121109999D03*
%TD*%
D11*
%TO.C,U1*%
X90169999Y-121595999D03*
X91119999Y-121595999D03*
X92069999Y-121595999D03*
X92069999Y-119195999D03*
X90169999Y-119195999D03*
%TD*%
D12*
%TO.C,UNOT2*%
X97154999Y-133669999D03*
X98424999Y-133669999D03*
X99694999Y-133669999D03*
X100964999Y-133669999D03*
X102234999Y-133669999D03*
X103504999Y-133669999D03*
X104774999Y-133669999D03*
X104774999Y-128269999D03*
X103504999Y-128269999D03*
X102234999Y-128269999D03*
X100964999Y-128269999D03*
X99694999Y-128269999D03*
X98424999Y-128269999D03*
X97154999Y-128269999D03*
%TD*%
%TO.C,U2MUX3*%
X153034999Y-105409999D03*
X154304999Y-105409999D03*
X155574999Y-105409999D03*
X156844999Y-105409999D03*
X158114999Y-105409999D03*
X159384999Y-105409999D03*
X160654999Y-105409999D03*
X161924999Y-105409999D03*
X161924999Y-100009999D03*
X160654999Y-100009999D03*
X159384999Y-100009999D03*
X158114999Y-100009999D03*
X156844999Y-100009999D03*
X155574999Y-100009999D03*
X154304999Y-100009999D03*
X153034999Y-100009999D03*
%TD*%
%TO.C,U2MUX1*%
X139064999Y-105569999D03*
X140334999Y-105569999D03*
X141604999Y-105569999D03*
X142874999Y-105569999D03*
X144144999Y-105569999D03*
X145414999Y-105569999D03*
X146684999Y-105569999D03*
X147954999Y-105569999D03*
X147954999Y-100169999D03*
X146684999Y-100169999D03*
X145414999Y-100169999D03*
X144144999Y-100169999D03*
X142874999Y-100169999D03*
X141604999Y-100169999D03*
X140334999Y-100169999D03*
X139064999Y-100169999D03*
%TD*%
%TO.C,U2MUX2*%
X139064999Y-115889999D03*
X140334999Y-115889999D03*
X141604999Y-115889999D03*
X142874999Y-115889999D03*
X144144999Y-115889999D03*
X145414999Y-115889999D03*
X146684999Y-115889999D03*
X147954999Y-115889999D03*
X147954999Y-110489999D03*
X146684999Y-110489999D03*
X145414999Y-110489999D03*
X144144999Y-110489999D03*
X142874999Y-110489999D03*
X141604999Y-110489999D03*
X140334999Y-110489999D03*
X139064999Y-110489999D03*
%TD*%
%TO.C,UNAND2*%
X108584999Y-133669999D03*
X109854999Y-133669999D03*
X111124999Y-133669999D03*
X112394999Y-133669999D03*
X113664999Y-133669999D03*
X114934999Y-133669999D03*
X116204999Y-133669999D03*
X116204999Y-128269999D03*
X114934999Y-128269999D03*
X113664999Y-128269999D03*
X112394999Y-128269999D03*
X111124999Y-128269999D03*
X109854999Y-128269999D03*
X108584999Y-128269999D03*
%TD*%
%TO.C,UDEMUX1*%
X113029999Y-115823999D03*
X114299999Y-115823999D03*
X115569999Y-115823999D03*
X116839999Y-115823999D03*
X118109999Y-115823999D03*
X119379999Y-115823999D03*
X120649999Y-115823999D03*
X121919999Y-115823999D03*
X121919999Y-110423999D03*
X120649999Y-110423999D03*
X119379999Y-110423999D03*
X118109999Y-110423999D03*
X116839999Y-110423999D03*
X115569999Y-110423999D03*
X114299999Y-110423999D03*
X113029999Y-110423999D03*
%TD*%
D13*
%TO.C,U4*%
X148335999Y-130760999D03*
X149605999Y-130760999D03*
X150875999Y-130760999D03*
X152145999Y-130760999D03*
X153415999Y-130760999D03*
X154685999Y-130760999D03*
X155955999Y-130760999D03*
X157225999Y-130760999D03*
X158495999Y-130760999D03*
X159765999Y-130760999D03*
X159765999Y-121460999D03*
X158495999Y-121460999D03*
X157225999Y-121460999D03*
X155955999Y-121460999D03*
X154685999Y-121460999D03*
X153415999Y-121460999D03*
X152145999Y-121460999D03*
X150875999Y-121460999D03*
X149605999Y-121460999D03*
X148335999Y-121460999D03*
%TD*%
D14*
%TO.C,UR3*%
X163829999Y-133779999D03*
X165099999Y-133779999D03*
X166369999Y-133779999D03*
X167639999Y-133779999D03*
X168909999Y-133779999D03*
X170179999Y-133779999D03*
X171449999Y-133779999D03*
X172719999Y-133779999D03*
X172719999Y-128499999D03*
X171449999Y-128499999D03*
X170179999Y-128499999D03*
X168909999Y-128499999D03*
X167639999Y-128499999D03*
X166369999Y-128499999D03*
X165099999Y-128499999D03*
X163829999Y-128499999D03*
%TD*%
D12*
%TO.C,UXOR1*%
X126999999Y-115889999D03*
X128269999Y-115889999D03*
X129539999Y-115889999D03*
X130809999Y-115889999D03*
X132079999Y-115889999D03*
X133349999Y-115889999D03*
X134619999Y-115889999D03*
X134619999Y-110489999D03*
X133349999Y-110489999D03*
X132079999Y-110489999D03*
X130809999Y-110489999D03*
X129539999Y-110489999D03*
X128269999Y-110489999D03*
X126999999Y-110489999D03*
%TD*%
D14*
%TO.C,UR1*%
X176529999Y-133549999D03*
X177799999Y-133549999D03*
X179069999Y-133549999D03*
X180339999Y-133549999D03*
X181609999Y-133549999D03*
X182879999Y-133549999D03*
X184149999Y-133549999D03*
X185419999Y-133549999D03*
X185419999Y-128269999D03*
X184149999Y-128269999D03*
X182879999Y-128269999D03*
X181609999Y-128269999D03*
X180339999Y-128269999D03*
X179069999Y-128269999D03*
X177799999Y-128269999D03*
X176529999Y-128269999D03*
%TD*%
D15*
%TO.C,U3*%
X72999999Y-119499999D03*
X73949999Y-119499999D03*
X74899999Y-119499999D03*
X74899999Y-116799999D03*
X72999999Y-116799999D03*
%TD*%
D12*
%TO.C,UNAND1*%
X108584999Y-124779999D03*
X109854999Y-124779999D03*
X111124999Y-124779999D03*
X112394999Y-124779999D03*
X113664999Y-124779999D03*
X114934999Y-124779999D03*
X116204999Y-124779999D03*
X116204999Y-119379999D03*
X114934999Y-119379999D03*
X113664999Y-119379999D03*
X112394999Y-119379999D03*
X111124999Y-119379999D03*
X109854999Y-119379999D03*
X108584999Y-119379999D03*
%TD*%
%TO.C,UOR1*%
X104139999Y-95569999D03*
X105409999Y-95569999D03*
X106679999Y-95569999D03*
X107949999Y-95569999D03*
X109219999Y-95569999D03*
X110489999Y-95569999D03*
X111759999Y-95569999D03*
X111759999Y-90169999D03*
X110489999Y-90169999D03*
X109219999Y-90169999D03*
X107949999Y-90169999D03*
X106679999Y-90169999D03*
X105409999Y-90169999D03*
X104139999Y-90169999D03*
%TD*%
%TO.C,UOR2*%
X120395999Y-124779999D03*
X121665999Y-124779999D03*
X122935999Y-124779999D03*
X124205999Y-124779999D03*
X125475999Y-124779999D03*
X126745999Y-124779999D03*
X128015999Y-124779999D03*
X128015999Y-119379999D03*
X126745999Y-119379999D03*
X125475999Y-119379999D03*
X124205999Y-119379999D03*
X122935999Y-119379999D03*
X121665999Y-119379999D03*
X120395999Y-119379999D03*
%TD*%
%TO.C,UOCTMUX1*%
X120014999Y-133603999D03*
X121284999Y-133603999D03*
X122554999Y-133603999D03*
X123824999Y-133603999D03*
X125094999Y-133603999D03*
X126364999Y-133603999D03*
X127634999Y-133603999D03*
X128904999Y-133603999D03*
X128904999Y-128203999D03*
X127634999Y-128203999D03*
X126364999Y-128203999D03*
X125094999Y-128203999D03*
X123824999Y-128203999D03*
X122554999Y-128203999D03*
X121284999Y-128203999D03*
X120014999Y-128203999D03*
%TD*%
D14*
%TO.C,UR2*%
X176529999Y-124779999D03*
X177799999Y-124779999D03*
X179069999Y-124779999D03*
X180339999Y-124779999D03*
X181609999Y-124779999D03*
X182879999Y-124779999D03*
X184149999Y-124779999D03*
X185419999Y-124779999D03*
X185419999Y-119499999D03*
X184149999Y-119499999D03*
X182879999Y-119499999D03*
X181609999Y-119499999D03*
X180339999Y-119499999D03*
X179069999Y-119499999D03*
X177799999Y-119499999D03*
X176529999Y-119499999D03*
%TD*%
%TO.C,UR4*%
X163829999Y-124659999D03*
X165099999Y-124659999D03*
X166369999Y-124659999D03*
X167639999Y-124659999D03*
X168909999Y-124659999D03*
X170179999Y-124659999D03*
X171449999Y-124659999D03*
X172719999Y-124659999D03*
X172719999Y-119379999D03*
X171449999Y-119379999D03*
X170179999Y-119379999D03*
X168909999Y-119379999D03*
X167639999Y-119379999D03*
X166369999Y-119379999D03*
X165099999Y-119379999D03*
X163829999Y-119379999D03*
%TD*%
D12*
%TO.C,U2MUX4*%
X153034999Y-115729999D03*
X154304999Y-115729999D03*
X155574999Y-115729999D03*
X156844999Y-115729999D03*
X158114999Y-115729999D03*
X159384999Y-115729999D03*
X160654999Y-115729999D03*
X161924999Y-115729999D03*
X161924999Y-110329999D03*
X160654999Y-110329999D03*
X159384999Y-110329999D03*
X158114999Y-110329999D03*
X156844999Y-110329999D03*
X155574999Y-110329999D03*
X154304999Y-110329999D03*
X153034999Y-110329999D03*
%TD*%
%TO.C,UNOT1*%
X97154999Y-124619999D03*
X98424999Y-124619999D03*
X99694999Y-124619999D03*
X100964999Y-124619999D03*
X102234999Y-124619999D03*
X103504999Y-124619999D03*
X104774999Y-124619999D03*
X104774999Y-119219999D03*
X103504999Y-119219999D03*
X102234999Y-119219999D03*
X100964999Y-119219999D03*
X99694999Y-119219999D03*
X98424999Y-119219999D03*
X97154999Y-119219999D03*
%TD*%
M02*
