M48
; DRILL file {KiCad 7.0.0-da2b9df05c~171~ubuntu20.04.1} date Wed 29 Mar 2023 04:56:19 PM PDT
; FORMAT={-:-/ absolute / inch / decimal}
; #@! TF.CreationDate,2023-03-29T16:56:19-07:00
; #@! TF.GenerationSoftware,Kicad,Pcbnew,7.0.0-da2b9df05c~171~ubuntu20.04.1
; #@! TF.FileFunction,Plated,1,4,PTH
FMAT,2
INCH
; #@! TA.AperFunction,Plated,PTH,ViaDrill
T1C0.0118
; #@! TA.AperFunction,Plated,PTH,ViaDrill
T2C0.0157
; #@! TA.AperFunction,Plated,PTH,ComponentDrill
T3C0.0276
; #@! TA.AperFunction,Plated,PTH,ComponentDrill
T4C0.0315
; #@! TA.AperFunction,Plated,PTH,ComponentDrill
T5C0.0394
; #@! TA.AperFunction,Plated,PTH,ComponentDrill
T6C0.0433
%
G90
G05
T1
X2.878Y-4.7437
X2.9488Y-4.6701
X3.0453Y-3.4776
X3.1453Y-4.2165
X3.1748Y-4.352
X3.3752Y-4.5669
X3.4134Y-4.6122
X3.4345Y-4.5864
X3.4697Y-4.5807
X3.5655Y-4.1768
X3.6465Y-4.3701
X3.7053Y-5.1075
X3.7236Y-4.1591
X3.7463Y-4.8031
X3.7649Y-4.3331
X3.766Y-4.8283
X3.7702Y-5.0889
X3.7748Y-4.6189
X3.7926Y-5.1113
X3.8201Y-4.548
X3.825Y-4.8559
X3.878Y-4.738
X3.9244Y-4.8606
X3.9288Y-5.1021
X3.9705Y-5.1051
X3.975Y-4.848
X3.9756Y-5.2063
X4.0Y-4.7414
X4.0055Y-5.1
X4.0311Y-5.2185
X4.0431Y-5.0947
X4.05Y-4.7406
X4.072Y-4.1854
X4.0728Y-4.9705
X4.0748Y-5.0953
X4.0902Y-4.7386
X4.0937Y-4.3512
X4.104Y-3.723
X4.1213Y-4.6508
X4.155Y-3.678
X4.1649Y-4.3449
X4.1756Y-3.5101
X4.1988Y-4.3449
X4.2039Y-3.8087
X4.21Y-3.616
X4.2154Y-3.4913
X4.2346Y-5.1185
X4.2393Y-5.0295
X4.253Y-3.7197
X4.2732Y-4.8441
X4.276Y-4.7551
X4.3Y-3.667
X4.301Y-3.593
X4.3232Y-5.2121
X4.3512Y-4.7445
X4.3543Y-3.8083
X4.3689Y-4.8669
X4.386Y-3.644
X4.3913Y-5.1097
X4.3917Y-4.2103
X4.4228Y-4.8646
X4.4232Y-5.2121
X4.4259Y-5.153
X4.4299Y-3.5476
X4.4364Y-4.7485
X4.4488Y-4.5114
X4.4492Y-4.4079
X4.4535Y-4.6062
X4.4835Y-5.1727
X4.4846Y-4.7488
X4.4939Y-4.4025
X4.4947Y-4.859
X4.5028Y-4.6059
X4.5252Y-5.213
X4.5268Y-4.9565
X4.5283Y-4.8591
X4.55Y-4.5165
X4.5506Y-4.404
X4.5748Y-5.0941
X4.576Y-4.748
X4.6173Y-4.402
X4.6197Y-5.1976
X4.6717Y-4.4051
X4.6779Y-4.8161
X4.6779Y-4.8496
X4.6815Y-4.602
X4.7071Y-4.3961
X4.7197Y-4.8683
X4.7538Y-4.8655
X4.7548Y-4.9888
X4.7724Y-4.5177
X4.7746Y-4.6524
X4.7764Y-5.2122
X4.782Y-4.7568
X4.8021Y-5.1059
X4.8205Y-5.2138
X4.8354Y-5.1018
X4.8376Y-4.6571
X4.8453Y-4.461
X4.8673Y-4.4234
X4.8685Y-4.6484
X4.8689Y-4.8689
X4.88Y-5.1044
X4.8812Y-4.9901
X4.8988Y-4.3512
X4.9002Y-4.6527
X4.911Y-4.8661
X4.9122Y-5.0012
X4.9209Y-5.2134
X4.9339Y-4.6512
X4.9433Y-4.8661
X4.9451Y-5.0031
X4.9635Y-4.7465
X4.9776Y-5.189
X4.9874Y-4.8697
X4.9957Y-4.7465
X4.9976Y-5.1409
X5.0106Y-4.6223
X5.0175Y-4.4234
X5.025Y-5.1186
X5.0311Y-4.5189
X5.0429Y-4.752
X5.0908Y-4.3896
X5.1012Y-4.6285
X5.1461Y-4.4492
X5.1539Y-5.189
X5.1626Y-4.4019
X5.1626Y-4.1771
X5.1772Y-4.6088
X5.2Y-4.3972
X5.2Y-5.1118
X5.2181Y-4.6091
X5.2197Y-5.0075
X5.2197Y-4.4585
X5.2445Y-4.4846
X5.263Y-4.5154
X5.285Y-5.107
X5.3091Y-4.1771
X5.3264Y-4.3561
X5.3299Y-5.0461
X5.3311Y-5.107
X5.3335Y-3.9346
X5.4518Y-3.5421
X5.4646Y-4.204
X5.4713Y-4.4421
X5.472Y-4.4098
X5.475Y-4.519
X5.4876Y-3.5463
X5.4979Y-5.1079
X5.5025Y-4.2031
X5.5218Y-4.0328
X5.524Y-3.5524
X5.5276Y-3.7638
X5.5483Y-4.4752
X5.5589Y-3.5493
X5.5701Y-4.3023
X5.575Y-3.9
X5.6007Y-4.1942
X5.6224Y-4.4051
X5.6709Y-4.5034
X5.674Y-4.112
X5.6756Y-4.3075
X5.7Y-4.2485
X5.722Y-4.517
X5.725Y-4.309
X5.726Y-3.899
X5.726Y-4.109
X5.7717Y-4.4134
X5.7744Y-4.3075
X5.7775Y-4.2288
X5.7831Y-5.2343
X5.8039Y-4.2485
X5.8244Y-4.3079
X5.8613Y-4.874
X5.8662Y-4.8413
X5.8809Y-4.9
X5.8984Y-5.0921
X5.9012Y-4.6311
X5.9209Y-5.0559
X5.9264Y-4.6083
X5.9323Y-4.8602
X5.941Y-5.092
X5.9484Y-4.6935
X5.9685Y-4.9685
X5.9882Y-4.4331
X5.9882Y-5.0
X5.9901Y-4.4016
X6.0011Y-4.1094
X6.033Y-4.6083
X6.037Y-5.095
X6.0567Y-4.8358
X6.0722Y-4.0795
X6.073Y-4.597
X6.0768Y-4.1957
X6.0898Y-4.8378
X6.1256Y-4.1016
X6.1335Y-4.8378
X6.1362Y-4.5091
X6.141Y-5.095
X6.1528Y-3.9988
X6.1579Y-4.2949
X6.1681Y-4.835
X6.1732Y-4.1024
X6.1913Y-4.6043
X6.1969Y-4.5118
X6.1969Y-3.8869
X6.2008Y-4.837
X6.2205Y-4.1957
X6.224Y-4.601
X6.2283Y-4.2992
X6.2386Y-4.8791
X6.239Y-4.8398
X6.2409Y-5.0933
X6.2553Y-4.5055
X6.2598Y-4.0945
X6.2736Y-4.2552
X6.275Y-4.387
X6.2835Y-3.9843
X6.3032Y-4.0669
X6.3086Y-4.5131
X6.3143Y-4.2941
X6.3143Y-4.4272
X6.3172Y-4.4777
X6.321Y-3.9782
X6.3433Y-4.278
X6.344Y-3.884
X6.3461Y-4.427
X6.4646Y-4.9524
X6.4731Y-5.2067
X6.5341Y-5.0962
X6.5484Y-4.7826
X6.55Y-4.873
X6.55Y-5.23
X6.6Y-4.874
X6.6Y-5.234
X6.6288Y-5.0934
X6.6486Y-3.4008
X6.65Y-4.874
X6.65Y-5.232
X6.6689Y-4.6697
X6.6697Y-5.1008
X6.699Y-4.872
X6.7Y-5.232
X6.7193Y-4.6726
X6.7197Y-3.4004
X6.726Y-4.7358
X6.7575Y-4.7366
X6.7988Y-4.7327
X6.7988Y-5.0949
X6.8197Y-3.4004
X6.8321Y-5.1195
X6.8346Y-5.0787
X6.8643Y-5.0998
X6.9197Y-3.4004
X6.9252Y-4.9268
X6.9252Y-4.9843
X7.0224Y-4.739
X7.051Y-4.876
X7.051Y-5.221
X7.0726Y-4.6649
X7.0984Y-4.874
X7.1Y-5.222
X7.1288Y-4.7437
X7.148Y-5.223
X7.1496Y-4.874
X7.161Y-4.7421
X7.1705Y-5.0665
X7.1878Y-5.1628
X7.189Y-4.9598
X7.198Y-5.222
X7.2008Y-4.8764
X7.2142Y-4.7402
X7.2217Y-4.851
X7.2276Y-4.9551
X7.2378Y-5.0011
X7.2535Y-4.7386
X7.2979Y-4.7347
X7.2992Y-5.0154
X7.3764Y-4.8142
X7.3854Y-4.7512
X7.56Y-5.3327
X7.614Y-5.0998
X7.714Y-5.0083
X7.873Y-4.1648
X8.1232Y-5.335
T2
X2.84Y-4.598
X2.912Y-4.746
X3.045Y-4.669
X3.117Y-4.7943
X3.169Y-4.692
X3.226Y-4.825
X3.2756Y-4.2441
X3.354Y-3.801
X3.3663Y-4.9207
X3.3728Y-3.4544
X3.39Y-3.851
X3.4016Y-4.2677
X3.4354Y-3.4996
X3.437Y-3.41
X3.505Y-4.9095
X3.509Y-4.647
X3.5449Y-4.8319
X3.562Y-4.645
X3.6015Y-4.7339
X3.6079Y-3.5228
X3.6276Y-4.8795
X3.649Y-4.75
X3.6843Y-3.6047
X3.7795Y-3.8157
X3.7894Y-3.6992
X3.7941Y-5.0272
X3.8035Y-4.9299
X3.825Y-5.307
X3.8261Y-4.645
X3.8531Y-4.9979
X3.8573Y-4.6424
X3.8732Y-4.9512
X3.9421Y-4.1874
X3.963Y-4.1642
X3.9718Y-5.3342
X3.9732Y-3.8854
X4.0429Y-4.1689
X4.0461Y-3.7669
X4.0996Y-3.6004
X4.123Y-4.951
X4.125Y-5.218
X4.126Y-4.861
X4.134Y-3.6017
X4.151Y-5.2831
X4.235Y-4.645
X4.2441Y-4.1736
X4.267Y-4.645
X4.275Y-5.001
X4.2846Y-4.3508
X4.303Y-4.999
X4.309Y-4.557
X4.4003Y-4.7479
X4.4193Y-4.3508
X4.4204Y-4.3795
X4.4258Y-5.104
X4.429Y-3.762
X4.575Y-4.869
X4.575Y-5.218
X4.576Y-5.307
X4.5761Y-4.9561
X4.5839Y-4.4009
X4.5984Y-4.4295
X4.6Y-4.605
X4.6524Y-4.75
X4.6524Y-4.6512
X4.695Y-4.999
X4.723Y-4.999
X4.8304Y-4.5232
X4.8305Y-4.5538
X4.8483Y-4.9985
X4.866Y-4.75
X4.8756Y-5.2138
X4.9409Y-3.8976
X4.963Y-4.298
X4.998Y-4.298
X5.04Y-4.957
X5.041Y-4.866
X5.075Y-5.215
X5.0984Y-3.8976
X5.1035Y-5.2154
X5.1134Y-4.4748
X5.125Y-4.4
X5.173Y-4.725
X5.226Y-4.8614
X5.234Y-4.725
X5.234Y-5.111
X5.2362Y-3.8976
X5.2811Y-4.9744
X5.298Y-4.516
X5.299Y-4.608
X5.3154Y-4.9071
X5.3795Y-4.9122
X5.386Y-5.112
X5.3874Y-4.9567
X5.3937Y-4.685
X5.44Y-4.299
X5.4713Y-4.299
X5.474Y-3.7984
X5.474Y-3.998
X5.474Y-4.026
X5.5311Y-4.8909
X5.535Y-5.111
X5.5476Y-4.8413
X5.5508Y-4.0162
X5.5598Y-4.9425
X5.564Y-4.4021
X5.5742Y-5.0612
X5.5906Y-4.685
X5.6031Y-3.7898
X5.6071Y-5.1067
X5.6394Y-4.8606
X5.6556Y-4.4008
X5.6831Y-5.109
X5.6831Y-5.192
X5.6902Y-3.8803
X5.7972Y-4.7229
X5.824Y-4.606
X5.825Y-4.112
X5.825Y-4.202
X5.825Y-4.518
X5.8379Y-4.7229
X5.9055Y-3.878
X5.9607Y-4.841
X5.998Y-4.3256
X6.025Y-3.989
X6.025Y-4.017
X6.025Y-4.297
X6.1075Y-4.404
X6.119Y-3.993
X6.152Y-4.4116
X6.2236Y-4.0091
X6.289Y-5.094
X6.289Y-5.202
X6.3252Y-4.0922
X6.3402Y-4.502
X6.3402Y-4.6082
X6.3492Y-4.1982
X6.351Y-4.723
X6.374Y-4.7
X6.45Y-5.014
X6.5Y-4.946
X6.5Y-5.2284
X6.5551Y-3.4646
X6.5675Y-4.8101
X6.5744Y-4.1953
X6.5744Y-3.7799
X6.6531Y-4.1969
X6.6535Y-3.7795
X6.6535Y-3.8091
X6.6535Y-3.8386
X6.7516Y-4.1969
X6.772Y-5.2027
X6.8Y-5.2284
X6.825Y-4.909
X6.8256Y-4.878
X6.8598Y-4.1953
X6.8602Y-3.7795
X6.8602Y-3.8091
X6.8602Y-3.8386
X6.92Y-4.6602
X6.9217Y-5.1709
X6.9232Y-5.05
X6.9472Y-5.0138
X6.9488Y-3.7795
X6.956Y-4.669
X7.0567Y-4.1953
X7.0571Y-3.7795
X7.0571Y-3.8091
X7.0571Y-3.8386
X7.078Y-4.768
X7.1253Y-4.6656
X7.1551Y-4.1953
X7.1551Y-4.2248
X7.1555Y-3.7795
X7.1555Y-3.8091
X7.1555Y-3.8386
X7.2417Y-5.2181
X7.2694Y-5.0821
X7.2736Y-4.9539
X7.2988Y-5.1929
X7.299Y-5.22
X7.3283Y-4.8823
X7.3632Y-4.7137
X7.444Y-4.67
X7.444Y-4.768
X7.5591Y-3.7795
X7.563Y-4.769
X7.7559Y-3.7795
X7.8583Y-3.7795
X7.8642Y-5.0787
X7.8839Y-5.0
X7.8937Y-5.0984
X7.9331Y-5.0984
X7.9429Y-5.0
X7.9528Y-3.7795
X7.9626Y-5.0787
X8.0311Y-4.624
X8.0606Y-4.2264
X8.1Y-4.578
X8.1354Y-3.864
X8.1374Y-3.425
X8.1374Y-3.467
X8.1388Y-3.8245
X8.1388Y-4.225
X8.179Y-4.624
X8.222Y-4.179
X8.223Y-4.674
X8.224Y-3.38
X8.224Y-3.473
X8.224Y-4.27
X8.225Y-3.779
X8.226Y-3.875
T3
X7.38Y-4.96
T4
X3.3Y-5.25
X3.3766Y-5.0537
X3.3984Y-5.25
X3.55Y-5.25
X3.5687Y-5.0537
X3.6484Y-5.25
T5
X2.8Y-3.2
X2.8Y-3.3
X2.8Y-3.6
X2.8Y-3.7
X2.8Y-4.0
X2.8Y-4.1
X2.9Y-3.2
X2.9Y-3.3
X2.9Y-3.6
X2.9Y-3.7
X2.9Y-4.0
X2.9Y-4.1
X3.0Y-3.2
X3.0Y-3.3
X3.0Y-3.6
X3.0Y-3.7
X3.0Y-4.0
X3.0Y-4.1
X3.1Y-3.2
X3.1Y-3.3
X3.1Y-3.6
X3.1Y-3.7
X3.1Y-4.0
X3.1Y-4.1
X3.2Y-3.2
X3.2Y-3.3
X3.2Y-3.6
X3.2Y-3.7
X3.2Y-4.0
X3.2Y-4.1
X3.2Y-4.4
X3.2Y-4.5
X3.3Y-3.2
X3.3Y-3.3
X3.3Y-3.6
X3.3Y-3.7
X3.3Y-4.0
X3.3Y-4.1
X3.3Y-4.4
X3.3Y-4.5
X3.325Y-4.685
X3.325Y-4.785
X3.4Y-3.2
X3.4Y-3.3
X3.4Y-3.6
X3.4Y-3.7
X3.4Y-4.0
X3.4Y-4.1
X3.4Y-4.4
X3.4Y-4.5
X3.5Y-3.2
X3.5Y-3.3
X3.5Y-3.6
X3.5Y-3.7
X3.5Y-4.0
X3.5Y-4.1
X3.5Y-4.4
X3.5Y-4.5
X3.6Y-4.4
X3.6Y-4.5
X3.7Y-3.2
X3.7Y-3.3
X3.7Y-4.0
X3.7Y-4.1
X3.7Y-4.4
X3.7Y-4.5
X3.8Y-3.2
X3.8Y-3.3
X3.8Y-4.0
X3.8Y-4.1
X3.8Y-4.4
X3.8Y-4.5
X3.9Y-3.2
X3.9Y-3.3
X3.9Y-4.0
X3.9Y-4.1
X3.9Y-4.4
X3.9Y-4.5
X4.0Y-3.2
X4.0Y-3.3
X4.0Y-4.0
X4.0Y-4.1
X4.0Y-4.4
X4.0Y-4.5
X4.1Y-3.2
X4.1Y-3.3
X4.1Y-4.0
X4.1Y-4.1
X4.1Y-4.4
X4.1Y-4.5
X4.2Y-3.2
X4.2Y-3.3
X4.2Y-4.0
X4.2Y-4.1
X4.2Y-4.4
X4.2Y-4.5
X4.3Y-3.2
X4.3Y-3.3
X4.3Y-4.0
X4.3Y-4.1
X4.4Y-3.2
X4.4Y-3.3
X4.4Y-4.0
X4.4Y-4.1
X4.6Y-3.2
X4.6Y-3.3
X4.6Y-3.6
X4.6Y-3.7
X4.6Y-4.0
X4.6Y-4.1
X4.7Y-3.2
X4.7Y-3.3
X4.7Y-3.6
X4.7Y-3.7
X4.7Y-4.0
X4.7Y-4.1
X4.8Y-3.2
X4.8Y-3.3
X4.8Y-3.6
X4.8Y-3.7
X4.8Y-4.0
X4.8Y-4.1
X4.9Y-3.2
X4.9Y-3.3
X4.9Y-3.6
X4.9Y-3.7
X4.9Y-4.0
X4.9Y-4.1
X5.0Y-3.2
X5.0Y-3.3
X5.0Y-3.6
X5.0Y-3.7
X5.0Y-4.0
X5.0Y-4.1
X5.1Y-3.2
X5.1Y-3.3
X5.1Y-3.6
X5.1Y-3.7
X5.1Y-4.0
X5.1Y-4.1
X5.2Y-3.2
X5.2Y-3.3
X5.2Y-3.6
X5.2Y-3.7
X5.2Y-4.0
X5.2Y-4.1
X5.3Y-3.2
X5.3Y-3.3
X5.3Y-3.6
X5.3Y-3.7
X5.3Y-4.0
X5.3Y-4.1
X5.5Y-3.2
X5.5Y-3.3
X5.5Y-3.6
X5.5Y-3.7
X5.6Y-3.2
X5.6Y-3.3
X5.6Y-3.6
X5.6Y-3.7
X5.7Y-3.2
X5.7Y-3.3
X5.7Y-3.6
X5.7Y-3.7
X5.8Y-3.2
X5.8Y-3.3
X5.8Y-3.6
X5.8Y-3.7
X5.9Y-3.2
X5.9Y-3.3
X5.9Y-3.6
X5.9Y-3.7
X6.0Y-3.2
X6.0Y-3.3
X6.0Y-3.6
X6.0Y-3.7
X6.1Y-3.2
X6.1Y-3.3
X6.1Y-3.6
X6.1Y-3.7
X6.2Y-3.2
X6.2Y-3.3
X6.2Y-3.6
X6.2Y-3.7
X6.6Y-3.2
X6.6Y-3.3
X6.6Y-3.6
X6.6Y-3.7
X6.6Y-4.0
X6.6Y-4.1
X6.6Y-4.4
X6.6Y-4.5
X6.7Y-3.2
X6.7Y-3.3
X6.7Y-3.6
X6.7Y-3.7
X6.7Y-4.0
X6.7Y-4.1
X6.7Y-4.4
X6.7Y-4.5
X6.8Y-3.2
X6.8Y-3.3
X6.8Y-3.6
X6.8Y-3.7
X6.8Y-4.0
X6.8Y-4.1
X6.8Y-4.4
X6.8Y-4.5
X6.9Y-3.2
X6.9Y-3.3
X6.9Y-3.6
X6.9Y-3.7
X6.9Y-4.0
X6.9Y-4.1
X6.9Y-4.4
X6.9Y-4.5
X7.0Y-3.2
X7.0Y-3.3
X7.0Y-3.6
X7.0Y-3.7
X7.0Y-4.0
X7.0Y-4.1
X7.0Y-4.4
X7.0Y-4.5
X7.1Y-3.2
X7.1Y-3.3
X7.1Y-3.6
X7.1Y-3.7
X7.1Y-4.0
X7.1Y-4.1
X7.1Y-4.4
X7.1Y-4.5
X7.2Y-3.2
X7.2Y-3.3
X7.2Y-3.6
X7.2Y-3.7
X7.2Y-4.0
X7.2Y-4.1
X7.2Y-4.4
X7.2Y-4.5
X7.3Y-3.2
X7.3Y-3.3
X7.3Y-3.6
X7.3Y-3.7
X7.3Y-4.0
X7.3Y-4.1
X7.3Y-4.4
X7.3Y-4.5
X7.5Y-3.2
X7.5Y-3.3
X7.5Y-3.6
X7.5Y-3.7
X7.5Y-4.0
X7.5Y-4.1
X7.5Y-4.4
X7.5Y-4.5
X7.6Y-3.2
X7.6Y-3.3
X7.6Y-3.6
X7.6Y-3.7
X7.6Y-4.0
X7.6Y-4.1
X7.6Y-4.4
X7.6Y-4.5
X7.7Y-3.2
X7.7Y-3.3
X7.7Y-3.6
X7.7Y-3.7
X7.7Y-4.0
X7.7Y-4.1
X7.7Y-4.4
X7.7Y-4.5
X7.8Y-3.2
X7.8Y-3.3
X7.8Y-3.6
X7.8Y-3.7
X7.8Y-4.0
X7.8Y-4.1
X7.8Y-4.4
X7.8Y-4.5
X7.9Y-3.2
X7.9Y-3.3
X7.9Y-3.6
X7.9Y-3.7
X7.9Y-4.0
X7.9Y-4.1
X7.9Y-4.4
X7.9Y-4.5
X8.0Y-3.2
X8.0Y-3.3
X8.0Y-3.6
X8.0Y-3.7
X8.0Y-4.0
X8.0Y-4.1
X8.0Y-4.4
X8.0Y-4.5
X8.1Y-3.2
X8.1Y-3.3
X8.1Y-3.6
X8.1Y-3.7
X8.1Y-4.0
X8.1Y-4.1
X8.1Y-4.4
X8.1Y-4.5
X8.2Y-3.2
X8.2Y-3.3
X8.2Y-3.6
X8.2Y-3.7
X8.2Y-4.0
X8.2Y-4.1
X8.2Y-4.4
X8.2Y-4.5
T6
X2.8Y-4.275
X2.8Y-4.4522
X3.0559Y-4.275
X3.0559Y-4.4522
X7.55Y-4.8638
X7.55Y-4.9638
X7.55Y-5.0638
X7.55Y-5.1638
X7.65Y-4.7638
X7.65Y-4.8638
X7.65Y-4.9638
X7.65Y-5.0638
X7.65Y-5.1638
X7.65Y-5.2638
X7.75Y-4.7638
X7.75Y-4.8638
X7.75Y-5.1638
X7.75Y-5.2638
X7.85Y-4.7638
X7.85Y-4.8638
X7.85Y-5.1638
X7.85Y-5.2638
X7.95Y-4.7638
X7.95Y-4.8638
X7.95Y-5.1638
X7.95Y-5.2638
X8.05Y-4.7638
X8.05Y-4.8638
X8.05Y-4.9638
X8.05Y-5.0638
X8.05Y-5.1638
X8.05Y-5.2638
X8.15Y-4.8638
X8.15Y-4.9638
X8.15Y-5.0638
X8.15Y-5.1638
T5
G00X2.8583Y-4.9843
M15
G01X2.937Y-4.9843
M16
G05
G00X2.8583Y-5.2205
M15
G01X2.937Y-5.2205
M16
G05
G00X3.0827Y-5.1417
M15
G01X3.0827Y-5.063
M16
G05
T0
M30
