M48
; DRILL file {KiCad 5.1.5+dfsg1-2build2} date Sat 21 May 2022 12:28:59 PM PDT
; FORMAT={-:-/ absolute / inch / decimal}
; #@! TF.CreationDate,2022-05-21T12:28:59-07:00
; #@! TF.GenerationSoftware,Kicad,Pcbnew,5.1.5+dfsg1-2build2
; #@! TF.FileFunction,Plated,1,4,PTH
FMAT,2
INCH
T1C0.0157
T2C0.0236
T3C0.0394
%
G90
G05
T1
X2.14Y-2.55
X2.14Y-3.07
X2.16Y-2.33
X2.24Y-2.4
X2.29Y-2.3715
X2.3603Y-2.1953
X2.37Y-2.91
X2.4226Y-2.91
X2.47Y-2.91
X2.52Y-2.91
X2.59Y-2.34
X2.6293Y-2.3385
X2.6602Y-2.3998
X2.7Y-2.41
X2.7278Y-2.3815
X2.7943Y-2.3353
X2.84Y-2.33
X2.86Y-2.99
X2.88Y-3.03
X2.93Y-2.52
X2.94Y-2.6192
X2.98Y-2.59
X3.02Y-3.04
X3.04Y-2.9731
X3.05Y-2.41
X3.05Y-2.71
X3.17Y-2.4
X3.21Y-2.33
X3.4Y-2.3476
X3.4Y-3.2476
X3.47Y-2.9776
X3.47Y-3.0476
X3.48Y-2.71
X3.49Y-2.3507
X3.63Y-2.6176
X3.63Y-2.33
X3.66Y-2.8393
X3.67Y-3.0407
X3.67Y-2.5522
X3.74Y-3.1505
X3.8Y-2.5507
X3.83Y-2.329
X3.83Y-2.9807
X3.88Y-2.5429
X3.89Y-3.1907
X3.9012Y-3.0491
X3.92Y-2.9776
X3.94Y-2.3376
X3.94Y-2.6676
X3.96Y-2.9807
X3.99Y-2.3376
X3.99Y-2.6676
X4.0198Y-3.1874
X4.0229Y-2.5407
X4.05Y-3.2167
X4.07Y-2.3376
X4.08Y-2.9807
X4.1415Y-2.8276
X4.17Y-2.5007
X4.17Y-3.1807
X4.2Y-2.9507
X4.22Y-2.4342
X4.22Y-3.0676
X4.24Y-2.8007
X4.24Y-2.539
X4.26Y-2.9476
X4.26Y-3.0676
X4.27Y-2.7707
X4.27Y-3.1976
X4.2705Y-2.4354
X4.3Y-2.1634
X4.3072Y-3.1804
X4.32Y-2.3076
X4.32Y-2.949
X4.33Y-2.5707
X4.33Y-3.0734
X4.34Y-2.1676
X4.35Y-2.6076
X4.36Y-2.3276
X4.36Y-2.5407
X4.369Y-3.1782
X4.3698Y-3.0705
X4.41Y-3.0707
X4.41Y-2.8376
X4.42Y-2.5476
X4.431Y-2.206
X4.45Y-2.8407
X4.48Y-3.0976
X4.51Y-2.5476
X4.56Y-3.1876
X4.57Y-2.5507
X4.57Y-3.3154
X4.6Y-2.8176
X4.62Y-2.3507
X4.6337Y-2.9723
X4.67Y-3.0442
X4.6804Y-2.1707
X4.7Y-2.8362
X4.71Y-3.1907
X4.73Y-2.9807
X4.73Y-2.8107
X4.75Y-2.5707
X4.76Y-2.1722
X4.7914Y-2.4093
X4.81Y-2.1807
X4.81Y-2.8293
X4.8106Y-3.0476
X4.85Y-2.9807
X4.86Y-2.8307
X4.9698Y-2.8309
X4.99Y-3.0407
X5.0Y-2.3376
X5.0Y-2.5476
X5.07Y-2.9776
X5.1Y-2.7907
X5.1615Y-2.9807
X5.1848Y-2.3324
X5.1885Y-3.2453
X5.1898Y-2.5674
X5.19Y-2.8207
X5.19Y-3.0407
X5.24Y-2.8207
X5.2702Y-3.2877
X5.4226Y-2.8376
T2
X2.02Y-2.15
X2.03Y-2.6
X2.07Y-2.9
X2.09Y-2.34
X2.21Y-2.17
X2.43Y-2.47
X2.44Y-2.62
X2.48Y-2.26
X2.5636Y-3.23
X2.58Y-2.86
X2.65Y-2.1336
X2.7958Y-2.9042
X2.8736Y-3.24
X2.8942Y-2.4358
X2.92Y-2.26
X2.95Y-3.03
X3.09Y-2.1336
X3.19Y-3.1962
X3.29Y-2.9007
X3.3Y-2.48
X3.3033Y-2.26
X3.5385Y-2.5611
X3.54Y-3.0176
X3.5645Y-2.3445
X3.61Y-2.77
X3.73Y-2.43
X3.73Y-3.0407
X3.74Y-2.26
X3.78Y-2.9743
X3.85Y-2.77
X3.96Y-3.28
X4.11Y-2.5676
X4.13Y-2.9943
X4.17Y-2.4307
X4.18Y-2.3076
X4.2142Y-2.1518
X4.47Y-2.9507
X4.4701Y-2.3008
X4.4717Y-2.4946
X4.49Y-3.0376
X4.55Y-2.3443
X4.58Y-2.9792
X4.61Y-2.1643
X4.8971Y-3.054
X4.9013Y-2.5004
X4.9083Y-2.9807
X4.91Y-2.3043
X4.96Y-3.29
X5.047Y-3.0462
X5.07Y-2.1576
X5.111Y-2.5574
X5.3Y-2.5676
X5.34Y-3.1176
T3
X2.9685Y-3.3724
X2.9685Y-3.4724
X3.0685Y-3.3724
X3.0685Y-3.4724
X3.1685Y-3.3724
X3.1685Y-3.4724
X3.2685Y-3.3724
X3.2685Y-3.4724
X3.3685Y-3.3724
X3.3685Y-3.4724
X3.4685Y-3.3724
X3.4685Y-3.4724
X3.5685Y-3.3724
X3.5685Y-3.4724
X3.6685Y-3.3724
X3.6685Y-3.4724
X2.0685Y-3.3724
X2.0685Y-3.4724
X2.1685Y-3.3724
X2.1685Y-3.4724
X2.2685Y-3.3724
X2.2685Y-3.4724
X2.3685Y-3.3724
X2.3685Y-3.4724
X2.4685Y-3.3724
X2.4685Y-3.4724
X2.5685Y-3.3724
X2.5685Y-3.4724
X2.6685Y-3.3724
X2.6685Y-3.4724
X2.7685Y-3.3724
X2.7685Y-3.4724
X2.06Y-2.06
X2.16Y-2.06
X2.26Y-2.06
X2.36Y-2.06
X2.46Y-2.06
X2.56Y-2.06
X2.66Y-2.06
X2.76Y-2.06
X2.86Y-2.06
X2.96Y-2.06
X4.7685Y-3.3724
X4.7685Y-3.4724
X4.8685Y-3.3724
X4.8685Y-3.4724
X4.9685Y-3.3724
X4.9685Y-3.4724
X5.0685Y-3.3724
X5.0685Y-3.4724
X5.1685Y-3.3724
X5.1685Y-3.4724
X5.2685Y-3.3724
X5.2685Y-3.4724
X5.3685Y-3.3724
X5.3685Y-3.4724
X5.4685Y-3.3724
X5.4685Y-3.4724
X3.8685Y-3.3724
X3.8685Y-3.4724
X3.9685Y-3.3724
X3.9685Y-3.4724
X4.0685Y-3.3724
X4.0685Y-3.4724
X4.1685Y-3.3724
X4.1685Y-3.4724
X4.2685Y-3.3724
X4.2685Y-3.4724
X4.3685Y-3.3724
X4.3685Y-3.4724
X4.4685Y-3.3724
X4.4685Y-3.4724
X4.5685Y-3.3724
X4.5685Y-3.4724
T0
M30
