%TF.GenerationSoftware,KiCad,Pcbnew,6.0.6-3a73a75311~116~ubuntu20.04.1*%
%TF.CreationDate,2022-06-25T17:28:11-07:00*%
%TF.ProjectId,RegisterFile,52656769-7374-4657-9246-696c652e6b69,rev?*%
%TF.SameCoordinates,Original*%
%TF.FileFunction,Legend,Bot*%
%TF.FilePolarity,Positive*%
%FSLAX46Y46*%
G04 Gerber Fmt 4.6, Leading zero omitted, Abs format (unit mm)*
G04 Created by KiCad (PCBNEW 6.0.6-3a73a75311~116~ubuntu20.04.1) date 2022-06-25 17:28:11*
%MOMM*%
%LPD*%
G01*
G04 APERTURE LIST*
%ADD10C,0.300000*%
%ADD11C,0.150000*%
%ADD12C,0.120000*%
G04 APERTURE END LIST*
D10*
X170977857Y-125543571D02*
X170692142Y-125543571D01*
X170549285Y-125615000D01*
X170406428Y-125757857D01*
X170335000Y-126043571D01*
X170335000Y-126543571D01*
X170406428Y-126829285D01*
X170549285Y-126972142D01*
X170692142Y-127043571D01*
X170977857Y-127043571D01*
X171120714Y-126972142D01*
X171263571Y-126829285D01*
X171335000Y-126543571D01*
X171335000Y-126043571D01*
X171263571Y-125757857D01*
X171120714Y-125615000D01*
X170977857Y-125543571D01*
X169049285Y-126043571D02*
X169049285Y-127043571D01*
X169692142Y-126043571D02*
X169692142Y-126829285D01*
X169620714Y-126972142D01*
X169477857Y-127043571D01*
X169263571Y-127043571D01*
X169120714Y-126972142D01*
X169049285Y-126900714D01*
X168549285Y-126043571D02*
X167977857Y-126043571D01*
X168335000Y-125543571D02*
X168335000Y-126829285D01*
X168263571Y-126972142D01*
X168120714Y-127043571D01*
X167977857Y-127043571D01*
X151431428Y-127043571D02*
X151931428Y-126329285D01*
X152288571Y-127043571D02*
X152288571Y-125543571D01*
X151717142Y-125543571D01*
X151574285Y-125615000D01*
X151502857Y-125686428D01*
X151431428Y-125829285D01*
X151431428Y-126043571D01*
X151502857Y-126186428D01*
X151574285Y-126257857D01*
X151717142Y-126329285D01*
X152288571Y-126329285D01*
X150217142Y-126972142D02*
X150360000Y-127043571D01*
X150645714Y-127043571D01*
X150788571Y-126972142D01*
X150860000Y-126829285D01*
X150860000Y-126257857D01*
X150788571Y-126115000D01*
X150645714Y-126043571D01*
X150360000Y-126043571D01*
X150217142Y-126115000D01*
X150145714Y-126257857D01*
X150145714Y-126400714D01*
X150860000Y-126543571D01*
X148860000Y-126043571D02*
X148860000Y-127257857D01*
X148931428Y-127400714D01*
X149002857Y-127472142D01*
X149145714Y-127543571D01*
X149360000Y-127543571D01*
X149502857Y-127472142D01*
X148860000Y-126972142D02*
X149002857Y-127043571D01*
X149288571Y-127043571D01*
X149431428Y-126972142D01*
X149502857Y-126900714D01*
X149574285Y-126757857D01*
X149574285Y-126329285D01*
X149502857Y-126186428D01*
X149431428Y-126115000D01*
X149288571Y-126043571D01*
X149002857Y-126043571D01*
X148860000Y-126115000D01*
X147360000Y-127043571D02*
X148217142Y-127043571D01*
X147788571Y-127043571D02*
X147788571Y-125543571D01*
X147931428Y-125757857D01*
X148074285Y-125900714D01*
X148217142Y-125972142D01*
X187407857Y-127043571D02*
X187407857Y-125543571D01*
X186693571Y-126043571D02*
X186693571Y-127043571D01*
X186693571Y-126186428D02*
X186622142Y-126115000D01*
X186479285Y-126043571D01*
X186265000Y-126043571D01*
X186122142Y-126115000D01*
X186050714Y-126257857D01*
X186050714Y-127043571D01*
X161591428Y-127043571D02*
X162091428Y-126329285D01*
X162448571Y-127043571D02*
X162448571Y-125543571D01*
X161877142Y-125543571D01*
X161734285Y-125615000D01*
X161662857Y-125686428D01*
X161591428Y-125829285D01*
X161591428Y-126043571D01*
X161662857Y-126186428D01*
X161734285Y-126257857D01*
X161877142Y-126329285D01*
X162448571Y-126329285D01*
X160377142Y-126972142D02*
X160520000Y-127043571D01*
X160805714Y-127043571D01*
X160948571Y-126972142D01*
X161020000Y-126829285D01*
X161020000Y-126257857D01*
X160948571Y-126115000D01*
X160805714Y-126043571D01*
X160520000Y-126043571D01*
X160377142Y-126115000D01*
X160305714Y-126257857D01*
X160305714Y-126400714D01*
X161020000Y-126543571D01*
X159020000Y-126043571D02*
X159020000Y-127257857D01*
X159091428Y-127400714D01*
X159162857Y-127472142D01*
X159305714Y-127543571D01*
X159520000Y-127543571D01*
X159662857Y-127472142D01*
X159020000Y-126972142D02*
X159162857Y-127043571D01*
X159448571Y-127043571D01*
X159591428Y-126972142D01*
X159662857Y-126900714D01*
X159734285Y-126757857D01*
X159734285Y-126329285D01*
X159662857Y-126186428D01*
X159591428Y-126115000D01*
X159448571Y-126043571D01*
X159162857Y-126043571D01*
X159020000Y-126115000D01*
X158020000Y-125543571D02*
X157877142Y-125543571D01*
X157734285Y-125615000D01*
X157662857Y-125686428D01*
X157591428Y-125829285D01*
X157520000Y-126115000D01*
X157520000Y-126472142D01*
X157591428Y-126757857D01*
X157662857Y-126900714D01*
X157734285Y-126972142D01*
X157877142Y-127043571D01*
X158020000Y-127043571D01*
X158162857Y-126972142D01*
X158234285Y-126900714D01*
X158305714Y-126757857D01*
X158377142Y-126472142D01*
X158377142Y-126115000D01*
X158305714Y-125829285D01*
X158234285Y-125686428D01*
X158162857Y-125615000D01*
X158020000Y-125543571D01*
X118112857Y-127043571D02*
X118112857Y-125543571D01*
X117541428Y-125543571D01*
X117398571Y-125615000D01*
X117327142Y-125686428D01*
X117255714Y-125829285D01*
X117255714Y-126043571D01*
X117327142Y-126186428D01*
X117398571Y-126257857D01*
X117541428Y-126329285D01*
X118112857Y-126329285D01*
X116398571Y-127043571D02*
X116541428Y-126972142D01*
X116612857Y-126900714D01*
X116684285Y-126757857D01*
X116684285Y-126329285D01*
X116612857Y-126186428D01*
X116541428Y-126115000D01*
X116398571Y-126043571D01*
X116184285Y-126043571D01*
X116041428Y-126115000D01*
X115970000Y-126186428D01*
X115898571Y-126329285D01*
X115898571Y-126757857D01*
X115970000Y-126900714D01*
X116041428Y-126972142D01*
X116184285Y-127043571D01*
X116398571Y-127043571D01*
X115398571Y-126043571D02*
X115112857Y-127043571D01*
X114827142Y-126329285D01*
X114541428Y-127043571D01*
X114255714Y-126043571D01*
X113112857Y-126972142D02*
X113255714Y-127043571D01*
X113541428Y-127043571D01*
X113684285Y-126972142D01*
X113755714Y-126829285D01*
X113755714Y-126257857D01*
X113684285Y-126115000D01*
X113541428Y-126043571D01*
X113255714Y-126043571D01*
X113112857Y-126115000D01*
X113041428Y-126257857D01*
X113041428Y-126400714D01*
X113755714Y-126543571D01*
X112398571Y-127043571D02*
X112398571Y-126043571D01*
X112398571Y-126329285D02*
X112327142Y-126186428D01*
X112255714Y-126115000D01*
X112112857Y-126043571D01*
X111970000Y-126043571D01*
X111398571Y-126972142D02*
X111398571Y-127043571D01*
X111470000Y-127186428D01*
X111541428Y-127257857D01*
X110755714Y-126257857D02*
X110255714Y-126257857D01*
X110041428Y-127043571D02*
X110755714Y-127043571D01*
X110755714Y-125543571D01*
X110041428Y-125543571D01*
X109398571Y-126043571D02*
X109398571Y-127043571D01*
X109398571Y-126186428D02*
X109327142Y-126115000D01*
X109184285Y-126043571D01*
X108970000Y-126043571D01*
X108827142Y-126115000D01*
X108755714Y-126257857D01*
X108755714Y-127043571D01*
X107970000Y-126972142D02*
X107970000Y-127043571D01*
X108041428Y-127186428D01*
X108112857Y-127257857D01*
X107398571Y-126972142D02*
X107184285Y-127043571D01*
X106827142Y-127043571D01*
X106684285Y-126972142D01*
X106612857Y-126900714D01*
X106541428Y-126757857D01*
X106541428Y-126615000D01*
X106612857Y-126472142D01*
X106684285Y-126400714D01*
X106827142Y-126329285D01*
X107112857Y-126257857D01*
X107255714Y-126186428D01*
X107327142Y-126115000D01*
X107398571Y-125972142D01*
X107398571Y-125829285D01*
X107327142Y-125686428D01*
X107255714Y-125615000D01*
X107112857Y-125543571D01*
X106755714Y-125543571D01*
X106541428Y-125615000D01*
X105327142Y-126972142D02*
X105470000Y-127043571D01*
X105755714Y-127043571D01*
X105898571Y-126972142D01*
X105970000Y-126829285D01*
X105970000Y-126257857D01*
X105898571Y-126115000D01*
X105755714Y-126043571D01*
X105470000Y-126043571D01*
X105327142Y-126115000D01*
X105255714Y-126257857D01*
X105255714Y-126400714D01*
X105970000Y-126543571D01*
X104398571Y-127043571D02*
X104541428Y-126972142D01*
X104612857Y-126829285D01*
X104612857Y-125543571D01*
X103755714Y-126972142D02*
X103755714Y-127043571D01*
X103827142Y-127186428D01*
X103898571Y-127257857D01*
X102255714Y-126900714D02*
X102327142Y-126972142D01*
X102541428Y-127043571D01*
X102684285Y-127043571D01*
X102898571Y-126972142D01*
X103041428Y-126829285D01*
X103112857Y-126686428D01*
X103184285Y-126400714D01*
X103184285Y-126186428D01*
X103112857Y-125900714D01*
X103041428Y-125757857D01*
X102898571Y-125615000D01*
X102684285Y-125543571D01*
X102541428Y-125543571D01*
X102327142Y-125615000D01*
X102255714Y-125686428D01*
X101398571Y-127043571D02*
X101541428Y-126972142D01*
X101612857Y-126829285D01*
X101612857Y-125543571D01*
X100827142Y-127043571D02*
X100827142Y-125543571D01*
X100684285Y-126472142D02*
X100255714Y-127043571D01*
X100255714Y-126043571D02*
X100827142Y-126615000D01*
X138731428Y-127043571D02*
X139231428Y-126329285D01*
X139588571Y-127043571D02*
X139588571Y-125543571D01*
X139017142Y-125543571D01*
X138874285Y-125615000D01*
X138802857Y-125686428D01*
X138731428Y-125829285D01*
X138731428Y-126043571D01*
X138802857Y-126186428D01*
X138874285Y-126257857D01*
X139017142Y-126329285D01*
X139588571Y-126329285D01*
X137517142Y-126972142D02*
X137660000Y-127043571D01*
X137945714Y-127043571D01*
X138088571Y-126972142D01*
X138160000Y-126829285D01*
X138160000Y-126257857D01*
X138088571Y-126115000D01*
X137945714Y-126043571D01*
X137660000Y-126043571D01*
X137517142Y-126115000D01*
X137445714Y-126257857D01*
X137445714Y-126400714D01*
X138160000Y-126543571D01*
X136160000Y-126043571D02*
X136160000Y-127257857D01*
X136231428Y-127400714D01*
X136302857Y-127472142D01*
X136445714Y-127543571D01*
X136660000Y-127543571D01*
X136802857Y-127472142D01*
X136160000Y-126972142D02*
X136302857Y-127043571D01*
X136588571Y-127043571D01*
X136731428Y-126972142D01*
X136802857Y-126900714D01*
X136874285Y-126757857D01*
X136874285Y-126329285D01*
X136802857Y-126186428D01*
X136731428Y-126115000D01*
X136588571Y-126043571D01*
X136302857Y-126043571D01*
X136160000Y-126115000D01*
X135517142Y-125686428D02*
X135445714Y-125615000D01*
X135302857Y-125543571D01*
X134945714Y-125543571D01*
X134802857Y-125615000D01*
X134731428Y-125686428D01*
X134660000Y-125829285D01*
X134660000Y-125972142D01*
X134731428Y-126186428D01*
X135588571Y-127043571D01*
X134660000Y-127043571D01*
X128571428Y-127043571D02*
X129071428Y-126329285D01*
X129428571Y-127043571D02*
X129428571Y-125543571D01*
X128857142Y-125543571D01*
X128714285Y-125615000D01*
X128642857Y-125686428D01*
X128571428Y-125829285D01*
X128571428Y-126043571D01*
X128642857Y-126186428D01*
X128714285Y-126257857D01*
X128857142Y-126329285D01*
X129428571Y-126329285D01*
X127357142Y-126972142D02*
X127500000Y-127043571D01*
X127785714Y-127043571D01*
X127928571Y-126972142D01*
X128000000Y-126829285D01*
X128000000Y-126257857D01*
X127928571Y-126115000D01*
X127785714Y-126043571D01*
X127500000Y-126043571D01*
X127357142Y-126115000D01*
X127285714Y-126257857D01*
X127285714Y-126400714D01*
X128000000Y-126543571D01*
X126000000Y-126043571D02*
X126000000Y-127257857D01*
X126071428Y-127400714D01*
X126142857Y-127472142D01*
X126285714Y-127543571D01*
X126500000Y-127543571D01*
X126642857Y-127472142D01*
X126000000Y-126972142D02*
X126142857Y-127043571D01*
X126428571Y-127043571D01*
X126571428Y-126972142D01*
X126642857Y-126900714D01*
X126714285Y-126757857D01*
X126714285Y-126329285D01*
X126642857Y-126186428D01*
X126571428Y-126115000D01*
X126428571Y-126043571D01*
X126142857Y-126043571D01*
X126000000Y-126115000D01*
X125428571Y-125543571D02*
X124500000Y-125543571D01*
X125000000Y-126115000D01*
X124785714Y-126115000D01*
X124642857Y-126186428D01*
X124571428Y-126257857D01*
X124500000Y-126400714D01*
X124500000Y-126757857D01*
X124571428Y-126900714D01*
X124642857Y-126972142D01*
X124785714Y-127043571D01*
X125214285Y-127043571D01*
X125357142Y-126972142D01*
X125428571Y-126900714D01*
D11*
%TO.C,C6*%
X159844166Y-91107142D02*
X159891785Y-91154761D01*
X160034642Y-91202380D01*
X160129880Y-91202380D01*
X160272738Y-91154761D01*
X160367976Y-91059523D01*
X160415595Y-90964285D01*
X160463214Y-90773809D01*
X160463214Y-90630952D01*
X160415595Y-90440476D01*
X160367976Y-90345238D01*
X160272738Y-90250000D01*
X160129880Y-90202380D01*
X160034642Y-90202380D01*
X159891785Y-90250000D01*
X159844166Y-90297619D01*
X158987023Y-90202380D02*
X159177500Y-90202380D01*
X159272738Y-90250000D01*
X159320357Y-90297619D01*
X159415595Y-90440476D01*
X159463214Y-90630952D01*
X159463214Y-91011904D01*
X159415595Y-91107142D01*
X159367976Y-91154761D01*
X159272738Y-91202380D01*
X159082261Y-91202380D01*
X158987023Y-91154761D01*
X158939404Y-91107142D01*
X158891785Y-91011904D01*
X158891785Y-90773809D01*
X158939404Y-90678571D01*
X158987023Y-90630952D01*
X159082261Y-90583333D01*
X159272738Y-90583333D01*
X159367976Y-90630952D01*
X159415595Y-90678571D01*
X159463214Y-90773809D01*
%TO.C,C13*%
X122967142Y-70477142D02*
X123014761Y-70429523D01*
X123062380Y-70286666D01*
X123062380Y-70191428D01*
X123014761Y-70048571D01*
X122919523Y-69953333D01*
X122824285Y-69905714D01*
X122633809Y-69858095D01*
X122490952Y-69858095D01*
X122300476Y-69905714D01*
X122205238Y-69953333D01*
X122110000Y-70048571D01*
X122062380Y-70191428D01*
X122062380Y-70286666D01*
X122110000Y-70429523D01*
X122157619Y-70477142D01*
X123062380Y-71429523D02*
X123062380Y-70858095D01*
X123062380Y-71143809D02*
X122062380Y-71143809D01*
X122205238Y-71048571D01*
X122300476Y-70953333D01*
X122348095Y-70858095D01*
X122062380Y-71762857D02*
X122062380Y-72381904D01*
X122443333Y-72048571D01*
X122443333Y-72191428D01*
X122490952Y-72286666D01*
X122538571Y-72334285D01*
X122633809Y-72381904D01*
X122871904Y-72381904D01*
X122967142Y-72334285D01*
X123014761Y-72286666D01*
X123062380Y-72191428D01*
X123062380Y-71905714D01*
X123014761Y-71810476D01*
X122967142Y-71762857D01*
%TO.C,C3*%
X125554166Y-91107142D02*
X125601785Y-91154761D01*
X125744642Y-91202380D01*
X125839880Y-91202380D01*
X125982738Y-91154761D01*
X126077976Y-91059523D01*
X126125595Y-90964285D01*
X126173214Y-90773809D01*
X126173214Y-90630952D01*
X126125595Y-90440476D01*
X126077976Y-90345238D01*
X125982738Y-90250000D01*
X125839880Y-90202380D01*
X125744642Y-90202380D01*
X125601785Y-90250000D01*
X125554166Y-90297619D01*
X125220833Y-90202380D02*
X124601785Y-90202380D01*
X124935119Y-90583333D01*
X124792261Y-90583333D01*
X124697023Y-90630952D01*
X124649404Y-90678571D01*
X124601785Y-90773809D01*
X124601785Y-91011904D01*
X124649404Y-91107142D01*
X124697023Y-91154761D01*
X124792261Y-91202380D01*
X125077976Y-91202380D01*
X125173214Y-91154761D01*
X125220833Y-91107142D01*
%TO.C,C4*%
X136984166Y-91107142D02*
X137031785Y-91154761D01*
X137174642Y-91202380D01*
X137269880Y-91202380D01*
X137412738Y-91154761D01*
X137507976Y-91059523D01*
X137555595Y-90964285D01*
X137603214Y-90773809D01*
X137603214Y-90630952D01*
X137555595Y-90440476D01*
X137507976Y-90345238D01*
X137412738Y-90250000D01*
X137269880Y-90202380D01*
X137174642Y-90202380D01*
X137031785Y-90250000D01*
X136984166Y-90297619D01*
X136127023Y-90535714D02*
X136127023Y-91202380D01*
X136365119Y-90154761D02*
X136603214Y-90869047D01*
X135984166Y-90869047D01*
%TO.C,C5*%
X148414166Y-91107142D02*
X148461785Y-91154761D01*
X148604642Y-91202380D01*
X148699880Y-91202380D01*
X148842738Y-91154761D01*
X148937976Y-91059523D01*
X148985595Y-90964285D01*
X149033214Y-90773809D01*
X149033214Y-90630952D01*
X148985595Y-90440476D01*
X148937976Y-90345238D01*
X148842738Y-90250000D01*
X148699880Y-90202380D01*
X148604642Y-90202380D01*
X148461785Y-90250000D01*
X148414166Y-90297619D01*
X147509404Y-90202380D02*
X147985595Y-90202380D01*
X148033214Y-90678571D01*
X147985595Y-90630952D01*
X147890357Y-90583333D01*
X147652261Y-90583333D01*
X147557023Y-90630952D01*
X147509404Y-90678571D01*
X147461785Y-90773809D01*
X147461785Y-91011904D01*
X147509404Y-91107142D01*
X147557023Y-91154761D01*
X147652261Y-91202380D01*
X147890357Y-91202380D01*
X147985595Y-91154761D01*
X148033214Y-91107142D01*
%TO.C,C19*%
X117140357Y-117197142D02*
X117187976Y-117244761D01*
X117330833Y-117292380D01*
X117426071Y-117292380D01*
X117568928Y-117244761D01*
X117664166Y-117149523D01*
X117711785Y-117054285D01*
X117759404Y-116863809D01*
X117759404Y-116720952D01*
X117711785Y-116530476D01*
X117664166Y-116435238D01*
X117568928Y-116340000D01*
X117426071Y-116292380D01*
X117330833Y-116292380D01*
X117187976Y-116340000D01*
X117140357Y-116387619D01*
X116187976Y-117292380D02*
X116759404Y-117292380D01*
X116473690Y-117292380D02*
X116473690Y-116292380D01*
X116568928Y-116435238D01*
X116664166Y-116530476D01*
X116759404Y-116578095D01*
X115711785Y-117292380D02*
X115521309Y-117292380D01*
X115426071Y-117244761D01*
X115378452Y-117197142D01*
X115283214Y-117054285D01*
X115235595Y-116863809D01*
X115235595Y-116482857D01*
X115283214Y-116387619D01*
X115330833Y-116340000D01*
X115426071Y-116292380D01*
X115616547Y-116292380D01*
X115711785Y-116340000D01*
X115759404Y-116387619D01*
X115807023Y-116482857D01*
X115807023Y-116720952D01*
X115759404Y-116816190D01*
X115711785Y-116863809D01*
X115616547Y-116911428D01*
X115426071Y-116911428D01*
X115330833Y-116863809D01*
X115283214Y-116816190D01*
X115235595Y-116720952D01*
%TO.C,C14*%
X135667142Y-70477142D02*
X135714761Y-70429523D01*
X135762380Y-70286666D01*
X135762380Y-70191428D01*
X135714761Y-70048571D01*
X135619523Y-69953333D01*
X135524285Y-69905714D01*
X135333809Y-69858095D01*
X135190952Y-69858095D01*
X135000476Y-69905714D01*
X134905238Y-69953333D01*
X134810000Y-70048571D01*
X134762380Y-70191428D01*
X134762380Y-70286666D01*
X134810000Y-70429523D01*
X134857619Y-70477142D01*
X135762380Y-71429523D02*
X135762380Y-70858095D01*
X135762380Y-71143809D02*
X134762380Y-71143809D01*
X134905238Y-71048571D01*
X135000476Y-70953333D01*
X135048095Y-70858095D01*
X135095714Y-72286666D02*
X135762380Y-72286666D01*
X134714761Y-72048571D02*
X135429047Y-71810476D01*
X135429047Y-72429523D01*
%TO.C,C1*%
X102694166Y-91107142D02*
X102741785Y-91154761D01*
X102884642Y-91202380D01*
X102979880Y-91202380D01*
X103122738Y-91154761D01*
X103217976Y-91059523D01*
X103265595Y-90964285D01*
X103313214Y-90773809D01*
X103313214Y-90630952D01*
X103265595Y-90440476D01*
X103217976Y-90345238D01*
X103122738Y-90250000D01*
X102979880Y-90202380D01*
X102884642Y-90202380D01*
X102741785Y-90250000D01*
X102694166Y-90297619D01*
X101741785Y-91202380D02*
X102313214Y-91202380D01*
X102027500Y-91202380D02*
X102027500Y-90202380D01*
X102122738Y-90345238D01*
X102217976Y-90440476D01*
X102313214Y-90488095D01*
%TO.C,C2*%
X114124166Y-91107142D02*
X114171785Y-91154761D01*
X114314642Y-91202380D01*
X114409880Y-91202380D01*
X114552738Y-91154761D01*
X114647976Y-91059523D01*
X114695595Y-90964285D01*
X114743214Y-90773809D01*
X114743214Y-90630952D01*
X114695595Y-90440476D01*
X114647976Y-90345238D01*
X114552738Y-90250000D01*
X114409880Y-90202380D01*
X114314642Y-90202380D01*
X114171785Y-90250000D01*
X114124166Y-90297619D01*
X113743214Y-90297619D02*
X113695595Y-90250000D01*
X113600357Y-90202380D01*
X113362261Y-90202380D01*
X113267023Y-90250000D01*
X113219404Y-90297619D01*
X113171785Y-90392857D01*
X113171785Y-90488095D01*
X113219404Y-90630952D01*
X113790833Y-91202380D01*
X113171785Y-91202380D01*
%TO.C,C18*%
X102242857Y-117252142D02*
X102290476Y-117299761D01*
X102433333Y-117347380D01*
X102528571Y-117347380D01*
X102671428Y-117299761D01*
X102766666Y-117204523D01*
X102814285Y-117109285D01*
X102861904Y-116918809D01*
X102861904Y-116775952D01*
X102814285Y-116585476D01*
X102766666Y-116490238D01*
X102671428Y-116395000D01*
X102528571Y-116347380D01*
X102433333Y-116347380D01*
X102290476Y-116395000D01*
X102242857Y-116442619D01*
X101290476Y-117347380D02*
X101861904Y-117347380D01*
X101576190Y-117347380D02*
X101576190Y-116347380D01*
X101671428Y-116490238D01*
X101766666Y-116585476D01*
X101861904Y-116633095D01*
X100719047Y-116775952D02*
X100814285Y-116728333D01*
X100861904Y-116680714D01*
X100909523Y-116585476D01*
X100909523Y-116537857D01*
X100861904Y-116442619D01*
X100814285Y-116395000D01*
X100719047Y-116347380D01*
X100528571Y-116347380D01*
X100433333Y-116395000D01*
X100385714Y-116442619D01*
X100338095Y-116537857D01*
X100338095Y-116585476D01*
X100385714Y-116680714D01*
X100433333Y-116728333D01*
X100528571Y-116775952D01*
X100719047Y-116775952D01*
X100814285Y-116823571D01*
X100861904Y-116871190D01*
X100909523Y-116966428D01*
X100909523Y-117156904D01*
X100861904Y-117252142D01*
X100814285Y-117299761D01*
X100719047Y-117347380D01*
X100528571Y-117347380D01*
X100433333Y-117299761D01*
X100385714Y-117252142D01*
X100338095Y-117156904D01*
X100338095Y-116966428D01*
X100385714Y-116871190D01*
X100433333Y-116823571D01*
X100528571Y-116775952D01*
%TO.C,C11*%
X155987142Y-103497142D02*
X156034761Y-103449523D01*
X156082380Y-103306666D01*
X156082380Y-103211428D01*
X156034761Y-103068571D01*
X155939523Y-102973333D01*
X155844285Y-102925714D01*
X155653809Y-102878095D01*
X155510952Y-102878095D01*
X155320476Y-102925714D01*
X155225238Y-102973333D01*
X155130000Y-103068571D01*
X155082380Y-103211428D01*
X155082380Y-103306666D01*
X155130000Y-103449523D01*
X155177619Y-103497142D01*
X156082380Y-104449523D02*
X156082380Y-103878095D01*
X156082380Y-104163809D02*
X155082380Y-104163809D01*
X155225238Y-104068571D01*
X155320476Y-103973333D01*
X155368095Y-103878095D01*
X156082380Y-105401904D02*
X156082380Y-104830476D01*
X156082380Y-105116190D02*
X155082380Y-105116190D01*
X155225238Y-105020952D01*
X155320476Y-104925714D01*
X155368095Y-104830476D01*
%TO.C,C7*%
X171274166Y-91107142D02*
X171321785Y-91154761D01*
X171464642Y-91202380D01*
X171559880Y-91202380D01*
X171702738Y-91154761D01*
X171797976Y-91059523D01*
X171845595Y-90964285D01*
X171893214Y-90773809D01*
X171893214Y-90630952D01*
X171845595Y-90440476D01*
X171797976Y-90345238D01*
X171702738Y-90250000D01*
X171559880Y-90202380D01*
X171464642Y-90202380D01*
X171321785Y-90250000D01*
X171274166Y-90297619D01*
X170940833Y-90202380D02*
X170274166Y-90202380D01*
X170702738Y-91202380D01*
%TO.C,C9*%
X122967142Y-103973333D02*
X123014761Y-103925714D01*
X123062380Y-103782857D01*
X123062380Y-103687619D01*
X123014761Y-103544761D01*
X122919523Y-103449523D01*
X122824285Y-103401904D01*
X122633809Y-103354285D01*
X122490952Y-103354285D01*
X122300476Y-103401904D01*
X122205238Y-103449523D01*
X122110000Y-103544761D01*
X122062380Y-103687619D01*
X122062380Y-103782857D01*
X122110000Y-103925714D01*
X122157619Y-103973333D01*
X123062380Y-104449523D02*
X123062380Y-104640000D01*
X123014761Y-104735238D01*
X122967142Y-104782857D01*
X122824285Y-104878095D01*
X122633809Y-104925714D01*
X122252857Y-104925714D01*
X122157619Y-104878095D01*
X122110000Y-104830476D01*
X122062380Y-104735238D01*
X122062380Y-104544761D01*
X122110000Y-104449523D01*
X122157619Y-104401904D01*
X122252857Y-104354285D01*
X122490952Y-104354285D01*
X122586190Y-104401904D01*
X122633809Y-104449523D01*
X122681428Y-104544761D01*
X122681428Y-104735238D01*
X122633809Y-104830476D01*
X122586190Y-104878095D01*
X122490952Y-104925714D01*
%TO.C,C8*%
X182704166Y-91107142D02*
X182751785Y-91154761D01*
X182894642Y-91202380D01*
X182989880Y-91202380D01*
X183132738Y-91154761D01*
X183227976Y-91059523D01*
X183275595Y-90964285D01*
X183323214Y-90773809D01*
X183323214Y-90630952D01*
X183275595Y-90440476D01*
X183227976Y-90345238D01*
X183132738Y-90250000D01*
X182989880Y-90202380D01*
X182894642Y-90202380D01*
X182751785Y-90250000D01*
X182704166Y-90297619D01*
X182132738Y-90630952D02*
X182227976Y-90583333D01*
X182275595Y-90535714D01*
X182323214Y-90440476D01*
X182323214Y-90392857D01*
X182275595Y-90297619D01*
X182227976Y-90250000D01*
X182132738Y-90202380D01*
X181942261Y-90202380D01*
X181847023Y-90250000D01*
X181799404Y-90297619D01*
X181751785Y-90392857D01*
X181751785Y-90440476D01*
X181799404Y-90535714D01*
X181847023Y-90583333D01*
X181942261Y-90630952D01*
X182132738Y-90630952D01*
X182227976Y-90678571D01*
X182275595Y-90726190D01*
X182323214Y-90821428D01*
X182323214Y-91011904D01*
X182275595Y-91107142D01*
X182227976Y-91154761D01*
X182132738Y-91202380D01*
X181942261Y-91202380D01*
X181847023Y-91154761D01*
X181799404Y-91107142D01*
X181751785Y-91011904D01*
X181751785Y-90821428D01*
X181799404Y-90726190D01*
X181847023Y-90678571D01*
X181942261Y-90630952D01*
%TO.C,C12*%
X172497142Y-103497142D02*
X172544761Y-103449523D01*
X172592380Y-103306666D01*
X172592380Y-103211428D01*
X172544761Y-103068571D01*
X172449523Y-102973333D01*
X172354285Y-102925714D01*
X172163809Y-102878095D01*
X172020952Y-102878095D01*
X171830476Y-102925714D01*
X171735238Y-102973333D01*
X171640000Y-103068571D01*
X171592380Y-103211428D01*
X171592380Y-103306666D01*
X171640000Y-103449523D01*
X171687619Y-103497142D01*
X172592380Y-104449523D02*
X172592380Y-103878095D01*
X172592380Y-104163809D02*
X171592380Y-104163809D01*
X171735238Y-104068571D01*
X171830476Y-103973333D01*
X171878095Y-103878095D01*
X171687619Y-104830476D02*
X171640000Y-104878095D01*
X171592380Y-104973333D01*
X171592380Y-105211428D01*
X171640000Y-105306666D01*
X171687619Y-105354285D01*
X171782857Y-105401904D01*
X171878095Y-105401904D01*
X172020952Y-105354285D01*
X172592380Y-104782857D01*
X172592380Y-105401904D01*
%TO.C,C16*%
X163607142Y-70477142D02*
X163654761Y-70429523D01*
X163702380Y-70286666D01*
X163702380Y-70191428D01*
X163654761Y-70048571D01*
X163559523Y-69953333D01*
X163464285Y-69905714D01*
X163273809Y-69858095D01*
X163130952Y-69858095D01*
X162940476Y-69905714D01*
X162845238Y-69953333D01*
X162750000Y-70048571D01*
X162702380Y-70191428D01*
X162702380Y-70286666D01*
X162750000Y-70429523D01*
X162797619Y-70477142D01*
X163702380Y-71429523D02*
X163702380Y-70858095D01*
X163702380Y-71143809D02*
X162702380Y-71143809D01*
X162845238Y-71048571D01*
X162940476Y-70953333D01*
X162988095Y-70858095D01*
X162702380Y-72286666D02*
X162702380Y-72096190D01*
X162750000Y-72000952D01*
X162797619Y-71953333D01*
X162940476Y-71858095D01*
X163130952Y-71810476D01*
X163511904Y-71810476D01*
X163607142Y-71858095D01*
X163654761Y-71905714D01*
X163702380Y-72000952D01*
X163702380Y-72191428D01*
X163654761Y-72286666D01*
X163607142Y-72334285D01*
X163511904Y-72381904D01*
X163273809Y-72381904D01*
X163178571Y-72334285D01*
X163130952Y-72286666D01*
X163083333Y-72191428D01*
X163083333Y-72000952D01*
X163130952Y-71905714D01*
X163178571Y-71858095D01*
X163273809Y-71810476D01*
%TO.C,C15*%
X149637142Y-70477142D02*
X149684761Y-70429523D01*
X149732380Y-70286666D01*
X149732380Y-70191428D01*
X149684761Y-70048571D01*
X149589523Y-69953333D01*
X149494285Y-69905714D01*
X149303809Y-69858095D01*
X149160952Y-69858095D01*
X148970476Y-69905714D01*
X148875238Y-69953333D01*
X148780000Y-70048571D01*
X148732380Y-70191428D01*
X148732380Y-70286666D01*
X148780000Y-70429523D01*
X148827619Y-70477142D01*
X149732380Y-71429523D02*
X149732380Y-70858095D01*
X149732380Y-71143809D02*
X148732380Y-71143809D01*
X148875238Y-71048571D01*
X148970476Y-70953333D01*
X149018095Y-70858095D01*
X148732380Y-72334285D02*
X148732380Y-71858095D01*
X149208571Y-71810476D01*
X149160952Y-71858095D01*
X149113333Y-71953333D01*
X149113333Y-72191428D01*
X149160952Y-72286666D01*
X149208571Y-72334285D01*
X149303809Y-72381904D01*
X149541904Y-72381904D01*
X149637142Y-72334285D01*
X149684761Y-72286666D01*
X149732380Y-72191428D01*
X149732380Y-71953333D01*
X149684761Y-71858095D01*
X149637142Y-71810476D01*
%TO.C,C10*%
X139477142Y-103497142D02*
X139524761Y-103449523D01*
X139572380Y-103306666D01*
X139572380Y-103211428D01*
X139524761Y-103068571D01*
X139429523Y-102973333D01*
X139334285Y-102925714D01*
X139143809Y-102878095D01*
X139000952Y-102878095D01*
X138810476Y-102925714D01*
X138715238Y-102973333D01*
X138620000Y-103068571D01*
X138572380Y-103211428D01*
X138572380Y-103306666D01*
X138620000Y-103449523D01*
X138667619Y-103497142D01*
X139572380Y-104449523D02*
X139572380Y-103878095D01*
X139572380Y-104163809D02*
X138572380Y-104163809D01*
X138715238Y-104068571D01*
X138810476Y-103973333D01*
X138858095Y-103878095D01*
X138572380Y-105068571D02*
X138572380Y-105163809D01*
X138620000Y-105259047D01*
X138667619Y-105306666D01*
X138762857Y-105354285D01*
X138953333Y-105401904D01*
X139191428Y-105401904D01*
X139381904Y-105354285D01*
X139477142Y-105306666D01*
X139524761Y-105259047D01*
X139572380Y-105163809D01*
X139572380Y-105068571D01*
X139524761Y-104973333D01*
X139477142Y-104925714D01*
X139381904Y-104878095D01*
X139191428Y-104830476D01*
X138953333Y-104830476D01*
X138762857Y-104878095D01*
X138667619Y-104925714D01*
X138620000Y-104973333D01*
X138572380Y-105068571D01*
%TO.C,C17*%
X106687857Y-106347142D02*
X106735476Y-106394761D01*
X106878333Y-106442380D01*
X106973571Y-106442380D01*
X107116428Y-106394761D01*
X107211666Y-106299523D01*
X107259285Y-106204285D01*
X107306904Y-106013809D01*
X107306904Y-105870952D01*
X107259285Y-105680476D01*
X107211666Y-105585238D01*
X107116428Y-105490000D01*
X106973571Y-105442380D01*
X106878333Y-105442380D01*
X106735476Y-105490000D01*
X106687857Y-105537619D01*
X105735476Y-106442380D02*
X106306904Y-106442380D01*
X106021190Y-106442380D02*
X106021190Y-105442380D01*
X106116428Y-105585238D01*
X106211666Y-105680476D01*
X106306904Y-105728095D01*
X105402142Y-105442380D02*
X104735476Y-105442380D01*
X105164047Y-106442380D01*
D12*
%TO.C,C6*%
X158966248Y-87990000D02*
X160388752Y-87990000D01*
X158966248Y-89810000D02*
X160388752Y-89810000D01*
%TO.C,C13*%
X125370000Y-70408748D02*
X125370000Y-71831252D01*
X123550000Y-70408748D02*
X123550000Y-71831252D01*
%TO.C,C3*%
X124676248Y-87990000D02*
X126098752Y-87990000D01*
X124676248Y-89810000D02*
X126098752Y-89810000D01*
%TO.C,C4*%
X136106248Y-89810000D02*
X137528752Y-89810000D01*
X136106248Y-87990000D02*
X137528752Y-87990000D01*
%TO.C,C5*%
X147536248Y-87990000D02*
X148958752Y-87990000D01*
X147536248Y-89810000D02*
X148958752Y-89810000D01*
%TO.C,C19*%
X115786248Y-119655000D02*
X117208752Y-119655000D01*
X115786248Y-117835000D02*
X117208752Y-117835000D01*
%TO.C,C14*%
X136250000Y-70408748D02*
X136250000Y-71831252D01*
X138070000Y-70408748D02*
X138070000Y-71831252D01*
%TO.C,C1*%
X101816248Y-89810000D02*
X103238752Y-89810000D01*
X101816248Y-87990000D02*
X103238752Y-87990000D01*
%TO.C,C2*%
X113246248Y-87990000D02*
X114668752Y-87990000D01*
X113246248Y-89810000D02*
X114668752Y-89810000D01*
%TO.C,C18*%
X102311252Y-119655000D02*
X100888748Y-119655000D01*
X102311252Y-117835000D02*
X100888748Y-117835000D01*
%TO.C,C11*%
X158390000Y-103428748D02*
X158390000Y-104851252D01*
X156570000Y-103428748D02*
X156570000Y-104851252D01*
%TO.C,C7*%
X170396248Y-87990000D02*
X171818752Y-87990000D01*
X170396248Y-89810000D02*
X171818752Y-89810000D01*
%TO.C,C9*%
X125370000Y-103428748D02*
X125370000Y-104851252D01*
X123550000Y-103428748D02*
X123550000Y-104851252D01*
%TO.C,C8*%
X181826248Y-89810000D02*
X183248752Y-89810000D01*
X181826248Y-87990000D02*
X183248752Y-87990000D01*
%TO.C,C12*%
X174900000Y-103428748D02*
X174900000Y-104851252D01*
X173080000Y-103428748D02*
X173080000Y-104851252D01*
%TO.C,C16*%
X166010000Y-70408748D02*
X166010000Y-71831252D01*
X164190000Y-70408748D02*
X164190000Y-71831252D01*
%TO.C,C15*%
X150220000Y-70408748D02*
X150220000Y-71831252D01*
X152040000Y-70408748D02*
X152040000Y-71831252D01*
%TO.C,C10*%
X141880000Y-103428748D02*
X141880000Y-104851252D01*
X140060000Y-103428748D02*
X140060000Y-104851252D01*
%TO.C,C17*%
X105333748Y-103230000D02*
X106756252Y-103230000D01*
X105333748Y-105050000D02*
X106756252Y-105050000D01*
%TD*%
M02*
