%TF.GenerationSoftware,KiCad,Pcbnew,6.0.6-3a73a75311~116~ubuntu20.04.1*%
%TF.CreationDate,2022-06-25T17:28:11-07:00*%
%TF.ProjectId,RegisterFile,52656769-7374-4657-9246-696c652e6b69,rev?*%
%TF.SameCoordinates,Original*%
%TF.FileFunction,Soldermask,Top*%
%TF.FilePolarity,Negative*%
%FSLAX46Y46*%
G04 Gerber Fmt 4.6, Leading zero omitted, Abs format (unit mm)*
G04 Created by KiCad (PCBNEW 6.0.6-3a73a75311~116~ubuntu20.04.1) date 2022-06-25 17:28:11*
%MOMM*%
%LPD*%
G01*
G04 APERTURE LIST*
G04 Aperture macros list*
%AMRoundRect*
0 Rectangle with rounded corners*
0 $1 Rounding radius*
0 $2 $3 $4 $5 $6 $7 $8 $9 X,Y pos of 4 corners*
0 Add a 4 corners polygon primitive as box body*
4,1,4,$2,$3,$4,$5,$6,$7,$8,$9,$2,$3,0*
0 Add four circle primitives for the rounded corners*
1,1,$1+$1,$2,$3*
1,1,$1+$1,$4,$5*
1,1,$1+$1,$6,$7*
1,1,$1+$1,$8,$9*
0 Add four rect primitives between the rounded corners*
20,1,$1+$1,$2,$3,$4,$5,0*
20,1,$1+$1,$4,$5,$6,$7,0*
20,1,$1+$1,$6,$7,$8,$9,0*
20,1,$1+$1,$8,$9,$2,$3,0*%
G04 Aperture macros list end*
%ADD10R,1.700000X1.700000*%
%ADD11O,1.700000X1.700000*%
%ADD12RoundRect,0.150000X-0.875000X-0.150000X0.875000X-0.150000X0.875000X0.150000X-0.875000X0.150000X0*%
%ADD13R,0.600000X2.000000*%
G04 APERTURE END LIST*
D10*
%TO.C,J4*%
X140970000Y-121285000D03*
D11*
X140970000Y-123825000D03*
X138430000Y-121285000D03*
X138430000Y-123825000D03*
X135890000Y-121285000D03*
X135890000Y-123825000D03*
X133350000Y-121285000D03*
X133350000Y-123825000D03*
X130810000Y-121285000D03*
X130810000Y-123825000D03*
X128270000Y-121285000D03*
X128270000Y-123825000D03*
X125730000Y-121285000D03*
X125730000Y-123825000D03*
X123190000Y-121285000D03*
X123190000Y-123825000D03*
%TD*%
%TO.C,J3*%
X146050000Y-123825000D03*
X146050000Y-121285000D03*
X148590000Y-123825000D03*
X148590000Y-121285000D03*
X151130000Y-123825000D03*
X151130000Y-121285000D03*
X153670000Y-123825000D03*
X153670000Y-121285000D03*
X156210000Y-123825000D03*
X156210000Y-121285000D03*
X158750000Y-123825000D03*
X158750000Y-121285000D03*
X161290000Y-123825000D03*
X161290000Y-121285000D03*
X163830000Y-123825000D03*
D10*
X163830000Y-121285000D03*
%TD*%
%TO.C,J2*%
X186690000Y-121285000D03*
D11*
X186690000Y-123825000D03*
X184150000Y-121285000D03*
X184150000Y-123825000D03*
X181610000Y-121285000D03*
X181610000Y-123825000D03*
X179070000Y-121285000D03*
X179070000Y-123825000D03*
X176530000Y-121285000D03*
X176530000Y-123825000D03*
X173990000Y-121285000D03*
X173990000Y-123825000D03*
X171450000Y-121285000D03*
X171450000Y-123825000D03*
X168910000Y-121285000D03*
X168910000Y-123825000D03*
%TD*%
D10*
%TO.C,J1*%
X118110000Y-121285000D03*
D11*
X118110000Y-123825000D03*
X115570000Y-121285000D03*
X115570000Y-123825000D03*
X113030000Y-121285000D03*
X113030000Y-123825000D03*
X110490000Y-121285000D03*
X110490000Y-123825000D03*
X107950000Y-121285000D03*
X107950000Y-123825000D03*
X105410000Y-121285000D03*
X105410000Y-123825000D03*
X102870000Y-121285000D03*
X102870000Y-123825000D03*
X100330000Y-121285000D03*
X100330000Y-123825000D03*
%TD*%
D12*
%TO.C,UR7*%
X157910000Y-69215000D03*
X157910000Y-70485000D03*
X157910000Y-71755000D03*
X157910000Y-73025000D03*
X157910000Y-74295000D03*
X157910000Y-75565000D03*
X157910000Y-76835000D03*
X157910000Y-78105000D03*
X157910000Y-79375000D03*
X157910000Y-80645000D03*
X167210000Y-80645000D03*
X167210000Y-79375000D03*
X167210000Y-78105000D03*
X167210000Y-76835000D03*
X167210000Y-75565000D03*
X167210000Y-74295000D03*
X167210000Y-73025000D03*
X167210000Y-71755000D03*
X167210000Y-70485000D03*
X167210000Y-69215000D03*
%TD*%
D13*
%TO.C,UM7*%
X179705000Y-94390000D03*
X180975000Y-94390000D03*
X182245000Y-94390000D03*
X183515000Y-94390000D03*
X184785000Y-94390000D03*
X186055000Y-94390000D03*
X187325000Y-94390000D03*
X188595000Y-94390000D03*
X188595000Y-88490000D03*
X187325000Y-88490000D03*
X186055000Y-88490000D03*
X184785000Y-88490000D03*
X183515000Y-88490000D03*
X182245000Y-88490000D03*
X180975000Y-88490000D03*
X179705000Y-88490000D03*
%TD*%
%TO.C,UM2*%
X122555000Y-94390000D03*
X123825000Y-94390000D03*
X125095000Y-94390000D03*
X126365000Y-94390000D03*
X127635000Y-94390000D03*
X128905000Y-94390000D03*
X130175000Y-94390000D03*
X131445000Y-94390000D03*
X131445000Y-88490000D03*
X130175000Y-88490000D03*
X128905000Y-88490000D03*
X127635000Y-88490000D03*
X126365000Y-88490000D03*
X125095000Y-88490000D03*
X123825000Y-88490000D03*
X122555000Y-88490000D03*
%TD*%
D12*
%TO.C,UR0*%
X166800000Y-102235000D03*
X166800000Y-103505000D03*
X166800000Y-104775000D03*
X166800000Y-106045000D03*
X166800000Y-107315000D03*
X166800000Y-108585000D03*
X166800000Y-109855000D03*
X166800000Y-111125000D03*
X166800000Y-112395000D03*
X166800000Y-113665000D03*
X176100000Y-113665000D03*
X176100000Y-112395000D03*
X176100000Y-111125000D03*
X176100000Y-109855000D03*
X176100000Y-108585000D03*
X176100000Y-107315000D03*
X176100000Y-106045000D03*
X176100000Y-104775000D03*
X176100000Y-103505000D03*
X176100000Y-102235000D03*
%TD*%
D13*
%TO.C,UM1*%
X111125000Y-94390000D03*
X112395000Y-94390000D03*
X113665000Y-94390000D03*
X114935000Y-94390000D03*
X116205000Y-94390000D03*
X117475000Y-94390000D03*
X118745000Y-94390000D03*
X120015000Y-94390000D03*
X120015000Y-88490000D03*
X118745000Y-88490000D03*
X117475000Y-88490000D03*
X116205000Y-88490000D03*
X114935000Y-88490000D03*
X113665000Y-88490000D03*
X112395000Y-88490000D03*
X111125000Y-88490000D03*
%TD*%
D12*
%TO.C,UR3*%
X117270000Y-102235000D03*
X117270000Y-103505000D03*
X117270000Y-104775000D03*
X117270000Y-106045000D03*
X117270000Y-107315000D03*
X117270000Y-108585000D03*
X117270000Y-109855000D03*
X117270000Y-111125000D03*
X117270000Y-112395000D03*
X117270000Y-113665000D03*
X126570000Y-113665000D03*
X126570000Y-112395000D03*
X126570000Y-111125000D03*
X126570000Y-109855000D03*
X126570000Y-108585000D03*
X126570000Y-107315000D03*
X126570000Y-106045000D03*
X126570000Y-104775000D03*
X126570000Y-103505000D03*
X126570000Y-102235000D03*
%TD*%
D13*
%TO.C,UM6*%
X168275000Y-94390000D03*
X169545000Y-94390000D03*
X170815000Y-94390000D03*
X172085000Y-94390000D03*
X173355000Y-94390000D03*
X174625000Y-94390000D03*
X175895000Y-94390000D03*
X177165000Y-94390000D03*
X177165000Y-88490000D03*
X175895000Y-88490000D03*
X174625000Y-88490000D03*
X173355000Y-88490000D03*
X172085000Y-88490000D03*
X170815000Y-88490000D03*
X169545000Y-88490000D03*
X168275000Y-88490000D03*
%TD*%
D12*
%TO.C,UR2*%
X133780000Y-102235000D03*
X133780000Y-103505000D03*
X133780000Y-104775000D03*
X133780000Y-106045000D03*
X133780000Y-107315000D03*
X133780000Y-108585000D03*
X133780000Y-109855000D03*
X133780000Y-111125000D03*
X133780000Y-112395000D03*
X133780000Y-113665000D03*
X143080000Y-113665000D03*
X143080000Y-112395000D03*
X143080000Y-111125000D03*
X143080000Y-109855000D03*
X143080000Y-108585000D03*
X143080000Y-107315000D03*
X143080000Y-106045000D03*
X143080000Y-104775000D03*
X143080000Y-103505000D03*
X143080000Y-102235000D03*
%TD*%
%TO.C,UR6*%
X143940000Y-69215000D03*
X143940000Y-70485000D03*
X143940000Y-71755000D03*
X143940000Y-73025000D03*
X143940000Y-74295000D03*
X143940000Y-75565000D03*
X143940000Y-76835000D03*
X143940000Y-78105000D03*
X143940000Y-79375000D03*
X143940000Y-80645000D03*
X153240000Y-80645000D03*
X153240000Y-79375000D03*
X153240000Y-78105000D03*
X153240000Y-76835000D03*
X153240000Y-75565000D03*
X153240000Y-74295000D03*
X153240000Y-73025000D03*
X153240000Y-71755000D03*
X153240000Y-70485000D03*
X153240000Y-69215000D03*
%TD*%
D13*
%TO.C,U1*%
X104140000Y-109630000D03*
X105410000Y-109630000D03*
X106680000Y-109630000D03*
X107950000Y-109630000D03*
X109220000Y-109630000D03*
X110490000Y-109630000D03*
X111760000Y-109630000D03*
X113030000Y-109630000D03*
X113030000Y-103730000D03*
X111760000Y-103730000D03*
X110490000Y-103730000D03*
X109220000Y-103730000D03*
X107950000Y-103730000D03*
X106680000Y-103730000D03*
X105410000Y-103730000D03*
X104140000Y-103730000D03*
%TD*%
D12*
%TO.C,UR1*%
X150290000Y-102235000D03*
X150290000Y-103505000D03*
X150290000Y-104775000D03*
X150290000Y-106045000D03*
X150290000Y-107315000D03*
X150290000Y-108585000D03*
X150290000Y-109855000D03*
X150290000Y-111125000D03*
X150290000Y-112395000D03*
X150290000Y-113665000D03*
X159590000Y-113665000D03*
X159590000Y-112395000D03*
X159590000Y-111125000D03*
X159590000Y-109855000D03*
X159590000Y-108585000D03*
X159590000Y-107315000D03*
X159590000Y-106045000D03*
X159590000Y-104775000D03*
X159590000Y-103505000D03*
X159590000Y-102235000D03*
%TD*%
%TO.C,UR4*%
X117270000Y-69215000D03*
X117270000Y-70485000D03*
X117270000Y-71755000D03*
X117270000Y-73025000D03*
X117270000Y-74295000D03*
X117270000Y-75565000D03*
X117270000Y-76835000D03*
X117270000Y-78105000D03*
X117270000Y-79375000D03*
X117270000Y-80645000D03*
X126570000Y-80645000D03*
X126570000Y-79375000D03*
X126570000Y-78105000D03*
X126570000Y-76835000D03*
X126570000Y-75565000D03*
X126570000Y-74295000D03*
X126570000Y-73025000D03*
X126570000Y-71755000D03*
X126570000Y-70485000D03*
X126570000Y-69215000D03*
%TD*%
D13*
%TO.C,UM5*%
X156845000Y-94390000D03*
X158115000Y-94390000D03*
X159385000Y-94390000D03*
X160655000Y-94390000D03*
X161925000Y-94390000D03*
X163195000Y-94390000D03*
X164465000Y-94390000D03*
X165735000Y-94390000D03*
X165735000Y-88490000D03*
X164465000Y-88490000D03*
X163195000Y-88490000D03*
X161925000Y-88490000D03*
X160655000Y-88490000D03*
X159385000Y-88490000D03*
X158115000Y-88490000D03*
X156845000Y-88490000D03*
%TD*%
%TO.C,UM3*%
X133985000Y-94390000D03*
X135255000Y-94390000D03*
X136525000Y-94390000D03*
X137795000Y-94390000D03*
X139065000Y-94390000D03*
X140335000Y-94390000D03*
X141605000Y-94390000D03*
X142875000Y-94390000D03*
X142875000Y-88490000D03*
X141605000Y-88490000D03*
X140335000Y-88490000D03*
X139065000Y-88490000D03*
X137795000Y-88490000D03*
X136525000Y-88490000D03*
X135255000Y-88490000D03*
X133985000Y-88490000D03*
%TD*%
%TO.C,UM4*%
X145415000Y-94390000D03*
X146685000Y-94390000D03*
X147955000Y-94390000D03*
X149225000Y-94390000D03*
X150495000Y-94390000D03*
X151765000Y-94390000D03*
X153035000Y-94390000D03*
X154305000Y-94390000D03*
X154305000Y-88490000D03*
X153035000Y-88490000D03*
X151765000Y-88490000D03*
X150495000Y-88490000D03*
X149225000Y-88490000D03*
X147955000Y-88490000D03*
X146685000Y-88490000D03*
X145415000Y-88490000D03*
%TD*%
%TO.C,UM0*%
X99695000Y-94390000D03*
X100965000Y-94390000D03*
X102235000Y-94390000D03*
X103505000Y-94390000D03*
X104775000Y-94390000D03*
X106045000Y-94390000D03*
X107315000Y-94390000D03*
X108585000Y-94390000D03*
X108585000Y-88490000D03*
X107315000Y-88490000D03*
X106045000Y-88490000D03*
X104775000Y-88490000D03*
X103505000Y-88490000D03*
X102235000Y-88490000D03*
X100965000Y-88490000D03*
X99695000Y-88490000D03*
%TD*%
D12*
%TO.C,UR5*%
X129970000Y-69215000D03*
X129970000Y-70485000D03*
X129970000Y-71755000D03*
X129970000Y-73025000D03*
X129970000Y-74295000D03*
X129970000Y-75565000D03*
X129970000Y-76835000D03*
X129970000Y-78105000D03*
X129970000Y-79375000D03*
X129970000Y-80645000D03*
X139270000Y-80645000D03*
X139270000Y-79375000D03*
X139270000Y-78105000D03*
X139270000Y-76835000D03*
X139270000Y-75565000D03*
X139270000Y-74295000D03*
X139270000Y-73025000D03*
X139270000Y-71755000D03*
X139270000Y-70485000D03*
X139270000Y-69215000D03*
%TD*%
M02*
