M48
; DRILL file {KiCad 6.0.6-3a73a75311~116~ubuntu20.04.1} date Sat 25 Jun 2022 05:28:08 PM PDT
; FORMAT={-:-/ absolute / inch / decimal}
; #@! TF.CreationDate,2022-06-25T17:28:08-07:00
; #@! TF.GenerationSoftware,Kicad,Pcbnew,6.0.6-3a73a75311~116~ubuntu20.04.1
; #@! TF.FileFunction,Plated,1,4,PTH
FMAT,2
INCH
; #@! TA.AperFunction,Plated,PTH,ViaDrill
T1C0.0157
; #@! TA.AperFunction,Plated,PTH,ComponentDrill
T2C0.0394
%
G90
G05
T1
X3.8997Y-4.0004
X3.9077Y-3.9377
X3.9234Y-3.9716
X3.9419Y-4.0054
X4.05Y-4.025
X4.075Y-3.6
X4.091Y-3.3955
X4.0974Y-3.3526
X4.1Y-4.375
X4.15Y-3.5455
X4.15Y-3.65
X4.15Y-4.0295
X4.15Y-4.375
X4.175Y-3.3484
X4.175Y-3.425
X4.1874Y-3.5455
X4.2Y-4.0295
X4.2Y-4.375
X4.225Y-3.3984
X4.225Y-3.5455
X4.25Y-4.0295
X4.275Y-3.5455
X4.275Y-4.15
X4.2784Y-3.6534
X4.325Y-3.775
X4.375Y-3.55
X4.375Y-3.775
X4.45Y-4.25
X4.4571Y-3.125
X4.525Y-2.875
X4.55Y-4.125
X4.55Y-4.225
X4.5516Y-3.425
X4.6Y-3.5455
X4.6Y-3.65
X4.6374Y-3.5455
X4.675Y-3.175
X4.675Y-3.5455
X4.675Y-4.1484
X4.675Y-4.325
X4.675Y-4.4734
X4.7Y-4.625
X4.7Y-4.825
X4.7016Y-4.0295
X4.725Y-3.5455
X4.725Y-3.65
X4.725Y-3.7771
X4.725Y-4.425
X4.75Y-4.5
X4.75Y-4.625
X4.8Y-2.725
X4.825Y-3.55
X4.825Y-3.775
X4.8408Y-2.7218
X4.85Y-4.1484
X4.8545Y-2.9766
X4.875Y-2.9234
X4.875Y-3.775
X4.9Y-4.3
X4.925Y-3.2
X4.95Y-3.65
X4.95Y-4.0
X4.975Y-4.5
X4.9821Y-3.4305
X5.0Y-3.65
X5.025Y-3.425
X5.0445Y-2.8571
X5.05Y-2.7384
X5.05Y-2.7758
X5.05Y-2.925
X5.05Y-3.0731
X5.05Y-3.5455
X5.05Y-3.65
X5.05Y-4.4266
X5.0516Y-3.3986
X5.0571Y-2.9955
X5.075Y-3.7771
X5.0766Y-4.275
X5.09Y-3.5455
X5.13Y-3.5455
X5.15Y-3.7766
X5.15Y-4.2289
X5.1516Y-4.0766
X5.175Y-2.9984
X5.175Y-3.1734
X5.175Y-3.5455
X5.175Y-3.65
X5.1781Y-3.9705
X5.2Y-3.8516
X5.2Y-4.0766
X5.225Y-2.9984
X5.225Y-3.1516
X5.275Y-3.55
X5.275Y-3.7771
X5.325Y-2.725
X5.325Y-3.775
X5.325Y-4.15
X5.325Y-4.275
X5.325Y-4.3289
X5.325Y-4.4266
X5.325Y-4.4734
X5.375Y-2.925
X5.3781Y-3.9174
X5.4Y-2.9984
X5.4Y-4.2289
X5.425Y-3.2
X5.5Y-3.5455
X5.5Y-3.65
X5.5Y-4.1484
X5.5Y-4.275
X5.5313Y-4.0937
X5.5374Y-3.5455
X5.5465Y-2.7419
X5.55Y-2.925
X5.5612Y-2.7762
X5.575Y-2.8516
X5.575Y-3.0516
X5.575Y-3.5455
X5.575Y-4.2289
X5.6Y-2.7775
X5.6Y-4.0
X5.6002Y-2.9789
X5.6041Y-3.1734
X5.625Y-3.5455
X5.625Y-3.65
X5.65Y-3.8673
X5.6626Y-3.775
X5.7Y-3.775
X5.7Y-4.4266
X5.7234Y-3.1734
X5.7234Y-3.375
X5.725Y-3.55
X5.725Y-4.0734
X5.7266Y-3.9016
X5.7266Y-3.9705
X5.775Y-3.8281
X5.7934Y-4.2484
X5.825Y-4.0295
X5.8484Y-4.2766
X5.85Y-3.775
X5.85Y-4.4266
X5.85Y-4.4734
X5.9Y-2.725
X5.9Y-3.775
X5.925Y-2.925
X5.925Y-4.7
X5.95Y-3.5455
X5.95Y-3.65
X5.975Y-3.2
X5.975Y-4.1484
X5.975Y-4.3289
X5.9789Y-4.4266
X5.9874Y-3.5455
X6.025Y-3.5455
X6.075Y-3.5455
X6.075Y-3.65
X6.1Y-2.7295
X6.1Y-2.8516
X6.1Y-2.925
X6.1Y-4.675
X6.1162Y-2.7827
X6.125Y-3.0516
X6.125Y-3.75
X6.15Y-2.9016
X6.15Y-2.9789
X6.15Y-3.1262
X6.15Y-4.1484
X6.1541Y-2.7943
X6.1734Y-3.375
X6.175Y-3.55
X6.1969Y-4.0984
X6.2Y-3.425
X6.2Y-4.2266
X6.225Y-3.775
X6.225Y-4.275
X6.25Y-4.0
X6.275Y-3.1734
X6.275Y-3.775
X6.325Y-2.9984
X6.325Y-3.425
X6.3313Y-4.6313
X6.35Y-3.6516
X6.35Y-3.9469
X6.35Y-4.0984
X6.375Y-3.425
X6.3984Y-4.2234
X6.4Y-3.5455
X6.4Y-3.6516
X6.4Y-3.8016
X6.425Y-4.275
X6.4374Y-3.5455
X6.45Y-2.725
X6.45Y-3.775
X6.475Y-2.925
X6.475Y-3.5455
X6.5Y-4.0295
X6.5Y-4.4266
X6.525Y-2.9484
X6.525Y-3.175
X6.525Y-3.5455
X6.525Y-3.6596
X6.575Y-3.7266
X6.625Y-3.55
X6.625Y-4.15
X6.625Y-4.4734
X6.65Y-2.775
X6.65Y-2.8516
X6.65Y-2.9266
X6.65Y-3.05
X6.675Y-3.425
X6.725Y-3.425
X6.725Y-3.775
X6.75Y-4.25
X6.775Y-3.425
X6.775Y-3.775
X6.8Y-4.1484
X6.8Y-4.225
X6.825Y-3.425
X6.8266Y-4.3289
X6.85Y-3.6596
X6.85Y-3.5455
X6.875Y-3.8407
X6.875Y-4.275
X6.89Y-3.5455
X6.9Y-4.0
X6.94Y-3.5455
X6.9423Y-3.8298
X6.9687Y-3.8563
X6.975Y-3.65
X6.9843Y-4.4343
X7.0Y-3.0501
X7.0016Y-4.3789
X7.025Y-3.4831
X7.025Y-4.0984
X7.025Y-4.6874
X7.0322Y-3.1495
X7.0375Y-3.1125
X7.0434Y-3.05
X7.0434Y-3.55
X7.075Y-4.1734
X7.1Y-3.975
X7.214Y-2.8169
X7.2414Y-4.0789
X7.242Y-2.8434
X7.27Y-2.8734
X7.2759Y-4.0932
X7.3Y-2.9
X7.3128Y-4.1207
X7.325Y-2.93
X7.3416Y-4.1473
X7.35Y-2.96
X7.3686Y-4.1734
X7.375Y-2.9911
X7.3951Y-4.2034
X7.4Y-3.025
X7.4217Y-4.2421
X7.425Y-3.55
X7.425Y-3.5874
X7.425Y-3.775
X7.425Y-4.2796
T2
X3.95Y-4.775
X3.95Y-4.875
X4.05Y-4.775
X4.05Y-4.875
X4.15Y-4.775
X4.15Y-4.875
X4.25Y-4.775
X4.25Y-4.875
X4.35Y-4.775
X4.35Y-4.875
X4.45Y-4.775
X4.45Y-4.875
X4.55Y-4.775
X4.55Y-4.875
X4.65Y-4.775
X4.65Y-4.875
X4.85Y-4.775
X4.85Y-4.875
X4.95Y-4.775
X4.95Y-4.875
X5.05Y-4.775
X5.05Y-4.875
X5.15Y-4.775
X5.15Y-4.875
X5.25Y-4.775
X5.25Y-4.875
X5.35Y-4.775
X5.35Y-4.875
X5.45Y-4.775
X5.45Y-4.875
X5.55Y-4.775
X5.55Y-4.875
X5.75Y-4.775
X5.75Y-4.875
X5.85Y-4.775
X5.85Y-4.875
X5.95Y-4.775
X5.95Y-4.875
X6.05Y-4.775
X6.05Y-4.875
X6.15Y-4.775
X6.15Y-4.875
X6.25Y-4.775
X6.25Y-4.875
X6.35Y-4.775
X6.35Y-4.875
X6.45Y-4.775
X6.45Y-4.875
X6.65Y-4.775
X6.65Y-4.875
X6.75Y-4.775
X6.75Y-4.875
X6.85Y-4.775
X6.85Y-4.875
X6.95Y-4.775
X6.95Y-4.875
X7.05Y-4.775
X7.05Y-4.875
X7.15Y-4.775
X7.15Y-4.875
X7.25Y-4.775
X7.25Y-4.875
X7.35Y-4.775
X7.35Y-4.875
T0
M30
