%TF.GenerationSoftware,KiCad,Pcbnew,6.0.6-3a73a75311~116~ubuntu20.04.1*%
%TF.CreationDate,2022-06-25T17:28:11-07:00*%
%TF.ProjectId,RegisterFile,52656769-7374-4657-9246-696c652e6b69,rev?*%
%TF.SameCoordinates,Original*%
%TF.FileFunction,Legend,Top*%
%TF.FilePolarity,Positive*%
%FSLAX46Y46*%
G04 Gerber Fmt 4.6, Leading zero omitted, Abs format (unit mm)*
G04 Created by KiCad (PCBNEW 6.0.6-3a73a75311~116~ubuntu20.04.1) date 2022-06-25 17:28:11*
%MOMM*%
%LPD*%
G01*
G04 APERTURE LIST*
%ADD10C,0.150000*%
%ADD11C,0.120000*%
G04 APERTURE END LIST*
D10*
X101433809Y-69962380D02*
X101100476Y-69486190D01*
X100862380Y-69962380D02*
X100862380Y-68962380D01*
X101243333Y-68962380D01*
X101338571Y-69010000D01*
X101386190Y-69057619D01*
X101433809Y-69152857D01*
X101433809Y-69295714D01*
X101386190Y-69390952D01*
X101338571Y-69438571D01*
X101243333Y-69486190D01*
X100862380Y-69486190D01*
X102243333Y-69914761D02*
X102148095Y-69962380D01*
X101957619Y-69962380D01*
X101862380Y-69914761D01*
X101814761Y-69819523D01*
X101814761Y-69438571D01*
X101862380Y-69343333D01*
X101957619Y-69295714D01*
X102148095Y-69295714D01*
X102243333Y-69343333D01*
X102290952Y-69438571D01*
X102290952Y-69533809D01*
X101814761Y-69629047D01*
X103148095Y-69295714D02*
X103148095Y-70105238D01*
X103100476Y-70200476D01*
X103052857Y-70248095D01*
X102957619Y-70295714D01*
X102814761Y-70295714D01*
X102719523Y-70248095D01*
X103148095Y-69914761D02*
X103052857Y-69962380D01*
X102862380Y-69962380D01*
X102767142Y-69914761D01*
X102719523Y-69867142D01*
X102671904Y-69771904D01*
X102671904Y-69486190D01*
X102719523Y-69390952D01*
X102767142Y-69343333D01*
X102862380Y-69295714D01*
X103052857Y-69295714D01*
X103148095Y-69343333D01*
X103624285Y-69962380D02*
X103624285Y-69295714D01*
X103624285Y-68962380D02*
X103576666Y-69010000D01*
X103624285Y-69057619D01*
X103671904Y-69010000D01*
X103624285Y-68962380D01*
X103624285Y-69057619D01*
X104052857Y-69914761D02*
X104148095Y-69962380D01*
X104338571Y-69962380D01*
X104433809Y-69914761D01*
X104481428Y-69819523D01*
X104481428Y-69771904D01*
X104433809Y-69676666D01*
X104338571Y-69629047D01*
X104195714Y-69629047D01*
X104100476Y-69581428D01*
X104052857Y-69486190D01*
X104052857Y-69438571D01*
X104100476Y-69343333D01*
X104195714Y-69295714D01*
X104338571Y-69295714D01*
X104433809Y-69343333D01*
X104767142Y-69295714D02*
X105148095Y-69295714D01*
X104910000Y-68962380D02*
X104910000Y-69819523D01*
X104957619Y-69914761D01*
X105052857Y-69962380D01*
X105148095Y-69962380D01*
X105862380Y-69914761D02*
X105767142Y-69962380D01*
X105576666Y-69962380D01*
X105481428Y-69914761D01*
X105433809Y-69819523D01*
X105433809Y-69438571D01*
X105481428Y-69343333D01*
X105576666Y-69295714D01*
X105767142Y-69295714D01*
X105862380Y-69343333D01*
X105910000Y-69438571D01*
X105910000Y-69533809D01*
X105433809Y-69629047D01*
X106338571Y-69962380D02*
X106338571Y-69295714D01*
X106338571Y-69486190D02*
X106386190Y-69390952D01*
X106433809Y-69343333D01*
X106529047Y-69295714D01*
X106624285Y-69295714D01*
X108052857Y-69438571D02*
X107719523Y-69438571D01*
X107719523Y-69962380D02*
X107719523Y-68962380D01*
X108195714Y-68962380D01*
X108576666Y-69962380D02*
X108576666Y-69295714D01*
X108576666Y-68962380D02*
X108529047Y-69010000D01*
X108576666Y-69057619D01*
X108624285Y-69010000D01*
X108576666Y-68962380D01*
X108576666Y-69057619D01*
X109195714Y-69962380D02*
X109100476Y-69914761D01*
X109052857Y-69819523D01*
X109052857Y-68962380D01*
X109957619Y-69914761D02*
X109862380Y-69962380D01*
X109671904Y-69962380D01*
X109576666Y-69914761D01*
X109529047Y-69819523D01*
X109529047Y-69438571D01*
X109576666Y-69343333D01*
X109671904Y-69295714D01*
X109862380Y-69295714D01*
X109957619Y-69343333D01*
X110005238Y-69438571D01*
X110005238Y-69533809D01*
X109529047Y-69629047D01*
X99457619Y-71572380D02*
X99457619Y-70572380D01*
X99790952Y-71286666D01*
X100124285Y-70572380D01*
X100124285Y-71572380D01*
X101029047Y-71572380D02*
X101029047Y-71048571D01*
X100981428Y-70953333D01*
X100886190Y-70905714D01*
X100695714Y-70905714D01*
X100600476Y-70953333D01*
X101029047Y-71524761D02*
X100933809Y-71572380D01*
X100695714Y-71572380D01*
X100600476Y-71524761D01*
X100552857Y-71429523D01*
X100552857Y-71334285D01*
X100600476Y-71239047D01*
X100695714Y-71191428D01*
X100933809Y-71191428D01*
X101029047Y-71143809D01*
X101933809Y-71572380D02*
X101933809Y-70572380D01*
X101933809Y-71524761D02*
X101838571Y-71572380D01*
X101648095Y-71572380D01*
X101552857Y-71524761D01*
X101505238Y-71477142D01*
X101457619Y-71381904D01*
X101457619Y-71096190D01*
X101505238Y-71000952D01*
X101552857Y-70953333D01*
X101648095Y-70905714D01*
X101838571Y-70905714D01*
X101933809Y-70953333D01*
X102790952Y-71524761D02*
X102695714Y-71572380D01*
X102505238Y-71572380D01*
X102410000Y-71524761D01*
X102362380Y-71429523D01*
X102362380Y-71048571D01*
X102410000Y-70953333D01*
X102505238Y-70905714D01*
X102695714Y-70905714D01*
X102790952Y-70953333D01*
X102838571Y-71048571D01*
X102838571Y-71143809D01*
X102362380Y-71239047D01*
X104029047Y-71572380D02*
X104029047Y-70572380D01*
X104029047Y-70953333D02*
X104124285Y-70905714D01*
X104314761Y-70905714D01*
X104410000Y-70953333D01*
X104457619Y-71000952D01*
X104505238Y-71096190D01*
X104505238Y-71381904D01*
X104457619Y-71477142D01*
X104410000Y-71524761D01*
X104314761Y-71572380D01*
X104124285Y-71572380D01*
X104029047Y-71524761D01*
X104838571Y-70905714D02*
X105076666Y-71572380D01*
X105314761Y-70905714D02*
X105076666Y-71572380D01*
X104981428Y-71810476D01*
X104933809Y-71858095D01*
X104838571Y-71905714D01*
X106362380Y-70572380D02*
X107029047Y-70572380D01*
X106362380Y-71572380D01*
X107029047Y-71572380D01*
X107838571Y-71572380D02*
X107838571Y-71048571D01*
X107790952Y-70953333D01*
X107695714Y-70905714D01*
X107505238Y-70905714D01*
X107410000Y-70953333D01*
X107838571Y-71524761D02*
X107743333Y-71572380D01*
X107505238Y-71572380D01*
X107410000Y-71524761D01*
X107362380Y-71429523D01*
X107362380Y-71334285D01*
X107410000Y-71239047D01*
X107505238Y-71191428D01*
X107743333Y-71191428D01*
X107838571Y-71143809D01*
X108314761Y-70905714D02*
X108314761Y-71572380D01*
X108314761Y-71000952D02*
X108362380Y-70953333D01*
X108457619Y-70905714D01*
X108600476Y-70905714D01*
X108695714Y-70953333D01*
X108743333Y-71048571D01*
X108743333Y-71572380D01*
X109600476Y-71524761D02*
X109505238Y-71572380D01*
X109314761Y-71572380D01*
X109219523Y-71524761D01*
X109171904Y-71429523D01*
X109171904Y-71048571D01*
X109219523Y-70953333D01*
X109314761Y-70905714D01*
X109505238Y-70905714D01*
X109600476Y-70953333D01*
X109648095Y-71048571D01*
X109648095Y-71143809D01*
X109171904Y-71239047D01*
X111410000Y-71477142D02*
X111362380Y-71524761D01*
X111219523Y-71572380D01*
X111124285Y-71572380D01*
X110981428Y-71524761D01*
X110886190Y-71429523D01*
X110838571Y-71334285D01*
X110790952Y-71143809D01*
X110790952Y-71000952D01*
X110838571Y-70810476D01*
X110886190Y-70715238D01*
X110981428Y-70620000D01*
X111124285Y-70572380D01*
X111219523Y-70572380D01*
X111362380Y-70620000D01*
X111410000Y-70667619D01*
X98671904Y-73182380D02*
X98671904Y-72182380D01*
X98671904Y-73134761D02*
X98576666Y-73182380D01*
X98386190Y-73182380D01*
X98290952Y-73134761D01*
X98243333Y-73087142D01*
X98195714Y-72991904D01*
X98195714Y-72706190D01*
X98243333Y-72610952D01*
X98290952Y-72563333D01*
X98386190Y-72515714D01*
X98576666Y-72515714D01*
X98671904Y-72563333D01*
X99576666Y-73182380D02*
X99576666Y-72658571D01*
X99529047Y-72563333D01*
X99433809Y-72515714D01*
X99243333Y-72515714D01*
X99148095Y-72563333D01*
X99576666Y-73134761D02*
X99481428Y-73182380D01*
X99243333Y-73182380D01*
X99148095Y-73134761D01*
X99100476Y-73039523D01*
X99100476Y-72944285D01*
X99148095Y-72849047D01*
X99243333Y-72801428D01*
X99481428Y-72801428D01*
X99576666Y-72753809D01*
X99910000Y-72515714D02*
X100290952Y-72515714D01*
X100052857Y-72182380D02*
X100052857Y-73039523D01*
X100100476Y-73134761D01*
X100195714Y-73182380D01*
X100290952Y-73182380D01*
X101052857Y-73182380D02*
X101052857Y-72658571D01*
X101005238Y-72563333D01*
X100910000Y-72515714D01*
X100719523Y-72515714D01*
X100624285Y-72563333D01*
X101052857Y-73134761D02*
X100957619Y-73182380D01*
X100719523Y-73182380D01*
X100624285Y-73134761D01*
X100576666Y-73039523D01*
X100576666Y-72944285D01*
X100624285Y-72849047D01*
X100719523Y-72801428D01*
X100957619Y-72801428D01*
X101052857Y-72753809D01*
X101957619Y-73182380D02*
X101957619Y-72182380D01*
X101957619Y-73134761D02*
X101862380Y-73182380D01*
X101671904Y-73182380D01*
X101576666Y-73134761D01*
X101529047Y-73087142D01*
X101481428Y-72991904D01*
X101481428Y-72706190D01*
X101529047Y-72610952D01*
X101576666Y-72563333D01*
X101671904Y-72515714D01*
X101862380Y-72515714D01*
X101957619Y-72563333D01*
X102814761Y-73134761D02*
X102719523Y-73182380D01*
X102529047Y-73182380D01*
X102433809Y-73134761D01*
X102386190Y-73039523D01*
X102386190Y-72658571D01*
X102433809Y-72563333D01*
X102529047Y-72515714D01*
X102719523Y-72515714D01*
X102814761Y-72563333D01*
X102862380Y-72658571D01*
X102862380Y-72753809D01*
X102386190Y-72849047D01*
X103671904Y-73134761D02*
X103576666Y-73182380D01*
X103386190Y-73182380D01*
X103290952Y-73134761D01*
X103243333Y-73039523D01*
X103243333Y-72658571D01*
X103290952Y-72563333D01*
X103386190Y-72515714D01*
X103576666Y-72515714D01*
X103671904Y-72563333D01*
X103719523Y-72658571D01*
X103719523Y-72753809D01*
X103243333Y-72849047D01*
X104148095Y-73182380D02*
X104148095Y-72515714D01*
X104148095Y-72706190D02*
X104195714Y-72610952D01*
X104243333Y-72563333D01*
X104338571Y-72515714D01*
X104433809Y-72515714D01*
X104767142Y-73087142D02*
X104814761Y-73134761D01*
X104767142Y-73182380D01*
X104719523Y-73134761D01*
X104767142Y-73087142D01*
X104767142Y-73182380D01*
X105243333Y-72515714D02*
X105243333Y-73182380D01*
X105243333Y-72610952D02*
X105290952Y-72563333D01*
X105386190Y-72515714D01*
X105529047Y-72515714D01*
X105624285Y-72563333D01*
X105671904Y-72658571D01*
X105671904Y-73182380D01*
X106529047Y-73134761D02*
X106433809Y-73182380D01*
X106243333Y-73182380D01*
X106148095Y-73134761D01*
X106100476Y-73039523D01*
X106100476Y-72658571D01*
X106148095Y-72563333D01*
X106243333Y-72515714D01*
X106433809Y-72515714D01*
X106529047Y-72563333D01*
X106576666Y-72658571D01*
X106576666Y-72753809D01*
X106100476Y-72849047D01*
X106862380Y-72515714D02*
X107243333Y-72515714D01*
X107005238Y-72182380D02*
X107005238Y-73039523D01*
X107052857Y-73134761D01*
X107148095Y-73182380D01*
X107243333Y-73182380D01*
X108290952Y-72134761D02*
X107433809Y-73420476D01*
X109195714Y-73182380D02*
X108862380Y-72706190D01*
X108624285Y-73182380D02*
X108624285Y-72182380D01*
X109005238Y-72182380D01*
X109100476Y-72230000D01*
X109148095Y-72277619D01*
X109195714Y-72372857D01*
X109195714Y-72515714D01*
X109148095Y-72610952D01*
X109100476Y-72658571D01*
X109005238Y-72706190D01*
X108624285Y-72706190D01*
X110195714Y-73182380D02*
X109862380Y-72706190D01*
X109624285Y-73182380D02*
X109624285Y-72182380D01*
X110005238Y-72182380D01*
X110100476Y-72230000D01*
X110148095Y-72277619D01*
X110195714Y-72372857D01*
X110195714Y-72515714D01*
X110148095Y-72610952D01*
X110100476Y-72658571D01*
X110005238Y-72706190D01*
X109624285Y-72706190D01*
X110624285Y-73182380D02*
X110624285Y-72182380D01*
X111052857Y-73134761D02*
X111195714Y-73182380D01*
X111433809Y-73182380D01*
X111529047Y-73134761D01*
X111576666Y-73087142D01*
X111624285Y-72991904D01*
X111624285Y-72896666D01*
X111576666Y-72801428D01*
X111529047Y-72753809D01*
X111433809Y-72706190D01*
X111243333Y-72658571D01*
X111148095Y-72610952D01*
X111100476Y-72563333D01*
X111052857Y-72468095D01*
X111052857Y-72372857D01*
X111100476Y-72277619D01*
X111148095Y-72230000D01*
X111243333Y-72182380D01*
X111481428Y-72182380D01*
X111624285Y-72230000D01*
X112624285Y-73087142D02*
X112576666Y-73134761D01*
X112433809Y-73182380D01*
X112338571Y-73182380D01*
X112195714Y-73134761D01*
X112100476Y-73039523D01*
X112052857Y-72944285D01*
X112005238Y-72753809D01*
X112005238Y-72610952D01*
X112052857Y-72420476D01*
X112100476Y-72325238D01*
X112195714Y-72230000D01*
X112338571Y-72182380D01*
X112433809Y-72182380D01*
X112576666Y-72230000D01*
X112624285Y-72277619D01*
%TO.C,J4*%
X142692380Y-127273333D02*
X143406666Y-127273333D01*
X143549523Y-127320952D01*
X143644761Y-127416190D01*
X143692380Y-127559047D01*
X143692380Y-127654285D01*
X143025714Y-126368571D02*
X143692380Y-126368571D01*
X142644761Y-126606666D02*
X143359047Y-126844761D01*
X143359047Y-126225714D01*
%TO.C,J3*%
X165552380Y-127273333D02*
X166266666Y-127273333D01*
X166409523Y-127320952D01*
X166504761Y-127416190D01*
X166552380Y-127559047D01*
X166552380Y-127654285D01*
X165552380Y-126892380D02*
X165552380Y-126273333D01*
X165933333Y-126606666D01*
X165933333Y-126463809D01*
X165980952Y-126368571D01*
X166028571Y-126320952D01*
X166123809Y-126273333D01*
X166361904Y-126273333D01*
X166457142Y-126320952D01*
X166504761Y-126368571D01*
X166552380Y-126463809D01*
X166552380Y-126749523D01*
X166504761Y-126844761D01*
X166457142Y-126892380D01*
%TO.C,J2*%
X188412380Y-127273333D02*
X189126666Y-127273333D01*
X189269523Y-127320952D01*
X189364761Y-127416190D01*
X189412380Y-127559047D01*
X189412380Y-127654285D01*
X188507619Y-126844761D02*
X188460000Y-126797142D01*
X188412380Y-126701904D01*
X188412380Y-126463809D01*
X188460000Y-126368571D01*
X188507619Y-126320952D01*
X188602857Y-126273333D01*
X188698095Y-126273333D01*
X188840952Y-126320952D01*
X189412380Y-126892380D01*
X189412380Y-126273333D01*
%TO.C,J1*%
X119832380Y-127273333D02*
X120546666Y-127273333D01*
X120689523Y-127320952D01*
X120784761Y-127416190D01*
X120832380Y-127559047D01*
X120832380Y-127654285D01*
X120832380Y-126273333D02*
X120832380Y-126844761D01*
X120832380Y-126559047D02*
X119832380Y-126559047D01*
X119975238Y-126654285D01*
X120070476Y-126749523D01*
X120118095Y-126844761D01*
%TO.C,UR7*%
X160663095Y-69302380D02*
X160663095Y-70111904D01*
X160710714Y-70207142D01*
X160758333Y-70254761D01*
X160853571Y-70302380D01*
X161044047Y-70302380D01*
X161139285Y-70254761D01*
X161186904Y-70207142D01*
X161234523Y-70111904D01*
X161234523Y-69302380D01*
X162282142Y-70302380D02*
X161948809Y-69826190D01*
X161710714Y-70302380D02*
X161710714Y-69302380D01*
X162091666Y-69302380D01*
X162186904Y-69350000D01*
X162234523Y-69397619D01*
X162282142Y-69492857D01*
X162282142Y-69635714D01*
X162234523Y-69730952D01*
X162186904Y-69778571D01*
X162091666Y-69826190D01*
X161710714Y-69826190D01*
X162615476Y-69302380D02*
X163282142Y-69302380D01*
X162853571Y-70302380D01*
X159440952Y-81732380D02*
X160107619Y-81732380D01*
X159679047Y-82732380D01*
X160917142Y-82065714D02*
X160917142Y-82732380D01*
X160679047Y-81684761D02*
X160440952Y-82399047D01*
X161060000Y-82399047D01*
X161917142Y-82732380D02*
X161440952Y-82732380D01*
X161440952Y-81732380D01*
X162202857Y-82684761D02*
X162345714Y-82732380D01*
X162583809Y-82732380D01*
X162679047Y-82684761D01*
X162726666Y-82637142D01*
X162774285Y-82541904D01*
X162774285Y-82446666D01*
X162726666Y-82351428D01*
X162679047Y-82303809D01*
X162583809Y-82256190D01*
X162393333Y-82208571D01*
X162298095Y-82160952D01*
X162250476Y-82113333D01*
X162202857Y-82018095D01*
X162202857Y-81922857D01*
X162250476Y-81827619D01*
X162298095Y-81780000D01*
X162393333Y-81732380D01*
X162631428Y-81732380D01*
X162774285Y-81780000D01*
X163107619Y-81732380D02*
X163726666Y-81732380D01*
X163393333Y-82113333D01*
X163536190Y-82113333D01*
X163631428Y-82160952D01*
X163679047Y-82208571D01*
X163726666Y-82303809D01*
X163726666Y-82541904D01*
X163679047Y-82637142D01*
X163631428Y-82684761D01*
X163536190Y-82732380D01*
X163250476Y-82732380D01*
X163155238Y-82684761D01*
X163107619Y-82637142D01*
X164060000Y-81732380D02*
X164726666Y-81732380D01*
X164298095Y-82732380D01*
X165012380Y-81732380D02*
X165679047Y-81732380D01*
X165250476Y-82732380D01*
%TO.C,UM7*%
X182816666Y-85177380D02*
X182816666Y-85986904D01*
X182864285Y-86082142D01*
X182911904Y-86129761D01*
X183007142Y-86177380D01*
X183197619Y-86177380D01*
X183292857Y-86129761D01*
X183340476Y-86082142D01*
X183388095Y-85986904D01*
X183388095Y-85177380D01*
X183864285Y-86177380D02*
X183864285Y-85177380D01*
X184197619Y-85891666D01*
X184530952Y-85177380D01*
X184530952Y-86177380D01*
X184911904Y-85177380D02*
X185578571Y-85177380D01*
X185150000Y-86177380D01*
X181911904Y-96607380D02*
X182578571Y-96607380D01*
X182150000Y-97607380D01*
X183388095Y-96940714D02*
X183388095Y-97607380D01*
X183150000Y-96559761D02*
X182911904Y-97274047D01*
X183530952Y-97274047D01*
X184435714Y-97607380D02*
X183864285Y-97607380D01*
X184150000Y-97607380D02*
X184150000Y-96607380D01*
X184054761Y-96750238D01*
X183959523Y-96845476D01*
X183864285Y-96893095D01*
X185340476Y-96607380D02*
X184864285Y-96607380D01*
X184816666Y-97083571D01*
X184864285Y-97035952D01*
X184959523Y-96988333D01*
X185197619Y-96988333D01*
X185292857Y-97035952D01*
X185340476Y-97083571D01*
X185388095Y-97178809D01*
X185388095Y-97416904D01*
X185340476Y-97512142D01*
X185292857Y-97559761D01*
X185197619Y-97607380D01*
X184959523Y-97607380D01*
X184864285Y-97559761D01*
X184816666Y-97512142D01*
X186340476Y-97607380D02*
X185769047Y-97607380D01*
X186054761Y-97607380D02*
X186054761Y-96607380D01*
X185959523Y-96750238D01*
X185864285Y-96845476D01*
X185769047Y-96893095D01*
%TO.C,UM2*%
X125666666Y-85177380D02*
X125666666Y-85986904D01*
X125714285Y-86082142D01*
X125761904Y-86129761D01*
X125857142Y-86177380D01*
X126047619Y-86177380D01*
X126142857Y-86129761D01*
X126190476Y-86082142D01*
X126238095Y-85986904D01*
X126238095Y-85177380D01*
X126714285Y-86177380D02*
X126714285Y-85177380D01*
X127047619Y-85891666D01*
X127380952Y-85177380D01*
X127380952Y-86177380D01*
X127809523Y-85272619D02*
X127857142Y-85225000D01*
X127952380Y-85177380D01*
X128190476Y-85177380D01*
X128285714Y-85225000D01*
X128333333Y-85272619D01*
X128380952Y-85367857D01*
X128380952Y-85463095D01*
X128333333Y-85605952D01*
X127761904Y-86177380D01*
X128380952Y-86177380D01*
X124761904Y-96607380D02*
X125428571Y-96607380D01*
X125000000Y-97607380D01*
X126238095Y-96940714D02*
X126238095Y-97607380D01*
X126000000Y-96559761D02*
X125761904Y-97274047D01*
X126380952Y-97274047D01*
X127285714Y-97607380D02*
X126714285Y-97607380D01*
X127000000Y-97607380D02*
X127000000Y-96607380D01*
X126904761Y-96750238D01*
X126809523Y-96845476D01*
X126714285Y-96893095D01*
X128190476Y-96607380D02*
X127714285Y-96607380D01*
X127666666Y-97083571D01*
X127714285Y-97035952D01*
X127809523Y-96988333D01*
X128047619Y-96988333D01*
X128142857Y-97035952D01*
X128190476Y-97083571D01*
X128238095Y-97178809D01*
X128238095Y-97416904D01*
X128190476Y-97512142D01*
X128142857Y-97559761D01*
X128047619Y-97607380D01*
X127809523Y-97607380D01*
X127714285Y-97559761D01*
X127666666Y-97512142D01*
X129190476Y-97607380D02*
X128619047Y-97607380D01*
X128904761Y-97607380D02*
X128904761Y-96607380D01*
X128809523Y-96750238D01*
X128714285Y-96845476D01*
X128619047Y-96893095D01*
%TO.C,UR0*%
X170188095Y-102322380D02*
X170188095Y-103131904D01*
X170235714Y-103227142D01*
X170283333Y-103274761D01*
X170378571Y-103322380D01*
X170569047Y-103322380D01*
X170664285Y-103274761D01*
X170711904Y-103227142D01*
X170759523Y-103131904D01*
X170759523Y-102322380D01*
X171807142Y-103322380D02*
X171473809Y-102846190D01*
X171235714Y-103322380D02*
X171235714Y-102322380D01*
X171616666Y-102322380D01*
X171711904Y-102370000D01*
X171759523Y-102417619D01*
X171807142Y-102512857D01*
X171807142Y-102655714D01*
X171759523Y-102750952D01*
X171711904Y-102798571D01*
X171616666Y-102846190D01*
X171235714Y-102846190D01*
X172426190Y-102322380D02*
X172521428Y-102322380D01*
X172616666Y-102370000D01*
X172664285Y-102417619D01*
X172711904Y-102512857D01*
X172759523Y-102703333D01*
X172759523Y-102941428D01*
X172711904Y-103131904D01*
X172664285Y-103227142D01*
X172616666Y-103274761D01*
X172521428Y-103322380D01*
X172426190Y-103322380D01*
X172330952Y-103274761D01*
X172283333Y-103227142D01*
X172235714Y-103131904D01*
X172188095Y-102941428D01*
X172188095Y-102703333D01*
X172235714Y-102512857D01*
X172283333Y-102417619D01*
X172330952Y-102370000D01*
X172426190Y-102322380D01*
X168330952Y-114752380D02*
X168997619Y-114752380D01*
X168569047Y-115752380D01*
X169807142Y-115085714D02*
X169807142Y-115752380D01*
X169569047Y-114704761D02*
X169330952Y-115419047D01*
X169950000Y-115419047D01*
X170807142Y-115752380D02*
X170330952Y-115752380D01*
X170330952Y-114752380D01*
X171092857Y-115704761D02*
X171235714Y-115752380D01*
X171473809Y-115752380D01*
X171569047Y-115704761D01*
X171616666Y-115657142D01*
X171664285Y-115561904D01*
X171664285Y-115466666D01*
X171616666Y-115371428D01*
X171569047Y-115323809D01*
X171473809Y-115276190D01*
X171283333Y-115228571D01*
X171188095Y-115180952D01*
X171140476Y-115133333D01*
X171092857Y-115038095D01*
X171092857Y-114942857D01*
X171140476Y-114847619D01*
X171188095Y-114800000D01*
X171283333Y-114752380D01*
X171521428Y-114752380D01*
X171664285Y-114800000D01*
X171997619Y-114752380D02*
X172616666Y-114752380D01*
X172283333Y-115133333D01*
X172426190Y-115133333D01*
X172521428Y-115180952D01*
X172569047Y-115228571D01*
X172616666Y-115323809D01*
X172616666Y-115561904D01*
X172569047Y-115657142D01*
X172521428Y-115704761D01*
X172426190Y-115752380D01*
X172140476Y-115752380D01*
X172045238Y-115704761D01*
X171997619Y-115657142D01*
X172950000Y-114752380D02*
X173616666Y-114752380D01*
X173188095Y-115752380D01*
X173902380Y-114752380D02*
X174569047Y-114752380D01*
X174140476Y-115752380D01*
%TO.C,UM1*%
X114236666Y-85177380D02*
X114236666Y-85986904D01*
X114284285Y-86082142D01*
X114331904Y-86129761D01*
X114427142Y-86177380D01*
X114617619Y-86177380D01*
X114712857Y-86129761D01*
X114760476Y-86082142D01*
X114808095Y-85986904D01*
X114808095Y-85177380D01*
X115284285Y-86177380D02*
X115284285Y-85177380D01*
X115617619Y-85891666D01*
X115950952Y-85177380D01*
X115950952Y-86177380D01*
X116950952Y-86177380D02*
X116379523Y-86177380D01*
X116665238Y-86177380D02*
X116665238Y-85177380D01*
X116570000Y-85320238D01*
X116474761Y-85415476D01*
X116379523Y-85463095D01*
X113731904Y-96607380D02*
X114398571Y-96607380D01*
X113970000Y-97607380D01*
X115208095Y-96940714D02*
X115208095Y-97607380D01*
X114970000Y-96559761D02*
X114731904Y-97274047D01*
X115350952Y-97274047D01*
X116255714Y-97607380D02*
X115684285Y-97607380D01*
X115970000Y-97607380D02*
X115970000Y-96607380D01*
X115874761Y-96750238D01*
X115779523Y-96845476D01*
X115684285Y-96893095D01*
X117160476Y-96607380D02*
X116684285Y-96607380D01*
X116636666Y-97083571D01*
X116684285Y-97035952D01*
X116779523Y-96988333D01*
X117017619Y-96988333D01*
X117112857Y-97035952D01*
X117160476Y-97083571D01*
X117208095Y-97178809D01*
X117208095Y-97416904D01*
X117160476Y-97512142D01*
X117112857Y-97559761D01*
X117017619Y-97607380D01*
X116779523Y-97607380D01*
X116684285Y-97559761D01*
X116636666Y-97512142D01*
X118160476Y-97607380D02*
X117589047Y-97607380D01*
X117874761Y-97607380D02*
X117874761Y-96607380D01*
X117779523Y-96750238D01*
X117684285Y-96845476D01*
X117589047Y-96893095D01*
%TO.C,UR3*%
X120658095Y-102322380D02*
X120658095Y-103131904D01*
X120705714Y-103227142D01*
X120753333Y-103274761D01*
X120848571Y-103322380D01*
X121039047Y-103322380D01*
X121134285Y-103274761D01*
X121181904Y-103227142D01*
X121229523Y-103131904D01*
X121229523Y-102322380D01*
X122277142Y-103322380D02*
X121943809Y-102846190D01*
X121705714Y-103322380D02*
X121705714Y-102322380D01*
X122086666Y-102322380D01*
X122181904Y-102370000D01*
X122229523Y-102417619D01*
X122277142Y-102512857D01*
X122277142Y-102655714D01*
X122229523Y-102750952D01*
X122181904Y-102798571D01*
X122086666Y-102846190D01*
X121705714Y-102846190D01*
X122610476Y-102322380D02*
X123229523Y-102322380D01*
X122896190Y-102703333D01*
X123039047Y-102703333D01*
X123134285Y-102750952D01*
X123181904Y-102798571D01*
X123229523Y-102893809D01*
X123229523Y-103131904D01*
X123181904Y-103227142D01*
X123134285Y-103274761D01*
X123039047Y-103322380D01*
X122753333Y-103322380D01*
X122658095Y-103274761D01*
X122610476Y-103227142D01*
X118800952Y-115022380D02*
X119467619Y-115022380D01*
X119039047Y-116022380D01*
X120277142Y-115355714D02*
X120277142Y-116022380D01*
X120039047Y-114974761D02*
X119800952Y-115689047D01*
X120420000Y-115689047D01*
X121277142Y-116022380D02*
X120800952Y-116022380D01*
X120800952Y-115022380D01*
X121562857Y-115974761D02*
X121705714Y-116022380D01*
X121943809Y-116022380D01*
X122039047Y-115974761D01*
X122086666Y-115927142D01*
X122134285Y-115831904D01*
X122134285Y-115736666D01*
X122086666Y-115641428D01*
X122039047Y-115593809D01*
X121943809Y-115546190D01*
X121753333Y-115498571D01*
X121658095Y-115450952D01*
X121610476Y-115403333D01*
X121562857Y-115308095D01*
X121562857Y-115212857D01*
X121610476Y-115117619D01*
X121658095Y-115070000D01*
X121753333Y-115022380D01*
X121991428Y-115022380D01*
X122134285Y-115070000D01*
X122467619Y-115022380D02*
X123086666Y-115022380D01*
X122753333Y-115403333D01*
X122896190Y-115403333D01*
X122991428Y-115450952D01*
X123039047Y-115498571D01*
X123086666Y-115593809D01*
X123086666Y-115831904D01*
X123039047Y-115927142D01*
X122991428Y-115974761D01*
X122896190Y-116022380D01*
X122610476Y-116022380D01*
X122515238Y-115974761D01*
X122467619Y-115927142D01*
X123420000Y-115022380D02*
X124086666Y-115022380D01*
X123658095Y-116022380D01*
X124372380Y-115022380D02*
X125039047Y-115022380D01*
X124610476Y-116022380D01*
%TO.C,UM6*%
X171386666Y-85177380D02*
X171386666Y-85986904D01*
X171434285Y-86082142D01*
X171481904Y-86129761D01*
X171577142Y-86177380D01*
X171767619Y-86177380D01*
X171862857Y-86129761D01*
X171910476Y-86082142D01*
X171958095Y-85986904D01*
X171958095Y-85177380D01*
X172434285Y-86177380D02*
X172434285Y-85177380D01*
X172767619Y-85891666D01*
X173100952Y-85177380D01*
X173100952Y-86177380D01*
X174005714Y-85177380D02*
X173815238Y-85177380D01*
X173720000Y-85225000D01*
X173672380Y-85272619D01*
X173577142Y-85415476D01*
X173529523Y-85605952D01*
X173529523Y-85986904D01*
X173577142Y-86082142D01*
X173624761Y-86129761D01*
X173720000Y-86177380D01*
X173910476Y-86177380D01*
X174005714Y-86129761D01*
X174053333Y-86082142D01*
X174100952Y-85986904D01*
X174100952Y-85748809D01*
X174053333Y-85653571D01*
X174005714Y-85605952D01*
X173910476Y-85558333D01*
X173720000Y-85558333D01*
X173624761Y-85605952D01*
X173577142Y-85653571D01*
X173529523Y-85748809D01*
X170481904Y-96607380D02*
X171148571Y-96607380D01*
X170720000Y-97607380D01*
X171958095Y-96940714D02*
X171958095Y-97607380D01*
X171720000Y-96559761D02*
X171481904Y-97274047D01*
X172100952Y-97274047D01*
X173005714Y-97607380D02*
X172434285Y-97607380D01*
X172720000Y-97607380D02*
X172720000Y-96607380D01*
X172624761Y-96750238D01*
X172529523Y-96845476D01*
X172434285Y-96893095D01*
X173910476Y-96607380D02*
X173434285Y-96607380D01*
X173386666Y-97083571D01*
X173434285Y-97035952D01*
X173529523Y-96988333D01*
X173767619Y-96988333D01*
X173862857Y-97035952D01*
X173910476Y-97083571D01*
X173958095Y-97178809D01*
X173958095Y-97416904D01*
X173910476Y-97512142D01*
X173862857Y-97559761D01*
X173767619Y-97607380D01*
X173529523Y-97607380D01*
X173434285Y-97559761D01*
X173386666Y-97512142D01*
X174910476Y-97607380D02*
X174339047Y-97607380D01*
X174624761Y-97607380D02*
X174624761Y-96607380D01*
X174529523Y-96750238D01*
X174434285Y-96845476D01*
X174339047Y-96893095D01*
%TO.C,UR2*%
X137168095Y-102322380D02*
X137168095Y-103131904D01*
X137215714Y-103227142D01*
X137263333Y-103274761D01*
X137358571Y-103322380D01*
X137549047Y-103322380D01*
X137644285Y-103274761D01*
X137691904Y-103227142D01*
X137739523Y-103131904D01*
X137739523Y-102322380D01*
X138787142Y-103322380D02*
X138453809Y-102846190D01*
X138215714Y-103322380D02*
X138215714Y-102322380D01*
X138596666Y-102322380D01*
X138691904Y-102370000D01*
X138739523Y-102417619D01*
X138787142Y-102512857D01*
X138787142Y-102655714D01*
X138739523Y-102750952D01*
X138691904Y-102798571D01*
X138596666Y-102846190D01*
X138215714Y-102846190D01*
X139168095Y-102417619D02*
X139215714Y-102370000D01*
X139310952Y-102322380D01*
X139549047Y-102322380D01*
X139644285Y-102370000D01*
X139691904Y-102417619D01*
X139739523Y-102512857D01*
X139739523Y-102608095D01*
X139691904Y-102750952D01*
X139120476Y-103322380D01*
X139739523Y-103322380D01*
X135310952Y-115022380D02*
X135977619Y-115022380D01*
X135549047Y-116022380D01*
X136787142Y-115355714D02*
X136787142Y-116022380D01*
X136549047Y-114974761D02*
X136310952Y-115689047D01*
X136930000Y-115689047D01*
X137787142Y-116022380D02*
X137310952Y-116022380D01*
X137310952Y-115022380D01*
X138072857Y-115974761D02*
X138215714Y-116022380D01*
X138453809Y-116022380D01*
X138549047Y-115974761D01*
X138596666Y-115927142D01*
X138644285Y-115831904D01*
X138644285Y-115736666D01*
X138596666Y-115641428D01*
X138549047Y-115593809D01*
X138453809Y-115546190D01*
X138263333Y-115498571D01*
X138168095Y-115450952D01*
X138120476Y-115403333D01*
X138072857Y-115308095D01*
X138072857Y-115212857D01*
X138120476Y-115117619D01*
X138168095Y-115070000D01*
X138263333Y-115022380D01*
X138501428Y-115022380D01*
X138644285Y-115070000D01*
X138977619Y-115022380D02*
X139596666Y-115022380D01*
X139263333Y-115403333D01*
X139406190Y-115403333D01*
X139501428Y-115450952D01*
X139549047Y-115498571D01*
X139596666Y-115593809D01*
X139596666Y-115831904D01*
X139549047Y-115927142D01*
X139501428Y-115974761D01*
X139406190Y-116022380D01*
X139120476Y-116022380D01*
X139025238Y-115974761D01*
X138977619Y-115927142D01*
X139930000Y-115022380D02*
X140596666Y-115022380D01*
X140168095Y-116022380D01*
X140882380Y-115022380D02*
X141549047Y-115022380D01*
X141120476Y-116022380D01*
%TO.C,UR6*%
X147328095Y-69302380D02*
X147328095Y-70111904D01*
X147375714Y-70207142D01*
X147423333Y-70254761D01*
X147518571Y-70302380D01*
X147709047Y-70302380D01*
X147804285Y-70254761D01*
X147851904Y-70207142D01*
X147899523Y-70111904D01*
X147899523Y-69302380D01*
X148947142Y-70302380D02*
X148613809Y-69826190D01*
X148375714Y-70302380D02*
X148375714Y-69302380D01*
X148756666Y-69302380D01*
X148851904Y-69350000D01*
X148899523Y-69397619D01*
X148947142Y-69492857D01*
X148947142Y-69635714D01*
X148899523Y-69730952D01*
X148851904Y-69778571D01*
X148756666Y-69826190D01*
X148375714Y-69826190D01*
X149804285Y-69302380D02*
X149613809Y-69302380D01*
X149518571Y-69350000D01*
X149470952Y-69397619D01*
X149375714Y-69540476D01*
X149328095Y-69730952D01*
X149328095Y-70111904D01*
X149375714Y-70207142D01*
X149423333Y-70254761D01*
X149518571Y-70302380D01*
X149709047Y-70302380D01*
X149804285Y-70254761D01*
X149851904Y-70207142D01*
X149899523Y-70111904D01*
X149899523Y-69873809D01*
X149851904Y-69778571D01*
X149804285Y-69730952D01*
X149709047Y-69683333D01*
X149518571Y-69683333D01*
X149423333Y-69730952D01*
X149375714Y-69778571D01*
X149328095Y-69873809D01*
X145470952Y-81732380D02*
X146137619Y-81732380D01*
X145709047Y-82732380D01*
X146947142Y-82065714D02*
X146947142Y-82732380D01*
X146709047Y-81684761D02*
X146470952Y-82399047D01*
X147090000Y-82399047D01*
X147947142Y-82732380D02*
X147470952Y-82732380D01*
X147470952Y-81732380D01*
X148232857Y-82684761D02*
X148375714Y-82732380D01*
X148613809Y-82732380D01*
X148709047Y-82684761D01*
X148756666Y-82637142D01*
X148804285Y-82541904D01*
X148804285Y-82446666D01*
X148756666Y-82351428D01*
X148709047Y-82303809D01*
X148613809Y-82256190D01*
X148423333Y-82208571D01*
X148328095Y-82160952D01*
X148280476Y-82113333D01*
X148232857Y-82018095D01*
X148232857Y-81922857D01*
X148280476Y-81827619D01*
X148328095Y-81780000D01*
X148423333Y-81732380D01*
X148661428Y-81732380D01*
X148804285Y-81780000D01*
X149137619Y-81732380D02*
X149756666Y-81732380D01*
X149423333Y-82113333D01*
X149566190Y-82113333D01*
X149661428Y-82160952D01*
X149709047Y-82208571D01*
X149756666Y-82303809D01*
X149756666Y-82541904D01*
X149709047Y-82637142D01*
X149661428Y-82684761D01*
X149566190Y-82732380D01*
X149280476Y-82732380D01*
X149185238Y-82684761D01*
X149137619Y-82637142D01*
X150090000Y-81732380D02*
X150756666Y-81732380D01*
X150328095Y-82732380D01*
X151042380Y-81732380D02*
X151709047Y-81732380D01*
X151280476Y-82732380D01*
%TO.C,U1*%
X107823095Y-100417380D02*
X107823095Y-101226904D01*
X107870714Y-101322142D01*
X107918333Y-101369761D01*
X108013571Y-101417380D01*
X108204047Y-101417380D01*
X108299285Y-101369761D01*
X108346904Y-101322142D01*
X108394523Y-101226904D01*
X108394523Y-100417380D01*
X109394523Y-101417380D02*
X108823095Y-101417380D01*
X109108809Y-101417380D02*
X109108809Y-100417380D01*
X109013571Y-100560238D01*
X108918333Y-100655476D01*
X108823095Y-100703095D01*
X105465952Y-111847380D02*
X106132619Y-111847380D01*
X105704047Y-112847380D01*
X106942142Y-112180714D02*
X106942142Y-112847380D01*
X106704047Y-111799761D02*
X106465952Y-112514047D01*
X107085000Y-112514047D01*
X107942142Y-112847380D02*
X107465952Y-112847380D01*
X107465952Y-111847380D01*
X108227857Y-112799761D02*
X108370714Y-112847380D01*
X108608809Y-112847380D01*
X108704047Y-112799761D01*
X108751666Y-112752142D01*
X108799285Y-112656904D01*
X108799285Y-112561666D01*
X108751666Y-112466428D01*
X108704047Y-112418809D01*
X108608809Y-112371190D01*
X108418333Y-112323571D01*
X108323095Y-112275952D01*
X108275476Y-112228333D01*
X108227857Y-112133095D01*
X108227857Y-112037857D01*
X108275476Y-111942619D01*
X108323095Y-111895000D01*
X108418333Y-111847380D01*
X108656428Y-111847380D01*
X108799285Y-111895000D01*
X109751666Y-112847380D02*
X109180238Y-112847380D01*
X109465952Y-112847380D02*
X109465952Y-111847380D01*
X109370714Y-111990238D01*
X109275476Y-112085476D01*
X109180238Y-112133095D01*
X110085000Y-111847380D02*
X110704047Y-111847380D01*
X110370714Y-112228333D01*
X110513571Y-112228333D01*
X110608809Y-112275952D01*
X110656428Y-112323571D01*
X110704047Y-112418809D01*
X110704047Y-112656904D01*
X110656428Y-112752142D01*
X110608809Y-112799761D01*
X110513571Y-112847380D01*
X110227857Y-112847380D01*
X110132619Y-112799761D01*
X110085000Y-112752142D01*
X111275476Y-112275952D02*
X111180238Y-112228333D01*
X111132619Y-112180714D01*
X111085000Y-112085476D01*
X111085000Y-112037857D01*
X111132619Y-111942619D01*
X111180238Y-111895000D01*
X111275476Y-111847380D01*
X111465952Y-111847380D01*
X111561190Y-111895000D01*
X111608809Y-111942619D01*
X111656428Y-112037857D01*
X111656428Y-112085476D01*
X111608809Y-112180714D01*
X111561190Y-112228333D01*
X111465952Y-112275952D01*
X111275476Y-112275952D01*
X111180238Y-112323571D01*
X111132619Y-112371190D01*
X111085000Y-112466428D01*
X111085000Y-112656904D01*
X111132619Y-112752142D01*
X111180238Y-112799761D01*
X111275476Y-112847380D01*
X111465952Y-112847380D01*
X111561190Y-112799761D01*
X111608809Y-112752142D01*
X111656428Y-112656904D01*
X111656428Y-112466428D01*
X111608809Y-112371190D01*
X111561190Y-112323571D01*
X111465952Y-112275952D01*
%TO.C,UR1*%
X153678095Y-102322380D02*
X153678095Y-103131904D01*
X153725714Y-103227142D01*
X153773333Y-103274761D01*
X153868571Y-103322380D01*
X154059047Y-103322380D01*
X154154285Y-103274761D01*
X154201904Y-103227142D01*
X154249523Y-103131904D01*
X154249523Y-102322380D01*
X155297142Y-103322380D02*
X154963809Y-102846190D01*
X154725714Y-103322380D02*
X154725714Y-102322380D01*
X155106666Y-102322380D01*
X155201904Y-102370000D01*
X155249523Y-102417619D01*
X155297142Y-102512857D01*
X155297142Y-102655714D01*
X155249523Y-102750952D01*
X155201904Y-102798571D01*
X155106666Y-102846190D01*
X154725714Y-102846190D01*
X156249523Y-103322380D02*
X155678095Y-103322380D01*
X155963809Y-103322380D02*
X155963809Y-102322380D01*
X155868571Y-102465238D01*
X155773333Y-102560476D01*
X155678095Y-102608095D01*
X151820952Y-115022380D02*
X152487619Y-115022380D01*
X152059047Y-116022380D01*
X153297142Y-115355714D02*
X153297142Y-116022380D01*
X153059047Y-114974761D02*
X152820952Y-115689047D01*
X153440000Y-115689047D01*
X154297142Y-116022380D02*
X153820952Y-116022380D01*
X153820952Y-115022380D01*
X154582857Y-115974761D02*
X154725714Y-116022380D01*
X154963809Y-116022380D01*
X155059047Y-115974761D01*
X155106666Y-115927142D01*
X155154285Y-115831904D01*
X155154285Y-115736666D01*
X155106666Y-115641428D01*
X155059047Y-115593809D01*
X154963809Y-115546190D01*
X154773333Y-115498571D01*
X154678095Y-115450952D01*
X154630476Y-115403333D01*
X154582857Y-115308095D01*
X154582857Y-115212857D01*
X154630476Y-115117619D01*
X154678095Y-115070000D01*
X154773333Y-115022380D01*
X155011428Y-115022380D01*
X155154285Y-115070000D01*
X155487619Y-115022380D02*
X156106666Y-115022380D01*
X155773333Y-115403333D01*
X155916190Y-115403333D01*
X156011428Y-115450952D01*
X156059047Y-115498571D01*
X156106666Y-115593809D01*
X156106666Y-115831904D01*
X156059047Y-115927142D01*
X156011428Y-115974761D01*
X155916190Y-116022380D01*
X155630476Y-116022380D01*
X155535238Y-115974761D01*
X155487619Y-115927142D01*
X156440000Y-115022380D02*
X157106666Y-115022380D01*
X156678095Y-116022380D01*
X157392380Y-115022380D02*
X158059047Y-115022380D01*
X157630476Y-116022380D01*
%TO.C,UR4*%
X120658095Y-69302380D02*
X120658095Y-70111904D01*
X120705714Y-70207142D01*
X120753333Y-70254761D01*
X120848571Y-70302380D01*
X121039047Y-70302380D01*
X121134285Y-70254761D01*
X121181904Y-70207142D01*
X121229523Y-70111904D01*
X121229523Y-69302380D01*
X122277142Y-70302380D02*
X121943809Y-69826190D01*
X121705714Y-70302380D02*
X121705714Y-69302380D01*
X122086666Y-69302380D01*
X122181904Y-69350000D01*
X122229523Y-69397619D01*
X122277142Y-69492857D01*
X122277142Y-69635714D01*
X122229523Y-69730952D01*
X122181904Y-69778571D01*
X122086666Y-69826190D01*
X121705714Y-69826190D01*
X123134285Y-69635714D02*
X123134285Y-70302380D01*
X122896190Y-69254761D02*
X122658095Y-69969047D01*
X123277142Y-69969047D01*
X118800952Y-81732380D02*
X119467619Y-81732380D01*
X119039047Y-82732380D01*
X120277142Y-82065714D02*
X120277142Y-82732380D01*
X120039047Y-81684761D02*
X119800952Y-82399047D01*
X120420000Y-82399047D01*
X121277142Y-82732380D02*
X120800952Y-82732380D01*
X120800952Y-81732380D01*
X121562857Y-82684761D02*
X121705714Y-82732380D01*
X121943809Y-82732380D01*
X122039047Y-82684761D01*
X122086666Y-82637142D01*
X122134285Y-82541904D01*
X122134285Y-82446666D01*
X122086666Y-82351428D01*
X122039047Y-82303809D01*
X121943809Y-82256190D01*
X121753333Y-82208571D01*
X121658095Y-82160952D01*
X121610476Y-82113333D01*
X121562857Y-82018095D01*
X121562857Y-81922857D01*
X121610476Y-81827619D01*
X121658095Y-81780000D01*
X121753333Y-81732380D01*
X121991428Y-81732380D01*
X122134285Y-81780000D01*
X122467619Y-81732380D02*
X123086666Y-81732380D01*
X122753333Y-82113333D01*
X122896190Y-82113333D01*
X122991428Y-82160952D01*
X123039047Y-82208571D01*
X123086666Y-82303809D01*
X123086666Y-82541904D01*
X123039047Y-82637142D01*
X122991428Y-82684761D01*
X122896190Y-82732380D01*
X122610476Y-82732380D01*
X122515238Y-82684761D01*
X122467619Y-82637142D01*
X123420000Y-81732380D02*
X124086666Y-81732380D01*
X123658095Y-82732380D01*
X124372380Y-81732380D02*
X125039047Y-81732380D01*
X124610476Y-82732380D01*
%TO.C,UM5*%
X159956666Y-85177380D02*
X159956666Y-85986904D01*
X160004285Y-86082142D01*
X160051904Y-86129761D01*
X160147142Y-86177380D01*
X160337619Y-86177380D01*
X160432857Y-86129761D01*
X160480476Y-86082142D01*
X160528095Y-85986904D01*
X160528095Y-85177380D01*
X161004285Y-86177380D02*
X161004285Y-85177380D01*
X161337619Y-85891666D01*
X161670952Y-85177380D01*
X161670952Y-86177380D01*
X162623333Y-85177380D02*
X162147142Y-85177380D01*
X162099523Y-85653571D01*
X162147142Y-85605952D01*
X162242380Y-85558333D01*
X162480476Y-85558333D01*
X162575714Y-85605952D01*
X162623333Y-85653571D01*
X162670952Y-85748809D01*
X162670952Y-85986904D01*
X162623333Y-86082142D01*
X162575714Y-86129761D01*
X162480476Y-86177380D01*
X162242380Y-86177380D01*
X162147142Y-86129761D01*
X162099523Y-86082142D01*
X159051904Y-96607380D02*
X159718571Y-96607380D01*
X159290000Y-97607380D01*
X160528095Y-96940714D02*
X160528095Y-97607380D01*
X160290000Y-96559761D02*
X160051904Y-97274047D01*
X160670952Y-97274047D01*
X161575714Y-97607380D02*
X161004285Y-97607380D01*
X161290000Y-97607380D02*
X161290000Y-96607380D01*
X161194761Y-96750238D01*
X161099523Y-96845476D01*
X161004285Y-96893095D01*
X162480476Y-96607380D02*
X162004285Y-96607380D01*
X161956666Y-97083571D01*
X162004285Y-97035952D01*
X162099523Y-96988333D01*
X162337619Y-96988333D01*
X162432857Y-97035952D01*
X162480476Y-97083571D01*
X162528095Y-97178809D01*
X162528095Y-97416904D01*
X162480476Y-97512142D01*
X162432857Y-97559761D01*
X162337619Y-97607380D01*
X162099523Y-97607380D01*
X162004285Y-97559761D01*
X161956666Y-97512142D01*
X163480476Y-97607380D02*
X162909047Y-97607380D01*
X163194761Y-97607380D02*
X163194761Y-96607380D01*
X163099523Y-96750238D01*
X163004285Y-96845476D01*
X162909047Y-96893095D01*
%TO.C,UM3*%
X137096666Y-85177380D02*
X137096666Y-85986904D01*
X137144285Y-86082142D01*
X137191904Y-86129761D01*
X137287142Y-86177380D01*
X137477619Y-86177380D01*
X137572857Y-86129761D01*
X137620476Y-86082142D01*
X137668095Y-85986904D01*
X137668095Y-85177380D01*
X138144285Y-86177380D02*
X138144285Y-85177380D01*
X138477619Y-85891666D01*
X138810952Y-85177380D01*
X138810952Y-86177380D01*
X139191904Y-85177380D02*
X139810952Y-85177380D01*
X139477619Y-85558333D01*
X139620476Y-85558333D01*
X139715714Y-85605952D01*
X139763333Y-85653571D01*
X139810952Y-85748809D01*
X139810952Y-85986904D01*
X139763333Y-86082142D01*
X139715714Y-86129761D01*
X139620476Y-86177380D01*
X139334761Y-86177380D01*
X139239523Y-86129761D01*
X139191904Y-86082142D01*
X136191904Y-96607380D02*
X136858571Y-96607380D01*
X136430000Y-97607380D01*
X137668095Y-96940714D02*
X137668095Y-97607380D01*
X137430000Y-96559761D02*
X137191904Y-97274047D01*
X137810952Y-97274047D01*
X138715714Y-97607380D02*
X138144285Y-97607380D01*
X138430000Y-97607380D02*
X138430000Y-96607380D01*
X138334761Y-96750238D01*
X138239523Y-96845476D01*
X138144285Y-96893095D01*
X139620476Y-96607380D02*
X139144285Y-96607380D01*
X139096666Y-97083571D01*
X139144285Y-97035952D01*
X139239523Y-96988333D01*
X139477619Y-96988333D01*
X139572857Y-97035952D01*
X139620476Y-97083571D01*
X139668095Y-97178809D01*
X139668095Y-97416904D01*
X139620476Y-97512142D01*
X139572857Y-97559761D01*
X139477619Y-97607380D01*
X139239523Y-97607380D01*
X139144285Y-97559761D01*
X139096666Y-97512142D01*
X140620476Y-97607380D02*
X140049047Y-97607380D01*
X140334761Y-97607380D02*
X140334761Y-96607380D01*
X140239523Y-96750238D01*
X140144285Y-96845476D01*
X140049047Y-96893095D01*
%TO.C,UM4*%
X148526666Y-85177380D02*
X148526666Y-85986904D01*
X148574285Y-86082142D01*
X148621904Y-86129761D01*
X148717142Y-86177380D01*
X148907619Y-86177380D01*
X149002857Y-86129761D01*
X149050476Y-86082142D01*
X149098095Y-85986904D01*
X149098095Y-85177380D01*
X149574285Y-86177380D02*
X149574285Y-85177380D01*
X149907619Y-85891666D01*
X150240952Y-85177380D01*
X150240952Y-86177380D01*
X151145714Y-85510714D02*
X151145714Y-86177380D01*
X150907619Y-85129761D02*
X150669523Y-85844047D01*
X151288571Y-85844047D01*
X147621904Y-96607380D02*
X148288571Y-96607380D01*
X147860000Y-97607380D01*
X149098095Y-96940714D02*
X149098095Y-97607380D01*
X148860000Y-96559761D02*
X148621904Y-97274047D01*
X149240952Y-97274047D01*
X150145714Y-97607380D02*
X149574285Y-97607380D01*
X149860000Y-97607380D02*
X149860000Y-96607380D01*
X149764761Y-96750238D01*
X149669523Y-96845476D01*
X149574285Y-96893095D01*
X151050476Y-96607380D02*
X150574285Y-96607380D01*
X150526666Y-97083571D01*
X150574285Y-97035952D01*
X150669523Y-96988333D01*
X150907619Y-96988333D01*
X151002857Y-97035952D01*
X151050476Y-97083571D01*
X151098095Y-97178809D01*
X151098095Y-97416904D01*
X151050476Y-97512142D01*
X151002857Y-97559761D01*
X150907619Y-97607380D01*
X150669523Y-97607380D01*
X150574285Y-97559761D01*
X150526666Y-97512142D01*
X152050476Y-97607380D02*
X151479047Y-97607380D01*
X151764761Y-97607380D02*
X151764761Y-96607380D01*
X151669523Y-96750238D01*
X151574285Y-96845476D01*
X151479047Y-96893095D01*
%TO.C,UM0*%
X102806666Y-85177380D02*
X102806666Y-85986904D01*
X102854285Y-86082142D01*
X102901904Y-86129761D01*
X102997142Y-86177380D01*
X103187619Y-86177380D01*
X103282857Y-86129761D01*
X103330476Y-86082142D01*
X103378095Y-85986904D01*
X103378095Y-85177380D01*
X103854285Y-86177380D02*
X103854285Y-85177380D01*
X104187619Y-85891666D01*
X104520952Y-85177380D01*
X104520952Y-86177380D01*
X105187619Y-85177380D02*
X105282857Y-85177380D01*
X105378095Y-85225000D01*
X105425714Y-85272619D01*
X105473333Y-85367857D01*
X105520952Y-85558333D01*
X105520952Y-85796428D01*
X105473333Y-85986904D01*
X105425714Y-86082142D01*
X105378095Y-86129761D01*
X105282857Y-86177380D01*
X105187619Y-86177380D01*
X105092380Y-86129761D01*
X105044761Y-86082142D01*
X104997142Y-85986904D01*
X104949523Y-85796428D01*
X104949523Y-85558333D01*
X104997142Y-85367857D01*
X105044761Y-85272619D01*
X105092380Y-85225000D01*
X105187619Y-85177380D01*
X102301904Y-96607380D02*
X102968571Y-96607380D01*
X102540000Y-97607380D01*
X103778095Y-96940714D02*
X103778095Y-97607380D01*
X103540000Y-96559761D02*
X103301904Y-97274047D01*
X103920952Y-97274047D01*
X104825714Y-97607380D02*
X104254285Y-97607380D01*
X104540000Y-97607380D02*
X104540000Y-96607380D01*
X104444761Y-96750238D01*
X104349523Y-96845476D01*
X104254285Y-96893095D01*
X105730476Y-96607380D02*
X105254285Y-96607380D01*
X105206666Y-97083571D01*
X105254285Y-97035952D01*
X105349523Y-96988333D01*
X105587619Y-96988333D01*
X105682857Y-97035952D01*
X105730476Y-97083571D01*
X105778095Y-97178809D01*
X105778095Y-97416904D01*
X105730476Y-97512142D01*
X105682857Y-97559761D01*
X105587619Y-97607380D01*
X105349523Y-97607380D01*
X105254285Y-97559761D01*
X105206666Y-97512142D01*
X106730476Y-97607380D02*
X106159047Y-97607380D01*
X106444761Y-97607380D02*
X106444761Y-96607380D01*
X106349523Y-96750238D01*
X106254285Y-96845476D01*
X106159047Y-96893095D01*
%TO.C,UR5*%
X133358095Y-69302380D02*
X133358095Y-70111904D01*
X133405714Y-70207142D01*
X133453333Y-70254761D01*
X133548571Y-70302380D01*
X133739047Y-70302380D01*
X133834285Y-70254761D01*
X133881904Y-70207142D01*
X133929523Y-70111904D01*
X133929523Y-69302380D01*
X134977142Y-70302380D02*
X134643809Y-69826190D01*
X134405714Y-70302380D02*
X134405714Y-69302380D01*
X134786666Y-69302380D01*
X134881904Y-69350000D01*
X134929523Y-69397619D01*
X134977142Y-69492857D01*
X134977142Y-69635714D01*
X134929523Y-69730952D01*
X134881904Y-69778571D01*
X134786666Y-69826190D01*
X134405714Y-69826190D01*
X135881904Y-69302380D02*
X135405714Y-69302380D01*
X135358095Y-69778571D01*
X135405714Y-69730952D01*
X135500952Y-69683333D01*
X135739047Y-69683333D01*
X135834285Y-69730952D01*
X135881904Y-69778571D01*
X135929523Y-69873809D01*
X135929523Y-70111904D01*
X135881904Y-70207142D01*
X135834285Y-70254761D01*
X135739047Y-70302380D01*
X135500952Y-70302380D01*
X135405714Y-70254761D01*
X135358095Y-70207142D01*
X131500952Y-81732380D02*
X132167619Y-81732380D01*
X131739047Y-82732380D01*
X132977142Y-82065714D02*
X132977142Y-82732380D01*
X132739047Y-81684761D02*
X132500952Y-82399047D01*
X133120000Y-82399047D01*
X133977142Y-82732380D02*
X133500952Y-82732380D01*
X133500952Y-81732380D01*
X134262857Y-82684761D02*
X134405714Y-82732380D01*
X134643809Y-82732380D01*
X134739047Y-82684761D01*
X134786666Y-82637142D01*
X134834285Y-82541904D01*
X134834285Y-82446666D01*
X134786666Y-82351428D01*
X134739047Y-82303809D01*
X134643809Y-82256190D01*
X134453333Y-82208571D01*
X134358095Y-82160952D01*
X134310476Y-82113333D01*
X134262857Y-82018095D01*
X134262857Y-81922857D01*
X134310476Y-81827619D01*
X134358095Y-81780000D01*
X134453333Y-81732380D01*
X134691428Y-81732380D01*
X134834285Y-81780000D01*
X135167619Y-81732380D02*
X135786666Y-81732380D01*
X135453333Y-82113333D01*
X135596190Y-82113333D01*
X135691428Y-82160952D01*
X135739047Y-82208571D01*
X135786666Y-82303809D01*
X135786666Y-82541904D01*
X135739047Y-82637142D01*
X135691428Y-82684761D01*
X135596190Y-82732380D01*
X135310476Y-82732380D01*
X135215238Y-82684761D01*
X135167619Y-82637142D01*
X136120000Y-81732380D02*
X136786666Y-81732380D01*
X136358095Y-82732380D01*
X137072380Y-81732380D02*
X137739047Y-81732380D01*
X137310476Y-82732380D01*
D11*
%TO.C,J4*%
X132970000Y-133925000D02*
X132970000Y-127925000D01*
X128650000Y-127925000D02*
X128650000Y-133925000D01*
X130430000Y-122327929D02*
X130430000Y-122782071D01*
X138810000Y-124867929D02*
X138810000Y-125265000D01*
X141350000Y-133925000D02*
X140590000Y-133925000D01*
X126110000Y-127925000D02*
X126110000Y-133925000D01*
X138050000Y-124867929D02*
X138050000Y-125265000D01*
X140970000Y-120015000D02*
X142240000Y-120015000D01*
X131190000Y-122327929D02*
X131190000Y-122782071D01*
X121860000Y-127925000D02*
X142300000Y-127925000D01*
X121860000Y-125265000D02*
X121860000Y-127925000D01*
X131190000Y-127925000D02*
X131190000Y-133925000D01*
X126110000Y-122327929D02*
X126110000Y-122782071D01*
X126110000Y-124867929D02*
X126110000Y-125265000D01*
X132080000Y-125265000D02*
X132080000Y-127925000D01*
X129540000Y-125265000D02*
X129540000Y-127925000D01*
X127890000Y-133925000D02*
X127890000Y-127925000D01*
X124460000Y-125265000D02*
X124460000Y-127925000D01*
X138050000Y-133925000D02*
X138050000Y-127925000D01*
X128650000Y-124867929D02*
X128650000Y-125265000D01*
X135510000Y-122327929D02*
X135510000Y-122782071D01*
X141350000Y-122395000D02*
X141350000Y-122782071D01*
X123570000Y-127925000D02*
X123570000Y-133925000D01*
X140590000Y-124867929D02*
X140590000Y-125265000D01*
X141350000Y-127925000D02*
X141350000Y-133925000D01*
X133730000Y-127925000D02*
X133730000Y-133925000D01*
X128650000Y-122327929D02*
X128650000Y-122782071D01*
X142300000Y-125265000D02*
X121860000Y-125265000D01*
X122810000Y-133925000D02*
X122810000Y-127925000D01*
X140810000Y-127925000D02*
X140810000Y-133925000D01*
X136270000Y-122327929D02*
X136270000Y-122782071D01*
X130430000Y-133925000D02*
X130430000Y-127925000D01*
X141170000Y-127925000D02*
X141170000Y-133925000D01*
X132970000Y-122327929D02*
X132970000Y-122782071D01*
X131190000Y-124867929D02*
X131190000Y-125265000D01*
X123570000Y-122327929D02*
X123570000Y-122782071D01*
X123570000Y-124867929D02*
X123570000Y-125265000D01*
X125350000Y-133925000D02*
X125350000Y-127925000D01*
X140690000Y-127925000D02*
X140690000Y-133925000D01*
X138810000Y-122327929D02*
X138810000Y-122782071D01*
X133730000Y-124867929D02*
X133730000Y-125265000D01*
X135510000Y-133925000D02*
X135510000Y-127925000D01*
X136270000Y-133925000D02*
X135510000Y-133925000D01*
X141050000Y-127925000D02*
X141050000Y-133925000D01*
X123570000Y-133925000D02*
X122810000Y-133925000D01*
X126110000Y-133925000D02*
X125350000Y-133925000D01*
X131190000Y-133925000D02*
X130430000Y-133925000D01*
X133730000Y-122327929D02*
X133730000Y-122782071D01*
X135510000Y-124867929D02*
X135510000Y-125265000D01*
X125350000Y-122327929D02*
X125350000Y-122782071D01*
X128650000Y-133925000D02*
X127890000Y-133925000D01*
X122810000Y-124867929D02*
X122810000Y-125265000D01*
X133730000Y-133925000D02*
X132970000Y-133925000D01*
X141290000Y-127925000D02*
X141290000Y-133925000D01*
X138810000Y-127925000D02*
X138810000Y-133925000D01*
X127000000Y-125265000D02*
X127000000Y-127925000D01*
X138810000Y-133925000D02*
X138050000Y-133925000D01*
X140590000Y-133925000D02*
X140590000Y-127925000D01*
X142300000Y-127925000D02*
X142300000Y-125265000D01*
X130430000Y-124867929D02*
X130430000Y-125265000D01*
X136270000Y-124867929D02*
X136270000Y-125265000D01*
X142240000Y-120015000D02*
X142240000Y-121285000D01*
X132970000Y-124867929D02*
X132970000Y-125265000D01*
X138050000Y-122327929D02*
X138050000Y-122782071D01*
X141350000Y-124867929D02*
X141350000Y-125265000D01*
X134620000Y-125265000D02*
X134620000Y-127925000D01*
X136270000Y-127925000D02*
X136270000Y-133925000D01*
X137160000Y-125265000D02*
X137160000Y-127925000D01*
X127890000Y-122327929D02*
X127890000Y-122782071D01*
X140930000Y-127925000D02*
X140930000Y-133925000D01*
X139700000Y-125265000D02*
X139700000Y-127925000D01*
X140590000Y-122395000D02*
X140590000Y-122782071D01*
X127890000Y-124867929D02*
X127890000Y-125265000D01*
X122810000Y-122327929D02*
X122810000Y-122782071D01*
X125350000Y-124867929D02*
X125350000Y-125265000D01*
%TO.C,J3*%
X148210000Y-124867929D02*
X148210000Y-125265000D01*
X145670000Y-122327929D02*
X145670000Y-122782071D01*
X150750000Y-124867929D02*
X150750000Y-125265000D01*
X163450000Y-122395000D02*
X163450000Y-122782071D01*
X162560000Y-125265000D02*
X162560000Y-127925000D01*
X163790000Y-127925000D02*
X163790000Y-133925000D01*
X150750000Y-122327929D02*
X150750000Y-122782071D01*
X160020000Y-125265000D02*
X160020000Y-127925000D01*
X159130000Y-127925000D02*
X159130000Y-133925000D01*
X157480000Y-125265000D02*
X157480000Y-127925000D01*
X164210000Y-124867929D02*
X164210000Y-125265000D01*
X160910000Y-122327929D02*
X160910000Y-122782071D01*
X155830000Y-124867929D02*
X155830000Y-125265000D01*
X165100000Y-120015000D02*
X165100000Y-121285000D01*
X159130000Y-124867929D02*
X159130000Y-125265000D01*
X153290000Y-124867929D02*
X153290000Y-125265000D01*
X165160000Y-127925000D02*
X165160000Y-125265000D01*
X163450000Y-133925000D02*
X163450000Y-127925000D01*
X161670000Y-133925000D02*
X160910000Y-133925000D01*
X149860000Y-125265000D02*
X149860000Y-127925000D01*
X161670000Y-127925000D02*
X161670000Y-133925000D01*
X164150000Y-127925000D02*
X164150000Y-133925000D01*
X156590000Y-133925000D02*
X155830000Y-133925000D01*
X145670000Y-124867929D02*
X145670000Y-125265000D01*
X151510000Y-133925000D02*
X150750000Y-133925000D01*
X148210000Y-122327929D02*
X148210000Y-122782071D01*
X158370000Y-124867929D02*
X158370000Y-125265000D01*
X156590000Y-122327929D02*
X156590000Y-122782071D01*
X154050000Y-133925000D02*
X153290000Y-133925000D01*
X148970000Y-133925000D02*
X148210000Y-133925000D01*
X146430000Y-133925000D02*
X145670000Y-133925000D01*
X163910000Y-127925000D02*
X163910000Y-133925000D01*
X159130000Y-133925000D02*
X158370000Y-133925000D01*
X158370000Y-133925000D02*
X158370000Y-127925000D01*
X156590000Y-124867929D02*
X156590000Y-125265000D01*
X161670000Y-122327929D02*
X161670000Y-122782071D01*
X163550000Y-127925000D02*
X163550000Y-133925000D01*
X148210000Y-133925000D02*
X148210000Y-127925000D01*
X146430000Y-124867929D02*
X146430000Y-125265000D01*
X146430000Y-122327929D02*
X146430000Y-122782071D01*
X154050000Y-124867929D02*
X154050000Y-125265000D01*
X155830000Y-122327929D02*
X155830000Y-122782071D01*
X164030000Y-127925000D02*
X164030000Y-133925000D01*
X153290000Y-133925000D02*
X153290000Y-127925000D01*
X159130000Y-122327929D02*
X159130000Y-122782071D01*
X163670000Y-127925000D02*
X163670000Y-133925000D01*
X145670000Y-133925000D02*
X145670000Y-127925000D01*
X165160000Y-125265000D02*
X144720000Y-125265000D01*
X151510000Y-122327929D02*
X151510000Y-122782071D01*
X156590000Y-127925000D02*
X156590000Y-133925000D01*
X164210000Y-127925000D02*
X164210000Y-133925000D01*
X163450000Y-124867929D02*
X163450000Y-125265000D01*
X146430000Y-127925000D02*
X146430000Y-133925000D01*
X164210000Y-122395000D02*
X164210000Y-122782071D01*
X158370000Y-122327929D02*
X158370000Y-122782071D01*
X151510000Y-124867929D02*
X151510000Y-125265000D01*
X160910000Y-133925000D02*
X160910000Y-127925000D01*
X147320000Y-125265000D02*
X147320000Y-127925000D01*
X150750000Y-133925000D02*
X150750000Y-127925000D01*
X152400000Y-125265000D02*
X152400000Y-127925000D01*
X154940000Y-125265000D02*
X154940000Y-127925000D01*
X148970000Y-124867929D02*
X148970000Y-125265000D01*
X148970000Y-122327929D02*
X148970000Y-122782071D01*
X154050000Y-127925000D02*
X154050000Y-133925000D01*
X144720000Y-125265000D02*
X144720000Y-127925000D01*
X144720000Y-127925000D02*
X165160000Y-127925000D01*
X154050000Y-122327929D02*
X154050000Y-122782071D01*
X163830000Y-120015000D02*
X165100000Y-120015000D01*
X160910000Y-124867929D02*
X160910000Y-125265000D01*
X148970000Y-127925000D02*
X148970000Y-133925000D01*
X164210000Y-133925000D02*
X163450000Y-133925000D01*
X161670000Y-124867929D02*
X161670000Y-125265000D01*
X153290000Y-122327929D02*
X153290000Y-122782071D01*
X151510000Y-127925000D02*
X151510000Y-133925000D01*
X155830000Y-133925000D02*
X155830000Y-127925000D01*
%TO.C,J2*%
X178690000Y-133925000D02*
X178690000Y-127925000D01*
X174370000Y-127925000D02*
X174370000Y-133925000D01*
X176150000Y-122327929D02*
X176150000Y-122782071D01*
X184530000Y-124867929D02*
X184530000Y-125265000D01*
X187070000Y-133925000D02*
X186310000Y-133925000D01*
X171830000Y-127925000D02*
X171830000Y-133925000D01*
X183770000Y-124867929D02*
X183770000Y-125265000D01*
X186690000Y-120015000D02*
X187960000Y-120015000D01*
X176910000Y-122327929D02*
X176910000Y-122782071D01*
X167580000Y-127925000D02*
X188020000Y-127925000D01*
X167580000Y-125265000D02*
X167580000Y-127925000D01*
X176910000Y-127925000D02*
X176910000Y-133925000D01*
X171830000Y-122327929D02*
X171830000Y-122782071D01*
X171830000Y-124867929D02*
X171830000Y-125265000D01*
X177800000Y-125265000D02*
X177800000Y-127925000D01*
X175260000Y-125265000D02*
X175260000Y-127925000D01*
X173610000Y-133925000D02*
X173610000Y-127925000D01*
X170180000Y-125265000D02*
X170180000Y-127925000D01*
X183770000Y-133925000D02*
X183770000Y-127925000D01*
X174370000Y-124867929D02*
X174370000Y-125265000D01*
X181230000Y-122327929D02*
X181230000Y-122782071D01*
X187070000Y-122395000D02*
X187070000Y-122782071D01*
X169290000Y-127925000D02*
X169290000Y-133925000D01*
X186310000Y-124867929D02*
X186310000Y-125265000D01*
X187070000Y-127925000D02*
X187070000Y-133925000D01*
X179450000Y-127925000D02*
X179450000Y-133925000D01*
X174370000Y-122327929D02*
X174370000Y-122782071D01*
X188020000Y-125265000D02*
X167580000Y-125265000D01*
X168530000Y-133925000D02*
X168530000Y-127925000D01*
X186530000Y-127925000D02*
X186530000Y-133925000D01*
X181990000Y-122327929D02*
X181990000Y-122782071D01*
X176150000Y-133925000D02*
X176150000Y-127925000D01*
X186890000Y-127925000D02*
X186890000Y-133925000D01*
X178690000Y-122327929D02*
X178690000Y-122782071D01*
X176910000Y-124867929D02*
X176910000Y-125265000D01*
X169290000Y-122327929D02*
X169290000Y-122782071D01*
X169290000Y-124867929D02*
X169290000Y-125265000D01*
X171070000Y-133925000D02*
X171070000Y-127925000D01*
X186410000Y-127925000D02*
X186410000Y-133925000D01*
X184530000Y-122327929D02*
X184530000Y-122782071D01*
X179450000Y-124867929D02*
X179450000Y-125265000D01*
X181230000Y-133925000D02*
X181230000Y-127925000D01*
X181990000Y-133925000D02*
X181230000Y-133925000D01*
X186770000Y-127925000D02*
X186770000Y-133925000D01*
X169290000Y-133925000D02*
X168530000Y-133925000D01*
X171830000Y-133925000D02*
X171070000Y-133925000D01*
X176910000Y-133925000D02*
X176150000Y-133925000D01*
X179450000Y-122327929D02*
X179450000Y-122782071D01*
X181230000Y-124867929D02*
X181230000Y-125265000D01*
X171070000Y-122327929D02*
X171070000Y-122782071D01*
X174370000Y-133925000D02*
X173610000Y-133925000D01*
X168530000Y-124867929D02*
X168530000Y-125265000D01*
X179450000Y-133925000D02*
X178690000Y-133925000D01*
X187010000Y-127925000D02*
X187010000Y-133925000D01*
X184530000Y-127925000D02*
X184530000Y-133925000D01*
X172720000Y-125265000D02*
X172720000Y-127925000D01*
X184530000Y-133925000D02*
X183770000Y-133925000D01*
X186310000Y-133925000D02*
X186310000Y-127925000D01*
X188020000Y-127925000D02*
X188020000Y-125265000D01*
X176150000Y-124867929D02*
X176150000Y-125265000D01*
X181990000Y-124867929D02*
X181990000Y-125265000D01*
X187960000Y-120015000D02*
X187960000Y-121285000D01*
X178690000Y-124867929D02*
X178690000Y-125265000D01*
X183770000Y-122327929D02*
X183770000Y-122782071D01*
X187070000Y-124867929D02*
X187070000Y-125265000D01*
X180340000Y-125265000D02*
X180340000Y-127925000D01*
X181990000Y-127925000D02*
X181990000Y-133925000D01*
X182880000Y-125265000D02*
X182880000Y-127925000D01*
X173610000Y-122327929D02*
X173610000Y-122782071D01*
X186650000Y-127925000D02*
X186650000Y-133925000D01*
X185420000Y-125265000D02*
X185420000Y-127925000D01*
X186310000Y-122395000D02*
X186310000Y-122782071D01*
X173610000Y-124867929D02*
X173610000Y-125265000D01*
X168530000Y-122327929D02*
X168530000Y-122782071D01*
X171070000Y-124867929D02*
X171070000Y-125265000D01*
%TO.C,J1*%
X110110000Y-133925000D02*
X110110000Y-127925000D01*
X105790000Y-127925000D02*
X105790000Y-133925000D01*
X107570000Y-122327929D02*
X107570000Y-122782071D01*
X115950000Y-124867929D02*
X115950000Y-125265000D01*
X118490000Y-133925000D02*
X117730000Y-133925000D01*
X103250000Y-127925000D02*
X103250000Y-133925000D01*
X115190000Y-124867929D02*
X115190000Y-125265000D01*
X118110000Y-120015000D02*
X119380000Y-120015000D01*
X108330000Y-122327929D02*
X108330000Y-122782071D01*
X99000000Y-127925000D02*
X119440000Y-127925000D01*
X99000000Y-125265000D02*
X99000000Y-127925000D01*
X108330000Y-127925000D02*
X108330000Y-133925000D01*
X103250000Y-122327929D02*
X103250000Y-122782071D01*
X103250000Y-124867929D02*
X103250000Y-125265000D01*
X109220000Y-125265000D02*
X109220000Y-127925000D01*
X106680000Y-125265000D02*
X106680000Y-127925000D01*
X105030000Y-133925000D02*
X105030000Y-127925000D01*
X101600000Y-125265000D02*
X101600000Y-127925000D01*
X115190000Y-133925000D02*
X115190000Y-127925000D01*
X105790000Y-124867929D02*
X105790000Y-125265000D01*
X112650000Y-122327929D02*
X112650000Y-122782071D01*
X118490000Y-122395000D02*
X118490000Y-122782071D01*
X100710000Y-127925000D02*
X100710000Y-133925000D01*
X117730000Y-124867929D02*
X117730000Y-125265000D01*
X118490000Y-127925000D02*
X118490000Y-133925000D01*
X110870000Y-127925000D02*
X110870000Y-133925000D01*
X105790000Y-122327929D02*
X105790000Y-122782071D01*
X119440000Y-125265000D02*
X99000000Y-125265000D01*
X99950000Y-133925000D02*
X99950000Y-127925000D01*
X117950000Y-127925000D02*
X117950000Y-133925000D01*
X113410000Y-122327929D02*
X113410000Y-122782071D01*
X107570000Y-133925000D02*
X107570000Y-127925000D01*
X118310000Y-127925000D02*
X118310000Y-133925000D01*
X110110000Y-122327929D02*
X110110000Y-122782071D01*
X108330000Y-124867929D02*
X108330000Y-125265000D01*
X100710000Y-122327929D02*
X100710000Y-122782071D01*
X100710000Y-124867929D02*
X100710000Y-125265000D01*
X102490000Y-133925000D02*
X102490000Y-127925000D01*
X117830000Y-127925000D02*
X117830000Y-133925000D01*
X115950000Y-122327929D02*
X115950000Y-122782071D01*
X110870000Y-124867929D02*
X110870000Y-125265000D01*
X112650000Y-133925000D02*
X112650000Y-127925000D01*
X113410000Y-133925000D02*
X112650000Y-133925000D01*
X118190000Y-127925000D02*
X118190000Y-133925000D01*
X100710000Y-133925000D02*
X99950000Y-133925000D01*
X103250000Y-133925000D02*
X102490000Y-133925000D01*
X108330000Y-133925000D02*
X107570000Y-133925000D01*
X110870000Y-122327929D02*
X110870000Y-122782071D01*
X112650000Y-124867929D02*
X112650000Y-125265000D01*
X102490000Y-122327929D02*
X102490000Y-122782071D01*
X105790000Y-133925000D02*
X105030000Y-133925000D01*
X99950000Y-124867929D02*
X99950000Y-125265000D01*
X110870000Y-133925000D02*
X110110000Y-133925000D01*
X118430000Y-127925000D02*
X118430000Y-133925000D01*
X115950000Y-127925000D02*
X115950000Y-133925000D01*
X104140000Y-125265000D02*
X104140000Y-127925000D01*
X115950000Y-133925000D02*
X115190000Y-133925000D01*
X117730000Y-133925000D02*
X117730000Y-127925000D01*
X119440000Y-127925000D02*
X119440000Y-125265000D01*
X107570000Y-124867929D02*
X107570000Y-125265000D01*
X113410000Y-124867929D02*
X113410000Y-125265000D01*
X119380000Y-120015000D02*
X119380000Y-121285000D01*
X110110000Y-124867929D02*
X110110000Y-125265000D01*
X115190000Y-122327929D02*
X115190000Y-122782071D01*
X118490000Y-124867929D02*
X118490000Y-125265000D01*
X111760000Y-125265000D02*
X111760000Y-127925000D01*
X113410000Y-127925000D02*
X113410000Y-133925000D01*
X114300000Y-125265000D02*
X114300000Y-127925000D01*
X105030000Y-122327929D02*
X105030000Y-122782071D01*
X118070000Y-127925000D02*
X118070000Y-133925000D01*
X116840000Y-125265000D02*
X116840000Y-127925000D01*
X117730000Y-122395000D02*
X117730000Y-122782071D01*
X105030000Y-124867929D02*
X105030000Y-125265000D01*
X99950000Y-122327929D02*
X99950000Y-122782071D01*
X102490000Y-124867929D02*
X102490000Y-125265000D01*
%TO.C,UR7*%
X166420000Y-81440000D02*
X166420000Y-81205000D01*
X162560000Y-81440000D02*
X166420000Y-81440000D01*
X158700000Y-68655000D02*
X156885000Y-68655000D01*
X158700000Y-81440000D02*
X158700000Y-81205000D01*
X158700000Y-68420000D02*
X158700000Y-68655000D01*
X162560000Y-81440000D02*
X158700000Y-81440000D01*
X162560000Y-68420000D02*
X158700000Y-68420000D01*
X162560000Y-68420000D02*
X166420000Y-68420000D01*
X166420000Y-68420000D02*
X166420000Y-68655000D01*
%TO.C,UM7*%
X179705000Y-95890000D02*
X178905000Y-95090000D01*
X189395000Y-86990000D02*
X189395000Y-95890000D01*
X189395000Y-95890000D02*
X179705000Y-95890000D01*
X178905000Y-86990000D02*
X189395000Y-86990000D01*
X178905000Y-95090000D02*
X178905000Y-86990000D01*
%TO.C,UM2*%
X132245000Y-86990000D02*
X132245000Y-95890000D01*
X121755000Y-86990000D02*
X132245000Y-86990000D01*
X122555000Y-95890000D02*
X121755000Y-95090000D01*
X132245000Y-95890000D02*
X122555000Y-95890000D01*
X121755000Y-95090000D02*
X121755000Y-86990000D01*
%TO.C,UR0*%
X175310000Y-114460000D02*
X175310000Y-114225000D01*
X171450000Y-101440000D02*
X175310000Y-101440000D01*
X167590000Y-101675000D02*
X165775000Y-101675000D01*
X167590000Y-101440000D02*
X167590000Y-101675000D01*
X167590000Y-114460000D02*
X167590000Y-114225000D01*
X171450000Y-114460000D02*
X175310000Y-114460000D01*
X171450000Y-114460000D02*
X167590000Y-114460000D01*
X171450000Y-101440000D02*
X167590000Y-101440000D01*
X175310000Y-101440000D02*
X175310000Y-101675000D01*
%TO.C,UM1*%
X111125000Y-95890000D02*
X110325000Y-95090000D01*
X110325000Y-86990000D02*
X120815000Y-86990000D01*
X110325000Y-95090000D02*
X110325000Y-86990000D01*
X120815000Y-86990000D02*
X120815000Y-95890000D01*
X120815000Y-95890000D02*
X111125000Y-95890000D01*
%TO.C,UR3*%
X125780000Y-101440000D02*
X125780000Y-101675000D01*
X121920000Y-114460000D02*
X125780000Y-114460000D01*
X125780000Y-114460000D02*
X125780000Y-114225000D01*
X118060000Y-101440000D02*
X118060000Y-101675000D01*
X121920000Y-114460000D02*
X118060000Y-114460000D01*
X118060000Y-114460000D02*
X118060000Y-114225000D01*
X118060000Y-101675000D02*
X116245000Y-101675000D01*
X121920000Y-101440000D02*
X118060000Y-101440000D01*
X121920000Y-101440000D02*
X125780000Y-101440000D01*
%TO.C,UM6*%
X177965000Y-86990000D02*
X177965000Y-95890000D01*
X168275000Y-95890000D02*
X167475000Y-95090000D01*
X167475000Y-95090000D02*
X167475000Y-86990000D01*
X167475000Y-86990000D02*
X177965000Y-86990000D01*
X177965000Y-95890000D02*
X168275000Y-95890000D01*
%TO.C,UR2*%
X134570000Y-101440000D02*
X134570000Y-101675000D01*
X142290000Y-114460000D02*
X142290000Y-114225000D01*
X138430000Y-101440000D02*
X134570000Y-101440000D01*
X138430000Y-101440000D02*
X142290000Y-101440000D01*
X142290000Y-101440000D02*
X142290000Y-101675000D01*
X134570000Y-101675000D02*
X132755000Y-101675000D01*
X138430000Y-114460000D02*
X134570000Y-114460000D01*
X138430000Y-114460000D02*
X142290000Y-114460000D01*
X134570000Y-114460000D02*
X134570000Y-114225000D01*
%TO.C,UR6*%
X152450000Y-81440000D02*
X152450000Y-81205000D01*
X148590000Y-68420000D02*
X144730000Y-68420000D01*
X144730000Y-81440000D02*
X144730000Y-81205000D01*
X152450000Y-68420000D02*
X152450000Y-68655000D01*
X148590000Y-81440000D02*
X152450000Y-81440000D01*
X144730000Y-68420000D02*
X144730000Y-68655000D01*
X148590000Y-81440000D02*
X144730000Y-81440000D01*
X148590000Y-68420000D02*
X152450000Y-68420000D01*
X144730000Y-68655000D02*
X142915000Y-68655000D01*
%TO.C,U1*%
X104140000Y-111130000D02*
X103340000Y-110330000D01*
X113830000Y-102230000D02*
X113830000Y-111130000D01*
X103340000Y-102230000D02*
X113830000Y-102230000D01*
X113830000Y-111130000D02*
X104140000Y-111130000D01*
X103340000Y-110330000D02*
X103340000Y-102230000D01*
%TO.C,UR1*%
X154940000Y-101440000D02*
X151080000Y-101440000D01*
X154940000Y-114460000D02*
X151080000Y-114460000D01*
X151080000Y-114460000D02*
X151080000Y-114225000D01*
X154940000Y-101440000D02*
X158800000Y-101440000D01*
X151080000Y-101440000D02*
X151080000Y-101675000D01*
X154940000Y-114460000D02*
X158800000Y-114460000D01*
X158800000Y-101440000D02*
X158800000Y-101675000D01*
X151080000Y-101675000D02*
X149265000Y-101675000D01*
X158800000Y-114460000D02*
X158800000Y-114225000D01*
%TO.C,UR4*%
X118060000Y-68420000D02*
X118060000Y-68655000D01*
X118060000Y-81440000D02*
X118060000Y-81205000D01*
X125780000Y-68420000D02*
X125780000Y-68655000D01*
X121920000Y-68420000D02*
X125780000Y-68420000D01*
X121920000Y-81440000D02*
X118060000Y-81440000D01*
X125780000Y-81440000D02*
X125780000Y-81205000D01*
X118060000Y-68655000D02*
X116245000Y-68655000D01*
X121920000Y-68420000D02*
X118060000Y-68420000D01*
X121920000Y-81440000D02*
X125780000Y-81440000D01*
%TO.C,UM5*%
X166535000Y-95890000D02*
X156845000Y-95890000D01*
X156045000Y-86990000D02*
X166535000Y-86990000D01*
X166535000Y-86990000D02*
X166535000Y-95890000D01*
X156845000Y-95890000D02*
X156045000Y-95090000D01*
X156045000Y-95090000D02*
X156045000Y-86990000D01*
%TO.C,UM3*%
X133185000Y-86990000D02*
X143675000Y-86990000D01*
X133985000Y-95890000D02*
X133185000Y-95090000D01*
X143675000Y-95890000D02*
X133985000Y-95890000D01*
X143675000Y-86990000D02*
X143675000Y-95890000D01*
X133185000Y-95090000D02*
X133185000Y-86990000D01*
%TO.C,UM4*%
X155105000Y-86990000D02*
X155105000Y-95890000D01*
X144615000Y-95090000D02*
X144615000Y-86990000D01*
X145415000Y-95890000D02*
X144615000Y-95090000D01*
X144615000Y-86990000D02*
X155105000Y-86990000D01*
X155105000Y-95890000D02*
X145415000Y-95890000D01*
%TO.C,UM0*%
X109385000Y-95890000D02*
X99695000Y-95890000D01*
X99695000Y-95890000D02*
X98895000Y-95090000D01*
X98895000Y-95090000D02*
X98895000Y-86990000D01*
X98895000Y-86990000D02*
X109385000Y-86990000D01*
X109385000Y-86990000D02*
X109385000Y-95890000D01*
%TO.C,UR5*%
X134620000Y-81440000D02*
X130760000Y-81440000D01*
X130760000Y-81440000D02*
X130760000Y-81205000D01*
X130760000Y-68655000D02*
X128945000Y-68655000D01*
X134620000Y-68420000D02*
X138480000Y-68420000D01*
X138480000Y-81440000D02*
X138480000Y-81205000D01*
X130760000Y-68420000D02*
X130760000Y-68655000D01*
X134620000Y-68420000D02*
X130760000Y-68420000D01*
X138480000Y-68420000D02*
X138480000Y-68655000D01*
X134620000Y-81440000D02*
X138480000Y-81440000D01*
%TD*%
M02*
