%TF.GenerationSoftware,KiCad,Pcbnew,6.0.6-3a73a75311~116~ubuntu20.04.1*%
%TF.CreationDate,2022-06-25T17:28:11-07:00*%
%TF.ProjectId,RegisterFile,52656769-7374-4657-9246-696c652e6b69,rev?*%
%TF.SameCoordinates,Original*%
%TF.FileFunction,Soldermask,Bot*%
%TF.FilePolarity,Negative*%
%FSLAX46Y46*%
G04 Gerber Fmt 4.6, Leading zero omitted, Abs format (unit mm)*
G04 Created by KiCad (PCBNEW 6.0.6-3a73a75311~116~ubuntu20.04.1) date 2022-06-25 17:28:11*
%MOMM*%
%LPD*%
G01*
G04 APERTURE LIST*
G04 Aperture macros list*
%AMRoundRect*
0 Rectangle with rounded corners*
0 $1 Rounding radius*
0 $2 $3 $4 $5 $6 $7 $8 $9 X,Y pos of 4 corners*
0 Add a 4 corners polygon primitive as box body*
4,1,4,$2,$3,$4,$5,$6,$7,$8,$9,$2,$3,0*
0 Add four circle primitives for the rounded corners*
1,1,$1+$1,$2,$3*
1,1,$1+$1,$4,$5*
1,1,$1+$1,$6,$7*
1,1,$1+$1,$8,$9*
0 Add four rect primitives between the rounded corners*
20,1,$1+$1,$2,$3,$4,$5,0*
20,1,$1+$1,$4,$5,$6,$7,0*
20,1,$1+$1,$6,$7,$8,$9,0*
20,1,$1+$1,$8,$9,$2,$3,0*%
G04 Aperture macros list end*
%ADD10R,1.700000X1.700000*%
%ADD11O,1.700000X1.700000*%
%ADD12RoundRect,0.250000X-0.412500X-0.650000X0.412500X-0.650000X0.412500X0.650000X-0.412500X0.650000X0*%
%ADD13RoundRect,0.250000X-0.650000X0.412500X-0.650000X-0.412500X0.650000X-0.412500X0.650000X0.412500X0*%
%ADD14RoundRect,0.250000X0.412500X0.650000X-0.412500X0.650000X-0.412500X-0.650000X0.412500X-0.650000X0*%
G04 APERTURE END LIST*
D10*
%TO.C,J4*%
X140970000Y-121285000D03*
D11*
X140970000Y-123825000D03*
X138430000Y-121285000D03*
X138430000Y-123825000D03*
X135890000Y-121285000D03*
X135890000Y-123825000D03*
X133350000Y-121285000D03*
X133350000Y-123825000D03*
X130810000Y-121285000D03*
X130810000Y-123825000D03*
X128270000Y-121285000D03*
X128270000Y-123825000D03*
X125730000Y-121285000D03*
X125730000Y-123825000D03*
X123190000Y-121285000D03*
X123190000Y-123825000D03*
%TD*%
%TO.C,J3*%
X146050000Y-123825000D03*
X146050000Y-121285000D03*
X148590000Y-123825000D03*
X148590000Y-121285000D03*
X151130000Y-123825000D03*
X151130000Y-121285000D03*
X153670000Y-123825000D03*
X153670000Y-121285000D03*
X156210000Y-123825000D03*
X156210000Y-121285000D03*
X158750000Y-123825000D03*
X158750000Y-121285000D03*
X161290000Y-123825000D03*
X161290000Y-121285000D03*
X163830000Y-123825000D03*
D10*
X163830000Y-121285000D03*
%TD*%
%TO.C,J2*%
X186690000Y-121285000D03*
D11*
X186690000Y-123825000D03*
X184150000Y-121285000D03*
X184150000Y-123825000D03*
X181610000Y-121285000D03*
X181610000Y-123825000D03*
X179070000Y-121285000D03*
X179070000Y-123825000D03*
X176530000Y-121285000D03*
X176530000Y-123825000D03*
X173990000Y-121285000D03*
X173990000Y-123825000D03*
X171450000Y-121285000D03*
X171450000Y-123825000D03*
X168910000Y-121285000D03*
X168910000Y-123825000D03*
%TD*%
D10*
%TO.C,J1*%
X118110000Y-121285000D03*
D11*
X118110000Y-123825000D03*
X115570000Y-121285000D03*
X115570000Y-123825000D03*
X113030000Y-121285000D03*
X113030000Y-123825000D03*
X110490000Y-121285000D03*
X110490000Y-123825000D03*
X107950000Y-121285000D03*
X107950000Y-123825000D03*
X105410000Y-121285000D03*
X105410000Y-123825000D03*
X102870000Y-121285000D03*
X102870000Y-123825000D03*
X100330000Y-121285000D03*
X100330000Y-123825000D03*
%TD*%
D12*
%TO.C,C6*%
X158115000Y-88900000D03*
X161240000Y-88900000D03*
%TD*%
D13*
%TO.C,C13*%
X124460000Y-69557500D03*
X124460000Y-72682500D03*
%TD*%
D12*
%TO.C,C3*%
X123825000Y-88900000D03*
X126950000Y-88900000D03*
%TD*%
%TO.C,C4*%
X135255000Y-88900000D03*
X138380000Y-88900000D03*
%TD*%
%TO.C,C5*%
X146685000Y-88900000D03*
X149810000Y-88900000D03*
%TD*%
%TO.C,C19*%
X114935000Y-118745000D03*
X118060000Y-118745000D03*
%TD*%
D13*
%TO.C,C14*%
X137160000Y-69557500D03*
X137160000Y-72682500D03*
%TD*%
D12*
%TO.C,C1*%
X100965000Y-88900000D03*
X104090000Y-88900000D03*
%TD*%
%TO.C,C2*%
X112395000Y-88900000D03*
X115520000Y-88900000D03*
%TD*%
D14*
%TO.C,C18*%
X103162500Y-118745000D03*
X100037500Y-118745000D03*
%TD*%
D13*
%TO.C,C11*%
X157480000Y-102577500D03*
X157480000Y-105702500D03*
%TD*%
D12*
%TO.C,C7*%
X169545000Y-88900000D03*
X172670000Y-88900000D03*
%TD*%
D13*
%TO.C,C9*%
X124460000Y-102577500D03*
X124460000Y-105702500D03*
%TD*%
D12*
%TO.C,C8*%
X180975000Y-88900000D03*
X184100000Y-88900000D03*
%TD*%
D13*
%TO.C,C12*%
X173990000Y-102577500D03*
X173990000Y-105702500D03*
%TD*%
%TO.C,C16*%
X165100000Y-69557500D03*
X165100000Y-72682500D03*
%TD*%
%TO.C,C15*%
X151130000Y-69557500D03*
X151130000Y-72682500D03*
%TD*%
%TO.C,C10*%
X140970000Y-102577500D03*
X140970000Y-105702500D03*
%TD*%
D12*
%TO.C,C17*%
X104482500Y-104140000D03*
X107607500Y-104140000D03*
%TD*%
M02*
